<svg width="272" height="68" viewBox="0 0 272 68" fill="none" xmlns="http://www.w3.org/2000/svg">
<path d="M179.94 24.3965V32.5312C179.94 36.4277 179.553 39.7546 178.778 42.5117C178.026 45.2461 176.932 47.4678 175.497 49.1768C174.061 50.8857 172.341 52.139 170.335 52.9365C168.353 53.734 166.131 54.1328 163.67 54.1328C161.711 54.1328 159.888 53.8822 158.202 53.3809C156.538 52.8796 155.034 52.0934 153.69 51.0225C152.346 49.9515 151.195 48.5729 150.238 46.8867C149.304 45.1777 148.574 43.1383 148.05 40.7686C147.549 38.3988 147.298 35.653 147.298 32.5312V24.3965C147.298 20.4772 147.686 17.1732 148.46 14.4844C149.235 11.7728 150.34 9.57389 151.776 7.8877C153.211 6.17871 154.92 4.93685 156.903 4.16211C158.908 3.38737 161.141 3 163.602 3C165.584 3 167.407 3.25065 169.071 3.75195C170.757 4.23047 172.261 4.99382 173.583 6.04199C174.927 7.09017 176.066 8.45736 177 10.1436C177.958 11.807 178.687 13.8236 179.188 16.1934C179.689 18.5404 179.94 21.2747 179.94 24.3965ZM171.703 33.6934V23.166C171.703 21.1836 171.589 19.4404 171.361 17.9365C171.133 16.4098 170.791 15.1224 170.335 14.0742C169.903 13.0033 169.356 12.1374 168.695 11.4766C168.034 10.793 167.282 10.3031 166.439 10.0068C165.596 9.68783 164.65 9.52832 163.602 9.52832C162.326 9.52832 161.187 9.77897 160.184 10.2803C159.181 10.7588 158.338 11.5335 157.655 12.6045C156.971 13.6755 156.447 15.0882 156.083 16.8428C155.741 18.5745 155.57 20.6823 155.57 23.166V33.6934C155.57 35.6986 155.684 37.4645 155.912 38.9912C156.139 40.5179 156.481 41.8281 156.937 42.9219C157.393 43.9928 157.94 44.8815 158.578 45.5879C159.238 46.2715 159.99 46.7728 160.833 47.0918C161.699 47.4108 162.645 47.5703 163.67 47.5703C164.969 47.5703 166.12 47.3197 167.123 46.8184C168.125 46.3171 168.968 45.5195 169.652 44.4258C170.335 43.3092 170.848 41.8623 171.19 40.085C171.532 38.3076 171.703 36.1771 171.703 33.6934Z" fill="#FFA101"/>
<path d="M138.055 24.3965V32.5312C138.055 36.4277 137.667 39.7546 136.893 42.5117C136.141 45.2461 135.047 47.4678 133.611 49.1768C132.176 50.8857 130.455 52.139 128.45 52.9365C126.468 53.734 124.246 54.1328 121.785 54.1328C119.826 54.1328 118.003 53.8822 116.316 53.3809C114.653 52.8796 113.149 52.0934 111.805 51.0225C110.46 49.9515 109.31 48.5729 108.353 46.8867C107.418 45.1777 106.689 43.1383 106.165 40.7686C105.664 38.3988 105.413 35.653 105.413 32.5312V24.3965C105.413 20.4772 105.8 17.1732 106.575 14.4844C107.35 11.7728 108.455 9.57389 109.891 7.8877C111.326 6.17871 113.035 4.93685 115.018 4.16211C117.023 3.38737 119.256 3 121.717 3C123.699 3 125.522 3.25065 127.186 3.75195C128.872 4.23047 130.376 4.99382 131.697 6.04199C133.042 7.09017 134.181 8.45736 135.115 10.1436C136.072 11.807 136.801 13.8236 137.303 16.1934C137.804 18.5404 138.055 21.2747 138.055 24.3965ZM129.817 33.6934V23.166C129.817 21.1836 129.703 19.4404 129.476 17.9365C129.248 16.4098 128.906 15.1224 128.45 14.0742C128.017 13.0033 127.47 12.1374 126.81 11.4766C126.149 10.793 125.397 10.3031 124.554 10.0068C123.711 9.68783 122.765 9.52832 121.717 9.52832C120.441 9.52832 119.301 9.77897 118.299 10.2803C117.296 10.7588 116.453 11.5335 115.77 12.6045C115.086 13.6755 114.562 15.0882 114.197 16.8428C113.855 18.5745 113.685 20.6823 113.685 23.166V33.6934C113.685 35.6986 113.799 37.4645 114.026 38.9912C114.254 40.5179 114.596 41.8281 115.052 42.9219C115.507 43.9928 116.054 44.8815 116.692 45.5879C117.353 46.2715 118.105 46.7728 118.948 47.0918C119.814 47.4108 120.76 47.5703 121.785 47.5703C123.084 47.5703 124.235 47.3197 125.237 46.8184C126.24 46.3171 127.083 45.5195 127.767 44.4258C128.45 43.3092 128.963 41.8623 129.305 40.085C129.646 38.3076 129.817 36.1771 129.817 33.6934Z" fill="#FFA101"/>
<path d="M96.1699 24.3965V32.5312C96.1699 36.4277 95.7825 39.7546 95.0078 42.5117C94.2559 45.2461 93.1621 47.4678 91.7266 49.1768C90.291 50.8857 88.5706 52.139 86.5654 52.9365C84.583 53.734 82.3613 54.1328 79.9004 54.1328C77.9408 54.1328 76.1178 53.8822 74.4316 53.3809C72.7682 52.8796 71.2643 52.0934 69.9199 51.0225C68.5755 49.9515 67.4248 48.5729 66.4678 46.8867C65.5335 45.1777 64.8044 43.1383 64.2803 40.7686C63.779 38.3988 63.5283 35.653 63.5283 32.5312V24.3965C63.5283 20.4772 63.9157 17.1732 64.6904 14.4844C65.4652 11.7728 66.5703 9.57389 68.0059 7.8877C69.4414 6.17871 71.1504 4.93685 73.1328 4.16211C75.138 3.38737 77.3711 3 79.832 3C81.8144 3 83.6374 3.25065 85.3008 3.75195C86.987 4.23047 88.4909 4.99382 89.8125 6.04199C91.1569 7.09017 92.2962 8.45736 93.2305 10.1436C94.1875 11.807 94.9167 13.8236 95.418 16.1934C95.9193 18.5404 96.1699 21.2747 96.1699 24.3965ZM87.9326 33.6934V23.166C87.9326 21.1836 87.8187 19.4404 87.5908 17.9365C87.363 16.4098 87.0212 15.1224 86.5654 14.0742C86.1325 13.0033 85.5856 12.1374 84.9248 11.4766C84.264 10.793 83.512 10.3031 82.6689 10.0068C81.8258 9.68783 80.8802 9.52832 79.832 9.52832C78.556 9.52832 77.4167 9.77897 76.4141 10.2803C75.4115 10.7588 74.5684 11.5335 73.8848 12.6045C73.2012 13.6755 72.6771 15.0882 72.3125 16.8428C71.9707 18.5745 71.7998 20.6823 71.7998 23.166V33.6934C71.7998 35.6986 71.9137 37.4645 72.1416 38.9912C72.3695 40.5179 72.7113 41.8281 73.167 42.9219C73.6227 43.9928 74.1696 44.8815 74.8076 45.5879C75.4684 46.2715 76.2204 46.7728 77.0635 47.0918C77.9294 47.4108 78.875 47.5703 79.9004 47.5703C81.1992 47.5703 82.3499 47.3197 83.3525 46.8184C84.3551 46.3171 85.1982 45.5195 85.8818 44.4258C86.5654 43.3092 87.0781 41.8623 87.4199 40.085C87.7617 38.3076 87.9326 36.1771 87.9326 33.6934Z" fill="#FFA101"/>
<path d="M54.1821 45.5195L54.1479 51.3984C54.1479 53.7227 53.5669 56.1152 52.4048 58.5762C51.2427 61.0371 49.7046 63.0651 47.7905 64.6602L43.3813 62.0967C44.0194 61.0713 44.6004 60.0345 45.1245 58.9863C45.6486 57.9382 46.0701 56.8216 46.3892 55.6367C46.7082 54.4518 46.8677 53.1416 46.8677 51.7061V45.5195H54.1821Z" fill="#FFA101"/>
<path d="M13.7666 24.8408H18.6885C20.6025 24.8408 22.1862 24.5104 23.4395 23.8496C24.7155 23.1888 25.6611 22.2773 26.2764 21.1152C26.8916 19.9531 27.1992 18.6201 27.1992 17.1162C27.1992 15.5439 26.9144 14.1995 26.3447 13.083C25.7979 11.9437 24.9548 11.0664 23.8154 10.4512C22.6989 9.83594 21.2747 9.52832 19.543 9.52832C18.0846 9.52832 16.763 9.82454 15.5781 10.417C14.416 10.9867 13.4932 11.807 12.8096 12.8779C12.126 13.9261 11.7842 15.1794 11.7842 16.6377H3.5127C3.5127 13.9945 4.20768 11.6475 5.59766 9.59668C6.98763 7.5459 8.87891 5.93945 11.2715 4.77734C13.6868 3.59245 16.3984 3 19.4062 3C22.6191 3 25.4219 3.53548 27.8145 4.60645C30.2298 5.65462 32.1097 7.22689 33.4541 9.32324C34.7985 11.4196 35.4707 14.0173 35.4707 17.1162C35.4707 18.529 35.1403 19.9645 34.4795 21.4229C33.8187 22.8812 32.8389 24.2142 31.54 25.4219C30.2412 26.6068 28.6234 27.5752 26.6865 28.3271C24.7497 29.0563 22.5052 29.4209 19.9531 29.4209H13.7666V24.8408ZM13.7666 31.2666V26.7549H19.9531C22.8698 26.7549 25.3535 27.0967 27.4043 27.7803C29.4779 28.4639 31.1641 29.4095 32.4629 30.6172C33.7617 31.8021 34.7074 33.1579 35.2998 34.6846C35.915 36.2113 36.2227 37.8291 36.2227 39.5381C36.2227 41.8623 35.8011 43.9359 34.958 45.7588C34.1377 47.5589 32.9642 49.0856 31.4375 50.3389C29.9108 51.5921 28.1221 52.5378 26.0713 53.1758C24.0433 53.8138 21.833 54.1328 19.4404 54.1328C17.2985 54.1328 15.2477 53.8366 13.2881 53.2441C11.3285 52.6517 9.57389 51.7744 8.02441 50.6123C6.47493 49.4274 5.24447 47.9577 4.33301 46.2031C3.44434 44.4258 3 42.375 3 40.0508H11.2373C11.2373 41.5319 11.5791 42.8421 12.2627 43.9814C12.9691 45.098 13.9489 45.9753 15.2021 46.6133C16.4782 47.2513 17.9365 47.5703 19.5771 47.5703C21.3089 47.5703 22.8014 47.2627 24.0547 46.6475C25.3079 46.0322 26.265 45.1208 26.9258 43.9131C27.6094 42.7054 27.9512 41.2471 27.9512 39.5381C27.9512 37.6012 27.5752 36.029 26.8232 34.8213C26.0713 33.6136 25.0003 32.7249 23.6104 32.1553C22.2204 31.5628 20.5798 31.2666 18.6885 31.2666H13.7666Z" fill="#FFA101"/>
<path d="M179.94 24.3965C179.94 21.2748 179.69 18.5403 179.188 16.1934C178.687 13.8236 177.958 11.8069 177.001 10.1436C176.125 8.56266 175.068 7.26226 173.832 6.24219L173.583 6.04199C172.261 4.99389 170.757 4.23048 169.071 3.75195C167.616 3.3133 166.038 3.06654 164.338 3.01172L163.603 3C161.142 3 158.908 3.38746 156.903 4.16211C154.921 4.93682 153.212 6.17881 151.776 7.8877L151.511 8.20996C150.204 9.85083 149.187 11.9423 148.461 14.4844L148.319 14.9961C147.638 17.5889 147.299 20.7224 147.299 24.3965V32.5312L147.311 33.6846C147.365 36.3337 147.612 38.6951 148.051 40.7686C148.575 43.1383 149.304 45.1778 150.238 46.8867C151.195 48.5728 152.346 49.9515 153.69 51.0225C155.035 52.0933 156.539 52.8796 158.202 53.3809C159.678 53.8195 161.258 54.0663 162.942 54.1211L163.671 54.1328C166.132 54.1328 168.354 53.734 170.336 52.9365C172.216 52.1888 173.845 51.0409 175.225 49.4922L175.497 49.1768C176.933 47.4678 178.026 45.246 178.778 42.5117C179.505 39.9268 179.89 36.8412 179.936 33.2549L179.94 32.5312V24.3965ZM168.703 23.166C168.703 21.2916 168.594 19.7042 168.395 18.3857L168.394 18.3789C168.217 17.1968 167.976 16.2705 167.703 15.5615L167.584 15.2705L167.555 15.1982C167.238 14.4151 166.891 13.9151 166.573 13.5977L166.538 13.5615C166.18 13.1914 165.819 12.9686 165.444 12.8369C165.422 12.829 165.399 12.8209 165.377 12.8125C164.924 12.641 164.346 12.5284 163.603 12.5283C162.727 12.5283 162.057 12.698 161.525 12.9639C161.509 12.9719 161.493 12.9795 161.477 12.9873C161.05 13.191 160.61 13.5512 160.184 14.2188C159.76 14.8827 159.341 15.914 159.022 17.4395C158.732 18.9179 158.57 20.8137 158.57 23.166V33.6934L158.575 34.3916C158.595 35.7618 158.675 36.9726 158.808 38.0312L158.879 38.5488C159.08 39.8962 159.367 40.9526 159.703 41.7607C160.044 42.5593 160.413 43.1321 160.771 43.5391C161.125 43.895 161.489 44.1281 161.875 44.2773C162.373 44.4603 162.962 44.5703 163.671 44.5703V47.5703L163.29 47.5625C162.536 47.5326 161.827 47.4135 161.162 47.2041L160.834 47.0918C159.991 46.7728 159.239 46.2714 158.578 45.5879C157.94 44.8815 157.393 43.9928 156.938 42.9219C156.539 41.9649 156.227 40.8421 156.003 39.5537L155.912 38.9912C155.713 37.6555 155.6 36.1366 155.575 34.4346L155.57 33.6934V23.166C155.57 20.6823 155.741 18.5745 156.083 16.8428C156.402 15.3076 156.843 14.0343 157.406 13.0225L157.655 12.6045C158.339 11.5336 159.182 10.7588 160.185 10.2803C161.187 9.77908 162.327 9.52832 163.603 9.52832L163.99 9.53613C164.885 9.57101 165.702 9.72769 166.439 10.0068C167.282 10.3031 168.035 10.7931 168.695 11.4766C169.356 12.1373 169.903 13.0034 170.336 14.0742C170.792 15.1224 171.133 16.4099 171.361 17.9365C171.589 19.4404 171.703 21.1836 171.703 23.166V33.6934L171.694 34.6084C171.657 36.7043 171.489 38.5299 171.19 40.085L171.054 40.7363C170.717 42.219 170.25 43.4489 169.652 44.4258L169.388 44.8223C168.755 45.7142 168 46.3798 167.123 46.8184L166.739 46.9941C165.83 47.3778 164.807 47.5703 163.671 47.5703V44.5703C164.578 44.5703 165.257 44.397 165.781 44.1348C166.217 43.917 166.665 43.5375 167.099 42.8486C167.535 42.1324 167.948 41.0604 168.244 39.5186C168.54 37.9823 168.703 36.0517 168.703 33.6934V23.166ZM182.94 32.5312L182.936 33.291C182.888 37.0537 182.483 40.4072 181.67 43.3066C180.833 46.3486 179.572 48.9899 177.794 51.1064C176.051 53.1818 173.926 54.7363 171.443 55.7236C169.058 56.6811 166.453 57.1328 163.671 57.1328C161.593 57.1328 159.604 56.8837 157.722 56.3643L157.347 56.2568L157.336 56.2529C155.438 55.681 153.698 54.7986 152.132 53.6104L151.821 53.3691C150.246 52.1145 148.926 50.5535 147.843 48.7344L147.629 48.3672L147.605 48.3262C146.507 46.3166 145.692 43.9974 145.121 41.416L145.115 41.3896C144.56 38.7671 144.299 35.8052 144.299 32.5312V24.3965C144.299 20.2993 144.701 16.696 145.578 13.6533C146.437 10.6486 147.708 8.04278 149.479 5.95801C151.221 3.88397 153.338 2.3347 155.811 1.36816L155.821 1.36328C158.218 0.437451 160.825 0 163.603 0C165.837 3.34493e-05 167.956 0.283044 169.937 0.879883H169.936C171.969 1.46297 173.816 2.39772 175.447 3.69141H175.446C177.14 5.0162 178.525 6.70352 179.625 8.68945H179.624C180.759 10.675 181.576 12.9864 182.122 15.5664C182.678 18.1701 182.94 21.1233 182.94 24.3965V32.5312Z" fill="#070E50"/>
<path d="M138.055 24.3965C138.055 21.2747 137.804 18.5404 137.303 16.1934C136.801 13.8236 136.072 11.807 135.115 10.1436C134.181 8.4574 133.042 7.09015 131.697 6.04199C130.376 4.99386 128.872 4.23045 127.186 3.75195C125.522 3.25069 123.699 3 121.717 3C119.256 3.00002 117.023 3.38739 115.018 4.16211C113.035 4.93685 111.326 6.17876 109.891 7.8877C108.455 9.57388 107.35 11.7728 106.575 14.4844C105.8 17.1732 105.413 20.4772 105.413 24.3965V32.5312C105.413 35.653 105.664 38.3988 106.165 40.7686C106.689 43.1383 107.418 45.1778 108.353 46.8867C109.31 48.5729 110.46 49.9515 111.805 51.0225C113.149 52.0934 114.653 52.8796 116.316 53.3809C118.003 53.8821 119.826 54.1328 121.785 54.1328C124.246 54.1328 126.468 53.734 128.45 52.9365C130.455 52.139 132.176 50.8857 133.611 49.1768C135.047 47.4678 136.141 45.2461 136.893 42.5117C137.667 39.7546 138.055 36.4277 138.055 32.5312V24.3965ZM126.817 23.166C126.817 21.5257 126.735 20.1053 126.58 18.8926L126.51 18.3857L126.509 18.3789C126.332 17.1968 126.091 16.2705 125.818 15.5615L125.699 15.2705C125.689 15.2467 125.679 15.2223 125.669 15.1982C125.392 14.513 125.092 14.0446 124.809 13.7256L124.688 13.5977C124.677 13.5857 124.664 13.5737 124.652 13.5615C124.339 13.2377 124.024 13.0265 123.699 12.8906L123.56 12.8369C123.537 12.829 123.514 12.8209 123.492 12.8125C123.039 12.6409 122.46 12.5283 121.717 12.5283C120.842 12.5283 120.172 12.698 119.641 12.9639C119.624 12.972 119.607 12.9794 119.591 12.9873C119.164 13.191 118.725 13.5513 118.299 14.2188C117.875 14.8827 117.456 15.914 117.138 17.4395C116.847 18.918 116.685 20.8136 116.685 23.166V33.6934C116.685 35.3541 116.768 36.7962 116.923 38.0312L116.994 38.5488C117.195 39.8962 117.483 40.9526 117.818 41.7607C118.16 42.5593 118.528 43.1321 118.887 43.5391C119.24 43.8948 119.604 44.1281 119.989 44.2773C120.487 44.4604 121.076 44.5703 121.785 44.5703V47.5703C120.76 47.5703 119.814 47.4108 118.948 47.0918C118.105 46.7728 117.353 46.2714 116.692 45.5879C116.054 44.8815 115.507 43.9928 115.052 42.9219C114.596 41.8281 114.254 40.5179 114.026 38.9912C113.799 37.4645 113.685 35.6986 113.685 33.6934V23.166C113.685 20.6823 113.855 18.5745 114.197 16.8428C114.562 15.0883 115.086 13.6754 115.77 12.6045C116.453 11.5336 117.296 10.7588 118.299 10.2803C119.301 9.779 120.441 9.52835 121.717 9.52832C122.765 9.52832 123.711 9.68787 124.554 10.0068C125.397 10.303 126.149 10.793 126.81 11.4766C127.47 12.1374 128.017 13.0033 128.45 14.0742C128.906 15.1224 129.248 16.4098 129.476 17.9365C129.703 19.4404 129.817 21.1836 129.817 23.166V33.6934C129.817 36.1771 129.646 38.3076 129.305 40.085C128.963 41.8623 128.45 43.3093 127.767 44.4258C127.083 45.5195 126.24 46.3171 125.237 46.8184C124.235 47.3196 123.084 47.5703 121.785 47.5703V44.5703C122.692 44.5703 123.371 44.397 123.896 44.1348C124.331 43.9172 124.78 43.538 125.213 42.8496C125.649 42.1334 126.062 41.061 126.358 39.5186C126.654 37.9823 126.817 36.0517 126.817 33.6934V23.166ZM141.055 32.5312C141.055 36.6106 140.651 40.2264 139.781 43.3232L139.78 43.3223C138.944 46.3578 137.683 48.9935 135.908 51.1064C134.165 53.1817 132.041 54.7364 129.559 55.7236C127.174 56.6813 124.568 57.1328 121.785 57.1328C119.707 57.1328 117.72 56.8837 115.837 56.3643L115.462 56.2568L115.451 56.2529C113.553 55.6809 111.812 54.7988 110.246 53.6104L109.936 53.3691C108.36 52.1144 107.04 50.5536 105.957 48.7344L105.744 48.3672L105.721 48.3262C104.759 46.5678 104.015 44.5725 103.462 42.3721L103.236 41.416L103.23 41.3896C102.676 38.7671 102.413 35.8052 102.413 32.5312V24.3965C102.413 20.2993 102.816 16.696 103.692 13.6533C104.552 10.6485 105.823 8.04285 107.594 5.95801L107.925 5.5752C109.602 3.69245 111.607 2.27426 113.926 1.36816L113.937 1.36328C116.333 0.437498 118.939 2.08461e-05 121.717 0C123.952 0 126.071 0.283008 128.052 0.879883H128.051C130.075 1.46055 131.915 2.3905 133.541 3.67578H133.542C135.232 4.99344 136.615 6.67234 137.716 8.64746C138.864 10.6438 139.688 12.9719 140.238 15.5723H140.237C140.793 18.1747 141.055 21.1255 141.055 24.3965V32.5312Z" fill="#070E50"/>
<path d="M96.1699 24.3965C96.1699 21.2748 95.9193 18.5404 95.418 16.1934C94.9167 13.8236 94.1875 11.8069 93.2305 10.1436C92.3545 8.56261 91.298 7.26228 90.0615 6.24219L89.8125 6.04199C88.4909 4.99385 86.9869 4.23047 85.3008 3.75195C83.8452 3.31328 82.2673 3.06652 80.5674 3.01172L79.832 3C77.3712 3 75.138 3.38741 73.1328 4.16211C71.1504 4.93683 69.4414 6.17876 68.0059 7.8877L67.7402 8.20996C66.4332 9.85082 65.4167 11.9423 64.6904 14.4844L64.5498 14.9961C63.8689 17.5889 63.5283 20.7223 63.5283 24.3965V32.5312L63.54 33.6846C63.5949 36.3337 63.8417 38.6951 64.2803 40.7686C64.8044 43.1383 65.5335 45.1777 66.4678 46.8867C67.4248 48.5729 68.5755 49.9515 69.9199 51.0225C71.2643 52.0934 72.7683 52.8796 74.4316 53.3809C75.9071 53.8195 77.4871 54.0663 79.1719 54.1211L79.9004 54.1328C82.3613 54.1328 84.5831 53.734 86.5654 52.9365C88.4452 52.1889 90.075 51.0409 91.4541 49.4922L91.7266 49.1768C93.1621 47.4678 94.2559 45.246 95.0078 42.5117C95.7341 39.9268 96.1197 36.8412 96.165 33.2549L96.1699 32.5312V24.3965ZM84.9326 23.166C84.9326 21.2916 84.8238 19.7042 84.624 18.3857L84.623 18.3789C84.4466 17.1968 84.2057 16.2705 83.9326 15.5615L83.8145 15.2705L83.7842 15.1982C83.5072 14.5131 83.2071 14.0446 82.9238 13.7256L82.8037 13.5977C82.7917 13.5857 82.7794 13.5737 82.7676 13.5615C82.4098 13.1914 82.0487 12.9686 81.6738 12.8369L81.6074 12.8125C81.154 12.6409 80.5755 12.5283 79.832 12.5283C78.957 12.5283 78.2875 12.6981 77.7559 12.9639C77.7395 12.972 77.7226 12.9794 77.7061 12.9873C77.2793 13.191 76.8392 13.5512 76.4131 14.2188C75.9894 14.8827 75.5711 15.9142 75.2529 17.4395C74.9626 18.918 74.7998 20.8136 74.7998 23.166V33.6934L74.8047 34.3916C74.8248 35.7618 74.9051 36.9726 75.0381 38.0312L75.1084 38.5488C75.3084 39.8887 75.5943 40.9407 75.9277 41.7471C76.2711 42.5539 76.6415 43.1317 77.0029 43.541C77.3554 43.8959 77.7193 44.1283 78.1045 44.2773C78.6026 44.4603 79.1915 44.5703 79.9004 44.5703V47.5703L79.5195 47.5625C78.7654 47.5326 78.056 47.4135 77.3916 47.2041L77.0635 47.0918C76.2204 46.7728 75.4684 46.2714 74.8076 45.5879C74.1696 44.8815 73.6227 43.9928 73.167 42.9219C72.7682 41.9649 72.4567 40.8421 72.2324 39.5537L72.1416 38.9912C71.9422 37.6555 71.8296 36.1366 71.8047 34.4346L71.7998 33.6934V23.166C71.7998 20.6823 71.9707 18.5745 72.3125 16.8428C72.6315 15.3077 73.0726 14.0343 73.6357 13.0225L73.8848 12.6045C74.5683 11.5336 75.4115 10.7588 76.4141 10.2803C77.4166 9.77902 78.5561 9.52832 79.832 9.52832L80.2197 9.53613C81.1146 9.571 81.9311 9.72766 82.6689 10.0068C83.512 10.3031 84.264 10.793 84.9248 11.4766C85.5856 12.1374 86.1325 13.0033 86.5654 14.0742C87.0211 15.1224 87.363 16.4099 87.5908 17.9365C87.8187 19.4404 87.9326 21.1836 87.9326 23.166V33.6934L87.9248 34.6084C87.8874 36.7043 87.719 38.5298 87.4199 40.085L87.2832 40.7363C86.9468 42.219 86.4799 43.4489 85.8818 44.4258L85.6182 44.8223C84.9852 45.7145 84.2298 46.3797 83.3525 46.8184L82.9697 46.9941C82.06 47.378 81.037 47.5703 79.9004 47.5703V44.5703C80.8073 44.5703 81.4862 44.397 82.0107 44.1348C82.4459 43.9171 82.895 43.538 83.3281 42.8496C83.7645 42.1334 84.177 41.061 84.4736 39.5186C84.7691 37.9823 84.9326 36.0517 84.9326 33.6934V23.166ZM99.1699 32.5312L99.165 33.291C99.1176 37.0537 98.7121 40.4072 97.8994 43.3066C97.0629 46.3486 95.8013 48.9899 94.0234 51.1064C92.2802 53.1817 90.1561 54.7373 87.6738 55.7246L87.6729 55.7236C85.288 56.6811 82.6828 57.1328 79.9004 57.1328C77.8226 57.1328 75.8347 56.8836 73.9521 56.3643L73.5762 56.2568L73.5654 56.2529C71.6677 55.681 69.9275 54.7987 68.3613 53.6104L68.0508 53.3691C66.3708 52.0309 64.9804 50.3441 63.8584 48.3672L63.835 48.3262C62.7364 46.3166 61.9215 43.9974 61.3506 41.416L61.3447 41.3896C60.7899 38.7671 60.5283 35.8052 60.5283 32.5312V24.3965C60.5283 20.2993 60.9309 16.696 61.8076 13.6533C62.667 10.6484 63.9385 8.04285 65.709 5.95801L66.04 5.5752C67.7172 3.69253 69.7225 2.27423 72.041 1.36816L72.0518 1.36328C74.4479 0.437567 77.0545 0 79.832 0C82.067 1.64032e-05 84.1856 0.283049 86.166 0.879883H86.165C88.19 1.46057 90.03 2.39029 91.6562 3.67578C93.3462 4.99339 94.7294 6.67244 95.8301 8.64746C96.9778 10.6423 97.8015 12.9684 98.3516 15.5664C98.9077 18.1701 99.1699 21.1233 99.1699 24.3965V32.5312Z" fill="#070E50"/>
<path d="M54.1815 42.5195C54.9801 42.5195 55.7463 42.8379 56.3094 43.4043C56.8725 43.9707 57.1861 44.7385 57.1815 45.5371L57.1473 51.416C57.1443 54.2468 56.4334 57.0697 55.117 59.8574C53.7859 62.6761 51.9901 65.0654 49.7108 66.9648C48.8027 67.7215 47.5422 67.8698 46.4901 67.3633L46.282 67.2539L41.8729 64.6904C41.1717 64.2827 40.6654 63.6083 40.4695 62.8213C40.2737 62.034 40.4052 61.2005 40.8338 60.5117C41.4242 59.5629 41.96 58.6071 42.4412 57.6445C42.8713 56.7843 43.2228 55.8564 43.492 54.8564C43.7321 53.9647 43.867 52.9215 43.867 51.7061V45.5195C43.867 43.8628 45.2103 42.5197 46.867 42.5195H54.1815ZM46.867 51.7061C46.867 53.1416 46.7075 54.4518 46.3885 55.6367C46.0695 56.8216 45.6479 57.9382 45.1238 58.9863C44.5998 60.0345 44.0187 61.0713 43.3807 62.0967L47.7899 64.6602C49.7039 63.0651 51.242 61.037 52.4041 58.5762C53.5662 56.1152 54.1473 53.7227 54.1473 51.3984L54.1815 45.5195H46.867V51.7061Z" fill="#070E50"/>
<path d="M11.2373 40.0508H3C3 42.375 3.44434 44.4258 4.33301 46.2031C5.24447 47.9577 6.47493 49.4274 8.02441 50.6123C9.57389 51.7744 11.3285 52.6517 13.2881 53.2441C15.2477 53.8366 17.2985 54.1328 19.4404 54.1328C21.833 54.1328 24.0433 53.8138 26.0713 53.1758C28.1221 52.5378 29.9108 51.5921 31.4375 50.3389C32.9642 49.0856 34.1377 47.5589 34.958 45.7588C35.8011 43.9359 36.2227 41.8623 36.2227 39.5381C36.2227 37.8291 35.915 36.2113 35.2998 34.6846C34.7074 33.1579 33.7617 31.8021 32.4629 30.6172C31.2314 29.4721 29.6516 28.5626 27.7236 27.8887C29.2079 27.2101 30.4804 26.3886 31.54 25.4219C32.8389 24.2142 33.8187 22.8812 34.4795 21.4229C35.1403 19.9645 35.4707 18.529 35.4707 17.1162C35.4707 14.0173 34.7985 11.4196 33.4541 9.32324C32.1097 7.22689 30.2298 5.65462 27.8145 4.60645C25.4219 3.53548 22.6191 3 19.4062 3C16.3984 3 13.6868 3.59245 11.2715 4.77734C8.87891 5.93945 6.98763 7.5459 5.59766 9.59668C4.20768 11.6475 3.5127 13.9945 3.5127 16.6377H11.7842C11.7842 15.1794 12.126 13.9261 12.8096 12.8779C13.4932 11.807 14.416 10.9867 15.5781 10.417C16.763 9.82454 18.0846 9.52832 19.543 9.52832C21.2747 9.52832 22.6989 9.83594 23.8154 10.4512C24.9548 11.0664 25.7979 11.9437 26.3447 13.083C26.9144 14.1995 27.1992 15.5439 27.1992 17.1162C27.1992 18.6201 26.8916 19.9531 26.2764 21.1152C25.6611 22.2773 24.7155 23.1888 23.4395 23.8496C22.1862 24.5104 20.6025 24.8408 18.6885 24.8408H13.7666V21.8408H18.6885C20.2782 21.8408 21.3427 21.5639 22.04 21.1963L22.0596 21.1855C22.8459 20.7783 23.3221 20.2839 23.625 19.7119C23.9803 19.0409 24.1992 18.2017 24.1992 17.1162C24.1992 16.0521 24.0307 15.2659 23.7832 14.6836L23.6729 14.4463L23.6406 14.3809C23.375 13.8274 22.9863 13.413 22.3896 13.0908L22.3672 13.0791C21.8247 12.7802 20.9419 12.5283 19.543 12.5283C18.5027 12.5283 17.6476 12.7367 16.9199 13.1006C16.9129 13.1041 16.9055 13.1069 16.8984 13.1104C16.2208 13.4425 15.7196 13.8942 15.3379 14.4922C15.3327 14.5003 15.3275 14.5085 15.3223 14.5166C15.0063 15.001 14.7842 15.663 14.7842 16.6377C14.7842 18.2945 13.441 19.6377 11.7842 19.6377H3.5127C1.85584 19.6377 0.512695 18.2945 0.512695 16.6377C0.512695 13.4366 1.36465 10.4945 3.11426 7.91309C4.81888 5.39818 7.12544 3.45805 9.9502 2.08398L10.4922 1.82812C13.2204 0.592703 16.2081 0 19.4062 0C22.9353 0 26.1608 0.586498 29.0078 1.85449H29.0088C29.0124 1.85606 29.0159 1.85781 29.0195 1.85938C29.0263 1.86241 29.0333 1.86513 29.04 1.86816H29.0391C31.7706 3.05959 34.0036 4.84418 35.6553 7.21875L35.9795 7.7041C37.7016 10.3895 38.4707 13.5834 38.4707 17.1162C38.4707 19.0095 38.0255 20.8657 37.2119 22.6611C36.3702 24.5187 35.1415 26.17 33.583 27.6191C33.5795 27.6224 33.5749 27.6246 33.5713 27.6279C33.8951 27.8792 34.2074 28.1424 34.5059 28.4199H34.5049C36.11 29.8895 37.3278 31.6182 38.0967 33.5996H38.0957C38.8504 35.4857 39.2227 37.4729 39.2227 39.5381C39.2227 42.2291 38.7329 44.7435 37.6807 47.0186L37.6797 47.0176C36.6701 49.227 35.2176 51.1166 33.3408 52.6572C31.49 54.1766 29.3505 55.2972 26.9629 56.04L26.9619 56.0391C24.6113 56.7774 22.0972 57.1328 19.4404 57.1328C17.1695 57.1328 14.9673 56.8376 12.8438 56.2393L12.4199 56.1162C10.286 55.4711 8.3303 54.5241 6.57324 53.2676L6.22461 53.0127L6.20215 52.9951C4.41678 51.6298 2.97325 49.9513 1.88379 47.9834L1.6709 47.5859L1.64941 47.5449C0.519866 45.2858 0 42.7619 0 40.0508C0 38.3939 1.34315 37.0508 3 37.0508H11.2373C12.8942 37.0508 14.2373 38.3939 14.2373 40.0508C14.2373 41.0375 14.4565 41.7941 14.8193 42.4102C15.2157 43.0242 15.768 43.5317 16.5537 43.9336C17.3531 44.3313 18.3371 44.5703 19.5771 44.5703V47.5703C17.9365 47.5703 16.4782 47.2513 15.2021 46.6133C13.9489 45.9753 12.9691 45.098 12.2627 43.9814C11.5791 42.8421 11.2373 41.5319 11.2373 40.0508ZM24.9512 39.5381C24.9512 38.1627 24.7158 37.2484 24.4111 36.6465L24.2764 36.4072C23.9267 35.8456 23.4523 35.4008 22.7754 35.0674L22.4727 34.9316C22.4597 34.9263 22.4464 34.9205 22.4336 34.915C21.4965 34.5157 20.2736 34.2666 18.6885 34.2666H13.7666C12.1097 34.2666 10.7666 32.9235 10.7666 31.2666V24.8408C10.7666 23.184 12.1097 21.8408 13.7666 21.8408V31.2666H18.6885C20.5798 31.2666 22.2204 31.5628 23.6104 32.1553C25.0003 32.7249 26.0713 33.6136 26.8232 34.8213C27.5752 36.029 27.9512 37.6012 27.9512 39.5381C27.9512 41.2471 27.6094 42.7054 26.9258 43.9131C26.265 45.1208 25.3079 46.0322 24.0547 46.6475C22.8014 47.2627 21.3089 47.5703 19.5771 47.5703V44.5703C20.9583 44.5703 21.9775 44.3247 22.7324 43.9541C23.4388 43.6074 23.9346 43.1295 24.2939 42.4727C24.3008 42.4601 24.3084 42.448 24.3154 42.4355C24.6911 41.7718 24.9512 40.848 24.9512 39.5381Z" fill="#070E50"/>
<path d="M235.654 56.686C235.467 56.1526 235.121 55.4593 234.614 54.606C234.134 53.7793 233.627 53.1126 233.094 52.606C236.561 51.646 239.254 50.0593 241.174 47.846C243.094 45.606 244.227 42.9926 244.574 40.006H238.534V36.446C237.681 37.246 236.814 37.9926 235.934 38.686C235.081 39.3526 234.227 39.9526 233.374 40.486C233.027 39.9526 232.507 39.3126 231.814 38.566C231.147 37.8193 230.507 37.1926 229.894 36.686C231.414 35.8593 232.934 34.7793 234.454 33.446C236.001 32.086 237.401 30.5793 238.654 28.926C239.934 27.2726 240.921 25.606 241.614 23.926L246.174 26.206C245.427 27.8326 244.494 29.4193 243.374 30.966C242.254 32.5126 241.027 33.9526 239.694 35.286H259.174C257.734 33.926 256.467 32.4326 255.374 30.806C254.307 29.1793 253.534 27.4593 253.054 25.646H246.454V21.126H256.974C257.347 24.1393 258.614 26.886 260.774 29.366C262.934 31.8193 265.761 33.886 269.254 35.566C268.881 35.9126 268.467 36.3526 268.014 36.886C267.587 37.4193 267.174 37.966 266.774 38.526C266.401 39.0593 266.094 39.5393 265.854 39.966C265.027 39.5393 264.214 39.0726 263.414 38.566C262.641 38.0593 261.867 37.5126 261.094 36.926C261.067 38.606 260.987 40.3793 260.854 42.246C260.747 44.086 260.587 45.8326 260.374 47.486C260.187 49.1126 259.947 50.4326 259.654 51.446C259.147 53.3393 258.294 54.6326 257.094 55.326C255.921 56.046 254.307 56.406 252.254 56.406H249.054C249.001 55.9526 248.921 55.406 248.814 54.766C248.707 54.1526 248.574 53.5526 248.414 52.966C248.281 52.3526 248.134 51.8593 247.974 51.486H251.534C252.601 51.486 253.374 51.326 253.854 51.006C254.361 50.686 254.761 50.0726 255.054 49.166C255.267 48.4993 255.441 47.6193 255.574 46.526C255.734 45.406 255.854 44.2593 255.934 43.086C256.014 41.886 256.054 40.8593 256.054 40.006H249.414C249.067 43.8726 247.761 47.286 245.494 50.246C243.254 53.1793 239.974 55.326 235.654 56.686Z" fill="#FFA101"/>
<path d="M192.454 56.4858V21.9658H224.214V52.1258C224.214 55.0325 222.454 56.4858 218.934 56.4858H214.814C214.787 56.0325 214.707 55.4592 214.574 54.7658C214.467 54.0992 214.334 53.4458 214.174 52.8058C214.041 52.1658 213.894 51.6592 213.734 51.2858H217.614C218.174 51.2858 218.574 51.1925 218.814 51.0058C219.081 50.8192 219.214 50.4458 219.214 49.8858V41.0058H197.454V56.4858H192.454ZM210.774 36.4058H219.214V26.6858H210.774V36.4058ZM197.454 36.4058H205.854V26.6858H197.454V36.4058Z" fill="#FFA101"/>
<path d="M256.974 19.126C257.92 19.126 258.727 19.787 258.927 20.6953L258.959 20.8799C259.279 23.4615 260.359 25.8405 262.275 28.0439C264.106 30.1236 266.503 31.9373 269.511 33.4619L270.121 33.7637L270.23 33.8203C270.768 34.1207 271.139 34.6536 271.231 35.2666C271.33 35.9205 271.1 36.5812 270.615 37.0312C270.322 37.3038 269.971 37.6735 269.561 38.1543C269.162 38.653 268.776 39.1645 268.401 39.6885C268.06 40.1776 267.794 40.5956 267.597 40.9463C267.102 41.8259 266.038 42.1901 265.118 41.8252L264.937 41.7432C264.268 41.3981 263.609 41.0281 262.958 40.6348C262.927 41.2015 262.891 41.7768 262.85 42.3604L262.851 42.3613C262.742 44.2329 262.578 46.017 262.36 47.7129C262.167 49.3962 261.912 50.838 261.576 52C260.992 54.1567 259.922 55.9787 258.139 57.0293L258.14 57.0303C258.135 57.0332 258.13 57.0352 258.125 57.0381C258.115 57.0441 258.104 57.0506 258.094 57.0566C256.495 58.022 254.486 58.4053 252.254 58.4053H249.054C248.103 58.4051 247.294 57.7384 247.099 56.8252L247.067 56.6396C247.019 56.2283 246.944 55.715 246.841 55.0947V55.0938C246.769 54.684 246.685 54.2819 246.588 53.8877L246.484 53.4922L246.46 53.3906C246.376 53.0046 246.293 52.7134 246.221 52.501C243.738 55.2835 240.379 57.2954 236.255 58.5938C235.289 58.8977 234.261 58.4313 233.842 57.5322L233.767 57.3467C233.675 57.0856 233.501 56.7045 233.217 56.1885L232.895 55.627L232.885 55.6104C232.525 54.9903 232.177 54.5272 231.853 54.1914L231.717 54.0557C231.194 53.5593 230.979 52.8202 231.153 52.1211C231.328 51.4219 231.866 50.8701 232.561 50.6777C235.73 49.7998 238.048 48.3928 239.656 46.542C240.817 45.1871 241.642 43.6813 242.136 42.0059H238.534C237.658 42.0059 236.915 41.4416 236.645 40.6572C235.911 41.2082 235.175 41.7182 234.434 42.1816C233.566 42.7234 232.442 42.5204 231.815 41.7393L231.697 41.5752C231.503 41.277 231.211 40.8956 230.8 40.4258L230.349 39.9268L230.322 39.8975C229.707 39.2079 229.139 38.6559 228.62 38.2275C228.108 37.8045 227.84 37.1543 227.903 36.4932C227.967 35.8322 228.355 35.246 228.938 34.9287C230.309 34.1835 231.708 33.1938 233.135 31.9424C234.579 30.6719 235.888 29.2645 237.061 27.7178L237.072 27.7012C238.259 26.1684 239.15 24.6554 239.766 23.1631L239.854 22.9756C240.083 22.5521 240.458 22.223 240.913 22.0527C241.368 21.8825 241.868 21.8842 242.318 22.0537L242.509 22.1367L244.454 23.1094V21.126C244.454 20.0214 245.35 19.126 246.454 19.126H256.974ZM247.704 27.6455C246.952 29.1852 246.048 30.6832 244.994 32.1387C244.713 32.5271 244.425 32.9093 244.131 33.2852H254.692C254.354 32.8405 254.026 32.386 253.714 31.9209L253.701 31.9023C252.814 30.5489 252.105 29.1292 251.58 27.6455H247.704ZM246.454 25.6455H253.054C253.534 27.4588 254.307 29.179 255.374 30.8057C256.467 32.4322 257.734 33.9252 259.174 35.2852H239.694C240.861 34.1186 241.946 32.8708 242.949 31.541L243.374 30.9658C244.494 29.4193 245.427 27.8326 246.174 26.2061L241.614 23.9258C240.921 25.6058 239.934 27.2725 238.654 28.9258C237.401 30.579 236.001 32.0854 234.454 33.4453L233.884 33.9336C232.554 35.0448 231.224 35.9622 229.894 36.6855C230.507 37.1922 231.148 37.8188 231.814 38.5654C232.421 39.2187 232.895 39.7903 233.236 40.2803L233.374 40.4854C234.227 39.9521 235.08 39.3521 235.934 38.6855C236.814 37.9922 237.681 37.2453 238.534 36.4453V40.0059H244.574C244.228 42.9924 243.094 45.6058 241.174 47.8457L240.805 48.2529C238.914 50.2545 236.344 51.7055 233.094 52.6055C233.627 53.1121 234.134 53.7788 234.614 54.6055C235.058 55.3522 235.378 55.9768 235.576 56.4785L235.654 56.6855C239.974 55.3256 243.254 53.1792 245.494 50.2461C247.761 47.2862 249.067 43.8724 249.414 40.0059H256.054C256.054 40.8591 256.014 41.886 255.934 43.0859C255.854 44.2591 255.734 45.4056 255.574 46.5254C255.441 47.6187 255.267 48.4993 255.054 49.166L254.939 49.4922C254.659 50.2213 254.297 50.7259 253.853 51.0059C253.433 51.2857 252.789 51.4436 251.92 51.4785L251.534 51.4854V49.4854C251.975 49.4853 252.293 49.452 252.509 49.4072C252.731 49.3613 252.781 49.3173 252.744 49.3418L252.772 49.3223C252.781 49.3139 252.812 49.2837 252.858 49.2129C252.938 49.0912 253.044 48.8824 253.151 48.5498C253.31 48.0506 253.464 47.3096 253.589 46.2832L253.594 46.2432C253.747 45.1738 253.862 44.0754 253.938 42.9492C253.96 42.6196 253.979 42.3052 253.994 42.0059H251.169C250.715 44.7031 249.803 47.2009 248.427 49.4854H251.534V51.4854H247.974C248.134 51.8587 248.281 52.3525 248.414 52.9658C248.574 53.5524 248.708 54.1524 248.814 54.7656C248.921 55.4054 249 55.952 249.054 56.4053H252.254C254.307 56.4053 255.92 56.0452 257.094 55.3252C258.294 54.6319 259.148 53.3386 259.654 51.4453C259.948 50.432 260.187 49.1118 260.374 47.4854C260.587 45.8322 260.747 44.0858 260.854 42.2461C260.987 40.3795 261.067 38.6057 261.094 36.9258C261.867 37.5124 262.641 38.0588 263.414 38.5654C264.014 38.9454 264.621 39.3027 265.236 39.6377L265.854 39.9658C266.094 39.5392 266.401 39.0587 266.774 38.5254C267.174 37.9656 267.587 37.4189 268.014 36.8857C268.467 36.3524 268.881 35.9121 269.254 35.5654C265.761 33.8854 262.934 31.8185 260.774 29.3652C258.614 26.8853 257.347 24.1392 256.974 21.126H246.454V25.6455Z" fill="#070E50"/>
<path d="M205.854 26.6855V36.4053H197.454V26.6855H205.854ZM219.214 26.6855V36.4053H210.774V26.6855H219.214ZM212.774 34.4053H217.214V28.6855H212.774V34.4053ZM199.454 34.4053H203.854V28.6855H199.454V34.4053ZM219.208 50.0869C219.179 50.5359 219.048 50.8425 218.814 51.0059C218.604 51.1692 218.271 51.2608 217.816 51.2812L217.614 51.2852H213.734C213.894 51.6585 214.04 52.1657 214.174 52.8057C214.334 53.4457 214.468 54.099 214.574 54.7656C214.674 55.2856 214.744 55.7381 214.784 56.123L214.814 56.4854H218.934C222.344 56.4854 224.103 55.1216 224.209 52.3936L224.214 52.126V21.9658H192.454V56.4854H197.454V41.0059H219.214V49.8857L219.208 50.0869ZM226.214 52.126L226.207 52.4756C226.137 54.2137 225.537 55.8066 224.167 56.9375C222.779 58.0833 220.919 58.4854 218.934 58.4854H214.814C213.822 58.4854 212.99 57.7603 212.839 56.7988L212.817 56.6035C212.803 56.3545 212.764 56.0225 212.692 55.5986L212.61 55.1436L212.599 55.082C212.525 54.6237 212.439 54.1729 212.339 53.7305L212.233 53.291L212.216 53.2139C212.095 52.6357 211.981 52.2734 211.896 52.0732C211.631 51.4554 211.694 50.7457 212.064 50.1846C212.435 49.6234 213.062 49.2852 213.734 49.2852H217.214V43.0059H199.454V56.4854L199.443 56.6904C199.341 57.6987 198.489 58.4853 197.454 58.4854H192.454C191.35 58.4854 190.454 57.5899 190.454 56.4854V21.9658C190.454 20.8613 191.35 19.9658 192.454 19.9658H224.214C225.318 19.9658 226.214 20.8613 226.214 21.9658V52.126Z" fill="#070E50"/>
</svg>
