<svg width="602" height="49" viewBox="0 0 602 49" fill="none" xmlns="http://www.w3.org/2000/svg">
<path d="M591.515 24.3384C591.035 24.3384 590.603 24.1704 590.219 23.8344C589.859 23.4984 589.655 23.0904 589.607 22.6104L589.427 19.0104C589.379 17.8104 589.559 16.8384 589.967 16.0944C590.375 15.3504 591.299 14.7144 592.739 14.1864C593.867 13.7784 594.695 13.2264 595.223 12.5304C595.775 11.8344 596.051 10.9344 596.051 9.83043C596.051 8.41443 595.643 7.28643 594.827 6.44643C594.011 5.60643 592.907 5.18643 591.515 5.18643C590.339 5.18643 589.319 5.53443 588.455 6.23043C587.615 6.90243 587.063 7.79043 586.799 8.89443C586.631 9.54243 586.247 10.0344 585.647 10.3704C585.047 10.6824 584.411 10.7544 583.739 10.5864C583.091 10.3944 582.611 10.0224 582.299 9.47043C581.987 8.89443 581.903 8.27043 582.047 7.59843C582.359 6.30243 582.947 5.15043 583.811 4.14243C584.699 3.11043 585.791 2.29443 587.087 1.69443C588.407 1.09443 589.883 0.794434 591.515 0.794434C593.387 0.794434 595.043 1.15443 596.483 1.87444C597.923 2.59443 599.051 3.63843 599.867 5.00643C600.707 6.35043 601.127 7.95843 601.127 9.83043C601.127 11.7744 600.551 13.3824 599.399 14.6544C598.271 15.9264 596.807 16.8744 595.007 17.4984C594.407 17.7144 594.011 17.9544 593.819 18.2184C593.627 18.4584 593.519 18.8904 593.495 19.5144L593.387 22.6104C593.363 23.0904 593.159 23.4984 592.775 23.8344C592.415 24.1704 591.995 24.3384 591.515 24.3384ZM591.515 32.5464C590.675 32.5464 589.955 32.2464 589.355 31.6464C588.755 31.0464 588.455 30.3264 588.455 29.4864C588.455 28.6464 588.755 27.9264 589.355 27.3264C589.955 26.7264 590.675 26.4264 591.515 26.4264C592.355 26.4264 593.075 26.7264 593.675 27.3264C594.275 27.9264 594.575 28.6464 594.575 29.4864C594.575 30.3264 594.275 31.0464 593.675 31.6464C593.075 32.2464 592.355 32.5464 591.515 32.5464Z" fill="#070E50"/>
<path d="M559.367 30.2426C558.767 30.3866 558.203 30.3026 557.675 29.9906C557.147 29.6786 556.811 29.2346 556.667 28.6586C556.523 28.0826 556.607 27.5426 556.919 27.0386C557.231 26.5106 557.675 26.1746 558.251 26.0306C560.915 25.3346 562.871 24.2066 564.119 22.6466C565.391 21.0866 566.027 19.1066 566.027 16.7066C566.027 15.1946 565.691 13.8386 565.019 12.6386C564.347 11.4386 563.387 10.4666 562.139 9.72262C560.915 8.97862 559.439 8.52262 557.711 8.35462C557.279 12.3866 556.547 15.8786 555.515 18.8306C554.507 21.7586 553.307 24.0266 551.915 25.6346C550.547 27.2186 549.107 28.0106 547.595 28.0106C546.323 28.0106 545.159 27.6386 544.103 26.8946C543.047 26.1506 542.207 25.0826 541.583 23.6906C540.983 22.2986 540.683 20.6306 540.683 18.6866C540.683 16.6946 541.055 14.8346 541.799 13.1066C542.567 11.3546 543.647 9.81862 545.039 8.49862C546.431 7.17862 548.063 6.14662 549.935 5.40262C551.831 4.65862 553.907 4.28662 556.163 4.28662C558.899 4.28662 561.323 4.81462 563.435 5.87062C565.571 6.90262 567.251 8.35462 568.475 10.2266C569.699 12.0746 570.311 14.2346 570.311 16.7066C570.311 20.1866 569.375 23.0906 567.503 25.4186C565.655 27.7226 562.943 29.3306 559.367 30.2426ZM547.631 23.5826C548.063 23.5826 548.555 23.2226 549.107 22.5026C549.683 21.7586 550.259 20.7146 550.835 19.3706C551.411 18.0266 551.939 16.4426 552.419 14.6186C552.899 12.7706 553.259 10.7306 553.499 8.49862C551.627 8.85862 550.055 9.55462 548.783 10.5866C547.511 11.5946 546.551 12.8066 545.903 14.2226C545.255 15.6146 544.919 17.0786 544.895 18.6146C544.895 20.2466 545.147 21.4826 545.651 22.3226C546.179 23.1626 546.839 23.5826 547.631 23.5826Z" fill="#070E50"/>
<path d="M513.647 27.5064C512.543 27.5544 511.487 27.3024 510.479 26.7504C509.471 26.1984 508.583 25.3104 507.815 24.0864C507.167 23.0064 506.615 21.6384 506.159 19.9824C505.703 18.3264 505.379 16.5384 505.187 14.6184C504.995 12.6744 504.947 10.7424 505.043 8.82241C505.091 8.22241 505.319 7.73041 505.727 7.34641C506.159 6.93841 506.675 6.75841 507.275 6.80641C507.875 6.83041 508.367 7.07041 508.751 7.52641C509.159 7.95841 509.339 8.47441 509.291 9.07441C509.195 10.7544 509.207 12.3984 509.327 14.0064C509.447 15.5904 509.675 17.0424 510.011 18.3624C510.347 19.6584 510.767 20.7384 511.271 21.6024C511.823 22.5864 512.519 23.0784 513.359 23.0784C514.391 23.0544 515.255 21.9744 515.951 19.8384C516.143 19.2864 516.503 18.8784 517.031 18.6144C517.559 18.3264 518.111 18.2784 518.687 18.4704C519.239 18.6384 519.647 18.9984 519.911 19.5504C520.175 20.0784 520.211 20.6184 520.019 21.1704C519.347 23.2824 518.447 24.8544 517.319 25.8864C516.191 26.8944 514.967 27.4344 513.647 27.5064ZM533.267 21.1704C532.691 21.3864 532.127 21.3624 531.575 21.0984C531.047 20.8344 530.675 20.4264 530.459 19.8744C530.099 18.9864 529.607 18.0864 528.983 17.1744C528.383 16.2624 527.699 15.3984 526.931 14.5824C526.187 13.7664 525.419 13.0824 524.627 12.5304C524.147 12.1944 523.847 11.7264 523.727 11.1264C523.607 10.5264 523.739 9.98641 524.123 9.50641C524.507 9.02641 524.975 8.76241 525.527 8.71441C526.103 8.66641 526.643 8.82241 527.147 9.18241C528.155 9.87841 529.139 10.7304 530.099 11.7384C531.083 12.7464 531.971 13.8264 532.763 14.9784C533.555 16.1304 534.143 17.2584 534.527 18.3624C534.719 18.9144 534.695 19.4784 534.455 20.0544C534.215 20.6064 533.819 20.9784 533.267 21.1704Z" fill="#070E50"/>
<path d="M477.647 27.5064C476.543 27.5544 475.487 27.3024 474.479 26.7504C473.471 26.1984 472.583 25.3104 471.815 24.0864C471.167 23.0064 470.615 21.6384 470.159 19.9824C469.703 18.3264 469.379 16.5384 469.187 14.6184C468.995 12.6744 468.947 10.7424 469.043 8.82241C469.091 8.22241 469.319 7.73041 469.727 7.34641C470.159 6.93841 470.675 6.75841 471.275 6.80641C471.875 6.83041 472.367 7.07041 472.751 7.52641C473.159 7.95841 473.339 8.47441 473.291 9.07441C473.195 10.7544 473.207 12.3984 473.327 14.0064C473.447 15.5904 473.675 17.0424 474.011 18.3624C474.347 19.6584 474.767 20.7384 475.271 21.6024C475.823 22.5864 476.519 23.0784 477.359 23.0784C478.391 23.0544 479.255 21.9744 479.951 19.8384C480.143 19.2864 480.503 18.8784 481.031 18.6144C481.559 18.3264 482.111 18.2784 482.687 18.4704C483.239 18.6384 483.647 18.9984 483.911 19.5504C484.175 20.0784 484.211 20.6184 484.019 21.1704C483.347 23.2824 482.447 24.8544 481.319 25.8864C480.191 26.8944 478.967 27.4344 477.647 27.5064ZM497.267 21.1704C496.691 21.3864 496.127 21.3624 495.575 21.0984C495.047 20.8344 494.675 20.4264 494.459 19.8744C494.099 18.9864 493.607 18.0864 492.983 17.1744C492.383 16.2624 491.699 15.3984 490.931 14.5824C490.187 13.7664 489.419 13.0824 488.627 12.5304C488.147 12.1944 487.847 11.7264 487.727 11.1264C487.607 10.5264 487.739 9.98641 488.123 9.50641C488.507 9.02641 488.975 8.76241 489.527 8.71441C490.103 8.66641 490.643 8.82241 491.147 9.18241C492.155 9.87841 493.139 10.7304 494.099 11.7384C495.083 12.7464 495.971 13.8264 496.763 14.9784C497.555 16.1304 498.143 17.2584 498.527 18.3624C498.719 18.9144 498.695 19.4784 498.455 20.0544C498.215 20.6064 497.819 20.9784 497.267 21.1704Z" fill="#070E50"/>
<path d="M456.875 31.5024C454.043 31.0944 451.703 30.2784 449.855 29.0544C448.007 27.8064 446.627 26.3064 445.715 24.5544C444.827 22.8024 444.383 20.9784 444.383 19.0824C444.383 17.1624 444.755 15.3744 445.499 13.7184C446.267 12.0384 447.359 10.5864 448.775 9.3624C447.335 9.5784 445.799 9.8304 444.167 10.1184C442.535 10.3824 440.951 10.6584 439.415 10.9464C437.879 11.2104 436.535 11.4504 435.383 11.6664C434.807 11.7624 434.279 11.6304 433.799 11.2704C433.319 10.9104 433.031 10.4424 432.935 9.8664C432.839 9.2664 432.971 8.7384 433.331 8.2824C433.691 7.8024 434.171 7.5144 434.771 7.4184C435.539 7.2984 436.523 7.1424 437.723 6.9504C438.923 6.7344 440.267 6.5064 441.755 6.2664C443.243 6.0264 444.767 5.7744 446.327 5.5104C447.887 5.2464 449.411 4.9944 450.899 4.7544C452.411 4.4904 453.791 4.2504 455.039 4.0344C456.287 3.8184 457.307 3.6384 458.099 3.4944C458.651 3.3984 459.167 3.5184 459.647 3.8544C460.127 4.1904 460.427 4.6344 460.547 5.1864C460.667 5.7624 460.559 6.3024 460.223 6.8064C459.911 7.3104 459.467 7.6104 458.891 7.7064C457.139 7.9464 455.615 8.4504 454.319 9.2184C453.047 9.9624 451.991 10.8744 451.151 11.9544C450.311 13.0104 449.687 14.1384 449.279 15.3384C448.871 16.5384 448.667 17.7024 448.667 18.8304C448.667 21.1584 449.459 23.0424 451.043 24.4824C452.627 25.8984 454.775 26.8104 457.487 27.2184C458.087 27.3144 458.567 27.6024 458.927 28.0824C459.287 28.5624 459.419 29.0904 459.323 29.6664C459.227 30.2664 458.939 30.7464 458.459 31.1064C458.003 31.4664 457.475 31.5984 456.875 31.5024Z" fill="#070E50"/>
<path d="M412.667 31.8987C409.787 31.8987 407.519 31.1907 405.863 29.7747C404.231 28.3347 403.415 26.0307 403.415 22.8627V3.67465C403.415 3.07465 403.619 2.57065 404.027 2.16265C404.459 1.73065 404.975 1.51465 405.575 1.51465C406.175 1.51465 406.679 1.73065 407.087 2.16265C407.519 2.57065 407.735 3.07465 407.735 3.67465V22.8627C407.735 24.6387 408.131 25.8747 408.923 26.5707C409.739 27.2667 410.987 27.6147 412.667 27.6147C414.155 27.6147 415.547 27.2187 416.843 26.4267C418.163 25.6347 419.231 24.3626 420.047 22.6106C420.311 22.0586 420.731 21.6867 421.307 21.4947C421.883 21.3027 422.435 21.3386 422.963 21.6026C423.515 21.8426 423.875 22.2506 424.043 22.8266C424.235 23.4026 424.211 23.9667 423.971 24.5187C422.915 26.8946 421.367 28.7187 419.327 29.9907C417.311 31.2627 415.091 31.8987 412.667 31.8987Z" fill="#070E50"/>
<path d="M374.039 33.1944C373.439 33.4344 372.863 33.4704 372.311 33.3024C371.759 33.1584 371.351 32.7984 371.087 32.2224C370.847 31.7184 370.835 31.2024 371.051 30.6744C371.291 30.1464 371.675 29.7864 372.203 29.5944C373.643 29.0664 374.831 28.4784 375.767 27.8304C376.727 27.1584 377.483 26.3544 378.035 25.4184C378.587 24.4824 378.971 23.3424 379.187 21.9984C379.427 20.6544 379.547 19.0344 379.547 17.1384C379.547 16.5384 379.739 16.0704 380.123 15.7344C380.531 15.3984 380.999 15.2424 381.527 15.2664C382.079 15.2664 382.547 15.4464 382.931 15.8064C383.315 16.1424 383.495 16.6224 383.471 17.2464C383.423 18.4224 383.351 19.5144 383.255 20.5224C383.807 22.4904 384.707 24.2064 385.955 25.6704C387.203 27.1104 388.895 28.2984 391.031 29.2344C391.583 29.4744 391.943 29.8464 392.111 30.3504C392.279 30.8784 392.231 31.4184 391.967 31.9704C391.679 32.5224 391.235 32.8824 390.635 33.0504C390.059 33.2184 389.495 33.1584 388.943 32.8704C387.335 32.0304 385.943 31.0704 384.767 29.9904C383.615 28.8864 382.655 27.6024 381.887 26.1384C381.167 27.8184 380.171 29.2104 378.899 30.3144C377.627 31.3944 376.007 32.3544 374.039 33.1944ZM375.047 17.4264C374.519 17.6664 373.967 17.7264 373.391 17.6064C372.839 17.4624 372.431 17.1264 372.167 16.5984C371.927 16.0944 371.891 15.6024 372.059 15.1224C372.251 14.6184 372.623 14.2464 373.175 14.0064C374.855 13.2864 376.139 12.4104 377.027 11.3784C377.939 10.3464 378.563 9.0624 378.899 7.5264C379.259 5.9664 379.451 4.0824 379.475 1.8744C379.475 1.2744 379.679 0.8064 380.087 0.4704C380.495 0.1344 380.963 -0.0215998 381.491 0.00239994C382.043 0.0263996 382.499 0.206399 382.859 0.542399C383.243 0.8784 383.423 1.3584 383.399 1.9824C383.375 2.6304 383.339 3.2544 383.291 3.8544C383.267 4.4304 383.219 4.9944 383.147 5.5464C383.675 7.3704 384.575 8.9424 385.847 10.2624C387.119 11.5824 388.799 12.7224 390.887 13.6824C391.367 13.8984 391.679 14.2584 391.823 14.7624C391.967 15.2664 391.895 15.7704 391.607 16.2744C391.319 16.8024 390.899 17.1264 390.347 17.2464C389.795 17.3664 389.243 17.3064 388.691 17.0664C385.619 15.5544 383.315 13.4544 381.779 10.7664C381.131 12.2544 380.255 13.5384 379.151 14.6184C378.047 15.6744 376.679 16.6104 375.047 17.4264ZM365.579 32.5104C364.235 32.5104 363.167 32.3544 362.375 32.0424C361.607 31.7544 361.067 31.2264 360.755 30.4584C360.443 29.6904 360.287 28.5984 360.287 27.1824C360.287 25.7184 360.443 24.6024 360.755 23.8344C361.067 23.0664 361.607 22.5504 362.375 22.2864C363.167 21.9984 364.235 21.8544 365.579 21.8544C366.947 21.8544 368.015 21.9984 368.783 22.2864C369.551 22.5504 370.091 23.0664 370.403 23.8344C370.715 24.6024 370.871 25.7184 370.871 27.1824C370.871 28.5984 370.715 29.6904 370.403 30.4584C370.091 31.2264 369.551 31.7544 368.783 32.0424C368.015 32.3544 366.947 32.5104 365.579 32.5104ZM360.359 10.0464C359.903 10.0464 359.507 9.8784 359.171 9.5424C358.859 9.2064 358.703 8.8104 358.703 8.3544C358.703 7.8984 358.859 7.5144 359.171 7.2024C359.507 6.8664 359.903 6.6984 360.359 6.6984H370.223C370.679 6.6984 371.063 6.8664 371.375 7.2024C371.711 7.5144 371.879 7.8984 371.879 8.3544C371.879 8.8104 371.711 9.2064 371.375 9.5424C371.063 9.8784 370.679 10.0464 370.223 10.0464H360.359ZM361.979 5.0064C361.523 5.0064 361.127 4.8384 360.791 4.5024C360.455 4.1424 360.287 3.7344 360.287 3.2784C360.287 2.7984 360.455 2.3904 360.791 2.0544C361.127 1.7184 361.523 1.5504 361.979 1.5504H368.927C369.407 1.5504 369.803 1.7184 370.115 2.0544C370.451 2.3904 370.619 2.7984 370.619 3.2784C370.619 3.7344 370.451 4.1424 370.115 4.5024C369.803 4.8384 369.407 5.0064 368.927 5.0064H361.979ZM361.943 20.1984C361.487 20.1984 361.091 20.0304 360.755 19.6944C360.419 19.3584 360.251 18.9624 360.251 18.5064C360.251 18.0264 360.419 17.6304 360.755 17.3184C361.091 16.9824 361.487 16.8144 361.943 16.8144H368.963C369.443 16.8144 369.839 16.9824 370.151 17.3184C370.463 17.6304 370.619 18.0264 370.619 18.5064C370.619 18.9624 370.463 19.3584 370.151 19.6944C369.839 20.0304 369.443 20.1984 368.963 20.1984H361.943ZM361.943 15.1224C361.487 15.1224 361.091 14.9544 360.755 14.6184C360.419 14.2824 360.251 13.8864 360.251 13.4304C360.251 12.9504 360.419 12.5544 360.755 12.2424C361.091 11.9064 361.487 11.7384 361.943 11.7384H368.963C369.443 11.7384 369.839 11.9064 370.151 12.2424C370.463 12.5544 370.619 12.9504 370.619 13.4304C370.619 13.8864 370.463 14.2824 370.151 14.6184C369.839 14.9544 369.443 15.1224 368.963 15.1224H361.943ZM373.931 25.7784C373.403 25.6344 373.031 25.3464 372.815 24.9144C372.599 24.4584 372.575 23.9904 372.743 23.5104C372.863 23.1504 372.995 22.7184 373.139 22.2144C373.283 21.6864 373.427 21.1704 373.571 20.6664C373.739 20.1384 373.859 19.7184 373.931 19.4064C374.051 18.8544 374.327 18.4584 374.759 18.2184C375.191 17.9784 375.659 17.9184 376.163 18.0384C376.667 18.1344 377.051 18.3864 377.315 18.7944C377.603 19.2024 377.687 19.6824 377.567 20.2344C377.495 20.5944 377.387 21.0504 377.243 21.6024C377.099 22.1544 376.943 22.6944 376.775 23.2224C376.631 23.7504 376.499 24.1824 376.379 24.5184C376.211 25.0464 375.887 25.4304 375.407 25.6704C374.951 25.9104 374.459 25.9464 373.931 25.7784ZM374.111 9.9744C373.583 9.8544 373.211 9.5784 372.995 9.1464C372.779 8.6904 372.743 8.2224 372.887 7.7424C373.007 7.3824 373.139 6.9504 373.283 6.4464C373.427 5.9184 373.559 5.3904 373.679 4.8624C373.823 4.3344 373.919 3.9144 373.967 3.6024C374.087 3.0504 374.351 2.6544 374.759 2.4144C375.191 2.1744 375.671 2.1024 376.199 2.1984C376.703 2.2944 377.099 2.5344 377.387 2.9184C377.675 3.3024 377.759 3.7704 377.639 4.3224C377.567 4.7064 377.459 5.1744 377.315 5.7264C377.195 6.2784 377.063 6.8184 376.919 7.3464C376.799 7.8744 376.679 8.3184 376.559 8.6784C376.391 9.2064 376.079 9.5904 375.623 9.8304C375.167 10.0704 374.663 10.1184 374.111 9.9744ZM386.171 9.1104C385.715 8.8704 385.415 8.5224 385.271 8.0664C385.151 7.5864 385.211 7.1184 385.451 6.6624C385.667 6.2304 385.943 5.6544 386.279 4.9344C386.639 4.2144 386.927 3.6264 387.143 3.1704C387.359 2.6904 387.695 2.3664 388.151 2.1984C388.631 2.0304 389.123 2.0544 389.627 2.2704C390.107 2.4624 390.431 2.7864 390.599 3.2424C390.791 3.6744 390.779 4.1424 390.563 4.6464C390.443 4.9344 390.275 5.3184 390.059 5.7984C389.843 6.2544 389.615 6.7224 389.375 7.2024C389.159 7.6584 388.967 8.0424 388.799 8.3544C388.535 8.8104 388.151 9.1104 387.647 9.2544C387.143 9.3984 386.651 9.3504 386.171 9.1104ZM386.207 24.8064C385.751 24.5424 385.451 24.1704 385.307 23.6904C385.187 23.2104 385.247 22.7424 385.487 22.2864C385.727 21.8784 386.003 21.3384 386.315 20.6664C386.651 19.9704 386.927 19.4064 387.143 18.9744C387.359 18.4704 387.695 18.1344 388.151 17.9664C388.631 17.7744 389.123 17.7864 389.627 18.0024C390.107 18.1944 390.443 18.5184 390.635 18.9744C390.827 19.4064 390.815 19.8864 390.599 20.4144C390.479 20.7024 390.311 21.0744 390.095 21.5304C389.879 21.9864 389.651 22.4424 389.411 22.8984C389.195 23.3304 389.003 23.7024 388.835 24.0144C388.595 24.4944 388.211 24.8064 387.683 24.9504C387.179 25.0944 386.687 25.0464 386.207 24.8064ZM365.579 29.1624C366.227 29.1624 366.647 29.0424 366.839 28.8024C367.031 28.5624 367.127 28.0224 367.127 27.1824C367.127 26.3424 367.031 25.8024 366.839 25.5624C366.647 25.2984 366.227 25.1664 365.579 25.1664C364.955 25.1664 364.535 25.2984 364.319 25.5624C364.127 25.8024 364.031 26.3424 364.031 27.1824C364.031 28.0224 364.127 28.5624 364.319 28.8024C364.535 29.0424 364.955 29.1624 365.579 29.1624Z" fill="#070E50"/>
<path d="M346.643 31.9706C344.675 31.9706 343.127 31.7546 341.999 31.3226C340.895 30.9146 340.103 30.2066 339.623 29.1986C339.167 28.1666 338.939 26.7626 338.939 24.9866V8.57058C338.939 6.79458 339.167 5.40258 339.623 4.39458C340.103 3.36258 340.895 2.64257 341.999 2.23458C343.127 1.80258 344.675 1.58658 346.643 1.58658C348.611 1.58658 350.147 1.80258 351.251 2.23458C352.379 2.64257 353.171 3.36258 353.627 4.39458C354.107 5.40258 354.347 6.79458 354.347 8.57058V24.9866C354.347 26.7626 354.107 28.1666 353.627 29.1986C353.171 30.2066 352.379 30.9146 351.251 31.3226C350.147 31.7546 348.611 31.9706 346.643 31.9706ZM331.343 33.3026C330.767 33.3026 330.275 33.1106 329.867 32.7266C329.483 32.3666 329.291 31.8746 329.291 31.2506V19.6226C328.763 20.5346 328.235 21.4106 327.707 22.2506C327.179 23.0666 326.687 23.7866 326.231 24.4106C325.871 24.8906 325.403 25.1906 324.827 25.3106C324.251 25.4066 323.723 25.2626 323.243 24.8786C322.787 24.5426 322.523 24.0986 322.451 23.5466C322.379 22.9706 322.523 22.4666 322.883 22.0346C323.363 21.4346 323.903 20.6786 324.503 19.7666C325.103 18.8546 325.703 17.8826 326.303 16.8506C326.927 15.7946 327.503 14.7866 328.031 13.8266C328.559 12.8426 328.979 12.0026 329.291 11.3066V11.1266H324.827C324.251 11.1266 323.795 10.9466 323.459 10.5866C323.123 10.2266 322.955 9.78258 322.955 9.25458C322.955 8.75058 323.123 8.31857 323.459 7.95857C323.795 7.57457 324.251 7.38258 324.827 7.38258H329.291V2.09058C329.291 1.46657 329.483 0.974575 329.867 0.614575C330.275 0.230575 330.767 0.0385742 331.343 0.0385742C331.895 0.0385742 332.363 0.230575 332.747 0.614575C333.155 0.974575 333.359 1.46657 333.359 2.09058V7.38258H336.095C336.647 7.38258 337.091 7.57457 337.427 7.95857C337.763 8.31857 337.931 8.75058 337.931 9.25458C337.931 9.78258 337.763 10.2266 337.427 10.5866C337.091 10.9466 336.647 11.1266 336.095 11.1266H333.359V13.5746C333.743 14.0066 334.235 14.5586 334.835 15.2306C335.459 15.8786 336.071 16.5146 336.671 17.1386C337.295 17.7386 337.775 18.2066 338.111 18.5426C338.519 18.9266 338.735 19.3826 338.759 19.9106C338.783 20.4386 338.615 20.9066 338.255 21.3146C337.895 21.6986 337.439 21.8906 336.887 21.8906C336.359 21.8906 335.915 21.6986 335.555 21.3146C335.291 21.0266 334.955 20.6666 334.547 20.2346C334.163 19.7786 333.767 19.3226 333.359 18.8666V31.2506C333.359 31.8746 333.155 32.3666 332.747 32.7266C332.363 33.1106 331.895 33.3026 331.343 33.3026ZM343.079 19.2266H350.207V14.0426H343.079V19.2266ZM346.643 28.1906C347.627 28.1906 348.371 28.0946 348.875 27.9026C349.379 27.7106 349.727 27.3866 349.919 26.9306C350.111 26.4506 350.207 25.7786 350.207 24.9146V22.8986H343.079V24.9146C343.079 25.7786 343.163 26.4506 343.331 26.9306C343.523 27.3866 343.871 27.7106 344.375 27.9026C344.903 28.0946 345.659 28.1906 346.643 28.1906ZM343.079 10.3706H350.207V8.64257C350.207 7.77857 350.111 7.11857 349.919 6.66257C349.727 6.18258 349.379 5.85858 348.875 5.69057C348.371 5.49858 347.627 5.40258 346.643 5.40258C345.659 5.40258 344.903 5.49858 344.375 5.69057C343.871 5.85858 343.523 6.18258 343.331 6.66257C343.163 7.11857 343.079 7.77857 343.079 8.64257V10.3706Z" fill="#070E50"/>
<path d="M293.471 30.9267C292.871 31.0227 292.331 30.9027 291.851 30.5667C291.371 30.2307 291.071 29.7747 290.951 29.1987C290.735 27.9747 290.567 26.5587 290.447 24.9507C290.327 23.3187 290.267 21.6027 290.267 19.8027C290.267 18.0027 290.315 16.1907 290.411 14.3667C290.507 12.5427 290.651 10.8027 290.843 9.14673C291.059 7.46673 291.311 5.96673 291.599 4.64673C291.719 4.07073 292.031 3.62673 292.535 3.31473C293.039 2.97873 293.579 2.87073 294.155 2.99073C294.731 3.13473 295.175 3.45873 295.487 3.96273C295.823 4.44273 295.931 4.98273 295.811 5.58273C295.427 7.28673 295.127 9.13473 294.911 11.1267C294.695 13.1187 294.551 15.1467 294.479 17.2107C294.431 19.2507 294.467 21.2427 294.587 23.1867C294.707 25.1067 294.911 26.8587 295.199 28.4427C295.319 29.0187 295.199 29.5467 294.839 30.0267C294.503 30.5067 294.047 30.8067 293.471 30.9267ZM308.231 28.9827C305.111 28.9827 302.783 28.4187 301.247 27.2907C299.735 26.1627 298.823 24.5067 298.511 22.3227C298.415 21.7467 298.535 21.2187 298.871 20.7387C299.231 20.2587 299.711 19.9707 300.311 19.8747C300.887 19.8027 301.415 19.9467 301.895 20.3067C302.375 20.6427 302.663 21.1107 302.759 21.7107C302.903 22.7427 303.395 23.5107 304.235 24.0147C305.075 24.5187 306.443 24.7707 308.339 24.7707C310.139 24.7707 312.311 24.4947 314.855 23.9427C315.431 23.7987 315.971 23.8947 316.475 24.2307C316.979 24.5667 317.291 25.0227 317.411 25.5987C317.531 26.1747 317.423 26.7147 317.087 27.2187C316.751 27.6987 316.295 28.0107 315.719 28.1547C314.423 28.4667 313.127 28.6827 311.831 28.8027C310.559 28.9227 309.359 28.9827 308.231 28.9827ZM301.643 11.1627C301.067 11.2827 300.527 11.1867 300.023 10.8747C299.543 10.5387 299.243 10.0707 299.123 9.47073C299.003 8.89473 299.099 8.35473 299.411 7.85073C299.747 7.34673 300.215 7.04673 300.815 6.95073C302.159 6.68673 303.659 6.51873 305.315 6.44673C306.971 6.35073 308.615 6.33873 310.247 6.41073C311.879 6.45873 313.319 6.59073 314.567 6.80673C315.167 6.90273 315.635 7.20273 315.971 7.70673C316.307 8.18673 316.415 8.72673 316.295 9.32673C316.199 9.92673 315.899 10.3947 315.395 10.7307C314.915 11.0427 314.387 11.1507 313.811 11.0547C311.867 10.7187 309.851 10.5627 307.763 10.5867C305.675 10.5867 303.635 10.7787 301.643 11.1627Z" fill="#070E50"/>
<path d="M271.367 30.2426C270.767 30.3866 270.203 30.3026 269.675 29.9906C269.147 29.6786 268.811 29.2346 268.667 28.6586C268.523 28.0826 268.607 27.5426 268.919 27.0386C269.231 26.5106 269.675 26.1746 270.251 26.0306C272.915 25.3346 274.871 24.2066 276.119 22.6466C277.391 21.0866 278.027 19.1066 278.027 16.7066C278.027 15.1946 277.691 13.8386 277.019 12.6386C276.347 11.4386 275.387 10.4666 274.139 9.72262C272.915 8.97862 271.439 8.52262 269.711 8.35462C269.279 12.3866 268.547 15.8786 267.515 18.8306C266.507 21.7586 265.307 24.0266 263.915 25.6346C262.547 27.2186 261.107 28.0106 259.595 28.0106C258.323 28.0106 257.159 27.6386 256.103 26.8946C255.047 26.1506 254.207 25.0826 253.583 23.6906C252.983 22.2986 252.683 20.6306 252.683 18.6866C252.683 16.6946 253.055 14.8346 253.799 13.1066C254.567 11.3546 255.647 9.81862 257.039 8.49862C258.431 7.17862 260.063 6.14662 261.935 5.40262C263.831 4.65862 265.907 4.28662 268.163 4.28662C270.899 4.28662 273.323 4.81462 275.435 5.87062C277.571 6.90262 279.251 8.35462 280.475 10.2266C281.699 12.0746 282.311 14.2346 282.311 16.7066C282.311 20.1866 281.375 23.0906 279.503 25.4186C277.655 27.7226 274.943 29.3306 271.367 30.2426ZM259.631 23.5826C260.063 23.5826 260.555 23.2226 261.107 22.5026C261.683 21.7586 262.259 20.7146 262.835 19.3706C263.411 18.0266 263.939 16.4426 264.419 14.6186C264.899 12.7706 265.259 10.7306 265.499 8.49862C263.627 8.85862 262.055 9.55462 260.783 10.5866C259.511 11.5946 258.551 12.8066 257.903 14.2226C257.255 15.6146 256.919 17.0786 256.895 18.6146C256.895 20.2466 257.147 21.4826 257.651 22.3226C258.179 23.1626 258.839 23.5826 259.631 23.5826Z" fill="#070E50"/>
<path d="M225.647 27.5064C224.543 27.5544 223.487 27.3024 222.479 26.7504C221.471 26.1984 220.583 25.3104 219.815 24.0864C219.167 23.0064 218.615 21.6384 218.159 19.9824C217.703 18.3264 217.379 16.5384 217.187 14.6184C216.995 12.6744 216.947 10.7424 217.043 8.82241C217.091 8.22241 217.319 7.73041 217.727 7.34641C218.159 6.93841 218.675 6.75841 219.275 6.80641C219.875 6.83041 220.367 7.07041 220.751 7.52641C221.159 7.95841 221.339 8.47441 221.291 9.07441C221.195 10.7544 221.207 12.3984 221.327 14.0064C221.447 15.5904 221.675 17.0424 222.011 18.3624C222.347 19.6584 222.767 20.7384 223.271 21.6024C223.823 22.5864 224.519 23.0784 225.359 23.0784C226.391 23.0544 227.255 21.9744 227.951 19.8384C228.143 19.2864 228.503 18.8784 229.031 18.6144C229.559 18.3264 230.111 18.2784 230.687 18.4704C231.239 18.6384 231.647 18.9984 231.911 19.5504C232.175 20.0784 232.211 20.6184 232.019 21.1704C231.347 23.2824 230.447 24.8544 229.319 25.8864C228.191 26.8944 226.967 27.4344 225.647 27.5064ZM245.267 21.1704C244.691 21.3864 244.127 21.3624 243.575 21.0984C243.047 20.8344 242.675 20.4264 242.459 19.8744C242.099 18.9864 241.607 18.0864 240.983 17.1744C240.383 16.2624 239.699 15.3984 238.931 14.5824C238.187 13.7664 237.419 13.0824 236.627 12.5304C236.147 12.1944 235.847 11.7264 235.727 11.1264C235.607 10.5264 235.739 9.98641 236.123 9.50641C236.507 9.02641 236.975 8.76241 237.527 8.71441C238.103 8.66641 238.643 8.82241 239.147 9.18241C240.155 9.87841 241.139 10.7304 242.099 11.7384C243.083 12.7464 243.971 13.8264 244.763 14.9784C245.555 16.1304 246.143 17.2584 246.527 18.3624C246.719 18.9144 246.695 19.4784 246.455 20.0544C246.215 20.6064 245.819 20.9784 245.267 21.1704Z" fill="#070E50"/>
<path d="M194.471 32.7265C192.647 32.7265 191.135 32.2585 189.935 31.3225C188.759 30.4105 188.171 29.0545 188.171 27.2545C188.171 25.6225 188.747 24.3265 189.899 23.3665C191.075 22.3825 192.623 21.8905 194.543 21.8905C195.263 21.8905 195.959 21.9265 196.631 21.9985V15.1945C196.631 14.5705 196.835 14.0545 197.243 13.6465C197.651 13.2385 198.155 13.0345 198.755 13.0345C199.355 13.0345 199.859 13.2385 200.267 13.6465C200.675 14.0545 200.879 14.5705 200.879 15.1945V22.9705C202.175 23.3785 203.399 23.8825 204.551 24.4825C205.727 25.0585 206.759 25.6585 207.647 26.2825C208.127 26.6425 208.415 27.1225 208.511 27.7225C208.607 28.2985 208.475 28.8265 208.115 29.3065C207.779 29.7865 207.311 30.0745 206.711 30.1705C206.135 30.2665 205.607 30.1465 205.127 29.8105C204.551 29.3545 203.891 28.9225 203.147 28.5145C202.427 28.0825 201.671 27.6865 200.879 27.3265C200.735 29.0785 200.123 30.4105 199.043 31.3225C197.963 32.2585 196.439 32.7265 194.471 32.7265ZM184.895 22.7545C184.439 23.1385 183.911 23.3305 183.311 23.3305C182.735 23.3305 182.243 23.1265 181.835 22.7185C181.403 22.2865 181.187 21.7705 181.187 21.1705C181.187 20.5465 181.415 20.0425 181.871 19.6585C183.239 18.4345 184.439 17.0425 185.471 15.4825C186.527 13.9225 187.391 12.3025 188.063 10.6225C187.415 10.7185 186.779 10.7905 186.155 10.8385C185.555 10.8865 184.979 10.9345 184.427 10.9825C183.803 11.0065 183.275 10.8265 182.843 10.4425C182.411 10.0585 182.183 9.53053 182.159 8.85853C182.135 8.25852 182.315 7.76652 182.699 7.38253C183.083 6.97452 183.611 6.75852 184.283 6.73452C185.051 6.68652 185.855 6.61452 186.695 6.51852C187.559 6.42252 188.423 6.31453 189.287 6.19453C189.407 5.64253 189.479 5.07853 189.503 4.50252C189.551 3.92652 189.575 3.37452 189.575 2.84652C189.575 2.24652 189.779 1.74252 190.187 1.33452C190.595 0.902524 191.099 0.686523 191.699 0.686523C192.299 0.686523 192.815 0.902524 193.247 1.33452C193.679 1.74252 193.883 2.24652 193.859 2.84652C193.835 3.66253 193.763 4.51453 193.643 5.40253C193.811 5.35453 193.967 5.31852 194.111 5.29452C194.279 5.24652 194.435 5.21052 194.579 5.18652C195.179 5.04252 195.731 5.11453 196.235 5.40253C196.739 5.69053 197.051 6.14652 197.171 6.77052C197.291 7.37052 197.183 7.91052 196.847 8.39052C196.535 8.87052 196.091 9.18252 195.515 9.32652C195.131 9.42252 194.687 9.51852 194.183 9.61452C193.703 9.71052 193.199 9.80653 192.671 9.90253C191.927 12.4225 190.883 14.7985 189.539 17.0305C188.219 19.2625 186.671 21.1705 184.895 22.7545ZM205.667 13.2145C204.899 12.7345 203.987 12.2425 202.931 11.7385C201.899 11.2345 200.987 10.8625 200.195 10.6225C199.643 10.4305 199.211 10.0945 198.899 9.61452C198.587 9.13452 198.503 8.60653 198.647 8.03053C198.767 7.45452 199.079 7.01052 199.583 6.69853C200.111 6.38653 200.663 6.31452 201.239 6.48252C201.959 6.67452 202.751 6.95053 203.615 7.31052C204.479 7.67053 205.307 8.05453 206.099 8.46253C206.915 8.87053 207.587 9.25452 208.115 9.61452C208.595 9.92652 208.883 10.3825 208.979 10.9825C209.099 11.5825 208.991 12.1345 208.655 12.6385C208.343 13.1185 207.887 13.4185 207.287 13.5385C206.711 13.6345 206.171 13.5265 205.667 13.2145ZM194.435 28.7665C195.227 28.7665 195.791 28.5865 196.127 28.2265C196.463 27.8665 196.631 27.3145 196.631 26.5705V25.9585C196.247 25.8625 195.863 25.8025 195.479 25.7785C195.119 25.7305 194.771 25.7065 194.435 25.7065C193.691 25.7065 193.139 25.8505 192.779 26.1385C192.443 26.4025 192.275 26.7745 192.275 27.2545C192.275 27.7105 192.443 28.0825 192.779 28.3705C193.115 28.6345 193.667 28.7665 194.435 28.7665Z" fill="#070E50"/>
<path d="M168.875 31.5024C166.043 31.0944 163.703 30.2784 161.855 29.0544C160.007 27.8064 158.627 26.3064 157.715 24.5544C156.827 22.8024 156.383 20.9784 156.383 19.0824C156.383 17.1624 156.755 15.3744 157.499 13.7184C158.267 12.0384 159.359 10.5864 160.775 9.3624C159.335 9.5784 157.799 9.8304 156.167 10.1184C154.535 10.3824 152.951 10.6584 151.415 10.9464C149.879 11.2104 148.535 11.4504 147.383 11.6664C146.807 11.7624 146.279 11.6304 145.799 11.2704C145.319 10.9104 145.031 10.4424 144.935 9.8664C144.839 9.2664 144.971 8.7384 145.331 8.2824C145.691 7.8024 146.171 7.5144 146.771 7.4184C147.539 7.2984 148.523 7.1424 149.723 6.9504C150.923 6.7344 152.267 6.5064 153.755 6.2664C155.243 6.0264 156.767 5.7744 158.327 5.5104C159.887 5.2464 161.411 4.9944 162.899 4.7544C164.411 4.4904 165.791 4.2504 167.039 4.0344C168.287 3.8184 169.307 3.6384 170.099 3.4944C170.651 3.3984 171.167 3.5184 171.647 3.8544C172.127 4.1904 172.427 4.6344 172.547 5.1864C172.667 5.7624 172.559 6.3024 172.223 6.8064C171.911 7.3104 171.467 7.6104 170.891 7.7064C169.139 7.9464 167.615 8.4504 166.319 9.2184C165.047 9.9624 163.991 10.8744 163.151 11.9544C162.311 13.0104 161.687 14.1384 161.279 15.3384C160.871 16.5384 160.667 17.7024 160.667 18.8304C160.667 21.1584 161.459 23.0424 163.043 24.4824C164.627 25.8984 166.775 26.8104 169.487 27.2184C170.087 27.3144 170.567 27.6024 170.927 28.0824C171.287 28.5624 171.419 29.0904 171.323 29.6664C171.227 30.2664 170.939 30.7464 170.459 31.1064C170.003 31.4664 169.475 31.5984 168.875 31.5024Z" fill="#070E50"/>
<path d="M122.075 31.0708C121.547 31.1428 121.067 31.0108 120.635 30.6748C120.227 30.3628 119.987 29.9428 119.915 29.4148C119.867 28.8868 119.999 28.4188 120.311 28.0108C120.647 27.5788 121.079 27.3268 121.607 27.2548C123.887 26.9428 125.687 26.4508 127.007 25.7788C128.351 25.1068 129.287 24.3148 129.815 23.4028C130.343 22.4908 130.535 21.5428 130.391 20.5588C130.223 19.2868 129.755 18.3628 128.987 17.7868C128.219 17.2108 127.127 16.9828 125.711 17.1028C124.943 17.1508 124.043 17.2588 123.011 17.4268C122.003 17.5708 120.959 17.7388 119.879 17.9308C118.799 18.1228 117.767 18.3388 116.783 18.5788C115.799 18.7948 114.947 18.9988 114.227 19.1908C113.699 19.3348 113.207 19.2868 112.751 19.0468C112.295 18.7828 111.995 18.3868 111.851 17.8588C111.707 17.3548 111.755 16.8748 111.995 16.4188C112.259 15.9388 112.655 15.6268 113.183 15.4828C113.951 15.2668 114.851 15.0508 115.883 14.8348C116.939 14.6188 118.031 14.4148 119.159 14.2228C120.311 14.0068 121.427 13.8268 122.507 13.6828C123.611 13.5388 124.583 13.4308 125.423 13.3588C127.847 13.1668 129.827 13.6588 131.363 14.8348C132.899 15.9868 133.823 17.6788 134.135 19.9108C134.399 21.6148 134.135 23.2588 133.343 24.8428C132.551 26.4028 131.219 27.7468 129.347 28.8748C127.475 29.9788 125.051 30.7108 122.075 31.0708Z" fill="#070E50"/>
<path d="M75.1309 33.0504C74.4829 33.2424 73.9069 33.2544 73.4029 33.0864C72.9229 32.9424 72.5629 32.5944 72.3229 32.0424C72.1069 31.4904 72.1189 30.9744 72.3589 30.4944C72.5989 30.0144 73.0189 29.6904 73.6189 29.5224C74.6029 29.2584 75.6949 28.8984 76.8949 28.4424C78.1189 27.9864 79.2349 27.5064 80.2429 27.0024C78.7309 26.8104 77.6749 26.3304 77.0749 25.5624C76.4749 24.7944 76.1749 23.5704 76.1749 21.8904V16.8144C76.1749 15.4704 76.3549 14.4264 76.7149 13.6824C77.0989 12.9144 77.7229 12.3744 78.5869 12.0624C79.4509 11.7504 80.6389 11.5944 82.1509 11.5944H92.9869C94.4989 11.5944 95.6869 11.7504 96.5509 12.0624C97.4149 12.3744 98.0269 12.9144 98.3869 13.6824C98.7709 14.4264 98.9629 15.4704 98.9629 16.8144V21.8904C98.9629 23.5944 98.6509 24.8304 98.0269 25.5984C97.4269 26.3664 96.3469 26.8344 94.7869 27.0024C95.7709 27.5064 96.8749 27.9864 98.0989 28.4424C99.3229 28.8984 100.415 29.2584 101.375 29.5224C101.951 29.6904 102.359 30.0144 102.599 30.4944C102.863 30.9744 102.875 31.4904 102.635 32.0424C102.395 32.5944 102.035 32.9424 101.555 33.0864C101.075 33.2544 100.499 33.2424 99.8269 33.0504C99.0589 32.8104 98.1949 32.4984 97.2349 32.1144C96.2749 31.7304 95.3269 31.3224 94.3909 30.8904C93.4789 30.4584 92.6869 30.0504 92.0149 29.6664C91.5589 29.4024 91.2829 29.0424 91.1869 28.5864C91.0909 28.1064 91.1629 27.6504 91.4029 27.2184L91.5109 27.1104H83.4829C83.4829 27.1344 83.5069 27.1704 83.5549 27.2184C83.8189 27.6504 83.9029 28.1064 83.8069 28.5864C83.7349 29.0424 83.4589 29.4024 82.9789 29.6664C82.3069 30.0504 81.5029 30.4584 80.5669 30.8904C79.6309 31.3224 78.6829 31.7304 77.7229 32.1144C76.7869 32.4984 75.9229 32.8104 75.1309 33.0504ZM77.5069 10.0104C76.2829 10.0104 75.3109 9.89043 74.5909 9.65043C73.8709 9.38643 73.3549 8.93043 73.0429 8.28243C72.7549 7.63443 72.6109 6.73443 72.6109 5.58243C72.6109 4.43043 72.7549 3.54243 73.0429 2.91843C73.3549 2.27043 73.8709 1.82643 74.5909 1.58643C75.3109 1.32243 76.2829 1.19043 77.5069 1.19043H97.5949C98.8429 1.19043 99.8149 1.32243 100.511 1.58643C101.231 1.82643 101.747 2.27043 102.059 2.91843C102.371 3.54243 102.527 4.43043 102.527 5.58243C102.527 6.73443 102.371 7.63443 102.059 8.28243C101.747 8.93043 101.231 9.38643 100.511 9.65043C99.8149 9.89043 98.8429 10.0104 97.5949 10.0104H77.5069ZM80.4589 20.0904H94.6789V18.5064H80.4589V20.0904ZM82.9789 24.1944H92.1589C93.1189 24.1944 93.7669 24.1104 94.1029 23.9424C94.4389 23.7504 94.6309 23.3064 94.6789 22.6104H80.4589C80.5069 23.3064 80.6989 23.7504 81.0349 23.9424C81.3709 24.1104 82.0189 24.1944 82.9789 24.1944ZM80.4589 15.9864H94.6429C94.6189 15.3144 94.4269 14.8944 94.0669 14.7264C93.7309 14.5584 93.0949 14.4744 92.1589 14.4744H82.9789C82.0429 14.4744 81.3949 14.5584 81.0349 14.7264C80.6989 14.8944 80.5069 15.3144 80.4589 15.9864ZM78.4429 6.91443H81.2509V4.28643H78.4429C77.7469 4.28643 77.2909 4.37043 77.0749 4.53843C76.8829 4.70643 76.7869 5.05443 76.7869 5.58243C76.7869 6.11043 76.8829 6.47043 77.0749 6.66243C77.2909 6.83043 77.7469 6.91443 78.4429 6.91443ZM93.8869 6.91443H96.6589C97.3549 6.91443 97.7989 6.83043 97.9909 6.66243C98.2069 6.47043 98.3149 6.11043 98.3149 5.58243C98.3149 5.05443 98.2069 4.70643 97.9909 4.53843C97.7989 4.37043 97.3549 4.28643 96.6589 4.28643H93.8869V6.91443ZM85.4629 6.91443H89.6749V4.28643H85.4629V6.91443Z" fill="#070E50"/>
<path d="M38.4469 31.5026C37.9429 31.1906 37.6189 30.7466 37.4749 30.1706C37.3309 29.5946 37.4149 29.0546 37.7269 28.5506C38.6629 27.0386 39.4909 25.3706 40.2109 23.5466C40.9309 21.7226 41.5429 19.8266 42.0469 17.8586C42.5749 15.8906 42.9949 13.9586 43.3069 12.0626C42.6109 12.1346 41.9269 12.1946 41.2549 12.2426C40.6069 12.2906 39.9949 12.3386 39.4189 12.3866C38.8189 12.4106 38.2909 12.2426 37.8349 11.8826C37.4029 11.4986 37.1629 11.0066 37.1149 10.4066C37.0909 9.80657 37.2709 9.29057 37.6549 8.85857C38.0389 8.40257 38.5309 8.16256 39.1309 8.13857C39.8509 8.09057 40.6069 8.04256 41.3989 7.99456C42.2149 7.94656 43.0309 7.87457 43.8469 7.77857C43.9189 6.96257 43.9669 6.18257 43.9909 5.43857C44.0149 4.69457 44.0149 3.98657 43.9909 3.31457C43.9669 2.71457 44.1469 2.19857 44.5309 1.76657C44.9149 1.33457 45.4069 1.10657 46.0069 1.08257C46.6069 1.05857 47.1229 1.25057 47.5549 1.65857C47.9869 2.04257 48.2149 2.53457 48.2389 3.13457C48.2869 4.35857 48.2509 5.72656 48.1309 7.23857C48.6589 7.14257 49.1629 7.05857 49.6429 6.98656C50.1469 6.89056 50.6029 6.79457 51.0109 6.69857C51.6109 6.57857 52.1509 6.67456 52.6309 6.98656C53.1349 7.29856 53.4469 7.74257 53.5669 8.31857C53.6869 8.91857 53.5789 9.45857 53.2429 9.93857C52.9309 10.4186 52.4869 10.7186 51.9109 10.8386C51.3109 10.9586 50.6509 11.0786 49.9309 11.1986C49.2109 11.3186 48.4429 11.4386 47.6269 11.5586C47.2909 13.7426 46.8349 16.0106 46.2589 18.3626C45.6829 20.6906 44.9869 22.9346 44.1709 25.0946C43.3549 27.2306 42.4309 29.1266 41.3989 30.7826C41.0869 31.2866 40.6429 31.6106 40.0669 31.7546C39.4909 31.8986 38.9509 31.8146 38.4469 31.5026ZM63.5029 30.7106C59.9269 31.5266 56.8549 31.5506 54.2869 30.7826C51.7429 30.0146 49.9309 28.5986 48.8509 26.5346C48.5869 26.0066 48.5269 25.4666 48.6709 24.9146C48.8389 24.3386 49.1869 23.9066 49.7149 23.6186C50.2429 23.3306 50.7829 23.2706 51.3349 23.4386C51.9109 23.6066 52.3429 23.9546 52.6309 24.4826C53.3269 25.7546 54.5269 26.5466 56.2309 26.8586C57.9349 27.1706 60.0709 27.0506 62.6389 26.4986C63.2149 26.3786 63.7549 26.4866 64.2589 26.8226C64.7629 27.1346 65.0749 27.5786 65.1949 28.1546C65.3149 28.7546 65.2069 29.3066 64.8709 29.8106C64.5589 30.2906 64.1029 30.5906 63.5029 30.7106ZM61.7749 16.9586C60.9589 16.7666 60.0229 16.6346 58.9669 16.5626C57.9109 16.4906 56.8429 16.4786 55.7629 16.5266C54.7069 16.5506 53.7229 16.6466 52.8109 16.8146C52.2349 16.9106 51.7069 16.8026 51.2269 16.4906C50.7469 16.1546 50.4469 15.7106 50.3269 15.1586C50.2309 14.5826 50.3389 14.0546 50.6509 13.5746C50.9869 13.0706 51.4429 12.7706 52.0189 12.6746C53.1469 12.4586 54.3349 12.3266 55.5829 12.2786C56.8549 12.2306 58.1149 12.2546 59.3629 12.3506C60.6109 12.4466 61.7509 12.6146 62.7829 12.8546C63.3349 12.9746 63.7549 13.2866 64.0429 13.7906C64.3549 14.2946 64.4509 14.8346 64.3309 15.4106C64.1869 15.9626 63.8629 16.3946 63.3589 16.7066C62.8549 16.9946 62.3269 17.0786 61.7749 16.9586ZM64.3309 9.97457C64.0189 10.2626 63.6349 10.3946 63.1789 10.3706C62.7469 10.3466 62.3869 10.1786 62.0989 9.86657C61.8109 9.53057 61.4389 9.12257 60.9829 8.64256C60.5509 8.16257 60.1549 7.74257 59.7949 7.38257C59.5549 7.14257 59.4229 6.83057 59.3989 6.44657C59.3989 6.06257 59.5429 5.71457 59.8309 5.40257C60.0949 5.13857 60.4189 5.00657 60.8029 5.00657C61.1869 4.98257 61.5349 5.09056 61.8469 5.33056C62.2309 5.59457 62.6749 5.96657 63.1789 6.44657C63.6829 6.90257 64.1029 7.33456 64.4389 7.74257C64.7269 8.05457 64.8589 8.42657 64.8349 8.85857C64.8109 9.26657 64.6429 9.63857 64.3309 9.97457ZM65.3389 6.69857C65.0269 6.36257 64.6309 5.97857 64.1509 5.54657C63.6709 5.09057 63.2389 4.70657 62.8549 4.39457C62.6149 4.15457 62.4709 3.84257 62.4229 3.45857C62.3749 3.07457 62.4829 2.72657 62.7469 2.41457C62.9869 2.12657 63.2989 1.97057 63.6829 1.94657C64.0669 1.89857 64.4149 1.98257 64.7269 2.19856C65.1349 2.43857 65.6029 2.77457 66.1309 3.20657C66.6829 3.63857 67.1389 4.03457 67.4989 4.39457C67.8109 4.70657 67.9669 5.07857 67.9669 5.51056C67.9909 5.91857 67.8469 6.29057 67.5349 6.62657C67.2709 6.93857 66.9109 7.10657 66.4549 7.13057C66.0229 7.15457 65.6509 7.01057 65.3389 6.69857Z" fill="#070E50"/>
<path d="M11.5911 32.5105C9.62306 32.5105 8.03906 32.0425 6.83906 31.1065C5.63906 30.1945 5.03906 28.8265 5.03906 27.0025C5.03906 25.3705 5.63906 24.0625 6.83906 23.0785C8.06306 22.0945 9.69506 21.6025 11.7351 21.6025C12.4551 21.6025 13.1751 21.6385 13.8951 21.7105L13.7871 17.6425C11.2911 17.7145 9.08306 17.7145 7.16306 17.6425C6.56306 17.5945 6.07106 17.3545 5.68706 16.9225C5.32706 16.4665 5.15906 15.9505 5.18306 15.3745C5.23106 14.7985 5.47106 14.3185 5.90306 13.9345C6.35906 13.5505 6.87506 13.3825 7.45107 13.4305C8.36306 13.4785 9.34706 13.5145 10.4031 13.5385C11.4831 13.5385 12.5751 13.5265 13.6791 13.5025C13.6551 12.9265 13.6431 12.3505 13.6431 11.7745C13.6431 11.1985 13.6311 10.6345 13.6071 10.0825C12.4311 10.1065 11.2911 10.1185 10.1871 10.1185C9.08307 10.0945 8.07506 10.0705 7.16306 10.0465C6.56306 10.0225 6.07106 9.79453 5.68706 9.36252C5.32706 8.90652 5.15906 8.37852 5.18306 7.77853C5.23106 7.20253 5.47106 6.72253 5.90306 6.33852C6.35906 5.95453 6.87506 5.78652 7.45107 5.83452C9.22707 5.95452 11.2551 5.99052 13.5351 5.94252V2.84652C13.5351 2.24652 13.7391 1.74252 14.1471 1.33452C14.5551 0.902524 15.0591 0.686523 15.6591 0.686523C16.2591 0.686523 16.7631 0.902524 17.1711 1.33452C17.6031 1.74252 17.8191 2.24652 17.8191 2.84652C17.8191 3.27852 17.8191 3.74652 17.8191 4.25053C17.8191 4.73053 17.8311 5.24652 17.8551 5.79852C18.8391 5.72652 19.7871 5.65452 20.6991 5.58252C21.6111 5.48652 22.4391 5.39052 23.1831 5.29452C23.7591 5.22252 24.2751 5.36652 24.7311 5.72653C25.2111 6.06253 25.4871 6.51853 25.5591 7.09453C25.6311 7.69452 25.4871 8.23453 25.1271 8.71453C24.7911 9.17053 24.3351 9.43453 23.7591 9.50652C22.9191 9.60252 21.9951 9.68652 20.9871 9.75852C20.0031 9.83053 18.9831 9.89053 17.9271 9.93853C17.9271 10.4905 17.9271 11.0545 17.9271 11.6305C17.9511 12.2065 17.9751 12.7825 17.9991 13.3585C18.9591 13.3105 19.8711 13.2505 20.7351 13.1785C21.6231 13.0825 22.4391 12.9865 23.1831 12.8905C23.7591 12.7945 24.2751 12.9265 24.7311 13.2865C25.2111 13.6465 25.4871 14.1145 25.5591 14.6905C25.6311 15.2665 25.4871 15.7945 25.1271 16.2745C24.7911 16.7305 24.3351 16.9945 23.7591 17.0665C22.9431 17.1625 22.0551 17.2465 21.0951 17.3185C20.1351 17.3905 19.1271 17.4505 18.0711 17.4985C18.1191 18.4585 18.1431 19.3705 18.1431 20.2345C18.1671 21.0985 18.1911 21.9025 18.2151 22.6465C19.6071 23.0545 20.9271 23.5585 22.1751 24.1585C23.4231 24.7585 24.5271 25.3945 25.4871 26.0665C25.9671 26.3785 26.2551 26.8345 26.3511 27.4345C26.4711 28.0345 26.3631 28.5745 26.0271 29.0545C25.6911 29.5345 25.2231 29.8345 24.6231 29.9545C24.0471 30.0505 23.5191 29.9305 23.0391 29.5945C22.3671 29.1145 21.6231 28.6585 20.8071 28.2265C19.9911 27.7705 19.1391 27.3625 18.2511 27.0025C18.1551 28.8985 17.5311 30.2905 16.3791 31.1785C15.2271 32.0665 13.6311 32.5105 11.5911 32.5105ZM11.5551 28.4425C12.5391 28.4425 13.1871 28.2745 13.4991 27.9385C13.8111 27.5785 13.9671 27.0745 13.9671 26.4265V25.7425C13.1511 25.5985 12.3471 25.5265 11.5551 25.5265C10.7871 25.5265 10.2231 25.6585 9.86306 25.9225C9.50306 26.1865 9.32306 26.5465 9.32306 27.0025C9.32306 27.9625 10.0671 28.4425 11.5551 28.4425Z" fill="#070E50"/>
<path d="M0.515137 44.3506C7.17069 40.3506 13.8262 40.3506 20.4818 44.3506C27.1374 48.3506 33.7929 48.3506 40.4485 44.3506C47.104 40.3506 53.7596 40.3506 60.4151 44.3506C67.0707 48.3506 73.7262 48.3506 80.3818 44.3506C87.0374 40.3506 93.6929 40.3506 100.348 44.3506C107.004 48.3506 113.66 48.3506 120.315 44.3506C126.971 40.3506 133.626 40.3506 140.282 44.3506C146.937 48.3506 153.593 48.3506 160.248 44.3506C166.904 40.3506 173.56 40.3506 180.215 44.3506C186.871 48.3506 193.526 48.3506 200.182 44.3506C206.837 40.3506 213.493 40.3506 220.148 44.3506C226.804 48.3506 233.46 48.3506 240.115 44.3506C246.771 40.3506 253.426 40.3506 260.082 44.3506C266.737 48.3506 273.393 48.3506 280.048 44.3506C286.704 40.3506 293.36 40.3506 300.015 44.3506C306.671 48.3506 313.326 48.3506 319.982 44.3506C326.637 40.3506 333.293 40.3506 339.948 44.3506C346.604 48.3506 353.26 48.3506 359.915 44.3506C366.571 40.3506 373.226 40.3506 379.882 44.3506C386.537 48.3506 393.193 48.3506 399.848 44.3506C406.504 40.3506 413.16 40.3506 419.815 44.3506C426.471 48.3506 433.126 48.3506 439.782 44.3506C446.437 40.3506 453.093 40.3506 459.748 44.3506C466.404 48.3506 473.06 48.3506 479.715 44.3506C486.371 40.3506 493.026 40.3506 499.682 44.3506C506.337 48.3506 512.993 48.3506 519.648 44.3506C526.304 40.3506 532.96 40.3506 539.615 44.3506C546.271 48.3506 552.926 48.3506 559.582 44.3506C566.237 40.3506 572.893 40.3506 579.548 44.3506C586.204 48.3506 592.86 48.3506 599.515 44.3506" stroke="#070E50" stroke-width="2"/>
</svg>
