<svg width="558" height="67" viewBox="0 0 558 67" fill="none" xmlns="http://www.w3.org/2000/svg">
<mask id="path-1-outside-1_2096_557" maskUnits="userSpaceOnUse" x="490.92" y="0.828125" width="68" height="66" fill="black">
<rect fill="white" x="490.92" y="0.828125" width="68" height="66"/>
<path d="M530.44 21.6881L534.88 16.9481C536.6 17.9081 538.48 19.0081 540.52 20.2481C542.6 21.4881 544.58 22.7481 546.46 24.0281C548.38 25.2681 549.94 26.3881 551.14 27.3881L546.34 32.8481C545.26 31.7681 543.8 30.5681 541.96 29.2481C540.12 27.9281 538.18 26.6081 536.14 25.2881C534.1 23.9681 532.2 22.7681 530.44 21.6881ZM534.58 30.3281H538.18V39.4481C538.18 40.2481 538.3 41.1681 538.54 42.2081C538.78 43.2481 539.18 44.3681 539.74 45.5681C540.34 46.7281 541.16 47.8881 542.2 49.0481C543.24 50.1681 544.54 51.2681 546.1 52.3481C547.66 53.3881 549.52 54.3281 551.68 55.1681C551.08 56.0081 550.36 57.0281 549.52 58.2281C548.68 59.4281 548.02 60.4481 547.54 61.2881C545.66 60.5681 543.96 59.6481 542.44 58.5281C540.96 57.4081 539.68 56.2281 538.6 54.9881C537.52 53.7081 536.64 52.4681 535.96 51.2681C535.28 50.0281 534.8 48.9481 534.52 48.0281C534.2 48.9481 533.66 50.0081 532.9 51.2081C532.18 52.4081 531.22 53.6481 530.02 54.9281C528.82 56.1681 527.4 57.3281 525.76 58.4081C524.16 59.5281 522.32 60.4881 520.24 61.2881C519.96 60.7281 519.58 60.0681 519.1 59.3081C518.66 58.5881 518.18 57.8681 517.66 57.1481C517.14 56.4681 516.66 55.8881 516.22 55.4081C518.54 54.6081 520.52 53.6681 522.16 52.5881C523.84 51.5081 525.24 50.3881 526.36 49.2281C527.48 48.0281 528.36 46.8481 529 45.6881C529.68 44.4881 530.14 43.3481 530.38 42.2681C530.66 41.1881 530.8 40.2481 530.8 39.4481V30.3281H534.58ZM531.34 4.82812H538.42C538.26 8.42812 537.94 11.7081 537.46 14.6681C537.02 17.6281 536.22 20.2881 535.06 22.6481C533.94 24.9681 532.28 27.0081 530.08 28.7681C527.92 30.5281 525.02 32.0481 521.38 33.3281C521.06 32.4481 520.5 31.4481 519.7 30.3281C518.9 29.1681 518.12 28.2681 517.36 27.6281C520.52 26.6681 523 25.5081 524.8 24.1481C526.6 22.7481 527.94 21.1281 528.82 19.2881C529.74 17.4081 530.36 15.2881 530.68 12.9281C531 10.5281 531.22 7.82812 531.34 4.82812ZM522.52 8.42813L528.4 9.56812C528.12 11.6081 527.58 13.6481 526.78 15.6881C525.98 17.7281 524.92 19.4281 523.6 20.7881L518.02 18.3281C519.1 17.2481 520.04 15.7881 520.84 13.9481C521.64 12.1081 522.2 10.2681 522.52 8.42813ZM521.8 34.4681L528.1 35.7281C527.7 38.0481 527.02 40.3281 526.06 42.5681C525.14 44.7681 523.94 46.6081 522.46 48.0881L516.58 45.0881C517.86 43.9681 518.94 42.4281 519.82 40.4681C520.74 38.5081 521.4 36.5081 521.8 34.4681ZM543.7 8.00812L550.6 10.1681C549.6 11.9681 548.58 13.7481 547.54 15.5081C546.54 17.2281 545.62 18.7081 544.78 19.9481L539.38 17.9081C539.9 17.0281 540.44 16.0081 541 14.8481C541.56 13.6881 542.08 12.5081 542.56 11.3081C543.04 10.1081 543.42 9.00812 543.7 8.00812ZM544.06 34.0481L551.14 36.2681C550.06 38.1081 548.96 39.9681 547.84 41.8481C546.76 43.7281 545.74 45.3081 544.78 46.5881L539.2 44.5481C539.8 43.5881 540.4 42.5081 541 41.3081C541.6 40.0681 542.16 38.8081 542.68 37.5281C543.24 36.2481 543.7 35.0881 544.06 34.0481ZM497.74 23.2481H515.86V28.7081H497.74V23.2481ZM497.98 6.74813H515.74V12.1481H497.98V6.74813ZM497.74 31.4681H515.86V36.8681H497.74V31.4681ZM494.92 14.7881H517.84V20.4881H494.92V14.7881ZM500.86 39.7481H515.98V58.0481H500.86V52.3481H509.8V45.4481H500.86V39.7481ZM497.62 39.7481H503.68V60.3881H497.62V39.7481Z"/>
</mask>
<path d="M530.44 21.6881L534.88 16.9481C536.6 17.9081 538.48 19.0081 540.52 20.2481C542.6 21.4881 544.58 22.7481 546.46 24.0281C548.38 25.2681 549.94 26.3881 551.14 27.3881L546.34 32.8481C545.26 31.7681 543.8 30.5681 541.96 29.2481C540.12 27.9281 538.18 26.6081 536.14 25.2881C534.1 23.9681 532.2 22.7681 530.44 21.6881ZM534.58 30.3281H538.18V39.4481C538.18 40.2481 538.3 41.1681 538.54 42.2081C538.78 43.2481 539.18 44.3681 539.74 45.5681C540.34 46.7281 541.16 47.8881 542.2 49.0481C543.24 50.1681 544.54 51.2681 546.1 52.3481C547.66 53.3881 549.52 54.3281 551.68 55.1681C551.08 56.0081 550.36 57.0281 549.52 58.2281C548.68 59.4281 548.02 60.4481 547.54 61.2881C545.66 60.5681 543.96 59.6481 542.44 58.5281C540.96 57.4081 539.68 56.2281 538.6 54.9881C537.52 53.7081 536.64 52.4681 535.96 51.2681C535.28 50.0281 534.8 48.9481 534.52 48.0281C534.2 48.9481 533.66 50.0081 532.9 51.2081C532.18 52.4081 531.22 53.6481 530.02 54.9281C528.82 56.1681 527.4 57.3281 525.76 58.4081C524.16 59.5281 522.32 60.4881 520.24 61.2881C519.96 60.7281 519.58 60.0681 519.1 59.3081C518.66 58.5881 518.18 57.8681 517.66 57.1481C517.14 56.4681 516.66 55.8881 516.22 55.4081C518.54 54.6081 520.52 53.6681 522.16 52.5881C523.84 51.5081 525.24 50.3881 526.36 49.2281C527.48 48.0281 528.36 46.8481 529 45.6881C529.68 44.4881 530.14 43.3481 530.38 42.2681C530.66 41.1881 530.8 40.2481 530.8 39.4481V30.3281H534.58ZM531.34 4.82812H538.42C538.26 8.42812 537.94 11.7081 537.46 14.6681C537.02 17.6281 536.22 20.2881 535.06 22.6481C533.94 24.9681 532.28 27.0081 530.08 28.7681C527.92 30.5281 525.02 32.0481 521.38 33.3281C521.06 32.4481 520.5 31.4481 519.7 30.3281C518.9 29.1681 518.12 28.2681 517.36 27.6281C520.52 26.6681 523 25.5081 524.8 24.1481C526.6 22.7481 527.94 21.1281 528.82 19.2881C529.74 17.4081 530.36 15.2881 530.68 12.9281C531 10.5281 531.22 7.82812 531.34 4.82812ZM522.52 8.42813L528.4 9.56812C528.12 11.6081 527.58 13.6481 526.78 15.6881C525.98 17.7281 524.92 19.4281 523.6 20.7881L518.02 18.3281C519.1 17.2481 520.04 15.7881 520.84 13.9481C521.64 12.1081 522.2 10.2681 522.52 8.42813ZM521.8 34.4681L528.1 35.7281C527.7 38.0481 527.02 40.3281 526.06 42.5681C525.14 44.7681 523.94 46.6081 522.46 48.0881L516.58 45.0881C517.86 43.9681 518.94 42.4281 519.82 40.4681C520.74 38.5081 521.4 36.5081 521.8 34.4681ZM543.7 8.00812L550.6 10.1681C549.6 11.9681 548.58 13.7481 547.54 15.5081C546.54 17.2281 545.62 18.7081 544.78 19.9481L539.38 17.9081C539.9 17.0281 540.44 16.0081 541 14.8481C541.56 13.6881 542.08 12.5081 542.56 11.3081C543.04 10.1081 543.42 9.00812 543.7 8.00812ZM544.06 34.0481L551.14 36.2681C550.06 38.1081 548.96 39.9681 547.84 41.8481C546.76 43.7281 545.74 45.3081 544.78 46.5881L539.2 44.5481C539.8 43.5881 540.4 42.5081 541 41.3081C541.6 40.0681 542.16 38.8081 542.68 37.5281C543.24 36.2481 543.7 35.0881 544.06 34.0481ZM497.74 23.2481H515.86V28.7081H497.74V23.2481ZM497.98 6.74813H515.74V12.1481H497.98V6.74813ZM497.74 31.4681H515.86V36.8681H497.74V31.4681ZM494.92 14.7881H517.84V20.4881H494.92V14.7881ZM500.86 39.7481H515.98V58.0481H500.86V52.3481H509.8V45.4481H500.86V39.7481ZM497.62 39.7481H503.68V60.3881H497.62V39.7481Z" fill="#070E50"/>
<path d="M530.44 21.6881L534.88 16.9481C536.6 17.9081 538.48 19.0081 540.52 20.2481C542.6 21.4881 544.58 22.7481 546.46 24.0281C548.38 25.2681 549.94 26.3881 551.14 27.3881L546.34 32.8481C545.26 31.7681 543.8 30.5681 541.96 29.2481C540.12 27.9281 538.18 26.6081 536.14 25.2881C534.1 23.9681 532.2 22.7681 530.44 21.6881ZM534.58 30.3281H538.18V39.4481C538.18 40.2481 538.3 41.1681 538.54 42.2081C538.78 43.2481 539.18 44.3681 539.74 45.5681C540.34 46.7281 541.16 47.8881 542.2 49.0481C543.24 50.1681 544.54 51.2681 546.1 52.3481C547.66 53.3881 549.52 54.3281 551.68 55.1681C551.08 56.0081 550.36 57.0281 549.52 58.2281C548.68 59.4281 548.02 60.4481 547.54 61.2881C545.66 60.5681 543.96 59.6481 542.44 58.5281C540.96 57.4081 539.68 56.2281 538.6 54.9881C537.52 53.7081 536.64 52.4681 535.96 51.2681C535.28 50.0281 534.8 48.9481 534.52 48.0281C534.2 48.9481 533.66 50.0081 532.9 51.2081C532.18 52.4081 531.22 53.6481 530.02 54.9281C528.82 56.1681 527.4 57.3281 525.76 58.4081C524.16 59.5281 522.32 60.4881 520.24 61.2881C519.96 60.7281 519.58 60.0681 519.1 59.3081C518.66 58.5881 518.18 57.8681 517.66 57.1481C517.14 56.4681 516.66 55.8881 516.22 55.4081C518.54 54.6081 520.52 53.6681 522.16 52.5881C523.84 51.5081 525.24 50.3881 526.36 49.2281C527.48 48.0281 528.36 46.8481 529 45.6881C529.68 44.4881 530.14 43.3481 530.38 42.2681C530.66 41.1881 530.8 40.2481 530.8 39.4481V30.3281H534.58ZM531.34 4.82812H538.42C538.26 8.42812 537.94 11.7081 537.46 14.6681C537.02 17.6281 536.22 20.2881 535.06 22.6481C533.94 24.9681 532.28 27.0081 530.08 28.7681C527.92 30.5281 525.02 32.0481 521.38 33.3281C521.06 32.4481 520.5 31.4481 519.7 30.3281C518.9 29.1681 518.12 28.2681 517.36 27.6281C520.52 26.6681 523 25.5081 524.8 24.1481C526.6 22.7481 527.94 21.1281 528.82 19.2881C529.74 17.4081 530.36 15.2881 530.68 12.9281C531 10.5281 531.22 7.82812 531.34 4.82812ZM522.52 8.42813L528.4 9.56812C528.12 11.6081 527.58 13.6481 526.78 15.6881C525.98 17.7281 524.92 19.4281 523.6 20.7881L518.02 18.3281C519.1 17.2481 520.04 15.7881 520.84 13.9481C521.64 12.1081 522.2 10.2681 522.52 8.42813ZM521.8 34.4681L528.1 35.7281C527.7 38.0481 527.02 40.3281 526.06 42.5681C525.14 44.7681 523.94 46.6081 522.46 48.0881L516.58 45.0881C517.86 43.9681 518.94 42.4281 519.82 40.4681C520.74 38.5081 521.4 36.5081 521.8 34.4681ZM543.7 8.00812L550.6 10.1681C549.6 11.9681 548.58 13.7481 547.54 15.5081C546.54 17.2281 545.62 18.7081 544.78 19.9481L539.38 17.9081C539.9 17.0281 540.44 16.0081 541 14.8481C541.56 13.6881 542.08 12.5081 542.56 11.3081C543.04 10.1081 543.42 9.00812 543.7 8.00812ZM544.06 34.0481L551.14 36.2681C550.06 38.1081 548.96 39.9681 547.84 41.8481C546.76 43.7281 545.74 45.3081 544.78 46.5881L539.2 44.5481C539.8 43.5881 540.4 42.5081 541 41.3081C541.6 40.0681 542.16 38.8081 542.68 37.5281C543.24 36.2481 543.7 35.0881 544.06 34.0481ZM497.74 23.2481H515.86V28.7081H497.74V23.2481ZM497.98 6.74813H515.74V12.1481H497.98V6.74813ZM497.74 31.4681H515.86V36.8681H497.74V31.4681ZM494.92 14.7881H517.84V20.4881H494.92V14.7881ZM500.86 39.7481H515.98V58.0481H500.86V52.3481H509.8V45.4481H500.86V39.7481ZM497.62 39.7481H503.68V60.3881H497.62V39.7481Z" stroke="white" stroke-width="8" mask="url(#path-1-outside-1_2096_557)"/>
<path d="M451.56 2.82812V15.248H457.22V6.06836H489.479V62.3281H478.28V59.208H468.12V62.6885H457.22V42.2832L455.51 44.6875L453.58 47.4004L452.091 44.4229C451.932 44.1046 451.754 43.7624 451.56 43.3955V63.168H440.66V47.1025C439.655 48.9812 438.587 50.6474 437.45 52.0879L435.121 55.0371L433.975 51.458C433.702 50.6051 433.257 49.5775 432.613 48.3662L432.607 48.3555L432.602 48.3438C431.946 47.0707 431.347 46.0467 430.808 45.2549L429.965 44.0195L430.912 42.8613C431.909 41.6431 432.887 40.1998 433.841 38.5205C434.802 36.8287 435.69 35.0356 436.502 33.1406L436.51 33.123C437.365 31.1788 438.122 29.2158 438.782 27.2354C438.915 26.8295 439.041 26.427 439.162 26.0283H432.02V15.248H440.66V2.82812H451.56ZM468.12 48.668H478.28V44.9883H468.12V48.668ZM468.12 34.5078H478.28V30.8281H468.12V34.5078ZM451.56 26.8408C451.852 27.1665 452.168 27.5305 452.505 27.9307C453.368 28.9167 454.267 30.0006 455.202 31.1797C455.919 32.0456 456.59 32.8692 457.22 33.6484V26.0283H451.56V26.8408ZM468.12 20.2881H478.28V16.9082H468.12V20.2881Z" fill="#070E50" stroke="white" stroke-width="4"/>
<path d="M422.94 2.82812V35.584L426.768 34.8994L428.769 34.541L429.094 36.5479L430.174 43.208L430.489 45.1465L428.556 45.4961L422.94 46.5117V63.168H412.22V48.4512L397.716 51.0762L395.709 51.4395L395.385 49.4258L395.003 47.0518L393.48 49.0146L391.449 51.6299L390.079 48.6162C389.917 48.2586 389.729 47.8722 389.52 47.4561V63.0479H378.92V49.9844C378.85 50.1359 378.781 50.2872 378.71 50.4375L378.707 50.4453L378.703 50.4521C377.742 52.4591 376.703 54.2455 375.581 55.7988L373.103 59.2305L372.026 55.1367C371.86 54.5076 371.603 53.7954 371.24 52.9961L371.217 52.9473L371.198 52.8965C370.859 52.0327 370.484 51.1879 370.072 50.3623L370.055 50.3291L370.039 50.2959C369.656 49.4528 369.302 48.7463 368.977 48.1689L368.311 46.9844L369.166 45.9287C370.261 44.5782 371.35 42.8786 372.424 40.8076L372.431 40.7949C373.562 38.6504 374.595 36.4467 375.531 34.1836C375.613 33.9836 375.692 33.7849 375.77 33.5879H369.8V22.8682H372.387C372.316 21.9473 372.185 20.9295 371.99 19.8125L371.985 19.7852L371.981 19.7578C371.75 18.1785 371.441 16.5762 371.054 14.9512L371.048 14.9248L371.042 14.8975C370.696 13.2417 370.295 11.7373 369.843 10.3809L369.167 8.35449L371.234 7.81348L376.274 6.49316L378.04 6.03027L378.661 7.74902C378.75 7.99368 378.835 8.24163 378.92 8.49219V3.12793H389.52V7.70801L389.804 5.71582L391.906 6.17383L397.966 7.49414L400.062 7.9502L399.542 9.72461L401.564 6.9502L402.617 5.50293L404.172 6.3916C405.344 7.06107 406.547 7.82913 407.781 8.69238L408.731 9.34961C409.656 10.0051 410.538 10.6747 411.377 11.3574C411.67 11.5875 411.951 11.8159 412.22 12.0439V2.82812H422.94ZM398.4 33.5879H391.724C391.952 33.8453 392.185 34.1113 392.423 34.3867L393.011 35.0488C393.582 35.7045 394.13 36.3721 394.656 37.0518C395.358 37.8705 395.987 38.6161 396.541 39.2891C396.818 39.6032 397.07 39.8997 397.293 40.1738L406.615 38.5059L405.31 36.9561C404.787 36.335 404.018 35.6096 402.964 34.7812L402.931 34.7539C401.858 33.8725 400.703 33.0062 399.467 32.1562L399.437 32.1357L399.408 32.1143C399.07 31.8631 398.733 31.6227 398.4 31.3916V33.5879ZM412.188 30.9805L408.528 36.7412L407.507 38.3457L412.22 37.5029V30.9297L412.188 30.9805ZM397.882 15.1074C397.318 16.8404 396.753 18.5142 396.188 20.1289L396.185 20.1367L396.182 20.1436C395.832 21.1183 395.495 22.0266 395.174 22.8682H397.965L398.624 21.8564L399.598 20.3613L401.195 21.1592C402.473 21.7985 403.781 22.5586 405.117 23.4355C406.407 24.2425 407.639 25.0715 408.816 25.9219L409.271 26.2422C410.314 26.9925 411.215 27.7545 411.951 28.5322L412.22 28.8154V19.7266L410.707 21.9229L409.129 24.2139L407.46 21.9883C406.977 21.3445 406.253 20.5909 405.243 19.7305L405.229 19.7188L405.215 19.7061C404.213 18.8196 403.129 17.9292 401.963 17.0352C400.81 16.151 399.684 15.3694 398.585 14.6875L398.112 14.3936C398.035 14.6306 397.96 14.8689 397.882 15.1074Z" fill="#070E50" stroke="white" stroke-width="4"/>
<path d="M322.389 2.91113L329.469 5.01074L331.738 5.68359L330.695 7.80957C330.469 8.2715 330.232 8.73049 329.988 9.18848H364.68V19.4883H359.04V23.168H366.899V33.5879H359.04V37.208H366V47.6279H361.573C362.017 48.2522 362.462 48.8951 362.904 49.5586C363.874 51.0126 364.802 52.4681 365.692 53.9238H365.693C366.611 55.3831 367.345 56.7377 367.878 57.9805L368.734 59.9785L366.672 60.665L359.292 63.126L357.515 63.7178L356.808 61.9824C356.407 61 355.827 59.8148 355.052 58.4189L355.041 58.4004L355.031 58.3818C354.301 56.9989 353.472 55.5901 352.542 54.1562L352.525 54.1309L352.509 54.1035C351.609 52.6168 350.712 51.2333 349.819 49.9521L348.483 48.0352C348.899 49.0139 349.3 50.0498 349.686 51.1426C350.179 52.5401 350.613 53.9015 350.985 55.2266C351.362 56.5653 351.641 57.8066 351.816 58.9443L352.109 60.8496L350.217 61.2119L343.017 62.5928L340.94 62.9902L340.658 60.8955C340.475 59.5385 340.099 57.814 339.513 55.7031L339.508 55.6865L339.504 55.6699C338.958 53.5661 338.358 51.6307 337.704 49.8613L336.879 47.6279H336.206L336.252 47.834C336.664 49.6884 337.012 51.6946 337.298 53.8496L337.414 54.6494C337.671 56.4851 337.822 58.1036 337.859 59.4941L337.907 61.2734L336.146 61.5273L329.065 62.5479L326.78 62.877V60.5684C326.78 59.6866 326.725 58.6097 326.608 57.3291L326.605 57.2988L326.604 57.2695C326.526 55.9859 326.409 54.6384 326.252 53.2285C326.097 51.8345 325.905 50.5483 325.677 49.3682L325.672 49.3428C324.956 51.7085 323.981 54.0612 322.75 56.3994C321.483 58.8069 320.046 60.8973 318.428 62.6465L317.486 63.6641L316.203 63.1396L309.303 60.3193L306.425 59.1426L308.689 57.0117C309.874 55.8966 311.062 54.3619 312.233 52.3584C313.147 50.7964 313.892 49.2191 314.477 47.6279H309.62V37.208H316.76V33.5879H308.66V23.168H311.3C310.917 22.8661 310.528 22.5691 310.134 22.2783C309.395 21.7342 308.772 21.3005 308.259 20.9707L305.668 19.3057L308.242 17.6162C310.635 16.0459 312.901 14.0499 315.035 11.6113C317.157 9.18627 318.804 6.65024 319.996 4.00586L320.714 2.41406L322.389 2.91113ZM348.334 47.6904L348.534 47.6279H348.307C348.316 47.6488 348.325 47.6695 348.334 47.6904ZM347.88 37.208H348.439V33.5879H347.88V37.208ZM337.439 37.208H337.88V33.5879H337.439V37.208ZM327.18 37.208H327.439V33.5879H327.18V37.208ZM347.88 23.168H348.439V19.4883H347.88V23.168ZM337.439 23.168H337.88V19.4883H337.439V23.168ZM327.18 23.168H327.439V19.4883H327.18V23.168Z" fill="#070E50" stroke="white" stroke-width="4"/>
<path d="M298.07 9.70898C298.726 10.5403 299.424 11.5583 300.163 12.7471L300.709 13.6084C301.25 14.469 301.78 15.3407 302.297 16.2236C303.034 17.3728 303.647 18.4475 304.125 19.4453L304.984 21.2432L303.19 22.1094L297.969 24.6289L296.193 25.4873L296.042 25.1855L294.895 25.6836L289.496 28.0234L287.708 28.7969C288.498 29.6307 289.255 30.444 289.976 31.2373C291.344 32.6458 292.865 34.2682 294.541 36.1025H294.542C296.261 37.9419 297.999 39.8216 299.758 41.7402C301.56 43.6625 303.224 45.4457 304.747 47.0889L306.01 48.4521L304.743 49.8115L298.143 56.8916L296.55 58.6006L295.107 56.7637C293.798 55.0981 292.389 53.351 290.878 51.5225C289.361 49.6857 287.884 47.9087 286.447 46.1924L286.439 46.1836L286.432 46.1748C285.004 44.4294 283.7 42.8892 282.52 41.5518L282.492 41.5186L282.464 41.4854C281.659 40.4877 280.73 39.4228 279.676 38.291L279.652 38.2646L279.628 38.2383C278.596 37.0466 277.563 35.8751 276.531 34.7236C275.502 33.5763 274.557 32.5519 273.695 31.6504C272.844 30.7606 272.156 30.0329 271.633 29.4707C271.229 29.0856 270.929 28.8783 270.734 28.7783C270.692 28.7571 270.659 28.7439 270.635 28.7344C270.61 28.7493 270.575 28.7715 270.532 28.8027C270.336 28.9431 270.052 29.2055 269.685 29.6533C269.123 30.4148 268.45 31.3078 267.666 32.3281C266.878 33.3514 266.069 34.4354 265.24 35.5811C264.396 36.7465 263.572 37.8728 262.767 38.959C262.024 40.0147 261.352 40.9437 260.752 41.7441L259.744 43.1836C259.407 43.6684 259.07 44.1584 258.734 44.6533L258.712 44.6846C258.034 45.6421 257.416 46.519 256.859 47.3154L255.468 49.3008L253.783 47.5596L246.583 40.1191L245.079 38.5645L246.747 37.1865C247.639 36.4493 248.425 35.7585 249.107 35.1143C249.814 34.4465 250.638 33.6599 251.582 32.7559C252.233 32.0652 252.985 31.2365 253.838 30.2666C254.696 29.2918 255.618 28.1945 256.603 26.9727L256.616 26.958L256.627 26.9434C257.669 25.7018 258.73 24.4396 259.811 23.1582C260.889 21.8405 261.948 20.5624 262.988 19.3232C264.919 16.9998 267.157 15.4298 269.733 15.1436C272.513 14.7914 275.181 16.3003 277.627 18.6504L278.674 19.6211C279.718 20.6042 280.772 21.642 281.834 22.7344L282.917 23.8242C283.984 24.9073 285.03 25.9905 286.054 27.0742L287.096 28.1533C287.272 28.3366 287.444 28.5198 287.617 28.7012L286.868 26.9902C286.33 25.7607 285.777 24.6374 285.211 23.6191L285.191 23.5811L285.171 23.543C284.633 22.4655 284.077 21.4501 283.505 20.4971L283.481 20.457L283.459 20.416C282.952 19.4732 282.349 18.5405 281.648 17.6182L280.078 15.5527L282.475 14.5605L287.696 12.4004L289.178 11.7861L289.33 12.0029L290.514 11.4668L295.674 9.12695L297.1 8.48047L298.07 9.70898Z" fill="#070E50" stroke="white" stroke-width="4"/>
<path d="M225.297 7.57056L234.657 9.97095L237.02 10.5764L235.962 12.7756C235.472 13.7935 235.017 14.8738 234.597 16.0168C234.159 17.2138 233.761 18.3103 233.402 19.3059L233.396 19.3196C232.54 21.6439 231.525 24.1422 230.351 26.8127C229.208 29.5066 227.922 32.1584 226.495 34.7678L226.494 34.7668C225.083 37.3802 223.519 39.7611 221.799 41.9016L221.798 41.9006C220.265 43.833 218.461 45.7968 216.39 47.7913L215.484 48.6506C213.044 50.9257 210.361 53.0501 207.44 55.0247L207.434 55.0286C204.521 56.9848 201.458 58.6108 198.247 59.9036L197.003 60.4045L196.067 59.4436L189.227 52.4241L187.03 50.1682L190.006 49.1379C193.011 48.0976 195.858 46.8087 198.548 45.2717C201.246 43.73 203.725 41.9997 205.987 40.0823C208.269 38.1488 210.244 36.1706 211.921 34.1506C213.738 31.9549 215.358 29.4624 216.776 26.6643L216.781 26.6545C218.255 23.7841 219.495 20.8379 220.503 17.8157L220.507 17.8049L220.51 17.7942C221.561 14.7568 222.333 11.8749 222.833 9.14771L223.219 7.03833L225.297 7.57056Z" fill="#070E50" stroke="white" stroke-width="4"/>
<path d="M172.598 7.26807L172.498 9.36279C172.458 10.208 172.397 11.1269 172.318 12.1177C172.28 13.0426 172.26 14.092 172.26 15.2681V27.1479C172.26 30.4099 172.097 33.3018 171.763 35.812C171.471 38.3003 171.008 40.5296 170.357 42.481C169.714 44.4106 168.91 46.1591 167.934 47.7124L167.933 47.7114C167.028 49.174 165.978 50.5665 164.784 51.8882L164.774 51.8999C163.342 53.4626 161.701 54.8636 159.858 56.106L159.845 56.1157L159.831 56.1245C158.039 57.2913 156.216 58.2767 154.362 59.0806L154.363 59.0815C152.585 59.9086 150.909 60.5806 149.337 61.0903L148.142 61.478L147.273 60.5688L140.974 53.9692L138.537 51.4175L141.978 50.6372C144.843 49.9877 147.389 49.0976 149.626 47.979C151.851 46.8465 153.77 45.4144 155.396 43.6851C156.35 42.6211 157.094 41.586 157.648 40.5815C158.191 39.5981 158.609 38.4954 158.891 37.2622L158.895 37.2427L158.899 37.2231C159.225 35.9202 159.451 34.4208 159.564 32.7153L159.565 32.6929L159.567 32.6714C159.721 30.9441 159.8 28.9448 159.8 26.6685V15.2681C159.8 14.1107 159.761 13.0872 159.687 12.1938L159.684 12.1509L159.682 12.1079C159.644 11.1643 159.569 10.3132 159.46 9.55127L159.134 7.26807H172.598ZM144.774 7.74854L144.657 9.85889C144.617 10.5789 144.577 11.2991 144.537 12.019L144.536 12.0259C144.499 12.6544 144.479 13.4328 144.479 14.3677V34.6479C144.479 35.3745 144.499 36.2273 144.538 37.2085C144.578 38.2016 144.618 39.0508 144.657 39.7573L144.774 41.8677H131.812L131.965 39.7251C132.005 39.1597 132.065 38.3556 132.146 37.3149C132.222 36.3171 132.26 35.4088 132.26 34.5884V14.3677C132.26 13.8501 132.241 13.1636 132.202 12.2993V12.2954C132.164 11.409 132.106 10.6346 132.032 9.96924L131.785 7.74854H144.774Z" fill="#070E50" stroke="white" stroke-width="4"/>
<path d="M96.4802 2.82812V13.0879H119.94V24.1084H96.4802V30.9082H113.88V62.9277H102.02V60.4082H78.78V63.168H67.28V30.9082H84.6199V24.1084H61.1599V13.0879H84.6199V2.82812H96.4802ZM78.78 49.5078H102.02V41.748H78.78V49.5078Z" fill="#070E50" stroke="white" stroke-width="4"/>
<path d="M34.3799 2.82812V13.2686H55.5596V47.3877H44V44.3877H34.3799V63.168H22.7598V44.3877H13.2002V47.6885H2V13.2686H22.7598V2.82812H34.3799ZM34.3799 33.3086H44V24.3477H34.3799V33.3086ZM13.2002 33.3086H22.7598V24.3477H13.2002V33.3086Z" fill="#070E50" stroke="white" stroke-width="4"/>
</svg>
