<svg width="461" height="89" viewBox="0 0 461 89" fill="none" xmlns="http://www.w3.org/2000/svg">
<path d="M428.037 70.492C428.504 70.1187 428.933 69.7453 429.325 69.372C429.717 68.9987 430.137 68.5787 430.585 68.112C430.884 67.7947 431.229 67.4027 431.621 66.936C432.013 66.4693 432.433 65.9653 432.881 65.424C433.329 64.864 433.786 64.304 434.253 63.744C434.72 63.1653 435.177 62.624 435.625 62.12C436.689 60.9067 437.734 60.2627 438.761 60.188C439.788 60.1133 440.842 60.5893 441.925 61.616C442.616 62.2507 443.306 62.9787 443.997 63.8C444.706 64.6027 445.388 65.396 446.041 66.18C446.694 66.964 447.282 67.6453 447.805 68.224C448.272 68.728 448.757 69.2507 449.261 69.792C449.765 70.3147 450.297 70.8654 450.857 71.444C451.417 72.004 452.005 72.5827 452.621 73.18C453.237 73.7587 453.89 74.356 454.581 74.972L451.053 79.06C450.418 78.444 449.746 77.7627 449.037 77.016C448.346 76.2693 447.665 75.5133 446.993 74.748C446.321 73.964 445.696 73.236 445.117 72.564C444.557 71.8733 443.969 71.1453 443.353 70.38C442.737 69.6147 442.14 68.8774 441.561 68.168C441.001 67.4587 440.497 66.852 440.049 66.348C439.769 66.0307 439.508 65.8347 439.265 65.76C439.041 65.6667 438.817 65.676 438.593 65.788C438.388 65.9 438.164 66.1147 437.921 66.432C437.678 66.7494 437.389 67.1413 437.053 67.608C436.717 68.056 436.362 68.5413 435.989 69.064C435.634 69.568 435.289 70.0627 434.953 70.548C434.617 71.0333 434.309 71.4627 434.029 71.836C433.693 72.34 433.366 72.8533 433.049 73.376C432.732 73.88 432.442 74.3373 432.181 74.748L428.037 70.492Z" fill="#070E50"/>
<path d="M399.645 59.544H425.237V63.436H399.645V59.544ZM409.109 66.544H419.581V70.38H409.109V66.544ZM418.069 66.544H422.269C422.269 66.544 422.26 66.656 422.241 66.88C422.241 67.0854 422.232 67.3187 422.213 67.58C422.213 67.8414 422.194 68.0654 422.157 68.252C422.008 70.7347 421.83 72.7787 421.625 74.384C421.42 75.9894 421.186 77.2494 420.925 78.164C420.664 79.0787 420.337 79.7507 419.945 80.18C419.478 80.7027 418.974 81.0574 418.433 81.244C417.91 81.4494 417.294 81.5987 416.585 81.692C416.006 81.748 415.278 81.776 414.401 81.776C413.524 81.776 412.618 81.7667 411.685 81.748C411.666 81.1507 411.517 80.4694 411.237 79.704C410.957 78.9574 410.621 78.304 410.229 77.744C411.181 77.8187 412.096 77.8654 412.973 77.884C413.869 77.9027 414.532 77.912 414.961 77.912C415.278 77.912 415.54 77.8934 415.745 77.856C415.969 77.8 416.174 77.6974 416.361 77.548C416.641 77.324 416.884 76.8107 417.089 76.008C417.294 75.1867 417.472 74.048 417.621 72.592C417.789 71.136 417.929 69.3254 418.041 67.16L418.069 66.544ZM407.429 61.896H411.993C411.918 63.408 411.797 64.9294 411.629 66.46C411.48 67.972 411.218 69.4654 410.845 70.94C410.472 72.4147 409.921 73.8334 409.193 75.196C408.484 76.54 407.541 77.8 406.365 78.976C405.189 80.1334 403.705 81.1787 401.913 82.112C401.614 81.552 401.194 80.936 400.653 80.264C400.112 79.6107 399.57 79.0694 399.029 78.64C400.653 77.8747 401.978 77.0067 403.005 76.036C404.032 75.0654 404.834 74.02 405.413 72.9C405.992 71.7614 406.412 70.5854 406.673 69.372C406.953 68.14 407.13 66.8987 407.205 65.648C407.298 64.3787 407.373 63.128 407.429 61.896ZM410.145 55.092H414.373V61.028H410.145V55.092Z" fill="#070E50"/>
<path d="M375.481 57.4718C375.91 57.5278 376.377 57.5745 376.881 57.6118C377.385 57.6305 377.87 57.6398 378.337 57.6398C378.636 57.6398 379.074 57.6398 379.653 57.6398C380.232 57.6212 380.876 57.6118 381.585 57.6118C382.313 57.5932 383.032 57.5745 383.741 57.5558C384.469 57.5372 385.122 57.5185 385.701 57.4998C386.298 57.4625 386.765 57.4345 387.101 57.4158C387.773 57.3598 388.305 57.3038 388.697 57.2478C389.108 57.1918 389.406 57.1358 389.593 57.0798L391.693 60.0758C391.338 60.2998 390.974 60.5238 390.601 60.7478C390.246 60.9532 389.892 61.1865 389.537 61.4478C389.145 61.7092 388.706 62.0265 388.221 62.3998C387.736 62.7545 387.241 63.1372 386.737 63.5478C386.233 63.9398 385.738 64.3225 385.253 64.6958C384.786 65.0692 384.357 65.4052 383.965 65.7038C384.338 65.6292 384.674 65.5825 384.973 65.5638C385.272 65.5452 385.589 65.5358 385.925 65.5358C387.53 65.5358 388.977 65.8532 390.265 66.4878C391.572 67.1225 392.608 67.9905 393.373 69.0918C394.138 70.1745 394.521 71.4252 394.521 72.8438C394.521 74.2998 394.157 75.6532 393.429 76.9038C392.701 78.1545 391.572 79.1532 390.041 79.8998C388.51 80.6652 386.532 81.0478 384.105 81.0478C382.798 81.0478 381.594 80.8518 380.493 80.4598C379.392 80.0678 378.514 79.5078 377.861 78.7798C377.208 78.0332 376.881 77.1465 376.881 76.1198C376.881 75.2985 377.105 74.5238 377.553 73.7958C378.02 73.0678 378.664 72.4798 379.485 72.0318C380.306 71.5838 381.249 71.3598 382.313 71.3598C383.62 71.3598 384.73 71.6212 385.645 72.1438C386.56 72.6478 387.26 73.3385 387.745 74.2158C388.249 75.0932 388.501 76.0638 388.501 77.1278L384.525 77.6038C384.525 76.6892 384.32 75.9612 383.909 75.4198C383.517 74.8598 382.994 74.5798 382.341 74.5798C381.874 74.5798 381.51 74.7012 381.249 74.9438C381.006 75.1678 380.885 75.4198 380.885 75.6998C380.885 76.1292 381.1 76.4838 381.529 76.7638C381.958 77.0438 382.528 77.1838 383.237 77.1838C384.805 77.1838 386.093 77.0065 387.101 76.6518C388.109 76.2972 388.846 75.7932 389.313 75.1398C389.798 74.4678 390.041 73.6838 390.041 72.7878C390.041 71.9852 389.789 71.2945 389.285 70.7158C388.8 70.1185 388.137 69.6612 387.297 69.3438C386.457 69.0265 385.524 68.8678 384.497 68.8678C383.47 68.8678 382.509 69.0172 381.613 69.3158C380.736 69.5958 379.905 69.9972 379.121 70.5198C378.337 71.0238 377.581 71.6305 376.853 72.3398C376.144 73.0305 375.453 73.7865 374.781 74.6078L371.701 71.4158C372.149 71.0612 372.672 70.6412 373.269 70.1558C373.866 69.6705 374.482 69.1665 375.117 68.6438C375.752 68.1025 376.358 67.5892 376.937 67.1038C377.516 66.6185 378.01 66.2078 378.421 65.8718C378.813 65.5545 379.252 65.1998 379.737 64.8078C380.241 64.4158 380.745 64.0145 381.249 63.6038C381.772 63.1745 382.266 62.7732 382.733 62.3998C383.2 62.0078 383.601 61.6625 383.937 61.3638C383.657 61.3638 383.321 61.3732 382.929 61.3918C382.556 61.4105 382.154 61.4292 381.725 61.4478C381.296 61.4478 380.857 61.4572 380.409 61.4758C379.98 61.4945 379.569 61.5225 379.177 61.5598C378.785 61.5785 378.44 61.5972 378.141 61.6158C377.73 61.6345 377.292 61.6718 376.825 61.7278C376.358 61.7652 375.957 61.8118 375.621 61.8678L375.481 57.4718Z" fill="#070E50"/>
<path d="M348.601 58.9281C348.526 59.3201 348.461 59.7587 348.405 60.2441C348.349 60.7294 348.302 61.1961 348.265 61.6441C348.227 62.0921 348.209 62.4561 348.209 62.7361C348.209 63.3521 348.209 63.9681 348.209 64.5841C348.227 65.2001 348.246 65.8161 348.265 66.4321C348.283 67.0294 348.321 67.6454 348.377 68.2801C348.489 69.4934 348.638 70.5761 348.825 71.5281C349.011 72.4614 349.264 73.1987 349.581 73.7401C349.917 74.2627 350.355 74.5241 350.897 74.5241C351.214 74.5241 351.513 74.3374 351.793 73.9641C352.073 73.5907 352.325 73.1147 352.549 72.5361C352.791 71.9574 352.997 71.3601 353.165 70.7441C353.333 70.1281 353.473 69.5867 353.585 69.1201L357.001 73.3201C356.347 74.9627 355.704 76.2787 355.069 77.2681C354.434 78.2387 353.772 78.9387 353.081 79.3681C352.39 79.7974 351.634 80.0121 350.813 80.0121C349.712 80.0121 348.685 79.6761 347.733 79.0041C346.8 78.3134 345.997 77.2027 345.325 75.6721C344.671 74.1227 344.214 72.0787 343.953 69.5401C343.859 68.6441 343.785 67.7201 343.729 66.7681C343.691 65.8161 343.664 64.9107 343.645 64.0521C343.645 63.1934 343.645 62.4747 343.645 61.8961C343.645 61.4667 343.626 60.9814 343.589 60.4401C343.552 59.8801 343.486 59.3574 343.393 58.8721L348.601 58.9281ZM362.293 59.4601C362.834 60.0947 363.357 60.8881 363.861 61.8401C364.365 62.7921 364.822 63.8187 365.233 64.9201C365.662 66.0214 366.036 67.1414 366.353 68.2801C366.67 69.4001 366.922 70.4827 367.109 71.5281C367.314 72.5734 367.445 73.4974 367.501 74.3001L362.993 76.0361C362.899 74.9721 362.731 73.7587 362.489 72.3961C362.265 71.0334 361.948 69.6427 361.537 68.2241C361.145 66.7867 360.65 65.4241 360.053 64.1361C359.474 62.8481 358.774 61.7561 357.953 60.8601L362.293 59.4601Z" fill="#070E50"/>
<path d="M313.713 59.5719C314.273 59.5533 314.824 59.5346 315.365 59.5159C315.925 59.4786 316.336 59.4506 316.597 59.4319C317.25 59.3759 317.997 59.3106 318.837 59.2359C319.696 59.1613 320.629 59.0866 321.637 59.0119C322.664 58.9186 323.756 58.8253 324.913 58.7319C326.07 58.6386 327.293 58.5359 328.581 58.4239C329.514 58.3493 330.476 58.2839 331.465 58.2279C332.473 58.1533 333.434 58.0879 334.349 58.0319C335.264 57.9759 336.057 57.9386 336.729 57.9199L336.757 62.2879C336.272 62.2879 335.702 62.2973 335.049 62.3159C334.414 62.3346 333.77 62.3626 333.117 62.3999C332.482 62.4373 331.904 62.5119 331.381 62.6239C330.634 62.7919 329.916 63.1093 329.225 63.5759C328.553 64.0426 327.956 64.6119 327.433 65.2839C326.91 65.9373 326.5 66.6653 326.201 67.4679C325.902 68.2519 325.753 69.0639 325.753 69.9039C325.753 70.7253 325.893 71.4533 326.173 72.0879C326.472 72.7226 326.882 73.2733 327.405 73.7399C327.946 74.1879 328.581 74.5706 329.309 74.8879C330.037 75.1866 330.83 75.4199 331.689 75.5879C332.566 75.7559 333.49 75.8679 334.461 75.9239L332.865 80.6279C331.614 80.5346 330.41 80.3199 329.253 79.9839C328.114 79.6666 327.06 79.2373 326.089 78.6959C325.118 78.1359 324.269 77.4733 323.541 76.7079C322.832 75.9239 322.272 75.0466 321.861 74.0759C321.469 73.0866 321.273 71.9946 321.273 70.7999C321.273 69.5119 321.46 68.3359 321.833 67.2719C322.225 66.2079 322.692 65.2839 323.233 64.4999C323.793 63.6972 324.325 63.0719 324.829 62.6239C324.344 62.6799 323.774 62.7452 323.121 62.8199C322.468 62.8946 321.758 62.9786 320.993 63.0719C320.228 63.1653 319.444 63.2679 318.641 63.3799C317.857 63.4919 317.073 63.6226 316.289 63.7719C315.524 63.9026 314.805 64.0426 314.133 64.1919L313.713 59.5719Z" fill="#070E50"/>
<path d="M288.199 66.964C288.629 66.8893 289.161 66.7773 289.795 66.628C290.43 66.46 290.953 66.3107 291.363 66.18C291.83 66.0307 292.455 65.844 293.239 65.62C294.023 65.3773 294.891 65.144 295.843 64.92C296.795 64.6773 297.757 64.472 298.727 64.304C299.717 64.136 300.641 64.052 301.499 64.052C303.067 64.052 304.43 64.3507 305.587 64.948C306.745 65.5267 307.641 66.3573 308.275 67.44C308.91 68.5227 309.227 69.8107 309.227 71.304C309.227 72.5173 308.966 73.656 308.443 74.72C307.921 75.784 307.099 76.736 305.979 77.576C304.878 78.3973 303.459 79.0693 301.723 79.592C300.006 80.1333 297.943 80.4787 295.535 80.628L293.715 76.456C295.358 76.4187 296.851 76.288 298.195 76.064C299.539 75.8213 300.697 75.4853 301.667 75.056C302.638 74.6267 303.385 74.0947 303.907 73.46C304.43 72.8067 304.691 72.06 304.691 71.22C304.691 70.5667 304.542 70.0067 304.243 69.54C303.945 69.0547 303.525 68.6813 302.983 68.42C302.461 68.14 301.826 68 301.079 68C300.445 68 299.745 68.084 298.979 68.252C298.214 68.4013 297.421 68.6067 296.599 68.868C295.778 69.1107 294.957 69.3813 294.135 69.68C293.333 69.9787 292.567 70.2773 291.839 70.576C291.111 70.856 290.477 71.1173 289.935 71.36L288.199 66.964Z" fill="#070E50"/>
<path d="M263.643 66.0959V76.6519H259.667V69.8479H256.783V66.0959H263.643ZM263.643 74.8879C264.166 75.7465 264.903 76.3719 265.855 76.7639C266.807 77.1559 267.965 77.3799 269.327 77.4359C270.186 77.4732 271.194 77.5012 272.351 77.5199C273.509 77.5199 274.722 77.5105 275.991 77.4919C277.279 77.4545 278.539 77.4079 279.771 77.3519C281.022 77.2959 282.151 77.2212 283.159 77.1279C283.01 77.4452 282.842 77.8559 282.655 78.3599C282.487 78.8639 282.329 79.3679 282.179 79.8719C282.049 80.3945 281.946 80.8612 281.871 81.2719C280.975 81.3279 279.977 81.3652 278.875 81.3839C277.793 81.4212 276.673 81.4399 275.515 81.4399C274.377 81.4585 273.266 81.4585 272.183 81.4399C271.101 81.4212 270.121 81.3932 269.243 81.3559C267.582 81.2812 266.163 81.0292 264.987 80.5999C263.83 80.1892 262.785 79.4425 261.851 78.3599C261.273 78.8639 260.675 79.3772 260.059 79.8999C259.462 80.4225 258.781 80.9825 258.015 81.5799L256.055 77.3239C256.671 76.9692 257.315 76.5865 257.987 76.1759C258.659 75.7652 259.303 75.3359 259.919 74.8879H263.643ZM256.671 58.3399L259.695 55.9039C260.237 56.2772 260.797 56.7065 261.375 57.1919C261.973 57.6772 262.523 58.1719 263.027 58.6759C263.55 59.1799 263.97 59.6465 264.287 60.0759L261.039 62.7639C260.778 62.3345 260.405 61.8585 259.919 61.3359C259.434 60.8132 258.902 60.2905 258.323 59.7679C257.763 59.2265 257.213 58.7505 256.671 58.3399ZM264.875 57.6119L268.319 56.2959C268.637 56.8185 268.945 57.3785 269.243 57.9759C269.542 58.5732 269.813 59.1612 270.055 59.7399C270.298 60.3185 270.475 60.8412 270.587 61.3079L266.891 62.7639C266.817 62.3159 266.677 61.7932 266.471 61.1959C266.266 60.5985 266.023 59.9919 265.743 59.3759C265.463 58.7412 265.174 58.1532 264.875 57.6119ZM264.315 63.1559H282.235V66.8799H264.315V63.1559ZM271.203 55.6519H275.235V76.7079H271.203V55.6519ZM270.475 64.9479L273.611 65.9839C273.089 67.2905 272.454 68.5599 271.707 69.7919C270.979 71.0052 270.167 72.1345 269.271 73.1799C268.375 74.2065 267.423 75.0839 266.415 75.8119C266.21 75.4759 265.939 75.1119 265.603 74.7199C265.286 74.3092 264.95 73.9172 264.595 73.5439C264.241 73.1519 263.914 72.8345 263.615 72.5919C264.567 72.0319 265.482 71.3505 266.359 70.5479C267.237 69.7265 268.021 68.8399 268.711 67.8879C269.421 66.9172 270.009 65.9372 270.475 64.9479ZM276.047 65.0599C276.514 66.0119 277.102 66.9545 277.811 67.8879C278.521 68.8212 279.314 69.6799 280.191 70.4639C281.069 71.2479 281.974 71.9105 282.907 72.4519C282.609 72.6945 282.282 73.0119 281.927 73.4039C281.573 73.7772 281.227 74.1692 280.891 74.5799C280.574 74.9905 280.313 75.3732 280.107 75.7279C279.137 75.0185 278.213 74.1505 277.335 73.1239C276.477 72.0972 275.693 70.9772 274.983 69.7639C274.293 68.5319 273.686 67.2812 273.163 66.0119L276.047 65.0599ZM278.455 56.1839L282.459 57.5839C282.105 58.2185 281.741 58.8532 281.367 59.4879C281.013 60.1039 280.658 60.6919 280.303 61.2519C279.967 61.7932 279.65 62.2785 279.351 62.7079L276.159 61.4479C276.439 60.9625 276.719 60.4212 276.999 59.8239C277.298 59.2079 277.569 58.5825 277.811 57.9479C278.073 57.3132 278.287 56.7252 278.455 56.1839Z" fill="#070E50"/>
<path d="M240.095 56.94C240.002 57.3506 239.899 57.808 239.787 58.312C239.694 58.7973 239.601 59.236 239.507 59.628C239.414 60.0946 239.311 60.5706 239.199 61.056C239.087 61.5226 238.985 61.98 238.891 62.428C238.798 62.8573 238.705 63.2866 238.611 63.716C238.425 64.5186 238.182 65.4706 237.883 66.572C237.603 67.6733 237.267 68.8586 236.875 70.128C236.502 71.3973 236.082 72.676 235.615 73.964C235.149 75.2333 234.654 76.456 234.131 77.632C233.609 78.808 233.067 79.844 232.507 80.74L228.083 78.976C228.755 78.0613 229.371 77.0533 229.931 75.952C230.51 74.8506 231.033 73.7213 231.499 72.564C231.966 71.4066 232.377 70.268 232.731 69.148C233.105 68.0093 233.422 66.9546 233.683 65.984C233.945 65.0133 234.15 64.1733 234.299 63.464C234.561 62.12 234.757 60.8693 234.887 59.712C235.037 58.536 235.093 57.4346 235.055 56.408L240.095 56.94ZM249.755 59.348C250.185 59.9826 250.633 60.7666 251.099 61.7C251.585 62.6146 252.051 63.5853 252.499 64.612C252.947 65.6386 253.349 66.628 253.703 67.58C254.077 68.532 254.366 69.344 254.571 70.016L250.231 72.004C250.063 71.1826 249.821 70.2773 249.503 69.288C249.205 68.2986 248.85 67.3 248.439 66.292C248.047 65.2653 247.609 64.2946 247.123 63.38C246.657 62.4653 246.171 61.6906 245.667 61.056L249.755 59.348ZM228.027 62.456C228.569 62.4933 229.11 62.512 229.651 62.512C230.193 62.4933 230.743 62.4746 231.303 62.456C231.77 62.4373 232.33 62.4093 232.983 62.372C233.637 62.316 234.327 62.26 235.055 62.204C235.783 62.148 236.511 62.092 237.239 62.036C237.986 61.9613 238.677 61.9053 239.311 61.868C239.946 61.8306 240.478 61.812 240.907 61.812C241.99 61.812 242.923 61.9986 243.707 62.372C244.51 62.7266 245.135 63.324 245.583 64.164C246.031 65.004 246.255 66.124 246.255 67.524C246.255 68.6066 246.209 69.8013 246.115 71.108C246.022 72.396 245.863 73.6373 245.639 74.832C245.415 76.0266 245.098 77.0346 244.687 77.856C244.221 78.864 243.577 79.564 242.755 79.956C241.934 80.3666 240.954 80.572 239.815 80.572C239.274 80.572 238.695 80.5346 238.079 80.46C237.463 80.3853 236.903 80.292 236.399 80.18L235.671 75.728C236.026 75.8213 236.418 75.9146 236.847 76.008C237.295 76.1013 237.725 76.176 238.135 76.232C238.546 76.288 238.863 76.316 239.087 76.316C239.535 76.316 239.918 76.232 240.235 76.064C240.553 75.896 240.805 75.6253 240.991 75.252C241.234 74.7853 241.43 74.1506 241.579 73.348C241.729 72.5266 241.841 71.64 241.915 70.688C241.99 69.736 242.027 68.8306 242.027 67.972C242.027 67.2813 241.934 66.7773 241.747 66.46C241.561 66.1426 241.271 65.9373 240.879 65.844C240.506 65.732 240.03 65.676 239.451 65.676C239.059 65.676 238.518 65.7133 237.827 65.788C237.137 65.844 236.399 65.9186 235.615 66.012C234.831 66.0866 234.103 66.1706 233.431 66.264C232.759 66.3573 232.237 66.432 231.863 66.488C231.415 66.5626 230.846 66.6466 230.155 66.74C229.465 66.8333 228.886 66.9266 228.419 67.02L228.027 62.456Z" fill="#070E50"/>
<path d="M202.323 58.5919C204.433 58.8345 206.327 58.9839 208.007 59.0399C209.706 59.0772 211.311 59.0492 212.823 58.9559C214.167 58.8625 215.437 58.7039 216.631 58.4799C217.845 58.2559 219.067 57.9572 220.299 57.5839L220.831 61.4479C219.767 61.7465 218.629 61.9985 217.415 62.2039C216.202 62.4092 214.961 62.5585 213.691 62.6519C212.235 62.7452 210.565 62.7919 208.679 62.7919C206.794 62.7732 204.75 62.6612 202.547 62.4559L202.323 58.5919ZM201.847 64.5279C203.583 64.6772 205.226 64.7799 206.775 64.8359C208.325 64.8919 209.771 64.9012 211.115 64.8639C212.478 64.8079 213.729 64.7332 214.867 64.6399C216.473 64.5092 217.807 64.3225 218.871 64.0799C219.954 63.8372 220.925 63.5945 221.783 63.3519L222.455 67.3559C221.578 67.5612 220.635 67.7572 219.627 67.9439C218.619 68.1119 217.555 68.2612 216.435 68.3919C215.241 68.5039 213.85 68.5879 212.263 68.6439C210.695 68.6999 209.034 68.7185 207.279 68.6999C205.543 68.6625 203.807 68.5972 202.071 68.5039L201.847 64.5279ZM211.059 60.0199C210.91 59.4412 210.742 58.8719 210.555 58.3119C210.369 57.7332 210.163 57.1265 209.939 56.4919L214.475 56.0159C214.606 56.9679 214.755 57.8639 214.923 58.7039C215.091 59.5439 215.278 60.3465 215.483 61.1119C215.707 61.8772 215.941 62.6425 216.183 63.4079C216.389 64.0052 216.669 64.7145 217.023 65.5359C217.397 66.3385 217.798 67.1412 218.227 67.9439C218.657 68.7465 219.067 69.4559 219.459 70.0719C219.665 70.3705 219.87 70.6505 220.075 70.9119C220.299 71.1545 220.551 71.4065 220.831 71.6679L218.843 74.7199C218.321 74.6265 217.649 74.5239 216.827 74.4119C216.006 74.2999 215.157 74.1972 214.279 74.1039C213.402 73.9919 212.609 73.8985 211.899 73.8239L212.235 70.6039C212.721 70.6412 213.262 70.6879 213.859 70.7439C214.475 70.7812 214.979 70.8185 215.371 70.8559C214.643 69.5865 214.027 68.3825 213.523 67.2439C213.038 66.1052 212.637 65.0599 212.319 64.1079C212.095 63.4359 211.909 62.8852 211.759 62.4559C211.629 62.0079 211.507 61.6065 211.395 61.2519C211.302 60.8785 211.19 60.4679 211.059 60.0199ZM207.951 71.3039C207.615 71.7519 207.317 72.2279 207.055 72.7319C206.794 73.2172 206.663 73.7585 206.663 74.3559C206.663 75.3265 207.121 76.0079 208.035 76.3999C208.95 76.7732 210.238 76.9599 211.899 76.9599C213.225 76.9599 214.513 76.9039 215.763 76.7919C217.014 76.6799 218.134 76.5305 219.123 76.3439L218.871 80.6559C217.901 80.8052 216.771 80.9265 215.483 81.0199C214.214 81.1319 213.019 81.1879 211.899 81.1879C210.014 81.1879 208.371 80.9825 206.971 80.5719C205.571 80.1799 204.479 79.5545 203.695 78.6959C202.911 77.8372 202.501 76.7079 202.463 75.3079C202.445 74.3372 202.566 73.4692 202.827 72.7039C203.107 71.9385 203.415 71.2105 203.751 70.5199L207.951 71.3039Z" fill="#070E50"/>
<path d="M169.676 70.9679C170.142 70.5946 170.572 70.2306 170.964 69.8759C171.356 69.5026 171.776 69.0732 172.224 68.5879C172.522 68.2706 172.868 67.8786 173.26 67.4119C173.652 66.9452 174.072 66.4412 174.52 65.8999C174.968 65.3399 175.425 64.7799 175.892 64.2199C176.358 63.6412 176.816 63.0999 177.264 62.5959C178.328 61.3826 179.373 60.7386 180.4 60.6639C181.426 60.5892 182.481 61.0652 183.564 62.0919C184.254 62.7452 184.945 63.4826 185.636 64.3039C186.345 65.1066 187.026 65.8999 187.68 66.6839C188.333 67.4492 188.921 68.1212 189.444 68.6999C189.91 69.2039 190.396 69.7266 190.9 70.2679C191.404 70.7906 191.936 71.3412 192.496 71.9199C193.056 72.4799 193.644 73.0586 194.26 73.6559C194.876 74.2532 195.529 74.8599 196.22 75.4759L192.636 79.5079C192.001 78.8919 191.338 78.2012 190.648 77.4359C189.957 76.6519 189.285 75.8679 188.632 75.0839C187.978 74.2812 187.362 73.5439 186.784 72.8719C186.224 72.1812 185.636 71.4626 185.02 70.7159C184.404 69.9506 183.806 69.2132 183.228 68.5039C182.649 67.7946 182.136 67.1972 181.688 66.7119C181.408 66.3759 181.146 66.1706 180.904 66.0959C180.68 66.0026 180.456 66.0212 180.232 66.1519C180.026 66.2639 179.802 66.4786 179.56 66.7959C179.317 67.1132 179.018 67.4959 178.664 67.9439C178.328 68.3919 177.973 68.8679 177.6 69.3719C177.245 69.8759 176.89 70.3706 176.536 70.8559C176.2 71.3412 175.892 71.7706 175.612 72.1439C175.276 72.6479 174.949 73.1799 174.632 73.7399C174.314 74.2999 174.025 74.7946 173.764 75.2239L169.676 70.9679ZM189.248 59.6839C189.528 60.0946 189.826 60.5706 190.144 61.1119C190.48 61.6532 190.797 62.1946 191.096 62.7359C191.413 63.2772 191.674 63.7626 191.88 64.1919L188.884 65.4799C188.585 64.8266 188.305 64.2572 188.044 63.7719C187.801 63.2679 187.549 62.7919 187.288 62.3439C187.026 61.8772 186.709 61.3919 186.336 60.8879L189.248 59.6839ZM193.084 58.0879C193.382 58.4799 193.7 58.9466 194.036 59.4879C194.372 60.0106 194.698 60.5332 195.016 61.0559C195.333 61.5786 195.594 62.0452 195.8 62.4559L192.888 63.8559C192.57 63.2026 192.272 62.6426 191.992 62.1759C191.73 61.6906 191.46 61.2332 191.18 60.8039C190.9 60.3559 190.573 59.8892 190.2 59.4039L193.084 58.0879Z" fill="#070E50"/>
<path d="M160.948 56.408C160.93 56.576 160.902 56.856 160.864 57.248C160.827 57.6213 160.799 57.9946 160.78 58.368C160.762 58.7413 160.743 59.012 160.724 59.18C160.706 59.5533 160.687 60.0666 160.668 60.72C160.668 61.3546 160.668 62.064 160.668 62.848C160.668 63.632 160.668 64.4253 160.668 65.228C160.687 66.012 160.696 66.7493 160.696 67.44C160.715 68.1306 160.724 68.7 160.724 69.148L156.468 67.916C156.468 67.5053 156.468 66.992 156.468 66.376C156.468 65.76 156.468 65.0973 156.468 64.388C156.468 63.6786 156.459 62.988 156.44 62.316C156.44 61.6253 156.431 61.0093 156.412 60.468C156.394 59.908 156.375 59.488 156.356 59.208C156.3 58.536 156.244 57.9573 156.188 57.472C156.132 56.968 156.086 56.6133 156.048 56.408H160.948ZM144.568 59.656C145.446 59.656 146.426 59.656 147.508 59.656C148.591 59.6373 149.711 59.6186 150.868 59.6C152.026 59.5813 153.155 59.5626 154.256 59.544C155.358 59.5253 156.366 59.516 157.28 59.516C158.214 59.4973 158.988 59.488 159.604 59.488C160.239 59.488 160.976 59.488 161.816 59.488C162.675 59.4693 163.534 59.46 164.392 59.46C165.27 59.46 166.072 59.46 166.8 59.46C167.547 59.46 168.126 59.46 168.536 59.46L168.48 63.464C167.566 63.4266 166.352 63.3893 164.84 63.352C163.328 63.3146 161.536 63.296 159.464 63.296C158.158 63.296 156.851 63.3146 155.544 63.352C154.238 63.3706 152.95 63.3986 151.68 63.436C150.43 63.4733 149.216 63.52 148.04 63.576C146.864 63.6133 145.744 63.66 144.68 63.716L144.568 59.656ZM159.996 68.028C159.996 69.708 159.81 71.108 159.436 72.228C159.063 73.3293 158.494 74.16 157.728 74.72C156.963 75.28 155.974 75.56 154.76 75.56C154.256 75.56 153.715 75.448 153.136 75.224C152.558 75 152.016 74.664 151.512 74.216C151.008 73.768 150.598 73.208 150.28 72.536C149.963 71.864 149.804 71.08 149.804 70.184C149.804 69.0453 150.075 68.0746 150.616 67.272C151.158 66.4506 151.876 65.8253 152.772 65.396C153.687 64.948 154.686 64.724 155.768 64.724C157.075 64.724 158.176 65.0226 159.072 65.62C159.968 66.1986 160.64 66.9826 161.088 67.972C161.555 68.9426 161.788 70.0346 161.788 71.248C161.788 72.144 161.63 73.096 161.312 74.104C160.995 75.112 160.472 76.1013 159.744 77.072C159.035 78.024 158.083 78.892 156.888 79.676C155.694 80.4786 154.219 81.1226 152.464 81.608L148.852 77.996C149.991 77.772 151.083 77.492 152.128 77.156C153.174 76.8013 154.107 76.344 154.928 75.784C155.75 75.224 156.394 74.5146 156.86 73.656C157.346 72.7973 157.588 71.7333 157.588 70.464C157.588 69.7546 157.402 69.2133 157.028 68.84C156.655 68.4666 156.198 68.28 155.656 68.28C155.376 68.28 155.096 68.3453 154.816 68.476C154.536 68.588 154.303 68.784 154.116 69.064C153.948 69.3253 153.864 69.6706 153.864 70.1C153.864 70.604 154.051 71.0146 154.424 71.332C154.798 71.6493 155.208 71.808 155.656 71.808C156.03 71.808 156.366 71.6866 156.664 71.444C156.982 71.1826 157.178 70.7253 157.252 70.072C157.327 69.4186 157.168 68.5133 156.776 67.356L159.996 68.028Z" fill="#070E50"/>
<path d="M118.108 76.96H140.312V80.712H118.108V76.96ZM114.888 57.3879H139.976V61.112H114.888V57.3879ZM116.064 63.128H120.096V81.916H116.064V63.128ZM125.724 68.532V69.4559H133.172V68.532H125.724ZM125.724 72.06V72.9839H133.172V72.06H125.724ZM125.724 65.032V65.9279H133.172V65.032H125.724ZM121.888 62.2319H137.204V75.784H121.888V62.2319ZM125.724 55.1479L130.54 55.2599C130.391 56.3239 130.223 57.3693 130.036 58.396C129.85 59.4226 129.663 60.384 129.476 61.28C129.29 62.176 129.103 62.9693 128.916 63.66L124.856 63.408C125.006 62.6426 125.136 61.7839 125.248 60.8319C125.379 59.8799 125.482 58.9093 125.556 57.92C125.65 56.9306 125.706 56.0066 125.724 55.1479Z" fill="#070E50"/>
<path d="M86.3562 59.5719C86.9162 59.5533 87.4669 59.5346 88.0082 59.5159C88.5682 59.4786 88.9789 59.4506 89.2402 59.4319C89.8935 59.3759 90.6402 59.3106 91.4802 59.2359C92.3389 59.1613 93.2722 59.0866 94.2802 59.0119C95.3069 58.9186 96.3989 58.8253 97.5562 58.7319C98.7135 58.6386 99.9362 58.5359 101.224 58.4239C102.158 58.3493 103.119 58.2839 104.108 58.2279C105.116 58.1533 106.078 58.0879 106.992 58.0319C107.907 57.9759 108.7 57.9386 109.372 57.9199L109.4 62.2879C108.915 62.2879 108.346 62.2973 107.692 62.3159C107.058 62.3346 106.414 62.3626 105.76 62.3999C105.126 62.4373 104.547 62.5119 104.024 62.6239C103.278 62.7919 102.559 63.1093 101.868 63.5759C101.196 64.0426 100.599 64.6119 100.076 65.2839C99.5535 65.9373 99.1429 66.6653 98.8442 67.4679C98.5455 68.2519 98.3962 69.0639 98.3962 69.9039C98.3962 70.7253 98.5362 71.4533 98.8162 72.0879C99.1149 72.7226 99.5255 73.2733 100.048 73.7399C100.59 74.1879 101.224 74.5706 101.952 74.8879C102.68 75.1866 103.474 75.4199 104.332 75.5879C105.21 75.7559 106.134 75.8679 107.104 75.9239L105.508 80.6279C104.258 80.5346 103.054 80.3199 101.896 79.9839C100.758 79.6666 99.7029 79.2373 98.7322 78.6959C97.7615 78.1359 96.9122 77.4733 96.1842 76.7079C95.4749 75.9239 94.9149 75.0466 94.5042 74.0759C94.1122 73.0866 93.9162 71.9946 93.9162 70.7999C93.9162 69.5119 94.1029 68.3359 94.4762 67.2719C94.8682 66.2079 95.3349 65.2839 95.8762 64.4999C96.4362 63.6972 96.9682 63.0719 97.4722 62.6239C96.9869 62.6799 96.4175 62.7452 95.7642 62.8199C95.1109 62.8946 94.4015 62.9786 93.6362 63.0719C92.8709 63.1653 92.0869 63.2679 91.2842 63.3799C90.5002 63.4919 89.7162 63.6226 88.9322 63.7719C88.1669 63.9026 87.4482 64.0426 86.7762 64.1919L86.3562 59.5719ZM105.424 64.6399C105.667 64.9759 105.919 65.3773 106.18 65.8439C106.46 66.2919 106.722 66.7399 106.964 67.1879C107.226 67.6359 107.44 68.0373 107.608 68.3919L105.116 69.4839C104.743 68.6626 104.407 67.9813 104.108 67.4399C103.81 66.8799 103.436 66.2826 102.988 65.6479L105.424 64.6399ZM108.588 63.2959C108.831 63.6319 109.092 64.0239 109.372 64.4719C109.671 64.9013 109.951 65.3399 110.212 65.7879C110.492 66.2173 110.726 66.5999 110.912 66.9359L108.448 68.1119C108.038 67.3093 107.674 66.6466 107.356 66.1239C107.039 65.6012 106.647 65.0226 106.18 64.3879L108.588 63.2959Z" fill="#070E50"/>
<path d="M72.8323 56.324C72.795 56.6226 72.7576 56.9586 72.7203 57.332C72.683 57.6866 72.655 58.032 72.6363 58.368C72.6176 58.7786 72.599 59.32 72.5803 59.992C72.5616 60.6453 72.543 61.364 72.5243 62.148C72.5243 62.9133 72.5243 63.6693 72.5243 64.416C72.5243 65.1626 72.5243 65.8346 72.5243 66.432C72.5243 67.1226 72.543 67.9346 72.5803 68.868C72.6363 69.7826 72.6923 70.7346 72.7483 71.724C72.823 72.6946 72.879 73.628 72.9163 74.524C72.9723 75.4013 73.0003 76.1386 73.0003 76.736C73.0003 77.6133 72.767 78.388 72.3003 79.06C71.8523 79.7133 71.1896 80.2266 70.3123 80.6C69.4536 80.9733 68.4083 81.16 67.1763 81.16C64.8056 81.16 63.0136 80.712 61.8003 79.816C60.6056 78.9386 60.0083 77.7253 60.0083 76.176C60.0083 75.168 60.2883 74.2813 60.8483 73.516C61.427 72.7506 62.2483 72.1533 63.3123 71.724C64.395 71.276 65.6736 71.052 67.1483 71.052C68.7163 71.052 70.1723 71.2106 71.5163 71.528C72.879 71.8453 74.1203 72.2653 75.2403 72.788C76.3603 73.292 77.3496 73.8333 78.2083 74.412C79.0856 74.9906 79.8323 75.532 80.4483 76.036L78.0123 79.816C77.3216 79.1626 76.5563 78.5186 75.7163 77.884C74.895 77.2493 73.999 76.68 73.0283 76.176C72.0576 75.672 71.031 75.2706 69.9483 74.972C68.8843 74.6733 67.7643 74.524 66.5883 74.524C65.8043 74.524 65.1976 74.664 64.7683 74.944C64.339 75.2053 64.1243 75.532 64.1243 75.924C64.1243 76.2226 64.2176 76.484 64.4043 76.708C64.6096 76.9133 64.8896 77.072 65.2443 77.184C65.599 77.2773 66.019 77.324 66.5043 77.324C66.9896 77.324 67.391 77.2773 67.7083 77.184C68.0443 77.072 68.2963 76.8853 68.4643 76.624C68.6323 76.344 68.7163 75.9706 68.7163 75.504C68.7163 75.1493 68.6976 74.6173 68.6603 73.908C68.623 73.1986 68.5856 72.4053 68.5483 71.528C68.511 70.632 68.4736 69.736 68.4363 68.84C68.399 67.944 68.3803 67.1413 68.3803 66.432C68.3803 65.7413 68.3803 65.004 68.3803 64.22C68.399 63.4173 68.4083 62.6333 68.4083 61.868C68.4083 61.1026 68.4083 60.412 68.4083 59.796C68.427 59.18 68.4363 58.704 68.4363 58.368C68.4363 58.1066 68.4176 57.78 68.3803 57.388C68.3616 56.9773 68.315 56.6226 68.2403 56.324H72.8323ZM60.7083 58.704C61.231 58.7786 61.8003 58.8533 62.4163 58.928C63.0323 59.0026 63.6483 59.0773 64.2643 59.152C64.899 59.208 65.487 59.2546 66.0283 59.292C66.5883 59.3106 67.0736 59.32 67.4843 59.32C69.463 59.32 71.4043 59.264 73.3083 59.152C75.2123 59.04 77.247 58.8066 79.4123 58.452L79.3843 62.316C78.4883 62.4466 77.3963 62.568 76.1083 62.68C74.839 62.792 73.4576 62.8853 71.9643 62.96C70.4896 63.016 69.0056 63.044 67.5123 63.044C66.9523 63.044 66.2616 63.0253 65.4403 62.988C64.6376 62.932 63.8163 62.8666 62.9763 62.792C62.155 62.6986 61.427 62.6146 60.7923 62.54L60.7083 58.704ZM60.5403 64.808C60.9696 64.8826 61.4923 64.9573 62.1083 65.032C62.7243 65.1066 63.3496 65.1626 63.9843 65.2C64.6376 65.2373 65.2443 65.2746 65.8043 65.312C66.3643 65.3306 66.803 65.34 67.1203 65.34C69.0616 65.34 70.7696 65.3026 72.2443 65.228C73.7376 65.1533 75.091 65.06 76.3043 64.948C77.5363 64.836 78.703 64.7146 79.8043 64.584L79.7763 68.56C78.8056 68.672 77.863 68.7653 76.9483 68.84C76.0523 68.9146 75.1283 68.98 74.1763 69.036C73.2243 69.0733 72.1696 69.1013 71.0123 69.12C69.8736 69.1386 68.5576 69.148 67.0643 69.148C66.579 69.148 65.935 69.1386 65.1323 69.12C64.3483 69.0826 63.5456 69.036 62.7243 68.98C61.903 68.924 61.1936 68.8586 60.5963 68.784L60.5403 64.808Z" fill="#070E50"/>
<path d="M32.7083 58.452C33.7536 58.564 34.9296 58.648 36.2363 58.704C37.543 58.76 38.9523 58.788 40.4643 58.788C41.3976 58.788 42.3683 58.7693 43.3763 58.732C44.403 58.6947 45.3923 58.648 46.3443 58.592C47.315 58.536 48.1643 58.4707 48.8923 58.396V62.932C48.239 62.988 47.427 63.044 46.4563 63.1C45.4856 63.156 44.4776 63.2027 43.4323 63.24C42.387 63.2587 41.407 63.268 40.4923 63.268C38.999 63.268 37.6176 63.24 36.3483 63.184C35.079 63.1093 33.8656 63.0347 32.7083 62.96V58.452ZM35.7603 70.632C35.6483 71.0987 35.5456 71.5467 35.4523 71.976C35.3776 72.4053 35.3403 72.844 35.3403 73.292C35.3403 74.076 35.7416 74.7387 36.5443 75.28C37.347 75.8027 38.691 76.064 40.5763 76.064C41.827 76.064 43.0403 76.0173 44.2163 75.924C45.3923 75.8307 46.5123 75.7 47.5763 75.532C48.659 75.364 49.6483 75.168 50.5443 74.944L50.5723 79.76C49.6763 79.9467 48.715 80.1053 47.6883 80.236C46.6616 80.3853 45.5696 80.4973 44.4123 80.572C43.2736 80.6467 42.051 80.684 40.7443 80.684C38.4856 80.684 36.6096 80.432 35.1163 79.928C33.6416 79.4427 32.5403 78.7333 31.8123 77.8C31.103 76.848 30.7483 75.7 30.7483 74.356C30.7483 73.4973 30.8136 72.7227 30.9443 72.032C31.0936 71.3413 31.215 70.744 31.3083 70.24L35.7603 70.632Z" fill="#070E50"/>
<path d="M20.7599 63.968C20.2559 64.2667 19.7425 64.556 19.2199 64.836C18.7159 65.0974 18.1839 65.368 17.6239 65.648C17.0639 65.9094 16.4385 66.2174 15.7479 66.572C15.0572 66.908 14.3199 67.2907 13.5359 67.72C12.7519 68.1307 11.9492 68.5974 11.1279 69.12C10.0452 69.8294 9.14921 70.5667 8.43987 71.332C7.74921 72.0974 7.40388 72.9467 7.40388 73.88C7.40388 74.7947 7.85188 75.476 8.74788 75.924C9.64387 76.372 10.9879 76.596 12.7799 76.596C13.7132 76.596 14.7212 76.5494 15.8039 76.456C16.9052 76.3627 17.9972 76.232 19.0799 76.064C20.1625 75.896 21.1425 75.7187 22.0199 75.532L21.9639 80.404C21.1239 80.5534 20.2372 80.684 19.3039 80.796C18.3892 80.908 17.3999 80.992 16.3359 81.048C15.2905 81.104 14.1425 81.132 12.8919 81.132C11.4545 81.132 10.1105 81.02 8.85987 80.796C7.62787 80.572 6.54521 80.1987 5.61188 79.676C4.69721 79.172 3.97854 78.4907 3.45587 77.632C2.93321 76.7547 2.67188 75.672 2.67188 74.384C2.67188 73.096 2.95188 71.948 3.51188 70.94C4.09054 69.9134 4.85587 68.98 5.80787 68.14C6.75987 67.3 7.78654 66.516 8.88787 65.788C9.74654 65.228 10.5865 64.7147 11.4079 64.248C12.2479 63.7814 13.0412 63.352 13.7879 62.96C14.5345 62.5494 15.1785 62.1854 15.7199 61.868C16.3172 61.532 16.8492 61.2147 17.3159 60.916C17.7825 60.6174 18.2212 60.3 18.6319 59.964L20.7599 63.968ZM7.65587 57.024C8.12254 58.2934 8.61721 59.5067 9.13988 60.664C9.66254 61.8027 10.1852 62.8667 10.7079 63.856C11.2305 64.8267 11.7065 65.704 12.1359 66.488L8.24388 68.756C7.72121 67.86 7.17987 66.8707 6.61987 65.788C6.07854 64.7054 5.53721 63.576 4.99587 62.4C4.45454 61.2054 3.92254 59.992 3.39987 58.76L7.65587 57.024ZM21.0119 56.52C21.2545 56.856 21.5065 57.2667 21.7679 57.752C22.0479 58.2187 22.3092 58.6854 22.5519 59.152C22.8132 59.6187 23.0279 60.02 23.1959 60.356L20.5359 61.476C20.2372 60.8974 19.8919 60.244 19.4999 59.516C19.1265 58.7694 18.7532 58.1254 18.3799 57.584L21.0119 56.52ZM24.4559 55.176C24.6985 55.5307 24.9599 55.9507 25.2399 56.436C25.5199 56.9027 25.7905 57.3694 26.0519 57.836C26.3132 58.284 26.5185 58.6667 26.6679 58.984L24.0359 60.104C23.7559 59.5254 23.4105 58.872 22.9999 58.144C22.5892 57.3974 22.1972 56.7627 21.8239 56.24L24.4559 55.176Z" fill="#070E50"/>
<path d="M451.361 18.968C450.857 19.2667 450.343 19.556 449.821 19.836C449.317 20.0974 448.785 20.368 448.225 20.648C447.665 20.9094 447.039 21.2174 446.349 21.572C445.658 21.908 444.921 22.2907 444.137 22.72C443.353 23.1307 442.55 23.5974 441.729 24.12C440.646 24.8294 439.75 25.5667 439.041 26.332C438.35 27.0974 438.005 27.9467 438.005 28.88C438.005 29.7947 438.453 30.476 439.349 30.924C440.245 31.372 441.589 31.596 443.381 31.596C444.314 31.596 445.322 31.5494 446.405 31.456C447.506 31.3627 448.598 31.232 449.681 31.064C450.763 30.896 451.743 30.7187 452.621 30.532L452.565 35.404C451.725 35.5534 450.838 35.684 449.905 35.796C448.99 35.908 448.001 35.992 446.937 36.048C445.891 36.104 444.743 36.132 443.493 36.132C442.055 36.132 440.711 36.02 439.461 35.796C438.229 35.572 437.146 35.1987 436.213 34.676C435.298 34.172 434.579 33.4907 434.057 32.632C433.534 31.7547 433.273 30.672 433.273 29.384C433.273 28.096 433.553 26.948 434.113 25.94C434.691 24.9134 435.457 23.98 436.409 23.14C437.361 22.3 438.387 21.516 439.489 20.788C440.347 20.228 441.187 19.7147 442.009 19.248C442.849 18.7814 443.642 18.352 444.389 17.96C445.135 17.5494 445.779 17.1854 446.321 16.868C446.918 16.532 447.45 16.2147 447.917 15.916C448.383 15.6174 448.822 15.3 449.233 14.964L451.361 18.968ZM438.257 12.024C438.723 13.2934 439.218 14.5067 439.741 15.664C440.263 16.8027 440.786 17.8667 441.309 18.856C441.831 19.8267 442.307 20.704 442.737 21.488L438.845 23.756C438.322 22.86 437.781 21.8707 437.221 20.788C436.679 19.7054 436.138 18.576 435.597 17.4C435.055 16.2054 434.523 14.992 434.001 13.76L438.257 12.024ZM451.613 11.52C451.855 11.856 452.107 12.2667 452.369 12.752C452.649 13.2187 452.91 13.6854 453.153 14.152C453.414 14.6187 453.629 15.02 453.797 15.356L451.137 16.476C450.838 15.8974 450.493 15.244 450.101 14.516C449.727 13.7694 449.354 13.1254 448.981 12.584L451.613 11.52ZM455.057 10.176C455.299 10.5307 455.561 10.9507 455.841 11.436C456.121 11.9027 456.391 12.3694 456.653 12.836C456.914 13.284 457.119 13.6667 457.269 13.984L454.637 15.104C454.357 14.5254 454.011 13.872 453.601 13.144C453.19 12.3974 452.798 11.7627 452.425 11.24L455.057 10.176Z" fill="#070E50"/>
<path d="M422.717 11.688C422.661 12.0427 422.623 12.3973 422.605 12.752C422.586 13.1067 422.567 13.4427 422.549 13.76C422.53 14.04 422.521 14.4693 422.521 15.048C422.521 15.608 422.521 16.2427 422.521 16.952C422.521 17.6613 422.521 18.38 422.521 19.108C422.521 19.8173 422.521 20.48 422.521 21.096C422.521 21.6933 422.521 22.16 422.521 22.496C422.521 24.176 422.446 25.688 422.297 27.032C422.166 28.3573 421.886 29.58 421.457 30.7C421.027 31.8013 420.402 32.828 419.581 33.78C418.778 34.732 417.705 35.656 416.361 36.552L412.441 33.472C413.038 33.2107 413.682 32.8467 414.373 32.38C415.063 31.9133 415.614 31.4373 416.025 30.952C416.435 30.448 416.781 29.9253 417.061 29.384C417.359 28.8427 417.602 28.2453 417.789 27.592C417.975 26.92 418.106 26.1733 418.181 25.352C418.274 24.512 418.321 23.5507 418.321 22.468C418.321 21.908 418.321 21.2267 418.321 20.424C418.321 19.6213 418.311 18.7907 418.293 17.932C418.274 17.0733 418.255 16.28 418.237 15.552C418.218 14.8053 418.19 14.208 418.153 13.76C418.134 13.4053 418.087 13.032 418.013 12.64C417.938 12.2293 417.873 11.912 417.817 11.688H422.717ZM411.209 16.98C411.694 17.036 412.151 17.092 412.581 17.148C413.029 17.1853 413.467 17.2133 413.897 17.232C414.345 17.2507 414.811 17.26 415.297 17.26C416.529 17.26 417.835 17.232 419.217 17.176C420.617 17.12 421.951 17.036 423.221 16.924C424.509 16.812 425.601 16.6907 426.497 16.56L426.469 20.956C425.61 21.0307 424.565 21.1053 423.333 21.18C422.101 21.236 420.794 21.292 419.413 21.348C418.05 21.3853 416.715 21.404 415.409 21.404C415.035 21.404 414.615 21.3947 414.149 21.376C413.682 21.3573 413.197 21.3387 412.693 21.32C412.207 21.3013 411.713 21.2827 411.209 21.264V16.98ZM408.913 12.192C408.782 12.584 408.642 13.032 408.493 13.536C408.343 14.0213 408.231 14.4227 408.157 14.74C408.007 15.3747 407.839 16.1773 407.653 17.148C407.485 18.1187 407.335 19.1453 407.205 20.228C407.074 21.292 406.99 22.328 406.953 23.336C406.934 24.3253 406.99 25.1747 407.121 25.884C407.307 25.548 407.513 25.128 407.737 24.624C407.961 24.1013 408.175 23.6347 408.381 23.224L410.453 24.568C410.154 25.4453 409.874 26.332 409.613 27.228C409.37 28.1053 409.155 28.936 408.969 29.72C408.782 30.4853 408.623 31.1573 408.493 31.736C408.437 31.96 408.39 32.2213 408.353 32.52C408.315 32.8 408.297 33.0147 408.297 33.164C408.297 33.3133 408.297 33.5093 408.297 33.752C408.315 33.9947 408.334 34.228 408.353 34.452L404.545 34.816C404.339 34.256 404.097 33.472 403.817 32.464C403.555 31.456 403.331 30.3547 403.145 29.16C402.958 27.9467 402.865 26.7707 402.865 25.632C402.865 24.0827 402.911 22.5987 403.005 21.18C403.098 19.7613 403.21 18.4733 403.341 17.316C403.471 16.14 403.593 15.1787 403.705 14.432C403.779 14.0027 403.826 13.5453 403.845 13.06C403.863 12.5747 403.882 12.1267 403.901 11.716L408.913 12.192Z" fill="#070E50"/>
<path d="M379.653 13.9281C379.578 14.3201 379.513 14.7587 379.457 15.2441C379.401 15.7294 379.354 16.1961 379.317 16.6441C379.28 17.0921 379.261 17.4561 379.261 17.7361C379.261 18.3521 379.261 18.9681 379.261 19.5841C379.28 20.2001 379.298 20.8161 379.317 21.4321C379.336 22.0294 379.373 22.6454 379.429 23.2801C379.541 24.4934 379.69 25.5761 379.877 26.5281C380.063 27.4614 380.316 28.1987 380.633 28.7401C380.969 29.2627 381.407 29.5241 381.949 29.5241C382.266 29.5241 382.565 29.3374 382.845 28.9641C383.125 28.5907 383.377 28.1147 383.601 27.5361C383.843 26.9574 384.049 26.3601 384.217 25.7441C384.385 25.1281 384.525 24.5867 384.637 24.1201L388.053 28.3201C387.399 29.9627 386.756 31.2787 386.121 32.2681C385.486 33.2387 384.824 33.9387 384.133 34.3681C383.442 34.7974 382.686 35.0121 381.865 35.0121C380.764 35.0121 379.737 34.6761 378.785 34.0041C377.852 33.3134 377.049 32.2027 376.377 30.6721C375.723 29.1227 375.266 27.0787 375.005 24.5401C374.911 23.6441 374.837 22.7201 374.781 21.7681C374.743 20.8161 374.716 19.9107 374.697 19.0521C374.697 18.1934 374.697 17.4747 374.697 16.8961C374.697 16.4667 374.678 15.9814 374.641 15.4401C374.604 14.8801 374.538 14.3574 374.445 13.8721L379.653 13.9281ZM393.345 14.4601C393.886 15.0947 394.409 15.8881 394.913 16.8401C395.417 17.7921 395.874 18.8187 396.285 19.9201C396.714 21.0214 397.088 22.1414 397.405 23.2801C397.722 24.4001 397.974 25.4827 398.161 26.5281C398.366 27.5734 398.497 28.4974 398.553 29.3001L394.045 31.0361C393.951 29.9721 393.783 28.7587 393.541 27.3961C393.317 26.0334 393 24.6427 392.589 23.2241C392.197 21.7867 391.702 20.4241 391.105 19.1361C390.526 17.8481 389.826 16.7561 389.005 15.8601L393.345 14.4601Z" fill="#070E50"/>
<path d="M356.721 11.6601C356.609 12.0894 356.488 12.6027 356.357 13.2001C356.245 13.7787 356.152 14.2267 356.077 14.5441C355.946 15.1601 355.778 15.9347 355.573 16.8681C355.386 17.8014 355.171 18.7907 354.929 19.8361C354.686 20.8814 354.444 21.8801 354.201 22.8321C353.958 23.8027 353.66 24.8667 353.305 26.0241C352.95 27.1627 352.567 28.3294 352.157 29.5241C351.765 30.7001 351.354 31.8387 350.925 32.9401C350.514 34.0227 350.113 35.0027 349.721 35.8801L345.017 34.2841C345.428 33.5934 345.866 32.7347 346.333 31.7081C346.799 30.6814 347.257 29.5801 347.705 28.4041C348.153 27.2094 348.573 26.0334 348.965 24.8761C349.357 23.7001 349.684 22.6267 349.945 21.6561C350.132 20.9841 350.3 20.3121 350.449 19.6401C350.617 18.9681 350.766 18.3241 350.897 17.7081C351.028 17.0734 351.14 16.4761 351.233 15.9161C351.326 15.3561 351.401 14.8521 351.457 14.4041C351.532 13.8067 351.569 13.2281 351.569 12.6681C351.588 12.0894 351.578 11.6227 351.541 11.2681L356.721 11.6601ZM349.049 15.5801C350.262 15.5801 351.485 15.5241 352.717 15.4121C353.967 15.3001 355.218 15.1414 356.469 14.9361C357.738 14.7121 358.998 14.4601 360.249 14.1801V18.4081C359.092 18.6881 357.85 18.9214 356.525 19.1081C355.2 19.2947 353.884 19.4441 352.577 19.5561C351.289 19.6494 350.104 19.6961 349.021 19.6961C348.312 19.6961 347.677 19.6867 347.117 19.6681C346.557 19.6307 346.034 19.6027 345.549 19.5841L345.437 15.3561C346.202 15.4307 346.846 15.4867 347.369 15.5241C347.892 15.5614 348.451 15.5801 349.049 15.5801ZM357.813 20.1161C358.634 20.0227 359.53 19.9481 360.501 19.8921C361.49 19.8361 362.442 19.8081 363.357 19.8081C364.141 19.8081 364.943 19.8267 365.765 19.8641C366.605 19.9014 367.454 19.9667 368.313 20.0601L368.229 24.1201C367.538 24.0267 366.773 23.9427 365.933 23.8681C365.093 23.7934 364.234 23.7561 363.357 23.7561C362.349 23.7561 361.397 23.7841 360.501 23.8401C359.605 23.8774 358.709 23.9521 357.813 24.0641V20.1161ZM359.857 27.2841C359.764 27.6387 359.679 28.0307 359.605 28.4601C359.53 28.8707 359.493 29.2161 359.493 29.4961C359.493 29.7947 359.549 30.0654 359.661 30.3081C359.791 30.5321 359.978 30.7281 360.221 30.8961C360.482 31.0641 360.828 31.1947 361.257 31.2881C361.686 31.3627 362.209 31.4001 362.825 31.4001C363.777 31.4001 364.738 31.3534 365.709 31.2601C366.698 31.1481 367.734 30.9987 368.817 30.8121L368.649 35.1241C367.846 35.2174 366.959 35.3014 365.989 35.3761C365.037 35.4694 363.973 35.5161 362.797 35.5161C360.352 35.5161 358.485 35.0961 357.197 34.2561C355.928 33.4347 355.293 32.3147 355.293 30.8961C355.293 30.1867 355.349 29.4774 355.461 28.7681C355.592 28.0401 355.713 27.4147 355.825 26.8921L359.857 27.2841Z" fill="#070E50"/>
<path d="M325.025 11.7721C324.931 12.4254 324.847 13.1441 324.773 13.9281C324.698 14.7121 324.642 15.4121 324.605 16.0281C324.567 16.7561 324.53 17.6521 324.493 18.7161C324.455 19.7614 324.418 20.8627 324.381 22.0201C324.343 23.1587 324.315 24.2694 324.297 25.3521C324.278 26.4161 324.269 27.3307 324.269 28.0961C324.269 28.9921 324.418 29.7014 324.717 30.2241C325.034 30.7281 325.454 31.0921 325.977 31.3161C326.499 31.5214 327.078 31.6241 327.713 31.6241C328.795 31.6241 329.794 31.4747 330.709 31.1761C331.623 30.8774 332.463 30.4761 333.229 29.9721C333.994 29.4494 334.694 28.8427 335.329 28.1521C335.963 27.4614 336.533 26.7241 337.037 25.9401L340.117 29.7201C339.687 30.3921 339.099 31.1107 338.353 31.8761C337.625 32.6227 336.738 33.3321 335.693 34.0041C334.666 34.6761 333.481 35.2174 332.137 35.6281C330.793 36.0574 329.309 36.2721 327.685 36.2721C326.061 36.2721 324.651 36.0201 323.457 35.5161C322.262 35.0121 321.338 34.2374 320.685 33.1921C320.05 32.1281 319.733 30.7841 319.733 29.1601C319.733 28.4507 319.742 27.6201 319.761 26.6681C319.779 25.6974 319.798 24.6894 319.817 23.6441C319.854 22.5801 319.882 21.5441 319.901 20.5361C319.919 19.5281 319.938 18.6321 319.957 17.8481C319.975 17.0454 319.985 16.4387 319.985 16.0281C319.985 15.2627 319.947 14.5161 319.873 13.7881C319.817 13.0414 319.714 12.3507 319.565 11.7161L325.025 11.7721Z" fill="#070E50"/>
<path d="M301.693 6.11984C302.093 6.70651 302.52 7.38651 302.973 8.15985C303.453 8.93318 303.906 9.70651 304.333 10.4798C304.786 11.2532 305.16 11.9465 305.453 12.5598L301.173 14.3998C300.746 13.4665 300.346 12.6532 299.973 11.9598C299.626 11.2398 299.266 10.5598 298.893 9.91984C298.52 9.25318 298.066 8.55985 297.533 7.83985L301.693 6.11984ZM307.173 3.83984C307.6 4.39984 308.053 5.06651 308.533 5.83984C309.013 6.58651 309.48 7.33318 309.933 8.07984C310.386 8.82651 310.76 9.49318 311.053 10.0798L306.893 12.0798C306.44 11.1465 306.013 10.3465 305.613 9.67985C305.24 8.98651 304.853 8.33318 304.453 7.71984C304.053 7.07984 303.586 6.41318 303.053 5.71985L307.173 3.83984ZM273.933 22.3198C274.573 21.7865 275.16 21.2798 275.693 20.7998C276.226 20.2932 276.826 19.7065 277.493 19.0398C277.946 18.5865 278.453 18.0398 279.013 17.3998C279.573 16.7598 280.186 16.0532 280.853 15.2798C281.52 14.4798 282.2 13.6532 282.893 12.7998C283.613 11.9198 284.333 11.0532 285.053 10.1998C286.306 8.70651 287.613 7.89318 288.973 7.75985C290.36 7.59984 291.88 8.30651 293.533 9.87984C294.493 10.7598 295.44 11.6798 296.373 12.6398C297.306 13.5732 298.213 14.5065 299.093 15.4398C300 16.3732 300.853 17.2798 301.653 18.1598C302.56 19.1198 303.586 20.2132 304.733 21.4398C305.88 22.6665 307.053 23.9198 308.253 25.1998C309.453 26.4798 310.56 27.6665 311.573 28.7598L306.213 34.5198C305.36 33.4265 304.44 32.2798 303.453 31.0798C302.493 29.8532 301.546 28.6665 300.613 27.5198C299.68 26.3465 298.84 25.3198 298.093 24.4398C297.506 23.7198 296.866 22.9732 296.173 22.1998C295.48 21.3998 294.8 20.6265 294.133 19.8798C293.466 19.1065 292.853 18.4265 292.293 17.8398C291.733 17.2265 291.293 16.7465 290.973 16.3998C290.386 15.8132 289.853 15.5332 289.373 15.5598C288.92 15.5865 288.44 15.9332 287.933 16.5998C287.586 17.0532 287.173 17.6132 286.693 18.2798C286.24 18.9198 285.76 19.5998 285.253 20.3198C284.746 21.0398 284.253 21.7465 283.773 22.4398C283.293 23.1332 282.866 23.7465 282.493 24.2798C282.013 24.9732 281.533 25.6798 281.053 26.3998C280.573 27.1198 280.146 27.7732 279.773 28.3598L273.933 22.3198Z" fill="#008BE8"/>
<path d="M265.813 4.63993C265.386 5.4666 265.013 6.33327 264.693 7.23993C264.373 8.11993 264.08 8.91993 263.813 9.63993C263.226 11.2133 262.533 12.9066 261.733 14.7199C260.96 16.5066 260.106 18.2399 259.173 19.9199C258.24 21.5999 257.24 23.0933 256.173 24.3999C255.08 25.7599 253.746 27.1866 252.173 28.6799C250.626 30.1733 248.906 31.5866 247.013 32.9199C245.12 34.2266 243.093 35.3066 240.933 36.1599L235.413 30.4799C237.546 29.7333 239.546 28.8266 241.413 27.7599C243.28 26.6933 244.986 25.5066 246.533 24.1999C248.106 22.8933 249.48 21.5466 250.653 20.1599C251.96 18.6133 253.106 16.8533 254.093 14.8799C255.106 12.8799 255.96 10.8266 256.653 8.71993C257.346 6.61327 257.866 4.59993 258.213 2.67993L265.813 4.63993Z" fill="#008BE8"/>
<path d="M223.253 2.76001C223.226 3.34668 223.186 4.00001 223.133 4.72001C223.106 5.41334 223.093 6.20001 223.093 7.08001C223.093 7.85334 223.093 8.78668 223.093 9.88001C223.093 10.9467 223.093 12.0133 223.093 13.08C223.093 14.1467 223.093 15.0533 223.093 15.8C223.093 17.8 222.973 19.5733 222.733 21.12C222.52 22.6667 222.2 24.04 221.773 25.24C221.346 26.44 220.826 27.5067 220.213 28.44C219.626 29.3733 218.946 30.24 218.173 31.04C217.293 31.9733 216.266 32.8267 215.093 33.6C213.946 34.3467 212.786 34.9867 211.613 35.52C210.44 36.0533 209.36 36.48 208.373 36.8L203.293 31.44C205.373 30.9867 207.2 30.3733 208.773 29.6C210.373 28.8 211.773 27.7867 212.973 26.56C213.64 25.84 214.186 25.12 214.613 24.4C215.04 23.6533 215.36 22.8533 215.573 22C215.813 21.12 215.973 20.1467 216.053 19.08C216.16 17.9867 216.213 16.7467 216.213 15.36C216.213 14.5867 216.213 13.68 216.213 12.64C216.213 11.6 216.213 10.5733 216.213 9.56001C216.213 8.54667 216.213 7.72001 216.213 7.08001C216.213 6.20001 216.186 5.41334 216.133 4.72001C216.08 4.00001 216.013 3.34668 215.933 2.76001H223.253ZM204.733 3.12001C204.706 3.62668 204.666 4.10667 204.613 4.56001C204.586 4.98667 204.573 5.56001 204.573 6.28001C204.573 6.62668 204.573 7.14668 204.573 7.84001C204.573 8.50668 204.573 9.28001 204.573 10.16C204.573 11.04 204.573 11.96 204.573 12.92C204.573 13.8533 204.573 14.7733 204.573 15.68C204.573 16.5867 204.573 17.4133 204.573 18.16C204.573 18.88 204.573 19.4533 204.573 19.88C204.573 20.3867 204.586 21 204.613 21.72C204.666 22.44 204.706 23.0667 204.733 23.6H197.693C197.72 23.2 197.76 22.6267 197.813 21.88C197.866 21.1333 197.893 20.4533 197.893 19.84C197.893 19.4133 197.893 18.84 197.893 18.12C197.893 17.3733 197.893 16.5467 197.893 15.64C197.893 14.7333 197.893 13.8133 197.893 12.88C197.893 11.92 197.893 11.0133 197.893 10.16C197.893 9.28001 197.893 8.50668 197.893 7.84001C197.893 7.14668 197.893 6.62668 197.893 6.28001C197.893 5.90668 197.88 5.41334 197.853 4.80001C197.826 4.18668 197.786 3.62668 197.733 3.12001H204.733Z" fill="#008BE8"/>
<path d="M175.611 11.3808C175.517 11.8886 175.358 12.5561 175.132 13.3835C174.925 14.2109 174.615 15.1511 174.201 16.2042C173.938 16.8059 173.646 17.4358 173.327 18.094C173.007 18.7522 172.687 19.3257 172.368 19.8146C172.556 19.7582 172.819 19.7112 173.157 19.6736C173.496 19.6172 173.844 19.5795 174.201 19.5607C174.577 19.5419 174.897 19.5325 175.16 19.5325C176.382 19.5325 177.398 19.8898 178.206 20.6044C179.015 21.3189 179.419 22.3814 179.419 23.7917C179.419 24.1866 179.419 24.6567 179.419 25.202C179.438 25.7286 179.457 26.2833 179.476 26.8662C179.495 27.4492 179.513 28.0227 179.532 28.5868C179.551 29.151 179.56 29.6587 179.56 30.11H175.499C175.536 29.8091 175.564 29.4612 175.583 29.0663C175.602 28.6714 175.611 28.2484 175.611 27.7971C175.63 27.3457 175.64 26.9038 175.64 26.4713C175.658 26.0388 175.668 25.6251 175.668 25.2303C175.668 24.29 175.433 23.6601 174.963 23.3404C174.511 23.0019 174.032 22.8327 173.524 22.8327C172.81 22.8327 172.057 23.0301 171.268 23.425C170.497 23.8011 169.867 24.2336 169.378 24.7225C168.964 25.155 168.541 25.6345 168.109 26.1611C167.695 26.6688 167.244 27.2517 166.755 27.9099L163.116 25.1738C164.244 24.1584 165.25 23.1524 166.134 22.1557C167.037 21.1591 167.817 20.1343 168.475 19.0812C169.133 18.0094 169.679 16.8905 170.111 15.7247C170.374 14.9725 170.591 14.1921 170.76 13.3835C170.948 12.5561 171.061 11.7663 171.098 11.0142L175.611 11.3808ZM164.442 13.7502C165.156 13.863 165.993 13.9476 166.952 14.0041C167.911 14.0605 168.767 14.0887 169.519 14.0887C170.741 14.0887 172.095 14.0605 173.581 14.0041C175.085 13.9476 176.608 13.8536 178.15 13.722C179.711 13.5904 181.187 13.4023 182.578 13.1579L182.55 17.1068C181.554 17.2384 180.463 17.3606 179.278 17.4735C178.094 17.5675 176.89 17.6521 175.668 17.7273C174.446 17.7837 173.28 17.8307 172.17 17.8683C171.08 17.8872 170.121 17.8966 169.293 17.8966C168.917 17.8966 168.447 17.8966 167.883 17.8966C167.319 17.8777 166.736 17.8495 166.134 17.8119C165.532 17.7743 164.968 17.7367 164.442 17.6991V13.7502ZM187.233 22.4378C186.913 22.5318 186.518 22.6635 186.048 22.8327C185.578 22.9831 185.108 23.143 184.638 23.3122C184.167 23.4814 183.754 23.6413 183.396 23.7917C182.531 24.1302 181.497 24.5439 180.294 25.0328C179.109 25.5217 177.868 26.0953 176.57 26.7534C175.762 27.1671 175.104 27.5714 174.596 27.9663C174.088 28.3424 173.712 28.7279 173.468 29.1228C173.223 29.4988 173.101 29.9125 173.101 30.3638C173.101 30.6647 173.157 30.9186 173.27 31.1254C173.402 31.3323 173.599 31.5015 173.863 31.6331C174.145 31.7648 174.511 31.8682 174.963 31.9434C175.414 31.9998 175.969 32.028 176.627 32.028C177.887 32.028 179.259 31.9528 180.745 31.8024C182.231 31.6331 183.594 31.4169 184.835 31.1536L184.694 35.5538C184.13 35.6291 183.378 35.7043 182.437 35.7795C181.516 35.8735 180.538 35.9393 179.504 35.9769C178.47 36.0334 177.482 36.0616 176.542 36.0616C175 36.0616 173.628 35.9017 172.424 35.5821C171.239 35.2812 170.299 34.7735 169.603 34.0589C168.927 33.3255 168.588 32.3383 168.588 31.0972C168.588 30.0442 168.823 29.104 169.293 28.2766C169.782 27.4304 170.412 26.6782 171.183 26.02C171.954 25.3431 172.791 24.7413 173.693 24.2148C174.596 23.6695 175.47 23.19 176.317 22.7763C177.182 22.325 177.934 21.9583 178.573 21.6762C179.212 21.3754 179.805 21.1121 180.35 20.8864C180.895 20.642 181.431 20.3975 181.958 20.1531C182.578 19.8898 183.18 19.6266 183.763 19.3633C184.365 19.0812 184.967 18.7898 185.568 18.4889L187.233 22.4378Z" fill="#070E50"/>
<path d="M143.4 0.519911H149.28V37.9599H143.4V0.519911ZM136.64 2.31991L142.24 3.47991C141.867 5.23991 141.4 7.01325 140.84 8.79991C140.307 10.5866 139.72 12.2666 139.08 13.8399C138.44 15.3866 137.773 16.7466 137.08 17.9199C136.707 17.6266 136.2 17.3066 135.56 16.9599C134.947 16.6132 134.32 16.2799 133.68 15.9599C133.04 15.6132 132.48 15.3466 132 15.1599C132.693 14.1466 133.333 12.9466 133.92 11.5599C134.533 10.1466 135.067 8.65325 135.52 7.07991C135.973 5.47991 136.347 3.89325 136.64 2.31991ZM138.84 7.51991H157.24V13.1999H137.4L138.84 7.51991ZM132.92 19.0399H159.24V24.7199H132.92V19.0399ZM129.4 0.159912L134.88 1.87991C134.027 4.14658 133.013 6.43991 131.84 8.75991C130.667 11.0799 129.387 13.2799 128 15.3599C126.64 17.4399 125.227 19.2532 123.76 20.7999C123.6 20.3199 123.333 19.6932 122.96 18.9199C122.613 18.1466 122.227 17.3732 121.8 16.5999C121.4 15.7999 121.04 15.1599 120.72 14.6799C121.867 13.5066 122.973 12.1466 124.04 10.5999C125.133 9.05324 126.133 7.38658 127.04 5.59991C127.973 3.81324 128.76 1.99991 129.4 0.159912ZM125.48 11.6399L131 6.11991V6.15991V37.9599H125.48V11.6399Z" fill="#008BE8"/>
<path d="M99.32 0L104.56 0.999999C104.08 3.24 103.48 5.42667 102.76 7.56C102.04 9.66667 101.213 11.64 100.28 13.48C99.3733 15.2933 98.3866 16.88 97.32 18.24C97.0266 17.9467 96.6 17.6 96.04 17.2C95.5066 16.7733 94.96 16.36 94.4 15.96C93.84 15.56 93.36 15.24 92.96 15C94 13.8533 94.92 12.48 95.72 10.88C96.5466 9.28 97.2533 7.56 97.84 5.72C98.4533 3.85333 98.9466 1.94667 99.32 0ZM112.56 5.96H118.04C118.04 5.96 118.027 6.12 118 6.44C118 6.76 118 7.12 118 7.52C118 7.92 117.987 8.24 117.96 8.48C117.8 12.9333 117.627 16.7333 117.44 19.88C117.253 23.0267 117.053 25.6267 116.84 27.68C116.653 29.7333 116.413 31.3467 116.12 32.52C115.853 33.6933 115.533 34.5333 115.16 35.04C114.653 35.7867 114.147 36.32 113.64 36.64C113.133 36.9867 112.533 37.24 111.84 37.4C111.253 37.5333 110.56 37.6133 109.76 37.64C108.987 37.6667 108.16 37.6667 107.28 37.64C107.227 36.8133 107.053 35.8533 106.76 34.76C106.493 33.6933 106.133 32.76 105.68 31.96C106.347 32.04 106.96 32.0933 107.52 32.12C108.107 32.12 108.587 32.12 108.96 32.12C109.253 32.12 109.493 32.0667 109.68 31.96C109.893 31.8267 110.12 31.6133 110.36 31.32C110.6 31 110.827 30.3467 111.04 29.36C111.253 28.3467 111.453 26.9067 111.64 25.04C111.827 23.1467 111.987 20.7467 112.12 17.84C112.28 14.9067 112.427 11.36 112.56 7.2V5.96ZM101.36 5.96H115.08V11.32H98.68L101.36 5.96ZM103.48 7.72L107.64 9.76C107.133 12 106.427 14.3067 105.52 16.68C104.64 19.0533 103.6 21.28 102.4 23.36C101.2 25.44 99.8933 27.1733 98.48 28.56C97.9466 28.0267 97.2666 27.4533 96.44 26.84C95.6133 26.2267 94.8133 25.72 94.04 25.32C95.2133 24.4133 96.2933 23.3067 97.28 22C98.2666 20.6667 99.16 19.2133 99.96 17.64C100.76 16.04 101.453 14.4 102.04 12.72C102.627 11.0133 103.107 9.34667 103.48 7.72ZM108.96 8.32L113.4 10.36C112.92 12.92 112.307 15.48 111.56 18.04C110.813 20.5733 109.92 23.0267 108.88 25.4C107.867 27.7467 106.693 29.9067 105.36 31.88C104.027 33.8533 102.533 35.5333 100.88 36.92C100.347 36.36 99.6266 35.76 98.72 35.12C97.84 34.48 97 33.96 96.2 33.56C97.96 32.3067 99.52 30.7733 100.88 28.96C102.267 27.12 103.48 25.08 104.52 22.84C105.56 20.6 106.44 18.2533 107.16 15.8C107.907 13.32 108.507 10.8267 108.96 8.32ZM79.96 21.6C81.2933 21.3067 82.8 20.96 84.48 20.56C86.1866 20.1333 87.9733 19.6667 89.84 19.16C91.7333 18.6533 93.6 18.1467 95.44 17.64L96.2 22.76C93.6933 23.5333 91.12 24.3067 88.48 25.08C85.8666 25.8533 83.48 26.5467 81.32 27.16L79.96 21.6ZM86.96 0H92.28V38H86.96V0ZM81.52 2.28L86.32 3.08C86.16 4.84 85.9466 6.61333 85.68 8.4C85.44 10.1867 85.1333 11.88 84.76 13.48C84.4133 15.0533 84 16.44 83.52 17.64C83.2266 17.4 82.8266 17.12 82.32 16.8C81.84 16.4533 81.3333 16.12 80.8 15.8C80.2933 15.4533 79.8533 15.1867 79.48 15C79.88 13.96 80.2133 12.7467 80.48 11.36C80.7466 9.97333 80.96 8.50667 81.12 6.96C81.3066 5.38667 81.44 3.82667 81.52 2.28ZM83.08 7.48H95.16V13H81.96L83.08 7.48Z" fill="#008BE8"/>
<path d="M39.4399 6.6H76.3599V12.28H39.4399V6.6ZM46.8399 30.72H68.6399V36.24H46.8399V30.72ZM54.7199 0H61.1199V21.8H54.7199V0ZM43.3599 18.64H72.4399V37.76H66.0399V24.16H49.4399V37.92H43.3599V18.64Z" fill="#008BE8"/>
<path d="M0 6.84H33.52V27.64H27.4V12.56H5.84V27.84H0V6.84ZM3 20.04H30.76V25.76H3V20.04ZM13.52 0H19.68V38H13.52V0Z" fill="#008BE8"/>
<path d="M460.086 86.2V88.2H255.086V86.2H460.086Z" fill="#070E50"/>
</svg>
