<svg width="798" height="67" viewBox="0 0 798 67" fill="none" xmlns="http://www.w3.org/2000/svg">
<path d="M790.15 49.0938C791.535 49.0938 792.74 49.4237 793.766 50.0834C794.792 50.7432 795.588 51.6279 796.153 52.7376C796.721 53.8172 796.946 55.0318 796.828 56.3814C796.712 57.701 796.275 58.9156 795.515 60.0252C794.756 61.1349 793.806 62.0196 792.664 62.6794C791.523 63.3392 790.259 63.6691 788.875 63.6691C787.55 63.6691 786.36 63.3392 785.303 62.6794C784.247 62.0196 783.437 61.1349 782.871 60.0252C782.336 58.9156 782.126 57.701 782.242 56.3814C782.36 55.0318 782.782 53.8172 783.509 52.7376C784.268 51.6279 785.234 50.7432 786.405 50.0834C787.577 49.4237 788.825 49.0938 790.15 49.0938ZM789.203 60.4301C790.317 60.4301 791.299 60.0402 792.15 59.2605C793.004 58.4507 793.479 57.4911 793.576 56.3814C793.642 55.6317 793.52 54.9569 793.212 54.3571C792.905 53.7273 792.452 53.2324 791.851 52.8725C791.281 52.5127 790.634 52.3327 789.912 52.3327C789.159 52.3327 788.466 52.5127 787.832 52.8725C787.199 53.2324 786.659 53.7273 786.212 54.3571C785.798 54.9569 785.559 55.6317 785.493 56.3814C785.428 57.1312 785.548 57.8209 785.854 58.4507C786.193 59.0506 786.648 59.5304 787.218 59.8903C787.789 60.2502 788.451 60.4301 789.203 60.4301Z" fill="#070E50"/>
<path d="M772.459 23.9917C772.408 24.2316 772.328 24.6215 772.221 25.1613C772.146 25.6712 772.07 26.196 771.993 26.7358C771.918 27.2457 771.855 27.6205 771.804 27.8605C771.722 28.4603 771.636 29.27 771.546 30.2897C771.46 31.2794 771.363 32.389 771.255 33.6186C771.148 34.8482 771.039 36.0928 770.929 37.3524C770.851 38.582 770.764 39.7516 770.667 40.8613C770.602 41.9409 770.539 42.8406 770.476 43.5604L764.996 41.671C765.046 41.1012 765.112 40.3514 765.193 39.4217C765.277 38.4621 765.368 37.4274 765.465 36.3177C765.564 35.1781 765.648 34.0535 765.715 32.9438C765.812 31.8342 765.885 30.8295 765.933 29.9298C765.982 29.0301 766.011 28.3553 766.02 27.9054C766.041 26.9757 766.037 26.166 766.007 25.4762C765.979 24.7565 765.947 24.2616 765.911 23.9917H772.459ZM746.457 29.5699C747.781 29.5699 749.288 29.5549 750.976 29.5249C752.665 29.4949 754.429 29.4649 756.268 29.4349C758.107 29.405 759.916 29.375 761.694 29.345C763.473 29.315 765.145 29.3 766.711 29.3C768.279 29.27 769.635 29.255 770.779 29.255C771.923 29.255 773.172 29.255 774.527 29.255C775.884 29.225 777.225 29.21 778.55 29.21C779.875 29.21 781.079 29.21 782.163 29.21C783.276 29.21 784.134 29.21 784.737 29.21L784.227 34.5183C782.817 34.4583 780.955 34.4134 778.639 34.3834C776.326 34.3234 773.499 34.2934 770.158 34.2934C768.11 34.2934 766.031 34.3234 763.918 34.3834C761.808 34.4134 759.712 34.4583 757.629 34.5183C755.547 34.5783 753.538 34.6533 751.604 34.7432C749.672 34.8032 747.842 34.8932 746.116 35.0132L746.457 29.5699ZM769.722 42.8856C769.507 45.3448 769.027 47.3842 768.284 49.0037C767.57 50.6231 766.589 51.8528 765.342 52.6925C764.097 53.5022 762.601 53.9071 760.855 53.9071C760.012 53.9071 759.14 53.7271 758.238 53.3673C757.366 53.0074 756.569 52.4826 755.847 51.7928C755.125 51.103 754.567 50.2483 754.175 49.2286C753.812 48.2089 753.692 47.0093 753.812 45.6297C753.962 43.9203 754.497 42.4508 755.417 41.2212C756.34 39.9616 757.509 38.9869 758.924 38.2971C760.372 37.5773 761.924 37.2175 763.58 37.2175C765.567 37.2175 767.183 37.6673 768.429 38.567C769.708 39.4367 770.612 40.6214 771.144 42.1209C771.705 43.6204 771.903 45.3149 771.737 47.2042C771.609 48.6738 771.234 50.2033 770.613 51.7928C769.993 53.3823 769.059 54.9418 767.811 56.4713C766.596 57.9708 765.001 59.3353 763.027 60.565C761.083 61.7946 758.692 62.7992 755.854 63.579L751.44 58.8105C753.401 58.4206 755.236 57.9108 756.947 57.281C758.658 56.6512 760.173 55.8565 761.491 54.8968C762.839 53.9371 763.921 52.7525 764.737 51.3429C765.583 49.9334 766.093 48.2389 766.266 46.2595C766.392 44.82 766.125 43.7404 765.465 43.0206C764.836 42.3008 764.024 41.9409 763.031 41.9409C762.459 41.9409 761.89 42.0759 761.325 42.3458C760.759 42.6157 760.287 43.0206 759.909 43.5604C759.531 44.1002 759.307 44.76 759.239 45.5398C759.15 46.5594 759.424 47.3842 760.061 48.014C760.731 48.6138 761.518 48.9137 762.421 48.9137C763.143 48.9137 763.795 48.6888 764.377 48.2389C764.988 47.7891 765.43 47.0393 765.702 45.9896C765.975 44.94 765.948 43.5304 765.621 41.761L769.722 42.8856Z" fill="#070E50"/>
<path d="M700.457 29.39C701.362 29.3601 702.223 29.3301 703.039 29.3001C703.857 29.2401 704.478 29.1951 704.902 29.1651C705.84 29.1051 706.992 29.0152 708.357 28.8952C709.755 28.7453 711.304 28.5953 713.003 28.4454C714.732 28.2954 716.566 28.1455 718.506 27.9955C720.446 27.8455 722.462 27.6806 724.555 27.5007C726.134 27.3507 727.695 27.2307 729.238 27.1408C730.814 27.0208 732.297 26.9308 733.687 26.8709C735.11 26.7809 736.35 26.7209 737.406 26.6909L736.947 32.4491C736.134 32.4491 735.2 32.4641 734.144 32.4941C733.087 32.524 732.028 32.584 730.967 32.674C729.938 32.734 729.008 32.8689 728.177 33.0789C726.791 33.4388 725.472 34.0536 724.222 34.9233C722.975 35.763 721.863 36.7677 720.888 37.9373C719.945 39.0769 719.174 40.3215 718.574 41.6711C717.977 42.9907 717.619 44.3253 717.501 45.6748C717.373 47.1444 717.515 48.4489 717.927 49.5886C718.371 50.6982 719.01 51.6579 719.842 52.4676C720.707 53.2474 721.733 53.9072 722.92 54.447C724.11 54.9568 725.401 55.3467 726.792 55.6166C728.213 55.8865 729.688 56.0665 731.215 56.1565L728.554 62.3195C726.668 62.1995 724.842 61.8996 723.078 61.4198C721.344 60.9399 719.731 60.2801 718.239 59.4404C716.747 58.6007 715.466 57.581 714.397 56.3814C713.361 55.1518 712.565 53.7572 712.009 52.1977C711.485 50.6082 711.309 48.8388 711.48 46.8894C711.668 44.7301 712.188 42.7508 713.038 40.9513C713.89 39.1219 714.887 37.5324 716.029 36.1829C717.203 34.8033 718.335 33.7387 719.424 32.9889C718.571 33.1089 717.537 33.2288 716.322 33.3488C715.137 33.4687 713.845 33.6187 712.444 33.7986C711.076 33.9486 709.677 34.1135 708.246 34.2935C706.816 34.4734 705.428 34.6834 704.082 34.9233C702.769 35.1332 701.577 35.3431 700.505 35.5531L700.457 29.39ZM730.104 36.8577C730.448 37.3975 730.798 38.0423 731.154 38.792C731.543 39.5118 731.915 40.2466 732.271 40.9963C732.629 41.7161 732.933 42.3759 733.181 42.9757L729.616 44.5052C729.154 43.2456 728.694 42.136 728.236 41.1763C727.808 40.2166 727.276 39.2419 726.64 38.2522L730.104 36.8577ZM735.343 34.7883C735.687 35.3281 736.053 35.9579 736.442 36.6777C736.863 37.3675 737.267 38.0873 737.653 38.837C738.041 39.5568 738.361 40.2016 738.612 40.7714L735.084 42.3909C734.587 41.1913 734.093 40.1266 733.602 39.1969C733.142 38.2672 732.578 37.3075 731.912 36.3178L735.343 34.7883Z" fill="#070E50"/>
<path d="M684.168 3.13801C684.701 3.97481 685.244 4.97433 685.795 6.13656C686.394 7.29879 686.969 8.46101 687.52 9.62324C688.072 10.7855 688.519 11.8082 688.862 12.6915L683.054 15.0625C682.48 13.6213 681.759 11.9942 680.891 10.1811C680.074 8.32155 679.258 6.71767 678.442 5.36949L684.168 3.13801ZM692.702 0C693.236 0.836804 693.799 1.85956 694.394 3.06828C695.039 4.23051 695.637 5.39273 696.189 6.55496C696.791 7.6707 697.242 8.64697 697.542 9.48377L691.805 11.8547C691.188 10.3671 690.446 8.7167 689.578 6.90363C688.71 5.09055 687.843 3.53317 686.977 2.23148L692.702 0ZM689.125 18.4794C688.648 19.1303 688.159 19.9206 687.658 20.8504C687.161 21.7337 686.733 22.6169 686.376 23.5002C685.59 25.5458 684.522 27.8935 683.17 30.5433C681.822 33.1467 680.233 35.8431 678.402 38.6324C676.572 41.4218 674.467 44.1414 672.088 46.7913C668.425 50.7893 664.211 54.4155 659.447 57.6697C654.729 60.924 648.966 63.8528 642.158 66.4562L634.545 59.0644C639.431 57.6232 643.678 56.0194 647.286 54.2528C650.898 52.4397 654.078 50.4872 656.828 48.3951C659.578 46.3031 662.058 44.0949 664.268 41.7704C666.013 39.9574 667.662 37.9118 669.215 35.6339C670.814 33.3559 672.18 31.078 673.312 28.8C674.492 26.522 675.343 24.523 675.867 22.8029H652.277L656.187 14.923C656.793 14.923 657.797 14.923 659.197 14.923C660.597 14.923 662.16 14.923 663.887 14.923C665.613 14.923 667.317 14.923 668.997 14.923C670.723 14.923 672.24 14.923 673.547 14.923C674.853 14.923 675.717 14.923 676.137 14.923C677.257 14.923 678.359 14.8533 679.445 14.7138C680.581 14.5278 681.533 14.3186 682.3 14.0862L689.125 18.4794ZM667.269 7.4615C666.324 8.67022 665.393 9.97191 664.478 11.3666C663.562 12.7613 662.862 13.8305 662.377 14.5743C660.546 17.3637 658.332 20.2692 655.734 23.291C653.141 26.2663 650.25 29.1719 647.062 32.0077C643.924 34.7971 640.574 37.354 637.011 39.6784L629.683 33.8208C632.926 31.9613 635.801 30.032 638.31 28.0329C640.818 26.0339 643.021 24.0581 644.918 22.1056C646.82 20.1065 648.48 18.2005 649.898 16.3874C651.321 14.5278 652.518 12.8542 653.488 11.3666C654.121 10.5298 654.802 9.41404 655.531 8.01937C656.31 6.57821 656.891 5.27651 657.272 4.11428L667.269 7.4615Z" fill="url(#paint0_linear_2048_119)"/>
<path d="M576.148 7.25244C577.288 8.08925 578.622 9.11201 580.15 10.3207C581.677 11.5294 583.241 12.8544 584.842 14.2955C586.493 15.6902 588.03 17.0616 589.452 18.4098C590.874 19.758 592.028 20.9667 592.915 22.036L585.14 29.2883C584.339 28.312 583.274 27.1498 581.945 25.8016C580.616 24.4534 579.175 23.0587 577.621 21.6176C576.067 20.1764 574.531 18.805 573.011 17.5033C571.492 16.2016 570.141 15.1091 568.958 14.2258L576.148 7.25244ZM563.335 53.695C567.019 53.1837 570.513 52.4631 573.814 51.5333C577.115 50.6035 580.195 49.5343 583.055 48.3256C585.914 47.1168 588.543 45.8616 590.944 44.5599C595.118 42.189 598.994 39.4926 602.572 36.4708C606.149 33.449 609.317 30.311 612.075 27.0568C614.837 23.7561 617.078 20.5483 618.797 17.4336L623.397 27.266C621.351 30.3808 618.885 33.4955 615.999 36.6103C613.16 39.7251 609.983 42.7004 606.469 45.5362C602.958 48.3256 599.215 50.836 595.24 53.0674C592.734 54.5086 590.047 55.88 587.18 57.1817C584.317 58.4369 581.302 59.5527 578.137 60.5289C575.014 61.5517 571.772 62.342 568.409 62.8999L563.335 53.695Z" fill="url(#paint1_linear_2048_119)"/>
<path d="M509.368 5.64844C511.168 5.88088 513.331 6.22955 515.857 6.69444C518.433 7.11284 521.144 7.60098 523.988 8.15885C526.88 8.71672 529.741 9.34432 532.574 10.0417C535.457 10.6925 538.107 11.3434 540.523 11.9942C542.986 12.645 545.078 13.2726 546.798 13.877L542.466 22.5937C540.885 21.9894 538.91 21.3617 536.54 20.7109C534.175 20.0136 531.599 19.3162 528.813 18.6189C526.028 17.9216 523.215 17.2707 520.374 16.6664C517.534 16.062 514.806 15.5041 512.191 14.9927C509.622 14.4814 507.345 14.1095 505.358 13.877L509.368 5.64844ZM504.507 24.4068C506.99 24.8252 509.837 25.3598 513.047 26.0107C516.256 26.6615 519.553 27.3821 522.938 28.1724C526.326 28.9162 529.547 29.7065 532.6 30.5433C535.658 31.3337 538.248 32.124 540.373 32.9143L536.18 41.631C534.243 40.8407 531.77 40.0271 528.764 39.1903C525.803 38.3535 522.633 37.5167 519.253 36.6799C515.92 35.8431 512.602 35.0993 509.298 34.4484C505.999 33.7511 503.083 33.2165 500.549 32.8446L504.507 24.4068ZM499.192 44.3506C501.54 44.7225 504.204 45.2107 507.184 45.815C510.164 46.4194 513.255 47.0935 516.457 47.8373C519.705 48.5811 522.882 49.3482 525.986 50.1385C529.09 50.9288 531.961 51.7191 534.598 52.5094C537.283 53.2998 539.549 54.0668 541.397 54.8107L536.784 63.5274C534.987 62.737 532.748 61.9235 530.068 61.0867C527.384 60.2964 524.466 59.506 521.315 58.7157C518.169 57.8789 514.992 57.1119 511.787 56.4145C508.585 55.6707 505.515 55.0199 502.578 54.462C499.686 53.9041 497.135 53.4625 494.923 53.137L499.192 44.3506Z" fill="url(#paint2_linear_2048_119)"/>
<path d="M421.355 33.1234C427.797 31.4963 433.655 29.6135 438.929 27.475C444.253 25.29 448.956 23.012 453.037 20.6411C455.593 19.1534 458.169 17.4566 460.762 15.5505C463.406 13.598 465.891 11.5989 468.217 9.55343C470.589 7.50791 472.603 5.55537 474.259 3.6958L481.191 10.8784C478.861 12.9704 476.319 15.0856 473.566 17.2241C470.859 19.3626 468.043 21.4081 465.119 23.3607C462.195 25.3132 459.308 27.1031 456.459 28.7302C453.665 30.2643 450.54 31.8449 447.084 33.4721C443.675 35.0992 440.088 36.6333 436.321 38.0745C432.555 39.5156 428.78 40.7941 424.996 41.9098L421.355 33.1234ZM451.176 25.104L461.318 22.8028L458.572 54.1829C458.483 55.2057 458.408 56.3214 458.349 57.5302C458.29 58.7389 458.263 59.8546 458.266 60.8774C458.266 61.9466 458.312 62.7602 458.403 63.3181H447.343C447.485 62.7602 447.626 61.9466 447.766 60.8774C447.949 59.8546 448.117 58.7389 448.269 57.5302C448.422 56.3214 448.543 55.2057 448.632 54.1829L451.176 25.104Z" fill="url(#paint3_linear_2048_119)"/>
<path d="M377.527 27.6145C379.567 28.8232 381.775 30.2644 384.148 31.938C386.573 33.5651 389.014 35.262 391.473 37.0286C393.932 38.7951 396.231 40.5152 398.371 42.1888C400.558 43.8625 402.388 45.3501 403.861 46.6518L396.522 54.5317C395.104 53.137 393.331 51.5332 391.203 49.7201C389.125 47.8605 386.863 45.9777 384.417 44.0717C381.974 42.1191 379.547 40.2596 377.135 38.493C374.769 36.7264 372.638 35.2155 370.741 33.9603L377.527 27.6145ZM411.464 15.7598C410.987 16.4107 410.5 17.1777 410.002 18.061C409.505 18.9443 409.078 19.8276 408.72 20.7109C407.833 22.8494 406.667 25.2436 405.222 27.8935C403.828 30.4968 402.194 33.17 400.321 35.9128C398.451 38.6092 396.353 41.2591 394.025 43.8625C390.354 47.9535 386.024 51.8353 381.036 55.508C376.095 59.1806 370.152 62.2954 363.209 64.8523L355.705 57.8092C360.735 56.3215 365.136 54.5549 368.908 52.5094C372.681 50.4639 375.975 48.2789 378.792 45.9545C381.655 43.63 384.169 41.3056 386.332 38.9811C388.077 37.168 389.748 35.1458 391.343 32.9143C392.989 30.6363 394.423 28.3816 395.645 26.1501C396.917 23.8721 397.841 21.8499 398.415 20.0833H374.755L378.671 12.1337H398.551C399.671 12.1337 400.774 12.0639 401.859 11.9245C402.991 11.785 403.941 11.599 404.708 11.3666L411.464 15.7598ZM389.303 5.02082C388.357 6.22954 387.404 7.53123 386.442 8.92591C385.526 10.3206 384.826 11.3898 384.341 12.1337C382.51 14.923 380.243 17.8983 377.54 21.0596C374.841 24.1743 371.844 27.2194 368.551 30.1947C365.304 33.17 361.899 35.8198 358.335 38.1443L351.282 32.3564C355.612 29.7995 359.323 27.1264 362.413 24.337C365.555 21.5012 368.196 18.7816 370.337 16.1782C372.482 13.5283 374.228 11.1806 375.573 9.13511C376.206 8.2983 376.887 7.18257 377.616 5.78789C378.396 4.34673 378.999 3.04504 379.428 1.88281L389.303 5.02082Z" fill="url(#paint4_linear_2048_119)"/>
<path d="M320.19 12.4826C319.414 16.0158 318.478 19.7814 317.382 23.7795C316.285 27.7775 314.928 31.8221 313.31 35.9131C311.546 40.6085 309.606 44.6531 307.489 48.0468C305.372 51.4405 303.135 54.0671 300.779 55.9267C298.474 57.7398 296.038 58.6463 293.471 58.6463C290.905 58.6463 288.6 57.7863 286.557 56.0662C284.565 54.2996 283.05 51.8821 282.012 48.8138C281.02 45.7456 280.695 42.2589 281.037 38.3538C281.391 34.3093 282.541 30.4971 284.487 26.9175C286.434 23.3378 288.974 20.1766 292.107 17.4337C295.291 14.6444 298.889 12.4594 302.901 10.8788C306.959 9.29813 311.251 8.50781 315.778 8.50781C320.118 8.50781 323.954 9.20515 327.285 10.5998C330.663 11.9945 333.481 13.9238 335.739 16.3877C337.996 18.8516 339.634 21.734 340.652 25.0347C341.67 28.3354 342.012 31.8918 341.679 35.7039C341.252 40.5853 339.866 44.9553 337.522 48.8138C335.177 52.6724 331.912 55.857 327.726 58.3674C323.586 60.8778 318.536 62.5979 312.574 63.5277L308.05 55.2293C309.416 55.0899 310.62 54.9272 311.663 54.7412C312.706 54.5553 313.704 54.3461 314.658 54.1136C316.947 53.5557 319.093 52.7654 321.095 51.7427C323.149 50.6734 324.966 49.3717 326.547 47.8376C328.132 46.257 329.413 44.4206 330.389 42.3286C331.412 40.2366 332.033 37.9354 332.253 35.425C332.493 32.6821 332.293 30.1717 331.652 27.8938C331.011 25.6158 329.947 23.64 328.46 21.9664C326.978 20.2463 325.108 18.9446 322.852 18.0613C320.6 17.1315 317.957 16.6666 314.924 16.6666C311.191 16.6666 307.842 17.3407 304.877 18.6889C301.917 19.9906 299.365 21.6875 297.222 23.7795C295.079 25.8715 293.388 28.1262 292.15 30.5436C290.959 32.9611 290.267 35.2623 290.076 37.4473C289.873 39.7717 289.982 41.7243 290.404 43.3049C290.829 44.839 291.404 46.0013 292.129 46.7916C292.903 47.5354 293.758 47.9073 294.691 47.9073C295.671 47.9073 296.67 47.4192 297.689 46.4429C298.759 45.4201 299.849 43.886 300.962 41.8405C302.074 39.795 303.233 37.2148 304.439 34.1001C305.805 30.7528 307.028 27.1732 308.108 23.3611C309.189 19.549 310.051 15.8298 310.695 12.2037L320.19 12.4826Z" fill="url(#paint5_linear_2048_119)"/>
<path d="M258.354 5.5789C258.162 6.18326 257.91 6.92708 257.599 7.81038C257.335 8.69367 257.071 9.57696 256.807 10.4603C256.543 11.3435 256.317 12.0641 256.128 12.622C255.109 15.7368 253.99 18.9213 252.772 22.1755C251.558 25.3833 250.23 28.5678 248.787 31.729C247.343 34.8903 245.778 37.8423 244.092 40.5852C242.452 43.328 240.675 45.7687 238.761 47.9072C236.425 50.6036 234.249 52.8118 232.232 54.5319C230.261 56.252 228.329 57.5305 226.436 58.3673C224.547 59.1576 222.529 59.5527 220.382 59.5527C218.469 59.5527 216.694 59.0414 215.057 58.0186C213.47 56.9493 212.23 55.392 211.335 53.3464C210.492 51.2544 210.202 48.6975 210.466 45.6757C210.739 42.561 211.569 39.4694 212.958 36.4012C214.397 33.2864 216.236 30.4041 218.474 27.7542C220.759 25.1043 223.356 22.8961 226.264 21.1295C230.209 18.7121 234.021 17.0152 237.699 16.0389C241.378 15.0627 245.084 14.5745 248.817 14.5745C253.671 14.5745 257.875 15.5973 261.429 17.6428C264.987 19.6419 267.658 22.4544 269.441 26.0806C271.223 29.7067 271.901 33.9605 271.474 38.8418C271.047 43.7232 269.58 47.9537 267.074 51.5334C264.618 55.0665 261.407 57.9024 257.44 60.0409C253.477 62.1329 249.036 63.5508 244.117 64.2946L239.435 56.2055C243.337 55.8801 246.688 55.1828 249.488 54.1135C252.335 53.0443 254.67 51.6961 256.492 50.069C258.361 48.4418 259.78 46.6288 260.748 44.6297C261.716 42.6307 262.296 40.5387 262.487 38.3537C262.764 35.1925 262.306 32.4263 261.113 30.0554C259.971 27.638 258.223 25.7552 255.867 24.407C253.516 23.0123 250.66 22.315 247.3 22.315C243.614 22.315 240.271 22.9193 237.272 24.128C234.277 25.2903 231.488 26.7547 228.907 28.5213C226.973 29.823 225.272 31.4036 223.802 33.2632C222.337 35.0762 221.165 37.0055 220.286 39.051C219.407 41.0966 218.884 43.0723 218.717 44.9784C218.571 46.652 218.803 48.0002 219.414 49.0229C220.071 50.0457 221.006 50.5571 222.219 50.5571C223.106 50.5571 224.038 50.3014 225.016 49.79C225.999 49.2322 226.995 48.5116 228.006 47.6283C229.02 46.6985 230.047 45.6293 231.086 44.4205C232.125 43.2118 233.17 41.9334 234.222 40.5852C235.703 38.5862 237.135 36.3547 238.517 33.8908C239.9 31.4268 241.175 28.8467 242.345 26.1503C243.561 23.454 244.605 20.8506 245.478 18.3402C246.355 15.7833 247.074 13.4356 247.634 11.2971C247.957 10.2743 248.199 9.11207 248.359 7.81038C248.566 6.50868 248.705 5.46268 248.774 4.67236L258.354 5.5789ZM228.613 7.88011C228.745 9.04234 228.878 10.1813 229.014 11.2971C229.197 12.4128 229.381 13.5053 229.567 14.5745C229.914 16.4806 230.34 18.5494 230.844 20.7808C231.353 22.9658 231.909 25.1508 232.511 27.3358C233.16 29.5208 233.823 31.5431 234.5 33.4026C235.182 35.2157 235.885 36.7731 236.611 38.0748C237.662 39.9343 238.868 41.8869 240.229 43.9324C241.594 45.9314 243.024 47.7213 244.519 49.3019L236.961 54.8806C235.695 53.3464 234.563 51.882 233.565 50.4874C232.618 49.0462 231.638 47.4423 230.626 45.6757C229.738 44.0951 228.849 42.2588 227.958 40.1668C227.115 38.0748 226.287 35.7968 225.476 33.3329C224.712 30.869 223.977 28.3353 223.271 25.7319C222.612 23.1285 221.975 20.5484 221.358 17.9915C221.095 16.7363 220.781 15.5276 220.416 14.3653C220.097 13.2031 219.69 11.9944 219.193 10.7392L228.613 7.88011Z" fill="url(#paint6_linear_2048_119)"/>
<path d="M185.269 4.04443C185.19 4.41635 185.067 5.02071 184.9 5.85751C184.784 6.64782 184.666 7.46138 184.547 8.29818C184.431 9.0885 184.333 9.66961 184.254 10.0415C184.126 10.9713 183.993 12.2265 183.855 13.8071C183.72 15.3413 183.57 17.0614 183.403 18.9674C183.236 20.8735 183.068 22.8028 182.897 24.7553C182.777 26.6614 182.641 28.4745 182.491 30.1945C182.391 31.8682 182.292 33.2628 182.195 34.3786L173.701 31.4498C173.778 30.5665 173.88 29.4042 174.006 27.9631C174.136 26.4754 174.277 24.8715 174.427 23.1515C174.582 21.3849 174.711 19.6415 174.815 17.9214C174.965 16.2013 175.078 14.6439 175.153 13.2493C175.229 11.8546 175.274 10.8086 175.288 10.1113C175.321 8.6701 175.314 7.41489 175.267 6.34564C175.225 5.22991 175.175 4.46284 175.119 4.04443H185.269ZM144.962 12.6914C147.016 12.6914 149.351 12.6682 151.968 12.6217C154.586 12.5752 157.32 12.5287 160.171 12.4822C163.021 12.4357 165.825 12.3892 168.583 12.3427C171.34 12.2962 173.932 12.273 176.359 12.273C178.79 12.2265 180.892 12.2033 182.665 12.2033C184.438 12.2033 186.375 12.2033 188.475 12.2033C190.579 12.1568 192.658 12.1335 194.711 12.1335C196.764 12.1335 198.631 12.1335 200.311 12.1335C202.038 12.1335 203.368 12.1335 204.301 12.1335L203.511 20.3621C201.326 20.2691 198.439 20.1994 194.849 20.1529C191.264 20.0599 186.882 20.0134 181.702 20.0134C178.528 20.0134 175.304 20.0599 172.029 20.1529C168.759 20.1994 165.509 20.2691 162.281 20.3621C159.053 20.4551 155.939 20.5713 152.941 20.7108C149.946 20.8038 147.11 20.9432 144.434 21.1292L144.962 12.6914ZM181.026 33.3326C180.693 37.1447 179.95 40.3059 178.797 42.8163C177.69 45.3267 176.17 47.2328 174.236 48.5345C172.307 49.7897 169.988 50.4173 167.282 50.4173C165.975 50.4173 164.623 50.1384 163.225 49.5805C161.874 49.0226 160.638 48.2091 159.518 47.1398C158.399 46.0706 157.535 44.7456 156.926 43.165C156.364 41.5844 156.177 39.7248 156.364 37.5863C156.596 34.9364 157.425 32.6585 158.852 30.7524C160.283 28.7999 162.095 27.289 164.289 26.2197C166.533 25.104 168.938 24.5461 171.505 24.5461C174.585 24.5461 177.091 25.2435 179.022 26.6381C181.004 27.9863 182.407 29.8226 183.23 32.1471C184.1 34.4715 184.407 37.0982 184.151 40.027C183.951 42.305 183.371 44.6759 182.408 47.1398C181.446 49.6037 179.998 52.0212 178.064 54.3921C176.181 56.7166 173.709 58.8318 170.649 60.7379C167.635 62.6439 163.929 64.2013 159.53 65.41L152.687 58.0183C155.726 57.4139 158.572 56.6236 161.224 55.6473C163.876 54.6711 166.224 53.4391 168.267 51.9514C170.358 50.4638 172.035 48.6275 173.299 46.4425C174.611 44.2575 175.4 41.6309 175.669 38.5626C175.864 36.3311 175.45 34.6575 174.428 33.5418C173.452 32.426 172.194 31.8682 170.654 31.8682C169.768 31.8682 168.886 32.0774 168.01 32.4958C167.133 32.9142 166.401 33.5418 165.815 34.3786C165.228 35.2154 164.882 36.2381 164.776 37.4468C164.638 39.0275 165.063 40.3059 166.051 41.2822C167.09 42.212 168.309 42.6769 169.709 42.6769C170.829 42.6769 171.839 42.3282 172.74 41.6309C173.688 40.9335 174.373 39.7713 174.795 38.1442C175.218 36.5171 175.176 34.3321 174.669 31.5892L181.026 33.3326Z" fill="url(#paint7_linear_2048_119)"/>
<path d="M115.269 4.04443C115.19 4.41635 115.067 5.02071 114.9 5.85751C114.784 6.64782 114.666 7.46138 114.547 8.29818C114.431 9.0885 114.333 9.66961 114.254 10.0415C114.126 10.9713 113.993 12.2265 113.855 13.8071C113.72 15.3413 113.57 17.0614 113.403 18.9674C113.236 20.8735 113.068 22.8028 112.897 24.7553C112.777 26.6614 112.641 28.4745 112.491 30.1945C112.391 31.8682 112.292 33.2628 112.195 34.3786L103.701 31.4498C103.778 30.5665 103.88 29.4042 104.006 27.9631C104.136 26.4754 104.277 24.8715 104.427 23.1515C104.582 21.3849 104.711 19.6415 104.815 17.9214C104.965 16.2013 105.078 14.6439 105.153 13.2493C105.229 11.8546 105.274 10.8086 105.288 10.1113C105.321 8.6701 105.314 7.41489 105.267 6.34564C105.225 5.22991 105.175 4.46284 105.119 4.04443H115.269ZM74.9622 12.6914C77.0156 12.6914 79.3509 12.6682 81.9683 12.6217C84.5857 12.5752 87.3198 12.5287 90.1705 12.4822C93.0213 12.4357 95.8253 12.3892 98.5827 12.3427C101.34 12.2962 103.932 12.273 106.359 12.273C108.79 12.2265 110.892 12.2033 112.665 12.2033C114.438 12.2033 116.375 12.2033 118.475 12.2033C120.579 12.1568 122.658 12.1335 124.711 12.1335C126.764 12.1335 128.631 12.1335 130.311 12.1335C132.038 12.1335 133.368 12.1335 134.301 12.1335L133.511 20.3621C131.326 20.2691 128.439 20.1994 124.849 20.1529C121.264 20.0599 116.882 20.0134 111.702 20.0134C108.528 20.0134 105.304 20.0599 102.029 20.1529C98.7587 20.1994 95.5093 20.2691 92.2811 20.3621C89.053 20.4551 85.9395 20.5713 82.9406 20.7108C79.9458 20.8038 77.1103 20.9432 74.434 21.1292L74.9622 12.6914ZM111.026 33.3326C110.693 37.1447 109.95 40.3059 108.797 42.8163C107.69 45.3267 106.17 47.2328 104.236 48.5345C102.307 49.7897 99.9883 50.4173 97.2816 50.4173C95.975 50.4173 94.6227 50.1384 93.2249 49.5805C91.8737 49.0226 90.6382 48.2091 89.5184 47.1398C88.3986 46.0706 87.5345 44.7456 86.9261 43.165C86.3644 41.5844 86.1771 39.7248 86.3642 37.5863C86.596 34.9364 87.4253 32.6585 88.8521 30.7524C90.2829 28.7999 92.0951 27.289 94.2887 26.2197C96.5329 25.104 98.9384 24.5461 101.505 24.5461C104.585 24.5461 107.091 25.2435 109.022 26.6381C111.004 27.9863 112.407 29.8226 113.23 32.1471C114.1 34.4715 114.407 37.0982 114.151 40.027C113.951 42.305 113.371 44.6759 112.408 47.1398C111.446 49.6037 109.998 52.0212 108.064 54.3921C106.181 56.7166 103.709 58.8318 100.649 60.7379C97.6353 62.6439 93.929 64.2013 89.53 65.41L82.6866 58.0183C85.7262 57.4139 88.572 56.6236 91.2241 55.6473C93.8762 54.6711 96.2239 53.4391 98.2674 51.9514C100.358 50.4638 102.035 48.6275 103.299 46.4425C104.611 44.2575 105.4 41.6309 105.669 38.5626C105.864 36.3311 105.45 34.6575 104.428 33.5418C103.452 32.426 102.194 31.8682 100.654 31.8682C99.7678 31.8682 98.8862 32.0774 98.0096 32.4958C97.133 32.9142 96.4014 33.5418 95.8149 34.3786C95.2283 35.2154 94.8822 36.2381 94.7764 37.4468C94.6381 39.0275 95.0629 40.3059 96.0509 41.2822C97.0895 42.212 98.3088 42.6769 99.7088 42.6769C100.829 42.6769 101.839 42.3282 102.74 41.6309C103.688 40.9335 104.373 39.7713 104.795 38.1442C105.218 36.5171 105.176 34.3321 104.669 31.5892L111.026 33.3326Z" fill="url(#paint8_linear_2048_119)"/>
<path d="M30.1151 3.62646C30.0359 3.99838 29.9151 4.57949 29.7526 5.3698C29.5942 6.11363 29.4338 6.8807 29.2713 7.67102C29.1595 8.41484 29.0539 9.08893 28.9544 9.69329C28.7431 11.0415 28.5196 12.5291 28.2839 14.1562C28.0989 15.7369 27.9079 17.3872 27.7107 19.1073C27.5176 20.7809 27.3225 22.4778 27.1254 24.1979C26.9749 25.918 26.8285 27.5916 26.6861 29.2187C26.5193 31.1248 26.3576 33.24 26.2009 35.5645C26.0483 37.8424 25.8957 40.1204 25.743 42.3984C25.6411 44.6298 25.5088 46.6754 25.3462 48.5349C25.2301 50.3945 25.1274 51.8357 25.0379 52.8584C24.7857 55.7407 24.2638 57.9722 23.4722 59.5528C22.7273 61.1335 21.745 62.226 20.5255 62.8303C19.3019 63.4812 17.9201 63.8066 16.3801 63.8066C14.7001 63.8066 12.9339 63.4579 11.0816 62.7606C9.22518 62.1097 7.50986 61.18 5.93561 59.9712C4.40802 58.7625 3.17671 57.3678 2.24166 55.7872C1.35735 54.1601 0.996539 52.4168 1.15923 50.5572C1.35446 48.3257 2.38765 46.1175 4.25882 43.9325C6.18071 41.701 8.623 39.6555 11.5857 37.7959C14.5951 35.9364 17.7819 34.4487 21.1462 33.333C24.3745 32.1708 27.6677 31.334 31.0258 30.8226C34.3879 30.2647 37.399 29.9858 40.059 29.9858C43.6523 29.9858 46.8428 30.5901 49.6304 31.7989C52.422 32.9611 54.5815 34.6812 56.1089 36.9591C57.6363 39.2371 58.2596 41.98 57.979 45.1877C57.7431 47.8841 57.0122 50.3712 55.7862 52.6492C54.5602 54.9272 52.7307 56.903 50.2976 58.5766C47.9153 60.2037 44.8168 61.4821 41.0021 62.4119C39.3869 62.7373 37.7799 62.9698 36.1811 63.1093C34.6248 63.2952 33.1426 63.4347 31.7345 63.5277L29.3015 54.532C30.8881 54.532 32.4068 54.5088 33.8576 54.4623C35.359 54.3693 36.7246 54.2298 37.9542 54.0439C39.9001 53.672 41.6755 53.1141 43.2806 52.3703C44.8857 51.6264 46.1844 50.6502 47.1768 49.4415C48.1693 48.2327 48.7387 46.7916 48.8851 45.118C49.0234 43.5373 48.698 42.1892 47.909 41.0734C47.1666 39.9577 46.0518 39.0976 44.5647 38.4933C43.0776 37.8889 41.3073 37.5867 39.254 37.5867C36.314 37.5867 33.3009 37.8889 30.2147 38.4933C27.1751 39.0976 24.2319 39.9344 21.3851 41.0037C19.2626 41.794 17.3379 42.7238 15.611 43.793C13.8882 44.8158 12.5113 45.885 11.4804 47.0008C10.4494 48.1165 9.88922 49.1858 9.79974 50.2085C9.75093 50.7664 9.86749 51.301 10.1494 51.8124C10.4821 52.2773 10.9121 52.6957 11.4396 53.0676C11.9671 53.4395 12.5006 53.7417 13.0403 53.9741C13.6307 54.1601 14.1359 54.2531 14.5559 54.2531C15.2092 54.2531 15.7622 54.0671 16.2147 53.6952C16.6713 53.2768 16.9504 52.4865 17.0521 51.3243C17.1619 50.0691 17.2719 48.2792 17.3819 45.9548C17.5427 43.5838 17.7025 40.9572 17.8613 38.0749C18.0668 35.1926 18.2936 32.3335 18.5417 29.4976C18.7125 27.5451 18.8854 25.5693 19.0603 23.5703C19.2818 21.5713 19.4719 19.6652 19.6306 17.8521C19.7892 16.0391 19.9295 14.4352 20.0515 13.0405C20.2202 11.6458 20.3391 10.5533 20.4083 9.76302C20.453 9.25165 20.4866 8.6008 20.5091 7.81048C20.5316 7.02017 20.5307 6.22985 20.5065 5.43954C20.5331 4.60274 20.5159 3.99838 20.4551 3.62646H30.1151ZM49.4062 11.1577C51.1064 11.9945 53.0002 13.0173 55.0878 14.226C57.2221 15.4347 59.2396 16.6434 61.1406 17.8521C63.0922 19.0144 64.634 20.0604 65.766 20.9901L60.9437 28.103C60.1221 27.3591 59.0287 26.5223 57.6634 25.5926C56.3447 24.6628 54.8881 23.7098 53.2935 22.7335C51.7456 21.7572 50.2382 20.8507 48.7714 20.0139C47.3087 19.1306 46.0397 18.4332 44.9645 17.9219L49.4062 11.1577ZM6.16069 14.993C8.19369 15.2255 9.97612 15.3882 11.508 15.4812C13.0906 15.5277 14.5119 15.5509 15.7719 15.5509C17.5919 15.5509 19.6047 15.4812 21.8102 15.3417C24.0198 15.1558 26.2801 14.9233 28.5912 14.6444C30.9063 14.319 33.1555 13.947 35.3388 13.5286C37.5688 13.1102 39.5928 12.6453 41.4108 12.134L40.8643 20.7809C38.8636 21.2458 36.7037 21.6642 34.3845 22.0361C32.0694 22.3616 29.7329 22.6637 27.3752 22.9427C25.0641 23.2216 22.8525 23.4308 20.7403 23.5703C18.6747 23.7098 16.872 23.7795 15.332 23.7795C12.9986 23.7795 11.0873 23.7562 9.59808 23.7097C8.10881 23.6633 6.76361 23.5703 5.56248 23.4308L6.16069 14.993Z" fill="url(#paint9_linear_2048_119)"/>
<defs>
<linearGradient id="paint0_linear_2048_119" x1="-22.7292" y1="30.0429" x2="841.655" y2="105.667" gradientUnits="userSpaceOnUse">
<stop stop-color="#FFBB55"/>
<stop offset="0.293269" stop-color="#E25E00"/>
</linearGradient>
<linearGradient id="paint1_linear_2048_119" x1="-22.729" y1="30.043" x2="841.655" y2="105.667" gradientUnits="userSpaceOnUse">
<stop stop-color="#FFBB55"/>
<stop offset="0.293269" stop-color="#E25E00"/>
</linearGradient>
<linearGradient id="paint2_linear_2048_119" x1="-22.7291" y1="30.0429" x2="841.655" y2="105.667" gradientUnits="userSpaceOnUse">
<stop stop-color="#FFBB55"/>
<stop offset="0.293269" stop-color="#E25E00"/>
</linearGradient>
<linearGradient id="paint3_linear_2048_119" x1="-22.7288" y1="30.0428" x2="841.655" y2="105.667" gradientUnits="userSpaceOnUse">
<stop stop-color="#FFBB55"/>
<stop offset="0.293269" stop-color="#E25E00"/>
</linearGradient>
<linearGradient id="paint4_linear_2048_119" x1="-22.7289" y1="30.0429" x2="841.655" y2="105.667" gradientUnits="userSpaceOnUse">
<stop stop-color="#FFBB55"/>
<stop offset="0.293269" stop-color="#E25E00"/>
</linearGradient>
<linearGradient id="paint5_linear_2048_119" x1="-22.7291" y1="30.0432" x2="841.655" y2="105.667" gradientUnits="userSpaceOnUse">
<stop stop-color="#FFBB55"/>
<stop offset="0.293269" stop-color="#E25E00"/>
</linearGradient>
<linearGradient id="paint6_linear_2048_119" x1="-22.7289" y1="30.0431" x2="841.655" y2="105.667" gradientUnits="userSpaceOnUse">
<stop stop-color="#FFBB55"/>
<stop offset="0.293269" stop-color="#E25E00"/>
</linearGradient>
<linearGradient id="paint7_linear_2048_119" x1="-22.7288" y1="30.0428" x2="841.655" y2="105.667" gradientUnits="userSpaceOnUse">
<stop stop-color="#FFBB55"/>
<stop offset="0.293269" stop-color="#E25E00"/>
</linearGradient>
<linearGradient id="paint8_linear_2048_119" x1="-22.7288" y1="30.0428" x2="841.655" y2="105.667" gradientUnits="userSpaceOnUse">
<stop stop-color="#FFBB55"/>
<stop offset="0.293269" stop-color="#E25E00"/>
</linearGradient>
<linearGradient id="paint9_linear_2048_119" x1="-22.729" y1="30.0432" x2="841.655" y2="105.667" gradientUnits="userSpaceOnUse">
<stop stop-color="#FFBB55"/>
<stop offset="0.293269" stop-color="#E25E00"/>
</linearGradient>
</defs>
</svg>
