<svg width="400" height="128" viewBox="0 0 400 128" fill="none" xmlns="http://www.w3.org/2000/svg">
<path d="M380.869 0.876005C387.233 0.289547 392.506 5.7415 391.709 12.0823L385.038 65.0998C384.453 69.7489 380.718 73.3688 376.053 73.8077L207.821 89.6329L210.259 110.047L178.335 92.4066L29.0397 106.451C24.4049 106.887 20.0826 104.067 18.6142 99.6497L1.49907 48.1613C-0.532237 42.0501 3.65875 35.6398 10.0715 35.0488L380.869 0.876005Z" fill="#1F4598"/>
<path d="M352.268 44.3001L350.34 32.7964L349.729 27.7645L355.351 27.2726L355.624 32.3341L355.723 43.9979L352.268 44.3001ZM354.783 53.1586C353.925 53.2337 353.189 53.0136 352.575 52.4985C351.962 51.9834 351.617 51.2968 351.542 50.4387C351.465 49.5581 351.684 48.8108 352.199 48.1969C352.714 47.583 353.401 47.2386 354.259 47.1635C355.117 47.0884 355.853 47.3084 356.467 47.8236C357.081 48.3387 357.426 49.0366 357.503 49.9172C357.578 50.7753 357.358 51.5112 356.843 52.1251C356.328 52.739 355.641 53.0835 354.783 53.1586Z" fill="#F6E93C"/>
<path d="M323.68 28.064C323.673 28.2466 323.665 28.5431 323.655 28.9535C323.666 29.3394 323.678 29.7365 323.691 30.1449C323.702 30.5308 323.704 30.815 323.698 30.9976C323.715 31.4512 323.757 32.0619 323.824 32.8296C323.889 33.5748 323.962 34.4102 324.043 35.336C324.124 36.2618 324.206 37.1989 324.289 38.1473C324.393 39.0711 324.481 39.9508 324.554 40.7862C324.648 41.5972 324.718 42.2736 324.766 42.8155L320.407 41.7634C320.37 41.3343 320.32 40.7698 320.259 40.0698C320.196 39.3473 320.128 38.5682 320.055 37.7328C319.98 36.8747 319.894 36.0289 319.799 35.1954C319.726 34.36 319.648 33.6045 319.566 32.9291C319.484 32.2536 319.417 31.7475 319.365 31.4108C319.259 30.7148 319.149 30.11 319.036 29.5966C318.921 29.0606 318.832 28.693 318.769 28.4937L323.68 28.064ZM304.91 33.9382C305.904 33.8513 307.032 33.7412 308.295 33.608C309.557 33.4748 310.876 33.3367 312.251 33.1936C313.627 33.0505 314.98 32.9094 316.31 32.7703C317.64 32.6311 318.892 32.5102 320.067 32.4075C321.239 32.2822 322.254 32.182 323.112 32.1069C323.97 32.0318 324.907 31.9498 325.923 31.8609C326.937 31.7495 327.941 31.6503 328.935 31.5633C329.928 31.4764 330.832 31.3974 331.644 31.3263C332.48 31.2532 333.124 31.1969 333.575 31.1574L333.891 35.1571C332.826 35.2047 331.423 35.2934 329.682 35.4229C327.939 35.5299 325.815 35.693 323.308 35.9123C321.773 36.0466 320.217 36.2055 318.64 36.3889C317.062 36.5498 315.495 36.721 313.941 36.9024C312.387 37.0839 310.89 37.2717 309.451 37.4659C308.01 37.6375 306.65 37.8248 305.371 38.0277L304.91 33.9382ZM324.112 42.3608C324.274 44.2124 324.182 45.7676 323.837 47.0265C323.515 48.2833 322.941 49.2664 322.116 49.9757C321.288 50.6624 320.22 51.0631 318.91 51.1777C318.278 51.233 317.6 51.1558 316.876 50.9461C316.175 50.7344 315.508 50.3945 314.876 49.9265C314.243 49.4586 313.713 48.8565 313.284 48.1204C312.878 47.3823 312.63 46.4939 312.539 45.4552C312.427 44.1681 312.635 43.035 313.163 42.0558C313.69 41.0541 314.439 40.2491 315.409 39.6409C316.401 39.0081 317.517 38.6374 318.759 38.5287C320.25 38.3983 321.521 38.6284 322.574 39.2189C323.647 39.7848 324.482 40.6105 325.077 41.6961C325.695 42.7797 326.067 44.0328 326.191 45.4553C326.288 46.5618 326.208 47.7292 325.952 48.9575C325.695 50.1859 325.199 51.4124 324.465 52.6371C323.75 53.8373 322.734 54.9615 321.415 56.0098C320.118 57.0561 318.457 57.9636 316.431 58.7325L312.493 55.4593C313.912 55.0393 315.222 54.5379 316.423 53.955C317.623 53.3722 318.655 52.679 319.517 51.8754C320.402 51.0699 321.058 50.1137 321.485 49.007C321.934 47.8983 322.093 46.5988 321.963 45.1085C321.868 44.0247 321.526 43.2355 320.937 42.741C320.37 42.2445 319.714 42.0288 318.969 42.094C318.54 42.1315 318.131 42.2697 317.742 42.5085C317.354 42.7473 317.053 43.0808 316.84 43.5089C316.627 43.9371 316.546 44.4447 316.598 45.0318C316.665 45.7996 316.979 46.3978 317.54 46.8266C318.121 47.2308 318.751 47.4032 319.428 47.344C319.97 47.2965 320.429 47.0857 320.806 46.7114C321.206 46.3352 321.438 45.746 321.505 44.9438C321.571 44.1417 321.365 43.0903 320.888 41.7896L324.112 42.3608Z" fill="#F6E93C"/>
<path d="M270.384 36.8223C271.06 36.7404 271.701 36.6615 272.309 36.5856C272.915 36.4871 273.375 36.4128 273.689 36.3625C274.385 36.2561 275.237 36.1133 276.245 35.9341C277.274 35.7303 278.416 35.5167 279.67 35.2931C280.948 35.0676 282.304 34.8352 283.739 34.5959C285.174 34.3565 286.665 34.101 288.211 33.8292C289.376 33.6135 290.531 33.4215 291.676 33.253C292.843 33.0599 293.943 32.8954 294.978 32.7594C296.033 32.5988 296.955 32.4726 297.743 32.3809L298.157 36.7134C297.547 36.7667 296.848 36.8392 296.06 36.931C295.271 37.0227 294.485 37.137 293.7 37.2739C292.937 37.3862 292.257 37.5481 291.661 37.7595C290.669 38.1193 289.761 38.6652 288.937 39.3971C288.112 40.1064 287.41 40.93 286.833 41.8679C286.276 42.7813 285.861 43.7618 285.588 44.8096C285.314 45.8347 285.221 46.8553 285.31 47.8715C285.407 48.9779 285.685 49.9434 286.144 50.7678C286.623 51.5677 287.228 52.2429 287.959 52.7933C288.711 53.3192 289.567 53.7448 290.528 54.0703C291.488 54.3731 292.507 54.5797 293.586 54.6901C294.688 54.7985 295.817 54.8362 296.975 54.8032L295.789 59.5827C294.358 59.6169 292.95 59.5126 291.563 59.2698C290.2 59.0251 288.903 58.638 287.673 58.1084C286.444 57.5789 285.349 56.9011 284.39 56.0749C283.451 55.2242 282.67 54.2344 282.048 53.1057C281.446 51.9524 281.082 50.6419 280.953 49.1742C280.811 47.5484 280.94 46.0353 281.341 44.6351C281.74 43.2122 282.279 41.9592 282.957 40.8759C283.657 39.768 284.366 38.8983 285.084 38.2666C284.46 38.4122 283.7 38.5697 282.805 38.7391C281.932 38.9064 280.982 39.1033 279.955 39.3297C278.949 39.5315 277.921 39.7465 276.872 39.9749C275.822 40.2032 274.809 40.4511 273.831 40.7187C272.874 40.9617 272.007 41.1968 271.231 41.424L270.384 36.8223ZM293.603 40.4564C293.933 40.8372 294.28 41.296 294.645 41.8329C295.031 42.3452 295.407 42.8697 295.773 43.4066C296.136 43.9209 296.451 44.3939 296.716 44.8258L294.243 46.2026C293.731 45.2917 293.24 44.4928 292.77 43.8058C292.323 43.1168 291.796 42.4234 291.189 41.7257L293.603 40.4564ZM297.261 38.5665C297.59 38.9473 297.947 39.3938 298.333 39.9061C298.74 40.3938 299.138 40.9051 299.526 41.44C299.912 41.9523 300.237 42.4131 300.5 42.8224L298.066 44.264C297.536 43.4003 297.025 42.6372 296.535 41.9747C296.067 41.3103 295.519 40.6302 294.889 39.9344L297.261 38.5665Z" fill="#F6E93C"/>
<path d="M236.792 48.4301L266.971 45.7898L267.336 49.9559L237.157 52.5962L236.792 48.4301ZM238.285 38.5725L264.264 36.2997L264.631 40.4996L238.652 42.7725L238.285 38.5725ZM253.521 48.0929C254.85 51.3213 256.781 53.8941 259.315 55.8112C261.849 57.7283 265.16 58.8949 269.246 59.311C268.98 59.6528 268.687 60.0653 268.365 60.5485C268.066 61.0298 267.79 61.5203 267.538 62.0202C267.288 62.5427 267.078 63.0047 266.908 63.4063C263.953 62.9141 261.4 62.0794 259.249 60.9024C257.096 59.7028 255.252 58.1348 253.718 56.1985C252.206 54.2603 250.889 51.9523 249.767 49.2745L253.521 48.0929ZM248.323 33.155L252.692 32.7728L253.661 43.8485C253.8 45.4291 253.838 47.0412 253.777 48.6848C253.716 50.3283 253.461 51.9661 253.013 53.5981C252.562 55.2075 251.833 56.7616 250.827 58.2604C249.82 59.7591 248.441 61.1653 246.691 62.4789C244.94 63.7925 242.745 64.9743 240.106 66.0242C239.917 65.6768 239.654 65.2788 239.319 64.8303C239.009 64.4024 238.664 63.9662 238.283 63.5216C237.905 63.0996 237.568 62.7537 237.271 62.4839C239.628 61.5951 241.577 60.5941 243.118 59.4809C244.658 58.3677 245.875 57.1918 246.768 55.9533C247.659 54.6922 248.297 53.4077 248.683 52.0997C249.09 50.7672 249.315 49.4392 249.359 48.1157C249.425 46.7902 249.403 45.4952 249.292 44.2307L248.323 33.155Z" fill="#F6E93C"/>
<path d="M202.287 43.3603L232.364 40.7289L232.711 44.6917L202.634 47.3231L202.287 43.3603ZM210.35 47.7403C211.57 51.0237 213.196 53.7484 215.229 55.9141C217.282 58.0553 219.879 59.6597 223.022 60.7272C226.187 61.7928 230.059 62.3641 234.639 62.4412C234.371 62.7604 234.1 63.171 233.826 63.6728C233.551 64.1747 233.299 64.6745 233.069 65.1724C232.84 65.6703 232.653 66.1304 232.508 66.5527C228.876 66.3926 225.695 65.9313 222.967 65.1689C220.238 64.4065 217.855 63.3067 215.818 61.8694C213.803 60.4302 212.044 58.6501 210.538 56.5293C209.054 54.3838 207.73 51.8716 206.568 48.9926L210.35 47.7403ZM218.195 36.3713L222.699 35.9771C222.912 38.6662 223.078 41.2114 223.197 43.6129C223.336 45.9897 223.328 48.2317 223.171 50.3387C223.012 52.4232 222.624 54.357 222.006 56.1403C221.411 57.9216 220.497 59.5715 219.265 61.09C218.031 62.586 216.386 63.9471 214.332 65.1735C212.302 66.4205 209.749 67.5313 206.671 68.5059C206.527 68.1544 206.299 67.7648 205.989 67.3369C205.703 66.9296 205.383 66.5253 205.03 66.1239C204.676 65.7225 204.339 65.3879 204.02 65.12C206.859 64.2801 209.211 63.3348 211.076 62.2843C212.963 61.2318 214.455 60.0774 215.551 58.8211C216.668 57.5402 217.466 56.128 217.945 54.5843C218.447 53.0387 218.743 51.3518 218.833 49.5236C218.922 47.6729 218.894 45.6617 218.749 43.49C218.603 41.2958 218.418 38.9228 218.195 36.3713Z" fill="#F6E93C"/>
<path d="M168.646 49.341L198.791 46.7037L199.159 50.9037L169.014 53.541L168.646 49.341ZM186.204 49.5114C187.107 52.0263 188.254 54.3492 189.646 56.4799C191.039 58.6107 192.689 60.4345 194.596 61.9513C196.526 63.4662 198.719 64.6054 201.175 65.369C200.862 65.6921 200.533 66.0963 200.189 66.5815C199.867 67.0647 199.546 67.5592 199.227 68.065C198.931 68.5914 198.688 69.0564 198.495 69.4601C195.792 68.4679 193.419 67.0941 191.377 65.3388C189.358 63.5814 187.604 61.4823 186.116 59.0413C184.626 56.5778 183.317 53.8368 182.189 50.8184L186.204 49.5114ZM180.584 39.1156L185.022 38.7274C185.149 40.4455 185.252 42.2682 185.329 44.1954C185.427 46.0981 185.427 48.0435 185.328 50.0318C185.229 52.02 184.959 54.0117 184.52 56.0069C184.1 57.9776 183.427 59.9023 182.499 61.781C181.592 63.6351 180.359 65.404 178.8 67.0876C177.263 68.7693 175.338 70.3029 173.025 71.6885C172.661 71.1742 172.168 70.6143 171.547 70.0089C170.925 69.4035 170.302 68.9119 169.677 68.5342C171.889 67.294 173.715 65.9284 175.155 64.4372C176.592 62.9235 177.727 61.3339 178.56 59.6683C179.413 57.9781 180.025 56.2523 180.394 54.4908C180.761 52.7066 180.958 50.926 180.984 49.149C181.034 47.3699 181.007 45.6316 180.904 43.9341C180.801 42.2367 180.694 40.6305 180.584 39.1156Z" fill="#F6E93C"/>
<path d="M151.939 45.2392C151.801 45.4789 151.643 45.7543 151.466 46.0657C151.309 46.3524 151.152 46.6392 150.995 46.926C150.642 47.5712 150.252 48.322 149.827 49.1783C149.422 50.0101 148.999 50.9004 148.559 51.849C148.116 52.7751 147.685 53.7002 147.266 54.6243C146.868 55.5464 146.488 56.3988 146.124 57.1815C146.725 56.7649 147.346 56.4489 147.987 56.2336C148.628 56.0182 149.275 55.8819 149.93 55.8246C151.195 55.714 152.222 56.0109 153.012 56.7154C153.822 57.3954 154.323 58.4437 154.516 59.8603C154.582 60.3551 154.645 60.9525 154.706 61.6525C154.768 62.3525 154.829 63.0525 154.89 63.7525C154.974 64.4505 155.059 65.0346 155.146 65.5049C155.271 66.1538 155.549 66.6072 155.982 66.8652C156.434 67.0986 156.943 67.1907 157.507 67.1413C158.23 67.0781 158.866 66.8063 159.416 66.3259C159.988 65.8435 160.478 65.209 160.887 64.4224C161.294 63.6131 161.626 62.7195 161.881 61.7415C162.158 60.7389 162.375 59.7074 162.532 58.647L166.451 61.3076C166.032 63.2783 165.435 65.037 164.66 66.5838C163.883 68.1079 162.875 69.3225 161.634 70.2274C160.418 71.1529 158.941 71.6917 157.202 71.8438C155.96 71.9524 154.902 71.8175 154.027 71.439C153.154 71.0831 152.483 70.5729 152.016 69.9084C151.546 69.2214 151.252 68.4622 151.134 67.6306C151.035 67.0249 150.942 66.3505 150.854 65.6073C150.789 64.8621 150.715 64.1405 150.631 63.4425C150.568 62.72 150.494 62.1348 150.409 61.6872C150.313 61.104 150.08 60.6579 149.712 60.3489C149.343 60.0398 148.854 59.9119 148.245 59.9653C147.5 60.0305 146.809 60.3298 146.173 60.8632C145.537 61.3967 144.971 62.072 144.473 62.8891C143.999 63.7042 143.598 64.5925 143.273 65.5539C143.091 66.0704 142.905 66.6782 142.716 67.3774C142.527 68.0765 142.351 68.7972 142.188 69.5396C142.026 70.2819 141.87 70.9781 141.722 71.6281C141.577 72.3007 141.456 72.8688 141.36 73.3322L136.442 72.1242C136.772 70.9577 137.179 69.6252 137.662 68.1267C138.166 66.6036 138.72 65.0079 139.325 63.3395C139.93 61.6711 140.547 60.013 141.176 58.3652C141.806 56.7174 142.409 55.1629 142.987 53.7017C143.562 52.2179 144.076 50.9329 144.527 49.8468C144.998 48.7361 145.357 47.897 145.603 47.3294C145.79 46.858 146.005 46.3272 146.249 45.7371C146.493 45.1469 146.731 44.4776 146.961 43.7294L151.939 45.2392Z" fill="#F6E93C"/>
<path d="M105.84 48.8628C106.112 48.8617 106.499 48.862 107 48.8637C107.499 48.8428 108.03 48.8077 108.595 48.7583C108.956 48.7267 109.509 48.6783 110.255 48.6131C111.022 48.5459 111.869 48.4718 112.795 48.3908C113.741 48.2853 114.699 48.1787 115.668 48.0712C116.635 47.9411 117.513 47.8302 118.301 47.7385C119.112 47.6448 119.731 47.5678 120.158 47.5077C120.56 47.427 120.986 47.3443 121.433 47.2596C121.879 47.1524 122.256 47.0398 122.564 46.9218L125.094 49.7039C124.814 49.8876 124.504 50.1082 124.162 50.3656C123.821 50.623 123.544 50.8406 123.332 51.0185C122.867 51.4232 122.34 51.9016 121.751 52.4537C121.185 53.0038 120.554 53.5937 119.858 54.2234C119.185 54.8511 118.501 55.4912 117.808 56.1434C117.112 56.7731 116.416 57.4028 115.72 58.0325C116.271 57.8251 116.826 57.6628 117.384 57.5457C117.965 57.4266 118.471 57.3482 118.9 57.3107C120.887 57.1369 122.668 57.345 124.244 57.9353C125.82 58.5255 127.081 59.405 128.025 60.5738C128.969 61.7427 129.51 63.1174 129.648 64.698C129.844 66.9335 129.344 68.8885 128.148 70.5631C126.974 72.2357 125.051 73.5303 122.378 74.4467C119.73 75.3838 116.303 75.877 112.098 75.9263L110.527 71.6269C112.901 71.715 115.011 71.6441 116.857 71.4144C118.701 71.1621 120.235 70.7548 121.46 70.1926C122.706 69.6058 123.633 68.8876 124.241 68.038C124.847 67.1659 125.102 66.1766 125.005 65.0701C124.888 63.7379 124.216 62.6818 122.987 61.9019C121.779 61.0975 120.204 60.7802 118.262 60.9501C116.953 61.0647 115.739 61.3643 114.621 61.8489C113.525 62.3315 112.498 62.9447 111.539 63.6885C110.603 64.4302 109.698 65.2716 108.825 66.2126C107.972 67.1291 107.135 68.0898 106.313 69.0946L102.835 66.0199C103.679 65.2635 104.637 64.372 105.707 63.3455C106.778 62.3189 107.879 61.2555 109.012 60.1553C110.165 59.0305 111.275 57.9323 112.341 56.8606C113.408 55.7889 114.369 54.8061 115.223 53.9122C116.076 52.9957 116.749 52.2315 117.241 51.6196C116.857 51.6532 116.384 51.706 115.822 51.7779C115.282 51.8479 114.686 51.9341 114.035 52.0366C113.384 52.139 112.745 52.2405 112.117 52.341C111.486 52.4189 110.901 52.4928 110.361 52.5628C109.844 52.6308 109.417 52.6909 109.08 52.7432C108.676 52.8013 108.205 52.8879 107.669 53.0031C107.131 53.0957 106.673 53.1926 106.295 53.2939L105.84 48.8628Z" fill="#F6E93C"/>
<path d="M79.8381 49.7042C79.7089 50.3071 79.6022 50.908 79.518 51.5069C79.4545 52.0813 79.391 52.6557 79.3275 53.2301C79.262 53.7819 79.1809 54.4147 79.084 55.1286C79.0098 55.8404 78.9169 56.5994 78.8054 57.4055C78.7145 58.1871 78.602 58.9819 78.468 59.79C78.3565 60.5961 78.2327 61.3919 78.0966 62.1774C77.9586 62.9404 77.8269 63.6459 77.7016 64.2939C79.0118 63.4057 80.3305 62.7442 81.6577 62.3096C82.9829 61.8523 84.4019 61.5575 85.9148 61.4252C87.7438 61.2652 89.3624 61.4307 90.7706 61.9219C92.2013 62.411 93.3367 63.1649 94.1767 64.1836C95.0392 65.2003 95.5337 66.4312 95.6602 67.8764C95.8261 69.7731 95.526 71.4148 94.76 72.8016C94.0165 74.1863 92.8645 75.3224 91.3039 76.2097C89.7659 77.0952 87.8767 77.7383 85.6365 78.139C83.4188 78.5378 80.931 78.71 78.1731 78.6555L76.6053 74.3899C78.4846 74.544 80.3049 74.544 82.0661 74.3899C83.85 74.2339 85.4384 73.9243 86.8313 73.4611C88.2242 72.9979 89.3058 72.3572 90.0761 71.539C90.867 70.6962 91.2081 69.6538 91.0995 68.4119C91.0106 67.3958 90.5055 66.564 89.5842 65.9165C88.661 65.2464 87.3752 64.9834 85.7268 65.1277C83.7623 65.2995 81.9855 65.7963 80.3964 66.6179C78.8299 67.4375 77.5948 68.5354 76.6913 69.9113C76.555 70.1736 76.4177 70.4245 76.2794 70.6641C76.1636 70.9018 76.0283 71.1753 75.8733 71.4846L71.7521 70.4117C72.2777 69.1371 72.7433 67.697 73.1489 66.0916C73.5546 64.4861 73.9027 62.8743 74.1935 61.2561C74.4842 59.6379 74.7058 58.1396 74.8582 56.7611C75.0087 55.36 75.1028 54.2254 75.1407 53.3575C75.1904 52.6251 75.2048 52.0095 75.1839 51.5107C75.161 50.9894 75.1033 50.4597 75.0107 49.9218L79.8381 49.7042ZM68.364 54.7012C69.4637 54.7871 70.6517 54.8424 71.928 54.8672C73.2024 54.8695 74.3702 54.8242 75.4315 54.7314C76.5154 54.6366 77.6979 54.499 78.979 54.3186C80.2828 54.1363 81.6513 53.9142 83.0846 53.6523C84.5179 53.3904 85.9482 53.0946 87.3756 52.7649C88.8236 52.4107 90.2347 52.0256 91.609 51.6095L92.0294 55.6342C90.9613 55.9097 89.7465 56.198 88.3849 56.4991C87.0459 56.7983 85.6381 57.0921 84.1616 57.3806C82.6832 57.6465 81.2253 57.8878 79.7881 58.1045C78.3508 58.3213 77.0225 58.483 75.8032 58.5897C74.4935 58.7042 73.2384 58.7913 72.0376 58.8509C70.8575 58.8858 69.7555 58.9026 68.7314 58.9012L68.364 54.7012Z" fill="#F6E93C"/>
<path d="M46.4975 52.4846C46.4153 53.1061 46.3499 53.6579 46.301 54.14C46.2522 54.6221 46.2137 55.0919 46.1854 55.5494C46.1366 56.0315 46.0839 56.7301 46.0275 57.6452C45.9916 58.5357 45.944 59.5524 45.8848 60.6952C45.8461 61.8135 45.801 62.9893 45.7497 64.2224C45.7189 65.431 45.6861 66.6171 45.6514 67.7805C45.6167 68.944 45.5956 70.0039 45.5883 70.9601C45.6035 71.9144 45.6358 72.6738 45.6852 73.2384C45.8077 74.6383 46.3193 75.6744 47.2199 76.3464C48.1412 76.9939 49.4373 77.2446 51.1083 77.0984C52.6889 76.9601 54.0024 76.629 55.0487 76.1052C56.093 75.5588 56.8649 74.8883 57.3642 74.0937C57.8635 73.2992 58.0727 72.439 57.9917 71.5132C57.8909 70.3616 57.4883 69.2706 56.7838 68.24C56.0999 67.185 55.148 66.1875 53.9281 65.2475L58.615 63.8136C59.8685 65.1374 60.8112 66.4201 61.4431 67.6617C62.0957 68.8788 62.4852 70.21 62.6116 71.6551C62.7598 73.3486 62.4067 74.904 61.5523 76.3212C60.6979 77.7384 59.4001 78.8986 57.6588 79.8018C55.9401 80.703 53.8389 81.2623 51.3551 81.4796C49.5938 81.6337 48.0007 81.5 46.5759 81.0786C45.1511 80.6571 44.0035 79.8929 43.133 78.7859C42.2625 77.6789 41.7453 76.1883 41.5814 74.3141C41.5201 73.6141 41.4956 72.6834 41.5077 71.5219C41.5179 70.3379 41.5408 69.0389 41.5763 67.6251C41.6325 66.1867 41.6877 64.7371 41.7419 63.2761C41.7942 61.7926 41.8307 60.3901 41.8516 59.0686C41.8951 57.7451 41.9205 56.6052 41.9279 55.6489C41.9039 54.8546 41.8741 54.2543 41.8386 53.8478C41.8236 53.4168 41.7768 53.0114 41.698 52.6314L46.4975 52.4846ZM34.7731 57.7424C35.8169 57.9697 36.947 58.1438 38.1636 58.2649C39.3781 58.3635 40.6226 58.4138 41.897 58.4161C43.1694 58.3958 44.3701 58.3363 45.4991 58.2375C46.8313 58.1209 48.0693 57.9671 49.213 57.7761C50.3567 57.585 51.3517 57.3842 52.1979 57.1736L52.415 61.2161C51.4068 61.3953 50.3976 61.5632 49.3874 61.7199C48.3772 61.8765 47.1608 62.017 45.7383 62.1415C44.5867 62.2423 43.385 62.2905 42.1332 62.2863C40.8794 62.2594 39.6339 62.1977 38.3968 62.1012C37.1577 61.9821 35.9957 61.8335 34.9107 61.6553L34.7731 57.7424ZM34.7967 66.2046C36.0516 66.5044 37.3099 66.7128 38.5716 66.83C39.8559 66.9451 41.1116 66.9945 42.3389 66.9782C43.5867 66.9373 44.7751 66.8674 45.9042 66.7687C46.9429 66.6778 48.0576 66.5461 49.2485 66.3737C50.4619 66.1993 51.6046 65.9969 52.6766 65.7666L52.9276 69.8061C51.9871 69.9794 51.0231 70.1434 50.0355 70.298C49.0459 70.4301 48.0205 70.5426 46.9592 70.6354C44.7012 70.833 42.5236 70.9097 40.4264 70.8657C38.3273 70.799 36.4912 70.6184 34.9182 70.3237L34.7967 66.2046Z" fill="#F6E93C"/>
</svg>
