<svg width="1010" height="130" viewBox="0 0 1010 130" fill="none" xmlns="http://www.w3.org/2000/svg">
<g filter="url(#filter0_d_2048_207)">
<path d="M955 4C983.167 4 1006 26.8335 1006 55V58C1006 86.1665 983.167 109 955 109H518.859L505.5 126L492.141 109H55C26.8335 109 4 86.1665 4 58V55C4 26.8335 26.8335 4 55 4H955ZM1004.87 61.6777C1004.88 61.5438 1004.88 61.4096 1004.89 61.2754C1004.88 61.4096 1004.88 61.5438 1004.87 61.6777ZM1004.92 60.7676C1004.93 60.6505 1004.93 60.5333 1004.94 60.416C1004.93 60.5333 1004.93 60.6505 1004.92 60.7676ZM1004.96 59.8271C1004.97 59.7097 1004.97 59.5922 1004.98 59.4746C1004.97 59.5922 1004.97 59.7097 1004.96 59.8271ZM958.594 5.12695C958.245 5.10219 957.896 5.08202 957.545 5.06445C957.896 5.08192 958.245 5.10219 958.594 5.12695ZM957.363 5.05469C957.007 5.03811 956.649 5.02568 956.291 5.0166C956.649 5.02568 957.007 5.03822 957.363 5.05469Z" fill="url(#paint0_linear_2048_207)"/>
</g>
<path d="M774 66.3172C773.467 66.3172 772.987 66.1306 772.56 65.7572C772.16 65.3839 771.933 64.9306 771.88 64.3972L771.68 60.3972C771.627 59.0639 771.827 57.9839 772.28 57.1572C772.733 56.3306 773.76 55.6239 775.36 55.0372C776.613 54.5839 777.533 53.9706 778.12 53.1972C778.733 52.4239 779.04 51.4239 779.04 50.1972C779.04 48.6239 778.587 47.3706 777.68 46.4372C776.773 45.5039 775.547 45.0372 774 45.0372C772.693 45.0372 771.56 45.4239 770.6 46.1972C769.667 46.9439 769.053 47.9306 768.76 49.1572C768.573 49.8772 768.147 50.4239 767.48 50.7972C766.813 51.1439 766.107 51.2239 765.36 51.0372C764.64 50.8239 764.107 50.4106 763.76 49.7972C763.413 49.1572 763.32 48.4639 763.48 47.7172C763.827 46.2772 764.48 44.9972 765.44 43.8772C766.427 42.7306 767.64 41.8239 769.08 41.1572C770.547 40.4906 772.187 40.1572 774 40.1572C776.08 40.1572 777.92 40.5572 779.52 41.3572C781.12 42.1572 782.373 43.3172 783.28 44.8372C784.213 46.3306 784.68 48.1172 784.68 50.1972C784.68 52.3572 784.04 54.1439 782.76 55.5572C781.507 56.9706 779.88 58.0239 777.88 58.7172C777.213 58.9572 776.773 59.2239 776.56 59.5172C776.347 59.7839 776.227 60.2639 776.2 60.9572L776.08 64.3972C776.053 64.9306 775.827 65.3839 775.4 65.7572C775 66.1306 774.533 66.3172 774 66.3172ZM774 75.4372C773.067 75.4372 772.267 75.1039 771.6 74.4372C770.933 73.7706 770.6 72.9706 770.6 72.0372C770.6 71.1039 770.933 70.3039 771.6 69.6372C772.267 68.9706 773.067 68.6372 774 68.6372C774.933 68.6372 775.733 68.9706 776.4 69.6372C777.067 70.3039 777.4 71.1039 777.4 72.0372C777.4 72.9706 777.067 73.7706 776.4 74.4372C775.733 75.1039 774.933 75.4372 774 75.4372Z" fill="#070E50"/>
<path d="M727.48 69.837C726.253 69.8904 725.08 69.6104 723.96 68.997C722.84 68.3837 721.853 67.397 721 66.037C720.28 64.837 719.666 63.317 719.16 61.477C718.653 59.637 718.293 57.6504 718.08 55.517C717.866 53.357 717.813 51.2104 717.92 49.077C717.973 48.4104 718.226 47.8637 718.68 47.437C719.16 46.9837 719.733 46.7837 720.4 46.837C721.066 46.8637 721.613 47.1304 722.04 47.637C722.493 48.117 722.693 48.6904 722.64 49.357C722.533 51.2237 722.546 53.0504 722.68 54.837C722.813 56.597 723.066 58.2104 723.44 59.677C723.813 61.117 724.28 62.317 724.84 63.277C725.453 64.3704 726.226 64.917 727.16 64.917C728.306 64.8904 729.266 63.6904 730.04 61.317C730.253 60.7037 730.653 60.2504 731.24 59.957C731.826 59.637 732.44 59.5837 733.08 59.797C733.693 59.9837 734.146 60.3837 734.44 60.997C734.733 61.5837 734.773 62.1837 734.56 62.797C733.813 65.1437 732.813 66.8904 731.56 68.037C730.306 69.157 728.946 69.757 727.48 69.837ZM749.28 62.797C748.64 63.037 748.013 63.0104 747.4 62.717C746.813 62.4237 746.4 61.9704 746.16 61.357C745.76 60.3704 745.213 59.3704 744.52 58.357C743.853 57.3437 743.093 56.3837 742.24 55.477C741.413 54.5704 740.56 53.8104 739.68 53.197C739.146 52.8237 738.813 52.3037 738.68 51.637C738.546 50.9704 738.693 50.3704 739.12 49.837C739.546 49.3037 740.066 49.0104 740.68 48.957C741.32 48.9037 741.92 49.077 742.48 49.477C743.6 50.2504 744.693 51.197 745.76 52.317C746.853 53.437 747.84 54.637 748.72 55.917C749.6 57.197 750.253 58.4504 750.68 59.677C750.893 60.2904 750.866 60.917 750.6 61.557C750.333 62.1704 749.893 62.5837 749.28 62.797Z" fill="#070E50"/>
<path d="M687.48 69.837C686.253 69.8904 685.08 69.6104 683.96 68.997C682.84 68.3837 681.853 67.397 681 66.037C680.28 64.837 679.667 63.317 679.16 61.477C678.653 59.637 678.293 57.6504 678.08 55.517C677.867 53.357 677.813 51.2104 677.92 49.077C677.973 48.4104 678.227 47.8637 678.68 47.437C679.16 46.9837 679.733 46.7837 680.4 46.837C681.067 46.8637 681.613 47.1304 682.04 47.637C682.493 48.117 682.693 48.6904 682.64 49.357C682.533 51.2237 682.547 53.0504 682.68 54.837C682.813 56.597 683.067 58.2104 683.44 59.677C683.813 61.117 684.28 62.317 684.84 63.277C685.453 64.3704 686.227 64.917 687.16 64.917C688.307 64.8904 689.267 63.6904 690.04 61.317C690.253 60.7037 690.653 60.2504 691.24 59.957C691.827 59.637 692.44 59.5837 693.08 59.797C693.693 59.9837 694.147 60.3837 694.44 60.997C694.733 61.5837 694.773 62.1837 694.56 62.797C693.813 65.1437 692.813 66.8904 691.56 68.037C690.307 69.157 688.947 69.757 687.48 69.837ZM709.28 62.797C708.64 63.037 708.013 63.0104 707.4 62.717C706.813 62.4237 706.4 61.9704 706.16 61.357C705.76 60.3704 705.213 59.3704 704.52 58.357C703.853 57.3437 703.093 56.3837 702.24 55.477C701.413 54.5704 700.56 53.8104 699.68 53.197C699.147 52.8237 698.813 52.3037 698.68 51.637C698.547 50.9704 698.693 50.3704 699.12 49.837C699.547 49.3037 700.067 49.0104 700.68 48.957C701.32 48.9037 701.92 49.077 702.48 49.477C703.6 50.2504 704.693 51.197 705.76 52.317C706.853 53.437 707.84 54.637 708.72 55.917C709.6 57.197 710.253 58.4504 710.68 59.677C710.893 60.2904 710.867 60.917 710.6 61.557C710.333 62.1704 709.893 62.5837 709.28 62.797Z" fill="#070E50"/>
<path d="M656 75.2773C652.853 75.2773 650.373 74.4506 648.56 72.7973C646.747 71.144 645.84 68.784 645.84 65.7173C645.84 65.3973 645.88 64.944 645.96 64.3573C646.04 63.7706 646.133 63.0906 646.24 62.3173C645.493 62.184 644.773 62.0373 644.08 61.8773C643.413 61.7173 642.8 61.5706 642.24 61.4373C641.6 61.2506 641.12 60.864 640.8 60.2773C640.507 59.6906 640.453 59.0906 640.64 58.4773C640.853 57.864 641.24 57.3973 641.8 57.0773C642.387 56.7573 642.987 56.6906 643.6 56.8773C644.533 57.1706 645.693 57.4373 647.08 57.6773C647.213 56.904 647.36 56.1173 647.52 55.3173C647.68 54.5173 647.827 53.704 647.96 52.8773C647.24 52.744 646.573 52.6106 645.96 52.4773C645.347 52.344 644.84 52.224 644.44 52.1173C643.827 51.9306 643.36 51.5573 643.04 50.9973C642.72 50.4106 642.653 49.8106 642.84 49.1973C643.027 48.5573 643.4 48.0773 643.96 47.7573C644.52 47.4373 645.12 47.3706 645.76 47.5573C646.08 47.6373 646.507 47.744 647.04 47.8773C647.573 47.984 648.173 48.104 648.84 48.2373C649.053 46.984 649.24 45.8506 649.4 44.8373C649.587 43.7973 649.693 42.9573 649.72 42.3173C649.773 41.6506 650.067 41.1173 650.6 40.7173C651.16 40.3173 651.76 40.1573 652.4 40.2373C653.067 40.3173 653.6 40.624 654 41.1573C654.4 41.664 654.56 42.2506 654.48 42.9173C654.4 43.584 654.267 44.464 654.08 45.5573C653.92 46.624 653.707 47.7973 653.44 49.0773C653.867 49.1573 654.253 49.224 654.6 49.2773C654.973 49.304 655.307 49.344 655.6 49.3973C656.24 49.504 656.76 49.8106 657.16 50.3173C657.56 50.824 657.72 51.3973 657.64 52.0373C657.56 52.704 657.253 53.2373 656.72 53.6373C656.213 54.0106 655.64 54.1573 655 54.0773C654.68 54.0506 654.307 54.0106 653.88 53.9573C653.453 53.8773 653.013 53.8106 652.56 53.7573C652.4 54.5306 652.24 55.304 652.08 56.0773C651.947 56.8506 651.813 57.6106 651.68 58.3573C652.213 58.4106 652.72 58.464 653.2 58.5173C653.707 58.5706 654.173 58.6106 654.6 58.6373C655.24 58.664 655.773 58.9306 656.2 59.4373C656.653 59.9173 656.867 60.4773 656.84 61.1173C656.813 61.784 656.547 62.3306 656.04 62.7573C655.56 63.184 654.987 63.384 654.32 63.3573C653.787 63.304 653.227 63.264 652.64 63.2373C652.053 63.184 651.453 63.1173 650.84 63.0373C650.627 64.3173 650.52 65.2106 650.52 65.7173C650.52 68.9173 652.347 70.5173 656 70.5173C657.52 70.5173 658.787 70.1706 659.8 69.4773C660.813 68.7573 661.427 67.824 661.64 66.6773C662.04 64.6506 661.227 62.704 659.2 60.8373C658.72 60.384 658.493 59.824 658.52 59.1573C658.573 58.464 658.853 57.8906 659.36 57.4373C659.84 56.984 660.4 56.784 661.04 56.8373C661.68 56.8906 662.24 57.144 662.72 57.5973C664.213 59.0106 665.253 60.5573 665.84 62.2373C666.427 63.8906 666.573 65.5573 666.28 67.2373C665.88 69.664 664.76 71.6106 662.92 73.0773C661.08 74.544 658.773 75.2773 656 75.2773Z" fill="#070E50"/>
<path d="M624.24 74.2771C621.093 73.8238 618.493 72.9171 616.44 71.5571C614.387 70.1705 612.853 68.5038 611.84 66.5571C610.853 64.6105 610.36 62.5838 610.36 60.4771C610.36 58.3438 610.773 56.3571 611.6 54.5171C612.427 52.6505 613.627 51.0371 615.2 49.6771C613.6 49.9171 611.893 50.1971 610.08 50.5171C608.267 50.8105 606.507 51.1171 604.8 51.4371C603.12 51.7305 601.64 51.9971 600.36 52.2371C599.693 52.3438 599.093 52.1971 598.56 51.7971C598.053 51.3971 597.747 50.8771 597.64 50.2371C597.533 49.5705 597.667 48.9838 598.04 48.4771C598.44 47.9438 598.973 47.6238 599.64 47.5171C600.493 47.3838 601.587 47.2105 602.92 46.9971C604.253 46.7571 605.747 46.5038 607.4 46.2371C609.053 45.9705 610.747 45.6905 612.48 45.3971C614.213 45.1038 615.907 44.8238 617.56 44.5571C619.24 44.2638 620.773 43.9971 622.16 43.7571C623.547 43.5171 624.68 43.3171 625.56 43.1571C626.173 43.0505 626.747 43.1838 627.28 43.5571C627.84 43.9305 628.173 44.4238 628.28 45.0371C628.413 45.6771 628.307 46.2771 627.96 46.8371C627.64 47.3971 627.16 47.7305 626.52 47.8371C624.653 48.1305 623.013 48.7038 621.6 49.5571C620.187 50.3838 618.987 51.3971 618 52.5971C617.04 53.7705 616.307 55.0238 615.8 56.3571C615.32 57.6638 615.08 58.9571 615.08 60.2371C615.08 62.8238 615.96 64.9171 617.72 66.5171C619.48 68.0905 621.88 69.0905 624.92 69.5171C625.56 69.6238 626.08 69.9438 626.48 70.4771C626.88 71.0105 627.027 71.5971 626.92 72.2371C626.84 72.9038 626.533 73.4371 626 73.8371C625.467 74.2371 624.88 74.3838 624.24 74.2771ZM629.32 57.9171C628.973 58.2105 628.547 58.3305 628.04 58.2771C627.56 58.2238 627.173 57.9971 626.88 57.5971C626.587 57.2238 626.213 56.7571 625.76 56.1971C625.307 55.6105 624.893 55.1038 624.52 54.6771C624.28 54.3838 624.16 54.0371 624.16 53.6371C624.187 53.2105 624.373 52.8505 624.72 52.5571C625.04 52.2638 625.4 52.1305 625.8 52.1571C626.227 52.1571 626.613 52.3038 626.96 52.5971C627.36 52.9438 627.813 53.3971 628.32 53.9571C628.853 54.5171 629.293 55.0238 629.64 55.4771C629.933 55.8505 630.04 56.2771 629.96 56.7571C629.907 57.2371 629.693 57.6238 629.32 57.9171ZM633.16 54.4771C632.813 54.8238 632.387 54.9838 631.88 54.9571C631.4 54.9305 631 54.7305 630.68 54.3571C630.36 53.9838 629.947 53.5305 629.44 52.9971C628.96 52.4638 628.52 51.9971 628.12 51.5971C627.853 51.3305 627.707 50.9838 627.68 50.5571C627.68 50.1305 627.84 49.7571 628.16 49.4371C628.453 49.1438 628.813 48.9971 629.24 48.9971C629.667 48.9705 630.053 49.0905 630.4 49.3571C630.827 49.6505 631.32 50.0638 631.88 50.5971C632.44 51.1038 632.907 51.5838 633.28 52.0371C633.6 52.3838 633.747 52.7971 633.72 53.2771C633.693 53.7305 633.507 54.1305 633.16 54.4771Z" fill="#070E50"/>
<path d="M576.68 73.9569C576.173 74.3836 575.573 74.5836 574.88 74.5569C574.213 74.5302 573.653 74.2769 573.2 73.7969C572.747 73.2902 572.533 72.7036 572.56 72.0369C572.613 71.3702 572.893 70.8102 573.4 70.3569C574.84 69.0769 575.933 67.7169 576.68 66.2769C577.453 64.8369 577.973 63.1569 578.24 61.2369C578.533 59.3169 578.68 57.0236 578.68 54.3569C577.373 54.4636 576.107 54.5836 574.88 54.7169C573.68 54.8502 572.587 54.9969 571.6 55.1569C570.933 55.2636 570.333 55.1436 569.8 54.7969C569.266 54.4236 568.933 53.9169 568.8 53.2769C568.693 52.6102 568.813 52.0102 569.16 51.4769C569.533 50.9436 570.053 50.6236 570.72 50.5169C571.733 50.3569 572.933 50.2102 574.32 50.0769C575.733 49.9436 577.186 49.8236 578.68 49.7169V44.2369C578.68 43.5702 578.906 43.0102 579.36 42.5569C579.813 42.0769 580.373 41.8369 581.04 41.8369C581.707 41.8369 582.267 42.0769 582.72 42.5569C583.173 43.0102 583.4 43.5702 583.4 44.2369V49.4369C584.333 49.3836 585.2 49.3569 586 49.3569C586.827 49.3569 587.533 49.3569 588.12 49.3569C588.787 49.3836 589.346 49.6369 589.8 50.1169C590.253 50.5969 590.453 51.1702 590.4 51.8369C590.373 52.5036 590.107 53.0502 589.6 53.4769C589.12 53.9036 588.547 54.1036 587.88 54.0769C586.6 54.0236 585.107 54.0236 583.4 54.0769V54.3169C583.4 57.0636 583.227 59.6236 582.88 61.9969C582.56 64.3702 581.92 66.5569 580.96 68.5569C580 70.5569 578.573 72.3569 576.68 73.9569ZM563.2 72.9969C562.533 73.1302 561.933 73.0236 561.4 72.6769C560.866 72.3036 560.533 71.7969 560.4 71.1569C560.133 69.9036 559.907 68.4236 559.72 66.7169C559.56 64.9836 559.44 63.1436 559.36 61.1969C559.306 59.2236 559.306 57.2369 559.36 55.2369C559.413 53.2102 559.52 51.2502 559.68 49.3569C559.866 47.4369 560.133 45.6902 560.48 44.1169C560.613 43.4502 560.947 42.9436 561.48 42.5969C562.04 42.2502 562.64 42.1436 563.28 42.2769C563.92 42.4102 564.413 42.7569 564.76 43.3169C565.107 43.8502 565.213 44.4502 565.08 45.1169C564.68 47.0102 564.387 49.0902 564.2 51.3569C564.04 53.6236 563.96 55.9036 563.96 58.1969C563.986 60.4902 564.08 62.6769 564.24 64.7569C564.426 66.8369 564.68 68.6502 565 70.1969C565.133 70.8369 565.026 71.4369 564.68 71.9969C564.333 72.5302 563.84 72.8636 563.2 72.9969Z" fill="#070E50"/>
<path d="M519.48 74.2768C518.92 73.9302 518.56 73.4368 518.4 72.7968C518.24 72.1568 518.333 71.5568 518.68 70.9968C519.72 69.3168 520.64 67.4635 521.44 65.4368C522.24 63.4102 522.92 61.3035 523.48 59.1168C524.067 56.9302 524.533 54.7835 524.88 52.6768C524.107 52.7568 523.347 52.8235 522.6 52.8768C521.88 52.9302 521.2 52.9835 520.56 53.0368C519.893 53.0635 519.307 52.8768 518.8 52.4768C518.32 52.0502 518.053 51.5035 518 50.8368C517.973 50.1702 518.173 49.5968 518.6 49.1168C519.027 48.6102 519.573 48.3435 520.24 48.3168C521.04 48.2635 521.88 48.2102 522.76 48.1568C523.667 48.1035 524.573 48.0235 525.48 47.9168C525.56 47.0102 525.613 46.1435 525.64 45.3168C525.667 44.4902 525.667 43.7035 525.64 42.9568C525.613 42.2902 525.813 41.7168 526.24 41.2368C526.667 40.7568 527.213 40.5035 527.88 40.4768C528.547 40.4502 529.12 40.6635 529.6 41.1168C530.08 41.5435 530.333 42.0902 530.36 42.7568C530.413 44.1168 530.373 45.6368 530.24 47.3168C530.827 47.2102 531.387 47.1168 531.92 47.0368C532.48 46.9302 532.987 46.8235 533.44 46.7168C534.107 46.5835 534.707 46.6902 535.24 47.0368C535.8 47.3835 536.147 47.8768 536.28 48.5168C536.413 49.1835 536.293 49.7835 535.92 50.3168C535.573 50.8502 535.08 51.1835 534.44 51.3168C533.773 51.4502 533.04 51.5835 532.24 51.7168C531.44 51.8502 530.587 51.9835 529.68 52.1168C529.307 54.5435 528.8 57.0635 528.16 59.6768C527.52 62.2635 526.747 64.7568 525.84 67.1568C524.933 69.5302 523.907 71.6368 522.76 73.4768C522.413 74.0368 521.92 74.3968 521.28 74.5568C520.64 74.7168 520.04 74.6235 519.48 74.2768ZM547.32 73.3968C543.347 74.3035 539.933 74.3302 537.08 73.4768C534.253 72.6235 532.24 71.0502 531.04 68.7568C530.747 68.1702 530.68 67.5702 530.84 66.9568C531.027 66.3168 531.413 65.8368 532 65.5168C532.587 65.1968 533.187 65.1302 533.8 65.3168C534.44 65.5035 534.92 65.8902 535.24 66.4768C536.013 67.8902 537.347 68.7702 539.24 69.1168C541.133 69.4635 543.507 69.3302 546.36 68.7168C547 68.5835 547.6 68.7035 548.16 69.0768C548.72 69.4235 549.067 69.9168 549.2 70.5568C549.333 71.2235 549.213 71.8368 548.84 72.3968C548.493 72.9302 547.987 73.2635 547.32 73.3968ZM545.4 58.1168C544.493 57.9035 543.453 57.7568 542.28 57.6768C541.107 57.5968 539.92 57.5835 538.72 57.6368C537.547 57.6635 536.453 57.7702 535.44 57.9568C534.8 58.0635 534.213 57.9435 533.68 57.5968C533.147 57.2235 532.813 56.7302 532.68 56.1168C532.573 55.4768 532.693 54.8902 533.04 54.3568C533.413 53.7968 533.92 53.4635 534.56 53.3568C535.813 53.1168 537.133 52.9702 538.52 52.9168C539.933 52.8635 541.333 52.8902 542.72 52.9968C544.107 53.1035 545.373 53.2902 546.52 53.5568C547.133 53.6902 547.6 54.0368 547.92 54.5968C548.267 55.1568 548.373 55.7568 548.24 56.3968C548.08 57.0102 547.72 57.4902 547.16 57.8368C546.6 58.1568 546.013 58.2502 545.4 58.1168ZM548.24 50.3568C547.893 50.6768 547.467 50.8235 546.96 50.7968C546.48 50.7702 546.08 50.5835 545.76 50.2368C545.44 49.8635 545.027 49.4102 544.52 48.8768C544.04 48.3435 543.6 47.8768 543.2 47.4768C542.933 47.2102 542.787 46.8635 542.76 46.4368C542.76 46.0102 542.92 45.6235 543.24 45.2768C543.533 44.9835 543.893 44.8368 544.32 44.8368C544.747 44.8102 545.133 44.9302 545.48 45.1968C545.907 45.4902 546.4 45.9035 546.96 46.4368C547.52 46.9435 547.987 47.4235 548.36 47.8768C548.68 48.2235 548.827 48.6368 548.8 49.1168C548.773 49.5702 548.587 49.9835 548.24 50.3568ZM549.36 46.7168C549.013 46.3435 548.573 45.9168 548.04 45.4368C547.507 44.9302 547.027 44.5035 546.6 44.1568C546.333 43.8902 546.173 43.5435 546.12 43.1168C546.067 42.6902 546.187 42.3035 546.48 41.9568C546.747 41.6368 547.093 41.4635 547.52 41.4368C547.947 41.3835 548.333 41.4768 548.68 41.7168C549.133 41.9835 549.653 42.3568 550.24 42.8368C550.853 43.3168 551.36 43.7568 551.76 44.1568C552.107 44.5035 552.28 44.9168 552.28 45.3968C552.307 45.8502 552.147 46.2635 551.8 46.6368C551.507 46.9835 551.107 47.1702 550.6 47.1968C550.12 47.2235 549.707 47.0635 549.36 46.7168Z" fill="#070E50"/>
<path d="M492.52 74.877C492.04 74.4236 491.773 73.8636 491.72 73.197C491.693 72.5303 491.92 71.957 492.4 71.477C494.427 69.4236 496.013 66.837 497.16 63.717C498.333 60.597 498.92 57.197 498.92 53.517C498.92 51.437 498.587 49.9303 497.92 48.997C497.253 48.0636 496.266 47.597 494.96 47.597C493.893 47.597 492.907 48.037 492 48.917C491.093 49.7703 490.413 51.0503 489.96 52.757C489.507 54.4636 489.387 56.6103 489.6 59.197C489.653 59.8103 489.48 60.3703 489.08 60.877C488.706 61.357 488.213 61.6236 487.6 61.677C486.96 61.7303 486.4 61.5703 485.92 61.197C485.467 60.8236 485.186 60.3303 485.08 59.717C484.893 58.3303 484.773 56.8103 484.72 55.157C484.667 53.477 484.653 51.8103 484.68 50.157C484.733 48.477 484.813 46.9303 484.92 45.517C485.027 44.077 485.133 42.8903 485.24 41.957C485.32 41.317 485.613 40.797 486.12 40.397C486.627 39.997 487.2 39.837 487.84 39.917C488.507 39.997 489.027 40.277 489.4 40.757C489.8 41.237 489.947 41.8236 489.84 42.517C489.787 42.997 489.707 43.6103 489.6 44.357C489.52 45.1036 489.453 45.8103 489.4 46.477C490.013 45.437 490.84 44.5703 491.88 43.877C492.92 43.157 494 42.797 495.12 42.797C497.973 42.797 500.106 43.7303 501.52 45.597C502.933 47.437 503.64 50.077 503.64 53.517C503.64 56.2636 503.347 58.9436 502.76 61.557C502.2 64.1436 501.347 66.5703 500.2 68.837C499.08 71.077 497.667 73.0636 495.96 74.797C495.507 75.277 494.933 75.517 494.24 75.517C493.573 75.5436 493 75.3303 492.52 74.877Z" fill="#070E50"/>
<path d="M456 75.2773C452.853 75.2773 450.373 74.4506 448.56 72.7973C446.747 71.144 445.84 68.784 445.84 65.7173C445.84 65.3973 445.88 64.944 445.96 64.3573C446.04 63.7706 446.133 63.0906 446.24 62.3173C445.493 62.184 444.773 62.0373 444.08 61.8773C443.413 61.7173 442.8 61.5706 442.24 61.4373C441.6 61.2506 441.12 60.864 440.8 60.2773C440.507 59.6906 440.453 59.0906 440.64 58.4773C440.853 57.864 441.24 57.3973 441.8 57.0773C442.387 56.7573 442.987 56.6906 443.6 56.8773C444.533 57.1706 445.693 57.4373 447.08 57.6773C447.213 56.904 447.36 56.1173 447.52 55.3173C447.68 54.5173 447.827 53.704 447.96 52.8773C447.24 52.744 446.573 52.6106 445.96 52.4773C445.347 52.344 444.84 52.224 444.44 52.1173C443.827 51.9306 443.36 51.5573 443.04 50.9973C442.72 50.4106 442.653 49.8106 442.84 49.1973C443.027 48.5573 443.4 48.0773 443.96 47.7573C444.52 47.4373 445.12 47.3706 445.76 47.5573C446.08 47.6373 446.507 47.744 447.04 47.8773C447.573 47.984 448.173 48.104 448.84 48.2373C449.053 46.984 449.24 45.8506 449.4 44.8373C449.587 43.7973 449.693 42.9573 449.72 42.3173C449.773 41.6506 450.067 41.1173 450.6 40.7173C451.16 40.3173 451.76 40.1573 452.4 40.2373C453.067 40.3173 453.6 40.624 454 41.1573C454.4 41.664 454.56 42.2506 454.48 42.9173C454.4 43.584 454.267 44.464 454.08 45.5573C453.92 46.624 453.707 47.7973 453.44 49.0773C453.867 49.1573 454.253 49.224 454.6 49.2773C454.973 49.304 455.307 49.344 455.6 49.3973C456.24 49.504 456.76 49.8106 457.16 50.3173C457.56 50.824 457.72 51.3973 457.64 52.0373C457.56 52.704 457.253 53.2373 456.72 53.6373C456.213 54.0106 455.64 54.1573 455 54.0773C454.68 54.0506 454.307 54.0106 453.88 53.9573C453.453 53.8773 453.013 53.8106 452.56 53.7573C452.4 54.5306 452.24 55.304 452.08 56.0773C451.947 56.8506 451.813 57.6106 451.68 58.3573C452.213 58.4106 452.72 58.464 453.2 58.5173C453.707 58.5706 454.173 58.6106 454.6 58.6373C455.24 58.664 455.773 58.9306 456.2 59.4373C456.653 59.9173 456.867 60.4773 456.84 61.1173C456.813 61.784 456.547 62.3306 456.04 62.7573C455.56 63.184 454.987 63.384 454.32 63.3573C453.787 63.304 453.227 63.264 452.64 63.2373C452.053 63.184 451.453 63.1173 450.84 63.0373C450.627 64.3173 450.52 65.2106 450.52 65.7173C450.52 68.9173 452.347 70.5173 456 70.5173C457.52 70.5173 458.787 70.1706 459.8 69.4773C460.813 68.7573 461.427 67.824 461.64 66.6773C462.04 64.6506 461.227 62.704 459.2 60.8373C458.72 60.384 458.493 59.824 458.52 59.1573C458.573 58.464 458.853 57.8906 459.36 57.4373C459.84 56.984 460.4 56.784 461.04 56.8373C461.68 56.8906 462.24 57.144 462.72 57.5973C464.213 59.0106 465.253 60.5573 465.84 62.2373C466.427 63.8906 466.573 65.5573 466.28 67.2373C465.88 69.664 464.76 71.6106 462.92 73.0773C461.08 74.544 458.773 75.2773 456 75.2773Z" fill="#070E50"/>
<path d="M403.36 76.437C402.747 76.437 402.24 76.2503 401.84 75.877C401.44 75.5036 401.24 74.9836 401.24 74.317V61.797C400.813 62.7036 400.4 63.557 400 64.357C399.6 65.1303 399.213 65.8103 398.84 66.397C398.573 66.877 398.147 67.197 397.56 67.357C396.973 67.517 396.44 67.4636 395.96 67.197C395.453 66.9036 395.147 66.477 395.04 65.917C394.933 65.357 395.053 64.837 395.4 64.357C395.853 63.717 396.36 62.917 396.92 61.957C397.48 60.997 398.04 59.9836 398.6 58.917C399.16 57.8236 399.667 56.757 400.12 55.717C400.6 54.677 400.973 53.757 401.24 52.957H397C396.387 52.957 395.893 52.7836 395.52 52.437C395.173 52.0636 395 51.597 395 51.037C395 50.5036 395.173 50.0503 395.52 49.677C395.893 49.3036 396.387 49.117 397 49.117H401.24V45.757C400.733 45.8636 400.213 45.9703 399.68 46.077C399.173 46.1836 398.68 46.277 398.2 46.357C397.56 46.4636 397.013 46.3836 396.56 46.117C396.133 45.8503 395.853 45.4236 395.72 44.837C395.613 44.3036 395.693 43.837 395.96 43.437C396.253 43.0103 396.707 42.757 397.32 42.677C398.28 42.5436 399.333 42.3436 400.48 42.077C401.627 41.8103 402.747 41.517 403.84 41.197C404.96 40.8503 405.933 40.5036 406.76 40.157C407.347 39.917 407.893 39.917 408.4 40.157C408.907 40.3703 409.253 40.717 409.44 41.197C409.627 41.7036 409.627 42.197 409.44 42.677C409.28 43.1303 408.92 43.4636 408.36 43.677C407.933 43.8636 407.467 44.037 406.96 44.197C406.48 44.357 405.973 44.517 405.44 44.677V49.117H407.88C408.493 49.117 408.973 49.3036 409.32 49.677C409.667 50.0503 409.84 50.5036 409.84 51.037V51.237C410.107 50.7303 410.547 50.477 411.16 50.477H418.64V49.117H413.2C412.773 49.117 412.44 48.9703 412.2 48.677C411.987 48.3836 411.88 48.0503 411.88 47.677C411.88 47.3036 411.987 46.9836 412.2 46.717C412.44 46.4236 412.773 46.277 413.2 46.277H418.64V44.957H411.6C411.147 44.957 410.787 44.8103 410.52 44.517C410.28 44.197 410.16 43.8503 410.16 43.477C410.16 43.077 410.28 42.7303 410.52 42.437C410.787 42.1436 411.147 41.997 411.6 41.997H418.64V41.077C418.64 40.3836 418.853 39.8503 419.28 39.477C419.707 39.077 420.227 38.877 420.84 38.877C421.48 38.877 422 39.077 422.4 39.477C422.827 39.8503 423.04 40.3836 423.04 41.077V41.997H430.4C430.853 41.997 431.2 42.1436 431.44 42.437C431.707 42.7303 431.84 43.077 431.84 43.477C431.84 43.8503 431.707 44.197 431.44 44.517C431.2 44.8103 430.853 44.957 430.4 44.957H423.04V46.277H428.8C429.227 46.277 429.547 46.4236 429.76 46.717C430 46.9836 430.12 47.3036 430.12 47.677C430.12 48.0503 430 48.3836 429.76 48.677C429.547 48.9703 429.227 49.117 428.8 49.117H423.04V50.477H431.04C431.52 50.477 431.893 50.637 432.16 50.957C432.427 51.2503 432.56 51.597 432.56 51.997C432.56 52.4236 432.427 52.797 432.16 53.117C431.893 53.4103 431.52 53.557 431.04 53.557H411.16C410.68 53.557 410.307 53.4103 410.04 53.117C409.773 52.797 409.64 52.4236 409.64 51.997V51.917C409.347 52.6103 408.76 52.957 407.88 52.957H405.44V55.197C405.84 55.6503 406.347 56.2103 406.96 56.877C407.573 57.517 408.187 58.1436 408.8 58.757C409.413 59.3436 409.907 59.797 410.28 60.117C410.707 60.4636 410.933 60.917 410.96 61.477C410.987 62.0103 410.813 62.477 410.44 62.877C410.093 63.3036 409.653 63.517 409.12 63.517C408.587 63.517 408.133 63.3303 407.76 62.957C407.467 62.6636 407.107 62.3036 406.68 61.877C406.28 61.4236 405.867 60.957 405.44 60.477V74.317C405.44 74.9836 405.24 75.5036 404.84 75.877C404.467 76.2503 403.973 76.437 403.36 76.437ZM412.44 76.077C411.853 76.317 411.28 76.357 410.72 76.197C410.16 76.0636 409.747 75.7303 409.48 75.197C409.213 74.6103 409.187 74.0503 409.4 73.517C409.613 73.0103 409.987 72.6503 410.52 72.437C411.027 72.2503 411.627 71.997 412.32 71.677C413.013 71.357 413.72 71.0236 414.44 70.677C415.187 70.3303 415.827 70.0103 416.36 69.717C414.653 69.5836 413.48 69.1436 412.84 68.397C412.2 67.6236 411.88 66.4503 411.88 64.877V59.557C411.88 57.7703 412.28 56.517 413.08 55.797C413.907 55.0503 415.427 54.677 417.64 54.677H424.2C426.413 54.677 427.92 55.0503 428.72 55.797C429.547 56.517 429.96 57.7703 429.96 59.557V64.877C429.96 66.477 429.64 67.6503 429 68.397C428.36 69.1436 427.187 69.5836 425.48 69.717C426.04 70.0103 426.68 70.3303 427.4 70.677C428.12 71.0236 428.827 71.357 429.52 71.677C430.24 71.997 430.84 72.2503 431.32 72.437C431.853 72.6503 432.227 73.0103 432.44 73.517C432.653 74.0503 432.613 74.6103 432.32 75.197C432.053 75.7303 431.64 76.0636 431.08 76.197C430.547 76.357 429.987 76.317 429.4 76.077C428.813 75.837 428.133 75.5303 427.36 75.157C426.587 74.8103 425.813 74.4236 425.04 73.997C424.267 73.597 423.6 73.2236 423.04 72.877C422.587 72.5836 422.293 72.1836 422.16 71.677C422.053 71.1703 422.133 70.677 422.4 70.197C422.48 70.037 422.573 69.9036 422.68 69.797H419.12C419.173 69.8503 419.227 69.917 419.28 69.997C419.36 70.0503 419.413 70.117 419.44 70.197C419.707 70.677 419.773 71.1703 419.64 71.677C419.533 72.1836 419.253 72.5836 418.8 72.877C418.24 73.2236 417.573 73.597 416.8 73.997C416.027 74.4236 415.253 74.8103 414.48 75.157C413.707 75.5303 413.027 75.837 412.44 76.077ZM418.6 66.917H423.24C424.173 66.917 424.787 66.837 425.08 66.677C425.4 66.4903 425.573 66.0636 425.6 65.397H416.24C416.293 66.0636 416.467 66.4903 416.76 66.677C417.08 66.837 417.693 66.917 418.6 66.917ZM416.2 62.877H425.6V61.517H416.2V62.877ZM416.24 58.957H425.6C425.573 58.3436 425.4 57.957 425.08 57.797C424.787 57.6103 424.173 57.517 423.24 57.517H418.6C417.693 57.517 417.08 57.6103 416.76 57.797C416.467 57.957 416.293 58.3436 416.24 58.957Z" fill="#070E50"/>
<path d="M358.44 76.0369C357.667 76.1969 357.013 76.1569 356.48 75.9169C355.947 75.6769 355.573 75.2103 355.36 74.5169C355.173 73.8769 355.24 73.3036 355.56 72.7969C355.88 72.2636 356.373 71.9436 357.04 71.8369C359.76 71.2769 362.08 70.2903 364 68.8769C365.947 67.4369 367.173 65.5969 367.68 63.3569C366.187 63.1436 365.013 62.7703 364.16 62.2369C363.307 61.6769 362.693 60.8769 362.32 59.8369C361.973 58.7703 361.8 57.4236 361.8 55.7969V48.1569C361.8 46.1569 362.067 44.5969 362.6 43.4769C363.16 42.3303 364.133 41.5303 365.52 41.0769C366.907 40.5969 368.827 40.3569 371.28 40.3569H376.44C378.92 40.3569 380.84 40.5969 382.2 41.0769C383.587 41.5303 384.547 42.3303 385.08 43.4769C385.64 44.5969 385.92 46.1569 385.92 48.1569V55.7969C385.92 58.1703 385.52 59.9436 384.72 61.1169C383.92 62.2636 382.427 62.9969 380.24 63.3169V68.6369C380.24 69.5436 380.493 70.1703 381 70.5169C381.507 70.8636 382.547 71.0369 384.12 71.0369C385.507 71.0369 386.493 70.8369 387.08 70.4369C387.667 70.0103 388.12 69.1969 388.44 67.9969C388.6 67.3836 388.973 66.9169 389.56 66.5969C390.147 66.2503 390.813 66.1836 391.56 66.3969C392.2 66.5836 392.653 66.9436 392.92 67.4769C393.213 67.9836 393.293 68.5836 393.16 69.2769C392.707 71.7036 391.733 73.3569 390.24 74.2369C388.773 75.1436 386.707 75.5969 384.04 75.5969C381.96 75.5969 380.28 75.3969 379 74.9969C377.747 74.6236 376.827 73.9703 376.24 73.0369C375.653 72.1303 375.36 70.8636 375.36 69.2369V63.5569H372.36C371.907 66.7836 370.44 69.4769 367.96 71.6369C365.48 73.7969 362.307 75.2636 358.44 76.0369ZM366.84 53.1969H380.88V50.7169H366.84V53.1969ZM371.28 59.4369H376.44C377.587 59.4369 378.467 59.3703 379.08 59.2369C379.72 59.0769 380.16 58.8103 380.4 58.4369C380.667 58.0369 380.813 57.4769 380.84 56.7569H366.84C366.893 57.4769 367.04 58.0369 367.28 58.4369C367.547 58.8103 367.987 59.0769 368.6 59.2369C369.24 59.3703 370.133 59.4369 371.28 59.4369ZM366.84 47.1569H380.84C380.813 46.4103 380.667 45.8503 380.4 45.4769C380.16 45.1036 379.72 44.8503 379.08 44.7169C378.467 44.5836 377.587 44.5169 376.44 44.5169H371.28C370.16 44.5169 369.28 44.5836 368.64 44.7169C368.027 44.8503 367.587 45.1036 367.32 45.4769C367.053 45.8503 366.893 46.4103 366.84 47.1569Z" fill="#070E50"/>
<path d="M330.08 75.797C329.44 75.9837 328.813 75.9703 328.2 75.757C327.613 75.5703 327.173 75.1837 326.88 74.597C326.613 73.9837 326.587 73.357 326.8 72.717C327.013 72.077 327.44 71.637 328.08 71.397C330.053 70.6237 331.6 69.7703 332.72 68.837C333.867 67.9037 334.667 66.8237 335.12 65.597C334.213 66.0237 333.32 66.237 332.44 66.237C330.333 66.237 328.613 65.7037 327.28 64.637C325.947 63.5437 325.28 61.9437 325.28 59.837C325.28 58.4237 325.6 57.2237 326.24 56.237C326.88 55.2237 327.747 54.4503 328.84 53.917C329.96 53.3837 331.213 53.117 332.6 53.117C332.787 53.117 332.96 53.117 333.12 53.117C333.307 53.117 333.48 53.1303 333.64 53.157C333.587 52.757 333.533 52.3437 333.48 51.917C333.453 51.4903 333.413 51.0637 333.36 50.637C330.693 50.7437 328.053 50.8903 325.44 51.077C322.853 51.2637 320.453 51.4637 318.24 51.677C317.573 51.757 316.987 51.597 316.48 51.197C315.973 50.797 315.693 50.277 315.64 49.637C315.56 48.997 315.72 48.4237 316.12 47.917C316.547 47.4103 317.08 47.1303 317.72 47.077C319.987 46.8903 322.467 46.7303 325.16 46.597C327.853 46.437 330.573 46.3037 333.32 46.197V42.277C333.32 41.6103 333.547 41.0503 334 40.597C334.48 40.1437 335.053 39.917 335.72 39.917C336.387 39.917 336.947 40.1437 337.4 40.597C337.853 41.0503 338.08 41.6103 338.08 42.277V46.037C339.547 45.9837 340.973 45.9437 342.36 45.917C343.747 45.8903 345.08 45.877 346.36 45.877C346.333 45.8237 346.293 45.757 346.24 45.677C346.213 45.597 346.173 45.517 346.12 45.437C345.933 44.9837 345.693 44.437 345.4 43.797C345.133 43.157 344.867 42.5837 344.6 42.077C344.44 41.757 344.413 41.397 344.52 40.997C344.653 40.597 344.933 40.3037 345.36 40.117C345.733 39.9037 346.107 39.8637 346.48 39.997C346.853 40.1037 347.16 40.3437 347.4 40.717C347.693 41.117 348.027 41.6503 348.4 42.317C348.773 42.957 349.053 43.5437 349.24 44.077C349.533 44.717 349.453 45.3037 349 45.837H349.96C350.6 45.837 351.147 46.077 351.6 46.557C352.053 47.0103 352.267 47.5703 352.24 48.237C352.213 48.877 351.96 49.4237 351.48 49.877C351.027 50.3037 350.467 50.5037 349.8 50.477C348.147 50.397 346.32 50.3703 344.32 50.397C342.32 50.397 340.253 50.4237 338.12 50.477C338.147 51.3303 338.187 52.197 338.24 53.077C338.293 53.957 338.36 54.7837 338.44 55.557C339.693 57.1037 340.32 59.1703 340.32 61.757C340.32 65.0903 339.44 67.997 337.68 70.477C335.947 72.9303 333.413 74.7037 330.08 75.797ZM352.8 44.077C352.427 44.317 352.013 44.3703 351.56 44.237C351.107 44.1037 350.773 43.8237 350.56 43.397C350.347 42.9437 350.067 42.4103 349.72 41.797C349.4 41.1837 349.093 40.6237 348.8 40.117C348.613 39.8237 348.56 39.477 348.64 39.077C348.747 38.6503 348.987 38.3303 349.36 38.117C349.733 37.9037 350.107 37.837 350.48 37.917C350.88 37.997 351.213 38.2103 351.48 38.557C351.8 38.9303 352.16 39.437 352.56 40.077C352.96 40.6903 353.293 41.2637 353.56 41.797C353.773 42.2237 353.8 42.6503 353.64 43.077C353.507 43.5037 353.227 43.837 352.8 44.077ZM332.44 62.117C333.213 62.0903 333.813 61.8903 334.24 61.517C334.693 61.117 334.92 60.5437 334.92 59.797C334.92 59.5837 334.907 59.3437 334.88 59.077C334.853 58.8103 334.813 58.5437 334.76 58.277C334.2 57.637 333.453 57.317 332.52 57.317C331.773 57.317 331.133 57.5303 330.6 57.957C330.093 58.3837 329.84 58.9837 329.84 59.757C329.84 60.5303 330.08 61.1303 330.56 61.557C331.067 61.957 331.693 62.1437 332.44 62.117Z" fill="#070E50"/>
<path d="M302.2 75.2772C299.24 75.2772 297.133 74.6638 295.88 73.4372C294.653 72.2105 294.253 70.0905 294.68 67.0772C294.787 66.3038 294.68 65.7438 294.36 65.3972C294.04 65.0238 293.613 64.8772 293.08 64.9572C292.573 65.0105 292.067 65.2905 291.56 65.7972C290.68 66.6505 289.693 67.5972 288.6 68.6372C287.507 69.6772 286.453 70.6638 285.44 71.5972C284.427 72.5305 283.6 73.2905 282.96 73.8772C282.453 74.3038 281.867 74.5172 281.2 74.5172C280.56 74.5172 280.013 74.2772 279.56 73.7972C279.107 73.3172 278.88 72.7438 278.88 72.0772C278.88 71.3838 279.133 70.8238 279.64 70.3972C280.36 69.7838 281.24 69.0238 282.28 68.1172C283.32 67.1838 284.413 66.1838 285.56 65.1172C286.733 64.0238 287.867 62.9438 288.96 61.8772C290.08 60.8105 291.093 59.8372 292 58.9572C292.933 58.0505 293.653 57.3172 294.16 56.7572C295.093 55.7438 295.387 54.9705 295.04 54.4372C294.72 53.9038 293.933 53.7438 292.68 53.9572C292.547 53.9838 292.213 54.0372 291.68 54.1172C291.147 54.1972 290.52 54.2905 289.8 54.3972C289.08 54.5038 288.36 54.6238 287.64 54.7572C286.947 54.8638 286.347 54.9572 285.84 55.0372C285.333 55.1172 285.013 55.1705 284.88 55.1972C284.213 55.3038 283.613 55.1705 283.08 54.7972C282.573 54.4238 282.253 53.9172 282.12 53.2772C282.013 52.6105 282.147 52.0238 282.52 51.5172C282.92 50.9838 283.44 50.6638 284.08 50.5572C284.213 50.5305 284.547 50.4772 285.08 50.3972C285.64 50.3172 286.28 50.2238 287 50.1172C287.747 50.0105 288.493 49.9172 289.24 49.8372C290.013 49.7305 290.693 49.6372 291.28 49.5572C291.867 49.4772 292.28 49.4238 292.52 49.3972C294.333 49.1838 295.827 49.3172 297 49.7972C298.2 50.2772 299.053 51.0105 299.56 51.9972C300.093 52.9572 300.227 54.0772 299.96 55.3572C299.693 56.6105 299 57.9172 297.88 59.2772C297.667 59.5438 297.387 59.8638 297.04 60.2372C296.72 60.5838 296.373 60.9438 296 61.3172C297.067 61.4505 297.933 61.9572 298.6 62.8372C299.267 63.6905 299.493 65.0638 299.28 66.9572C299.147 68.4238 299.267 69.3972 299.64 69.8772C300.04 70.3572 300.84 70.5972 302.04 70.5972C302.68 70.5972 303.48 70.5305 304.44 70.3972C305.4 70.2638 306.4 70.0905 307.44 69.8772C308.08 69.7438 308.68 69.8505 309.24 70.1972C309.827 70.5438 310.173 71.0638 310.28 71.7572C310.413 72.4505 310.267 73.0638 309.84 73.5972C309.44 74.1305 308.92 74.4638 308.28 74.5972C305.933 75.0505 303.907 75.2772 302.2 75.2772ZM297.2 47.4372C296.08 47.3305 294.867 47.1438 293.56 46.8772C292.253 46.6105 291 46.3038 289.8 45.9572C288.6 45.6105 287.6 45.2638 286.8 44.9172C286.187 44.6505 285.733 44.2238 285.44 43.6372C285.173 43.0505 285.16 42.4505 285.4 41.8372C285.64 41.2238 286.067 40.7838 286.68 40.5172C287.293 40.2505 287.907 40.2372 288.52 40.4772C289.827 40.9572 291.28 41.3972 292.88 41.7972C294.507 42.1972 296.093 42.4905 297.64 42.6772C298.333 42.7572 298.88 43.0505 299.28 43.5572C299.68 44.0372 299.853 44.6105 299.8 45.2772C299.747 45.9438 299.467 46.4905 298.96 46.9172C298.453 47.3172 297.867 47.4905 297.2 47.4372Z" fill="#070E50"/>
<path d="M260.32 75.4369C259.68 75.6236 259.067 75.5703 258.48 75.2769C257.894 74.9836 257.494 74.5169 257.28 73.8769C257.094 73.2636 257.16 72.6769 257.48 72.1169C257.8 71.5303 258.28 71.1436 258.92 70.9569C261.134 70.2369 262.747 69.2369 263.76 67.9569C264.8 66.6769 265.32 65.1836 265.32 63.4769C265.32 62.0103 264.867 60.7303 263.96 59.6369C263.08 58.5169 261.774 57.7169 260.04 57.2369C259.614 59.2636 258.974 61.1969 258.12 63.0369C257.294 64.8503 256.32 66.4903 255.2 67.9569C255.36 68.3036 255.534 68.5969 255.72 68.8369C256.094 69.3969 256.214 69.9969 256.08 70.6369C255.947 71.2769 255.6 71.7836 255.04 72.1569C254.507 72.5036 253.92 72.6103 253.28 72.4769C252.64 72.3436 252.134 71.9969 251.76 71.4369C250.587 72.3969 249.347 73.1303 248.04 73.6369C246.76 74.1703 245.454 74.4369 244.12 74.4369C242.254 74.4369 240.72 73.9303 239.52 72.9169C238.32 71.8769 237.72 70.1703 237.72 67.7969C237.72 65.7703 238.134 63.9169 238.96 62.2369C239.814 60.5303 240.974 59.0236 242.44 57.7169C243.907 56.3836 245.547 55.2903 247.36 54.4369C247.334 53.6903 247.334 52.9436 247.36 52.1969C247.414 51.4503 247.467 50.6903 247.52 49.9169C245.094 50.0503 242.907 50.0903 240.96 50.0369C240.294 50.0103 239.747 49.7569 239.32 49.2769C238.894 48.7969 238.694 48.2369 238.72 47.5969C238.774 46.9569 239.027 46.4236 239.48 45.9969C239.96 45.5436 240.52 45.3303 241.16 45.3569C242.174 45.3836 243.267 45.3969 244.44 45.3969C245.64 45.3703 246.854 45.3303 248.08 45.2769C248.187 44.6903 248.294 44.1169 248.4 43.5569C248.507 42.9703 248.627 42.3836 248.76 41.7969C248.894 41.1303 249.227 40.6236 249.76 40.2769C250.32 39.9303 250.92 39.8236 251.56 39.9569C252.2 40.0903 252.694 40.4369 253.04 40.9969C253.387 41.5303 253.494 42.1303 253.36 42.7969C253.28 43.1436 253.2 43.5036 253.12 43.8769C253.067 44.2236 253.014 44.5703 252.96 44.9169C254.107 44.8103 255.2 44.6903 256.24 44.5569C257.307 44.4236 258.294 44.2903 259.2 44.1569C259.84 44.0236 260.427 44.1436 260.96 44.5169C261.494 44.8903 261.814 45.3969 261.92 46.0369C262.027 46.6503 261.894 47.2369 261.52 47.7969C261.147 48.3303 260.654 48.6503 260.04 48.7569C258.894 48.9169 257.654 49.0769 256.32 49.2369C255.014 49.3703 253.654 49.4903 252.24 49.5969C252.134 50.7169 252.054 51.8236 252 52.9169C253.414 52.5969 254.854 52.4369 256.32 52.4369C259.254 52.4369 261.734 52.9169 263.76 53.8769C265.787 54.8103 267.32 56.1036 268.36 57.7569C269.427 59.4103 269.96 61.3036 269.96 63.4369C269.96 65.2236 269.627 66.9169 268.96 68.5169C268.294 70.1169 267.24 71.5169 265.8 72.7169C264.387 73.8903 262.56 74.7969 260.32 75.4369ZM244.4 69.9169C245.254 69.9169 246.134 69.6903 247.04 69.2369C247.947 68.7836 248.827 68.1703 249.68 67.3969C248.667 64.9703 247.974 62.2103 247.6 59.1169C245.974 60.1303 244.68 61.3969 243.72 62.9169C242.787 64.4103 242.32 66.0236 242.32 67.7569C242.32 68.5303 242.48 69.0903 242.8 69.4369C243.147 69.7569 243.68 69.9169 244.4 69.9169ZM253.08 63.1569C253.64 62.1969 254.134 61.1836 254.56 60.1169C255.014 59.0503 255.374 57.9436 255.64 56.7969C255.027 56.8236 254.414 56.8769 253.8 56.9569C253.187 57.0369 252.6 57.1569 252.04 57.3169C252.12 58.3569 252.24 59.3569 252.4 60.3169C252.587 61.2769 252.814 62.2236 253.08 63.1569Z" fill="#070E50"/>
<path d="M212.52 74.877C212.04 74.4236 211.773 73.8636 211.72 73.197C211.693 72.5303 211.92 71.957 212.4 71.477C214.427 69.4236 216.013 66.837 217.16 63.717C218.333 60.597 218.92 57.197 218.92 53.517C218.92 51.437 218.587 49.9303 217.92 48.997C217.253 48.0636 216.267 47.597 214.96 47.597C213.893 47.597 212.907 48.037 212 48.917C211.093 49.7703 210.413 51.0503 209.96 52.757C209.507 54.4636 209.387 56.6103 209.6 59.197C209.653 59.8103 209.48 60.3703 209.08 60.877C208.707 61.357 208.213 61.6236 207.6 61.677C206.96 61.7303 206.4 61.5703 205.92 61.197C205.467 60.8236 205.187 60.3303 205.08 59.717C204.893 58.3303 204.773 56.8103 204.72 55.157C204.667 53.477 204.653 51.8103 204.68 50.157C204.733 48.477 204.813 46.9303 204.92 45.517C205.027 44.077 205.133 42.8903 205.24 41.957C205.32 41.317 205.613 40.797 206.12 40.397C206.627 39.997 207.2 39.837 207.84 39.917C208.507 39.997 209.027 40.277 209.4 40.757C209.8 41.237 209.947 41.8236 209.84 42.517C209.787 42.997 209.707 43.6103 209.6 44.357C209.52 45.1036 209.453 45.8103 209.4 46.477C210.013 45.437 210.84 44.5703 211.88 43.877C212.92 43.157 214 42.797 215.12 42.797C217.973 42.797 220.107 43.7303 221.52 45.597C222.933 47.437 223.64 50.077 223.64 53.517C223.64 56.2636 223.347 58.9436 222.76 61.557C222.2 64.1436 221.347 66.5703 220.2 68.837C219.08 71.077 217.667 73.0636 215.96 74.797C215.507 75.277 214.933 75.517 214.24 75.517C213.573 75.5436 213 75.3303 212.52 74.877Z" fill="#070E50"/>
<path d="M183.96 74.1571C179.667 74.7438 175.933 74.7971 172.76 74.3171C169.587 73.8638 167.133 72.8504 165.4 71.2771C163.693 69.7038 162.84 67.5704 162.84 64.8771C162.84 62.5304 163.427 60.5304 164.6 58.8771C165.8 57.1971 167.453 55.7438 169.56 54.5171C169.373 53.4771 169.107 52.2904 168.76 50.9571C168.413 49.6238 168.053 48.3038 167.68 46.9971C167.307 45.6638 166.973 44.5438 166.68 43.6371C166.493 43.0238 166.56 42.4238 166.88 41.8371C167.227 41.2504 167.707 40.8638 168.32 40.6771C168.987 40.4904 169.6 40.5704 170.16 40.9171C170.747 41.2371 171.133 41.7171 171.32 42.3571C171.773 43.9038 172.213 45.5838 172.64 47.3971C173.093 49.1838 173.467 50.9038 173.76 52.5571C175.04 52.0504 176.4 51.5971 177.84 51.1971C179.28 50.7704 180.773 50.3838 182.32 50.0371C182.96 49.8771 183.56 49.9704 184.12 50.3171C184.68 50.6638 185.027 51.1571 185.16 51.7971C185.293 52.4638 185.187 53.0771 184.84 53.6371C184.493 54.1704 184 54.5038 183.36 54.6371C180.027 55.3304 177.32 56.0771 175.24 56.8771C173.16 57.6504 171.56 58.4771 170.44 59.3571C169.347 60.2104 168.587 61.1038 168.16 62.0371C167.76 62.9438 167.56 63.8904 167.56 64.8771C167.56 66.9838 168.84 68.4771 171.4 69.3571C173.96 70.2104 177.947 70.2371 183.36 69.4371C184.027 69.3304 184.613 69.4904 185.12 69.9171C185.653 70.3171 185.96 70.8371 186.04 71.4771C186.12 72.1438 185.96 72.7304 185.56 73.2371C185.16 73.7704 184.627 74.0771 183.96 74.1571Z" fill="#070E50"/>
<defs>
<filter id="filter0_d_2048_207" x="0" y="0" width="1010" height="130" filterUnits="userSpaceOnUse" color-interpolation-filters="sRGB">
<feFlood flood-opacity="0" result="BackgroundImageFix"/>
<feColorMatrix in="SourceAlpha" type="matrix" values="0 0 0 0 0 0 0 0 0 0 0 0 0 0 0 0 0 0 127 0" result="hardAlpha"/>
<feOffset/>
<feGaussianBlur stdDeviation="2"/>
<feComposite in2="hardAlpha" operator="out"/>
<feColorMatrix type="matrix" values="0 0 0 0 0 0 0 0 0 0 0 0 0 0 0 0 0 0 0.69 0"/>
<feBlend mode="normal" in2="BackgroundImageFix" result="effect1_dropShadow_2048_207"/>
<feBlend mode="normal" in="SourceGraphic" in2="effect1_dropShadow_2048_207" result="shape"/>
</filter>
<linearGradient id="paint0_linear_2048_207" x1="505" y1="4" x2="505" y2="126" gradientUnits="userSpaceOnUse">
<stop stop-color="white"/>
<stop offset="1" stop-color="#DCDCDC"/>
</linearGradient>
</defs>
</svg>
