<svg width="1010" height="130" viewBox="0 0 1010 130" fill="none" xmlns="http://www.w3.org/2000/svg">
<g filter="url(#filter0_d_2169_594)">
<path d="M955 4C983.167 4 1006 26.8335 1006 55V58C1006 86.1665 983.167 109 955 109H518.859L505.5 126L492.141 109H55C26.8335 109 4 86.1665 4 58V55C4 26.8335 26.8335 4 55 4H955ZM1004.87 61.6777C1004.88 61.5438 1004.88 61.4096 1004.89 61.2754C1004.88 61.4096 1004.88 61.5438 1004.87 61.6777ZM1004.92 60.7676C1004.93 60.6505 1004.93 60.5333 1004.94 60.416C1004.93 60.5333 1004.93 60.6505 1004.92 60.7676ZM1004.96 59.8271C1004.97 59.7097 1004.97 59.5922 1004.98 59.4746C1004.97 59.5922 1004.97 59.7097 1004.96 59.8271ZM958.594 5.12695C958.245 5.10219 957.895 5.08202 957.545 5.06445C957.895 5.08192 958.245 5.10219 958.594 5.12695ZM957.363 5.05469C957.007 5.03811 956.649 5.02568 956.291 5.0166C956.649 5.02568 957.007 5.03822 957.363 5.05469Z" fill="url(#paint0_linear_2169_594)"/>
</g>
<path d="M905.634 68.8926C904.923 68.8926 904.284 68.6439 903.715 68.1463C903.182 67.6488 902.88 67.0446 902.808 66.3338L902.542 61.003C902.471 59.226 902.737 57.7867 903.342 56.685C903.946 55.5833 905.314 54.6415 907.447 53.8596C909.118 53.2555 910.344 52.4381 911.126 51.4074C911.943 50.3768 912.352 49.0441 912.352 47.4093C912.352 45.3125 911.748 43.6421 910.539 42.3983C909.331 41.1544 907.696 40.5325 905.634 40.5325C903.893 40.5325 902.382 41.0478 901.102 42.0784C899.858 43.0735 899.041 44.3885 898.65 46.0232C898.401 46.9828 897.832 47.7114 896.944 48.2089C896.055 48.6709 895.113 48.7775 894.118 48.5288C893.158 48.2444 892.447 47.6936 891.985 46.8762C891.523 46.0232 891.398 45.0992 891.612 44.1041C892.074 42.185 892.945 40.4792 894.224 38.9865C895.54 37.4583 897.157 36.25 899.076 35.3615C901.031 34.473 903.217 34.0288 905.634 34.0288C908.407 34.0288 910.859 34.5619 912.992 35.6281C915.125 36.6942 916.795 38.2402 918.004 40.2659C919.248 42.2561 919.87 44.6372 919.87 47.4093C919.87 50.2879 919.017 52.6691 917.311 54.5526C915.64 56.4362 913.472 57.84 910.806 58.764C909.917 59.0839 909.331 59.4393 909.047 59.8302C908.762 60.1856 908.602 60.8253 908.567 61.7493L908.407 66.3338C908.371 67.0446 908.069 67.6488 907.5 68.1463C906.967 68.6439 906.345 68.8926 905.634 68.8926ZM905.634 81.047C904.39 81.047 903.324 80.6028 902.435 79.7143C901.547 78.8258 901.102 77.7596 901.102 76.5158C901.102 75.2719 901.547 74.2057 902.435 73.3173C903.324 72.4288 904.39 71.9845 905.634 71.9845C906.878 71.9845 907.945 72.4288 908.833 73.3173C909.722 74.2057 910.166 75.2719 910.166 76.5158C910.166 77.7596 909.722 78.8258 908.833 79.7143C907.945 80.6028 906.878 81.047 905.634 81.047Z" fill="#070E50"/>
<path d="M843.624 73.5772C841.989 73.6483 840.425 73.2752 838.933 72.4578C837.44 71.6404 836.125 70.3254 834.987 68.5129C834.027 66.9137 833.21 64.8879 832.534 62.4357C831.859 59.9836 831.379 57.3359 831.095 54.4928C830.811 51.6141 830.739 48.7532 830.882 45.9101C830.953 45.0216 831.29 44.2931 831.895 43.7244C832.534 43.1203 833.299 42.8537 834.187 42.9248C835.076 42.9603 835.805 43.3157 836.373 43.991C836.978 44.6307 837.244 45.3948 837.173 46.2832C837.031 48.771 837.049 51.2054 837.226 53.5865C837.404 55.9321 837.742 58.0822 838.239 60.0369C838.737 61.956 839.359 63.5552 840.106 64.8346C840.923 66.2917 841.954 67.0203 843.198 67.0203C844.726 66.9847 846.006 65.3855 847.037 62.2225C847.321 61.4051 847.854 60.8009 848.636 60.41C849.418 59.9836 850.236 59.9125 851.089 60.1968C851.907 60.4456 852.511 60.9786 852.902 61.796C853.293 62.5779 853.346 63.3775 853.062 64.1949C852.066 67.3224 850.734 69.6502 849.063 71.1784C847.392 72.671 845.579 73.4706 843.624 73.5772ZM872.683 64.1949C871.829 64.5148 870.994 64.4792 870.177 64.0883C869.395 63.6974 868.844 63.0932 868.524 62.2758C867.991 60.9609 867.262 59.6282 866.338 58.2777C865.449 56.9272 864.436 55.6478 863.299 54.4395C862.197 53.2311 861.059 52.2183 859.886 51.4009C859.175 50.9033 858.731 50.2103 858.553 49.3218C858.376 48.4334 858.571 47.6337 859.14 46.9229C859.709 46.2122 860.402 45.8212 861.219 45.7502C862.072 45.6791 862.872 45.9101 863.619 46.4432C865.111 47.4738 866.569 48.7354 867.991 50.2281C869.448 51.7207 870.763 53.32 871.936 55.0259C873.109 56.7317 873.98 58.4021 874.549 60.0369C874.833 60.8543 874.797 61.6894 874.442 62.5424C874.087 63.3598 873.5 63.9106 872.683 64.1949Z" fill="#070E50"/>
<path d="M790.314 73.5772C788.679 73.6483 787.115 73.2752 785.622 72.4578C784.129 71.6404 782.814 70.3254 781.677 68.5129C780.717 66.9137 779.899 64.8879 779.224 62.4357C778.549 59.9836 778.069 57.3359 777.784 54.4928C777.5 51.6141 777.429 48.7532 777.571 45.9101C777.642 45.0216 777.98 44.2931 778.584 43.7244C779.224 43.1203 779.988 42.8537 780.877 42.9248C781.765 42.9603 782.494 43.3157 783.063 43.991C783.667 44.6307 783.934 45.3948 783.863 46.2832C783.72 48.771 783.738 51.2054 783.916 53.5865C784.094 55.9321 784.431 58.0822 784.929 60.0369C785.427 61.956 786.049 63.5552 786.795 64.8346C787.613 66.2917 788.643 67.0203 789.887 67.0203C791.416 66.9847 792.695 65.3855 793.726 62.2225C794.011 61.4051 794.544 60.8009 795.326 60.41C796.108 59.9836 796.925 59.9125 797.778 60.1968C798.596 60.4456 799.2 60.9786 799.591 61.796C799.982 62.5779 800.036 63.3775 799.751 64.1949C798.756 67.3224 797.423 69.6502 795.752 71.1784C794.082 72.671 792.269 73.4706 790.314 73.5772ZM819.372 64.1949C818.519 64.5148 817.684 64.4792 816.866 64.0883C816.084 63.6974 815.533 63.0932 815.213 62.2758C814.68 60.9609 813.951 59.6282 813.027 58.2777C812.139 56.9272 811.126 55.6478 809.988 54.4395C808.886 53.2311 807.749 52.2183 806.576 51.4009C805.865 50.9033 805.421 50.2103 805.243 49.3218C805.065 48.4334 805.261 47.6337 805.829 46.9229C806.398 46.2122 807.091 45.8212 807.909 45.7502C808.762 45.6791 809.562 45.9101 810.308 46.4432C811.801 47.4738 813.258 48.7354 814.68 50.2281C816.137 51.7207 817.453 53.32 818.625 55.0259C819.798 56.7317 820.669 58.4021 821.238 60.0369C821.522 60.8543 821.487 61.6894 821.131 62.5424C820.776 63.3598 820.19 63.9106 819.372 64.1949Z" fill="#070E50"/>
<path d="M748.348 80.8246C744.153 80.8246 740.848 79.7229 738.43 77.5195C736.013 75.316 734.805 72.1708 734.805 68.0838C734.805 67.6574 734.858 67.0532 734.965 66.2713C735.071 65.4895 735.196 64.5832 735.338 63.5526C734.343 63.3749 733.383 63.1794 732.459 62.9662C731.57 62.753 730.753 62.5575 730.006 62.3798C729.153 62.131 728.513 61.6157 728.087 60.8339C727.696 60.052 727.625 59.2524 727.874 58.435C728.158 57.6176 728.673 56.9956 729.42 56.5692C730.202 56.1427 731.002 56.0539 731.819 56.3026C733.063 56.6936 734.609 57.049 736.458 57.3688C736.635 56.3382 736.831 55.2898 737.044 54.2236C737.257 53.1574 737.453 52.0735 737.631 50.9718C736.671 50.7941 735.782 50.6164 734.965 50.4387C734.147 50.261 733.472 50.1011 732.939 49.9589C732.121 49.7101 731.499 49.2126 731.073 48.4663C730.646 47.6844 730.557 46.8848 730.806 46.0674C731.055 45.2145 731.553 44.5747 732.299 44.1483C733.045 43.7218 733.845 43.633 734.698 43.8817C735.125 43.9884 735.694 44.1305 736.404 44.3082C737.115 44.4504 737.915 44.6103 738.804 44.788C739.088 43.1176 739.337 41.6072 739.55 40.2568C739.799 38.8707 739.941 37.7512 739.977 36.8983C740.048 36.0098 740.439 35.2991 741.15 34.766C741.896 34.2329 742.696 34.0196 743.549 34.1263C744.438 34.2329 745.148 34.6416 745.682 35.3524C746.215 36.0276 746.428 36.8095 746.321 37.6979C746.215 38.5864 746.037 39.7592 745.788 41.2163C745.575 42.6379 745.291 44.2016 744.935 45.9075C745.504 46.0141 746.019 46.1029 746.481 46.174C746.979 46.2095 747.423 46.2629 747.814 46.3339C748.667 46.4761 749.361 46.8848 749.894 47.56C750.427 48.2353 750.64 48.9994 750.534 49.8523C750.427 50.7408 750.018 51.4516 749.307 51.9846C748.632 52.4822 747.868 52.6777 747.015 52.571C746.588 52.5355 746.09 52.4822 745.522 52.4111C744.953 52.3045 744.366 52.2156 743.762 52.1446C743.549 53.1752 743.336 54.2058 743.122 55.2365C742.945 56.2671 742.767 57.28 742.589 58.2751C743.3 58.3461 743.976 58.4172 744.615 58.4883C745.291 58.5594 745.913 58.6127 746.481 58.6482C747.335 58.6838 748.045 59.0391 748.614 59.7144C749.218 60.3541 749.503 61.1004 749.467 61.9533C749.432 62.8418 749.076 63.5704 748.401 64.139C747.761 64.7076 746.997 64.9742 746.108 64.9386C745.397 64.8676 744.651 64.8142 743.869 64.7787C743.087 64.7076 742.287 64.6188 741.47 64.5122C741.185 66.218 741.043 67.4086 741.043 68.0838C741.043 72.3485 743.478 74.4809 748.348 74.4809C750.374 74.4809 752.062 74.0189 753.413 73.0948C754.763 72.1353 755.581 70.8914 755.865 69.3632C756.398 66.6623 755.314 64.0679 752.613 61.5802C751.973 60.976 751.671 60.2297 751.707 59.3412C751.778 58.4172 752.151 57.6531 752.826 57.049C753.466 56.4448 754.212 56.1783 755.066 56.2493C755.919 56.3204 756.665 56.658 757.305 57.2622C759.295 59.1458 760.682 61.207 761.464 63.446C762.246 65.6494 762.441 67.8706 762.05 70.1096C761.517 73.3436 760.024 75.938 757.571 77.8926C755.119 79.8473 752.044 80.8246 748.348 80.8246Z" fill="#070E50"/>
<path d="M706.009 79.5112C701.815 78.9071 698.349 77.6987 695.612 75.8862C692.875 74.0382 690.832 71.817 689.481 69.2227C688.166 66.6283 687.508 63.9273 687.508 61.1198C687.508 58.2766 688.059 55.629 689.161 53.1768C690.263 50.689 691.862 48.5389 693.96 46.7264C691.827 47.0463 689.552 47.4194 687.135 47.8459C684.718 48.2368 682.372 48.6455 680.097 49.072C677.858 49.4629 675.885 49.8183 674.179 50.1382C673.29 50.2803 672.49 50.0849 671.78 49.5518C671.104 49.0187 670.695 48.3257 670.553 47.4728C670.411 46.5843 670.589 45.8024 671.086 45.1272C671.62 44.4164 672.331 43.9899 673.219 43.8478C674.357 43.6701 675.814 43.4391 677.591 43.1548C679.368 42.8349 681.359 42.4973 683.563 42.1419C685.766 41.7865 688.024 41.4133 690.334 41.0224C692.644 40.6315 694.902 40.2583 697.105 39.9029C699.345 39.512 701.388 39.1566 703.237 38.8368C705.085 38.5169 706.596 38.2504 707.769 38.0371C708.586 37.895 709.351 38.0727 710.061 38.5702C710.808 39.0678 711.252 39.7252 711.394 40.5426C711.572 41.3956 711.43 42.1952 710.968 42.9415C710.541 43.6878 709.901 44.1321 709.048 44.2742C706.56 44.6652 704.374 45.4293 702.49 46.5665C700.607 47.6682 699.007 49.0187 697.692 50.618C696.412 52.1817 695.435 53.852 694.759 55.629C694.12 57.3704 693.8 59.094 693.8 60.7999C693.8 64.2472 694.973 67.037 697.319 69.1694C699.665 71.2662 702.864 72.5989 706.916 73.1675C707.769 73.3097 708.462 73.7361 708.995 74.4469C709.528 75.1577 709.724 75.9396 709.582 76.7925C709.475 77.681 709.066 78.3917 708.355 78.9248C707.644 79.4579 706.862 79.6534 706.009 79.5112ZM712.781 57.708C712.319 58.0989 711.75 58.2589 711.075 58.1878C710.435 58.1167 709.919 57.8146 709.528 57.2815C709.137 56.784 708.64 56.1621 708.035 55.4157C707.431 54.6339 706.88 53.9586 706.383 53.39C706.063 52.9991 705.903 52.5371 705.903 52.004C705.938 51.4354 706.187 50.9556 706.649 50.5647C707.076 50.1737 707.556 49.996 708.089 50.0316C708.657 50.0316 709.173 50.227 709.635 50.618C710.168 51.08 710.772 51.6841 711.448 52.4305C712.159 53.1768 712.745 53.852 713.207 54.4562C713.598 54.9537 713.74 55.5224 713.634 56.1621C713.563 56.8018 713.278 57.3171 712.781 57.708ZM717.899 53.1235C717.437 53.5855 716.868 53.7987 716.193 53.7632C715.553 53.7276 715.02 53.4611 714.593 52.9635C714.167 52.466 713.616 51.8618 712.941 51.1511C712.301 50.4403 711.714 49.8183 711.181 49.2852C710.826 48.9299 710.63 48.4678 710.595 47.8992C710.595 47.3306 710.808 46.8331 711.234 46.4066C711.625 46.0157 712.105 45.8202 712.674 45.8202C713.243 45.7847 713.758 45.9446 714.22 46.3C714.789 46.6909 715.447 47.2418 716.193 47.9525C716.939 48.6278 717.561 49.2675 718.059 49.8716C718.486 50.3336 718.681 50.8845 718.646 51.5242C718.61 52.1284 718.361 52.6615 717.899 53.1235Z" fill="#070E50"/>
<path d="M642.614 79.0764C641.939 79.645 641.139 79.9115 640.215 79.876C639.326 79.8405 638.58 79.5028 637.976 78.8631C637.372 78.1879 637.087 77.406 637.123 76.5176C637.194 75.6291 637.567 74.8828 638.242 74.2786C640.162 72.5727 641.619 70.7602 642.614 68.8411C643.645 66.922 644.338 64.683 644.694 62.1242C645.085 59.5654 645.28 56.509 645.28 52.9551C643.539 53.0973 641.85 53.2572 640.215 53.4349C638.616 53.6126 637.158 53.8081 635.843 54.0213C634.954 54.1635 634.155 54.0035 633.444 53.5415C632.733 53.044 632.289 52.3687 632.111 51.5158C631.969 50.6273 632.129 49.8277 632.591 49.1169C633.088 48.4061 633.781 47.9797 634.67 47.8375C636.021 47.6243 637.62 47.4288 639.469 47.2511C641.353 47.0734 643.29 46.9135 645.28 46.7713V39.468C645.28 38.5796 645.582 37.8333 646.187 37.2291C646.791 36.5894 647.537 36.2695 648.426 36.2695C649.315 36.2695 650.061 36.5894 650.665 37.2291C651.27 37.8333 651.572 38.5796 651.572 39.468V46.3982C652.816 46.3271 653.971 46.2916 655.037 46.2916C656.139 46.2916 657.081 46.2916 657.863 46.2916C658.752 46.3271 659.498 46.6647 660.103 47.3044C660.707 47.9441 660.973 48.7082 660.902 49.5967C660.867 50.4852 660.511 51.2137 659.836 51.7823C659.196 52.351 658.432 52.6175 657.543 52.582C655.837 52.5109 653.847 52.5109 651.572 52.582V52.9018C651.572 56.5624 651.341 59.9741 650.879 63.1371C650.452 66.3001 649.599 69.2143 648.319 71.8797C647.04 74.5451 645.138 76.944 642.614 79.0764ZM624.646 77.797C623.758 77.9747 622.958 77.8325 622.247 77.3705C621.536 76.8729 621.092 76.1977 620.914 75.3448C620.559 73.6744 620.257 71.702 620.008 69.4275C619.795 67.1175 619.635 64.6653 619.528 62.0709C619.457 59.441 619.457 56.7934 619.528 54.1279C619.599 51.427 619.741 48.8148 619.954 46.2916C620.203 43.7327 620.559 41.4049 621.021 39.3081C621.199 38.4196 621.643 37.7444 622.354 37.2824C623.1 36.8204 623.9 36.6782 624.753 36.8559C625.606 37.0336 626.264 37.4956 626.726 38.242C627.188 38.9527 627.33 39.7524 627.152 40.6408C626.619 43.1641 626.228 45.9362 625.979 48.957C625.766 51.9778 625.659 55.0164 625.659 58.0728C625.695 61.1291 625.819 64.0433 626.033 66.8154C626.281 69.5874 626.619 72.0041 627.046 74.0654C627.223 74.9183 627.081 75.7179 626.619 76.4642C626.157 77.175 625.5 77.6193 624.646 77.797Z" fill="#070E50"/>
<path d="M566.367 79.4882C565.621 79.0262 565.141 78.3687 564.928 77.5158C564.715 76.6628 564.839 75.8632 565.301 75.1169C566.687 72.8779 567.914 70.4079 568.98 67.707C570.046 65.006 570.953 62.1984 571.699 59.2842C572.481 56.37 573.103 53.5091 573.565 50.7015C572.535 50.8082 571.522 50.897 570.526 50.9681C569.567 51.0392 568.66 51.1102 567.807 51.1813C566.918 51.2169 566.136 50.9681 565.461 50.435C564.821 49.8664 564.466 49.1378 564.395 48.2493C564.359 47.3609 564.626 46.5968 565.195 45.9571C565.763 45.2818 566.492 44.9264 567.381 44.8909C568.447 44.8198 569.567 44.7487 570.74 44.6777C571.948 44.6066 573.157 44.5 574.365 44.3578C574.472 43.1495 574.543 41.9945 574.578 40.8928C574.614 39.791 574.614 38.7426 574.578 37.7475C574.543 36.8591 574.809 36.095 575.378 35.4553C575.947 34.8156 576.676 34.478 577.564 34.4424C578.453 34.4069 579.217 34.6912 579.857 35.2954C580.497 35.864 580.834 36.5925 580.87 37.481C580.941 39.2935 580.888 41.3192 580.71 43.5582C581.492 43.416 582.238 43.2916 582.949 43.185C583.696 43.0429 584.371 42.9007 584.975 42.7586C585.864 42.5809 586.664 42.723 587.375 43.185C588.121 43.647 588.583 44.3045 588.761 45.1574C588.939 46.0459 588.779 46.8455 588.281 47.5563C587.819 48.2671 587.161 48.7113 586.308 48.889C585.42 49.0667 584.442 49.2444 583.376 49.4221C582.309 49.5998 581.172 49.7775 579.963 49.9552C579.466 53.1893 578.79 56.5477 577.937 60.0305C577.084 63.4778 576.053 66.8007 574.845 69.9993C573.636 73.1622 572.268 75.9698 570.74 78.422C570.277 79.1683 569.62 79.6481 568.767 79.8613C567.914 80.0746 567.114 79.9502 566.367 79.4882ZM603.476 78.3154C598.18 79.5237 593.63 79.5593 589.827 78.422C586.059 77.2848 583.376 75.188 581.776 72.1316C581.385 71.3497 581.296 70.5501 581.51 69.7327C581.758 68.8798 582.274 68.2401 583.056 67.8136C583.838 67.3871 584.638 67.2983 585.455 67.5471C586.308 67.7958 586.948 68.3111 587.375 69.093C588.405 70.9766 590.183 72.1494 592.706 72.6114C595.23 73.0734 598.393 72.8957 602.197 72.0783C603.05 71.9006 603.85 72.0605 604.596 72.5581C605.343 73.0201 605.805 73.6775 605.982 74.5305C606.16 75.419 606 76.2364 605.503 76.9827C605.04 77.6935 604.365 78.1377 603.476 78.3154ZM600.917 57.9515C599.709 57.6672 598.322 57.4717 596.758 57.3651C595.194 57.2585 593.613 57.2407 592.013 57.3118C590.449 57.3473 588.992 57.4895 587.641 57.7383C586.788 57.8804 586.006 57.7205 585.295 57.2585C584.584 56.7609 584.14 56.1035 583.962 55.2861C583.82 54.4331 583.98 53.6513 584.442 52.9405C584.94 52.1942 585.615 51.7499 586.468 51.6078C588.139 51.2879 589.898 51.0925 591.747 51.0214C593.63 50.9503 595.497 50.9859 597.345 51.128C599.193 51.2702 600.882 51.5189 602.41 51.8743C603.228 52.052 603.85 52.514 604.276 53.2604C604.738 54.0067 604.88 54.8063 604.703 55.6592C604.489 56.4766 604.01 57.1163 603.263 57.5783C602.517 58.0048 601.735 58.1292 600.917 57.9515ZM604.703 47.6096C604.241 48.0361 603.672 48.2316 602.997 48.196C602.357 48.1605 601.824 47.9117 601.397 47.4497C600.971 46.9522 600.42 46.348 599.744 45.6372C599.104 44.9264 598.518 44.3045 597.985 43.7714C597.629 43.416 597.434 42.954 597.398 42.3854C597.398 41.8168 597.612 41.3015 598.038 40.8394C598.429 40.4485 598.909 40.2531 599.478 40.2531C600.046 40.2175 600.562 40.3774 601.024 40.7328C601.593 41.1238 602.25 41.6746 602.997 42.3854C603.743 43.0606 604.365 43.7003 604.863 44.3045C605.289 44.7665 605.485 45.3174 605.449 45.9571C605.414 46.5612 605.165 47.1121 604.703 47.6096ZM606.196 42.7586C605.734 42.261 605.147 41.6924 604.436 41.0527C603.725 40.3774 603.085 39.8088 602.517 39.3468C602.161 38.9914 601.948 38.5294 601.877 37.9608C601.806 37.3922 601.966 36.8768 602.357 36.4148C602.712 35.9884 603.174 35.7574 603.743 35.7218C604.312 35.6507 604.827 35.7751 605.289 36.095C605.894 36.4504 606.587 36.9479 607.369 37.5876C608.186 38.2273 608.862 38.8137 609.395 39.3468C609.857 39.8088 610.088 40.3597 610.088 40.9994C610.123 41.6035 609.91 42.1544 609.448 42.6519C609.057 43.1139 608.524 43.3627 607.848 43.3983C607.209 43.4338 606.658 43.2206 606.196 42.7586Z" fill="#070E50"/>
<path d="M530.438 80.2898C529.798 79.6856 529.442 78.9393 529.371 78.0508C529.336 77.1623 529.638 76.3982 530.278 75.7585C532.979 73.022 535.094 69.5747 536.623 65.4167C538.187 61.2586 538.969 56.7274 538.969 51.823C538.969 49.0509 538.524 47.043 537.636 45.7991C536.747 44.5552 535.432 43.9333 533.69 43.9333C532.268 43.9333 530.953 44.5197 529.745 45.6925C528.536 46.8297 527.63 48.5356 527.025 50.8101C526.421 53.0846 526.261 55.9455 526.546 59.3928C526.617 60.2102 526.386 60.9565 525.852 61.6318C525.355 62.2715 524.697 62.6268 523.88 62.6979C523.027 62.769 522.28 62.5558 521.64 62.0582C521.036 61.5607 520.663 60.9032 520.521 60.0858C520.272 58.2378 520.112 56.212 520.041 54.0086C519.97 51.7697 519.952 49.5485 519.987 47.345C520.059 45.1061 520.165 43.0448 520.307 41.1612C520.45 39.2421 520.592 37.6606 520.734 36.4168C520.841 35.5638 521.232 34.8708 521.907 34.3377C522.582 33.8047 523.347 33.5914 524.2 33.698C525.088 33.8047 525.781 34.1778 526.279 34.8175C526.812 35.4572 527.008 36.2391 526.865 37.1631C526.794 37.8028 526.688 38.6202 526.546 39.6153C526.439 40.6104 526.35 41.5522 526.279 42.4407C527.096 41.0546 528.198 39.8996 529.585 38.9756C530.971 38.016 532.41 37.5363 533.903 37.5363C537.707 37.5363 540.55 38.7801 542.434 41.2679C544.318 43.7201 545.26 47.2384 545.26 51.823C545.26 55.4835 544.869 59.0552 544.087 62.538C543.341 65.9853 542.203 69.2193 540.675 72.2402C539.182 75.2254 537.298 77.8731 535.023 80.1831C534.419 80.8228 533.655 81.1427 532.73 81.1427C531.842 81.1782 531.078 80.8939 530.438 80.2898Z" fill="#070E50"/>
<path d="M481.778 80.8246C477.584 80.8246 474.278 79.7229 471.861 77.5195C469.444 75.316 468.236 72.1708 468.236 68.0838C468.236 67.6574 468.289 67.0532 468.396 66.2713C468.502 65.4895 468.627 64.5832 468.769 63.5526C467.773 63.3749 466.814 63.1794 465.89 62.9662C465.001 62.753 464.183 62.5575 463.437 62.3798C462.584 62.131 461.944 61.6157 461.518 60.8339C461.127 60.052 461.056 59.2524 461.304 58.435C461.589 57.6176 462.104 56.9956 462.851 56.5692C463.632 56.1427 464.432 56.0539 465.25 56.3026C466.494 56.6936 468.04 57.049 469.888 57.3688C470.066 56.3382 470.262 55.2898 470.475 54.2236C470.688 53.1574 470.884 52.0735 471.061 50.9718C470.102 50.7941 469.213 50.6164 468.396 50.4387C467.578 50.261 466.903 50.1011 466.369 49.9589C465.552 49.7101 464.93 49.2126 464.503 48.4663C464.077 47.6844 463.988 46.8848 464.237 46.0674C464.486 45.2145 464.983 44.5747 465.73 44.1483C466.476 43.7218 467.276 43.633 468.129 43.8817C468.555 43.9884 469.124 44.1305 469.835 44.3082C470.546 44.4504 471.346 44.6103 472.234 44.788C472.519 43.1176 472.768 41.6072 472.981 40.2568C473.23 38.8707 473.372 37.7512 473.407 36.8983C473.478 36.0098 473.869 35.2991 474.58 34.766C475.327 34.2329 476.127 34.0196 476.98 34.1263C477.868 34.2329 478.579 34.6416 479.112 35.3524C479.646 36.0276 479.859 36.8095 479.752 37.6979C479.646 38.5864 479.468 39.7592 479.219 41.2163C479.006 42.6379 478.721 44.2016 478.366 45.9075C478.935 46.0141 479.45 46.1029 479.912 46.174C480.41 46.2095 480.854 46.2629 481.245 46.3339C482.098 46.4761 482.791 46.8848 483.324 47.56C483.858 48.2353 484.071 48.9994 483.964 49.8523C483.858 50.7408 483.449 51.4516 482.738 51.9846C482.063 52.4822 481.298 52.6777 480.445 52.571C480.019 52.5355 479.521 52.4822 478.952 52.4111C478.384 52.3045 477.797 52.2156 477.193 52.1446C476.98 53.1752 476.766 54.2058 476.553 55.2365C476.375 56.2671 476.198 57.28 476.02 58.2751C476.731 58.3461 477.406 58.4172 478.046 58.4883C478.721 58.5594 479.343 58.6127 479.912 58.6482C480.765 58.6838 481.476 59.0391 482.045 59.7144C482.649 60.3541 482.933 61.1004 482.898 61.9533C482.862 62.8418 482.507 63.5704 481.832 64.139C481.192 64.7076 480.428 64.9742 479.539 64.9386C478.828 64.8676 478.082 64.8142 477.3 64.7787C476.518 64.7076 475.718 64.6188 474.9 64.5122C474.616 66.218 474.474 67.4086 474.474 68.0838C474.474 72.3485 476.909 74.4809 481.778 74.4809C483.804 74.4809 485.493 74.0189 486.843 73.0948C488.194 72.1353 489.012 70.8914 489.296 69.3632C489.829 66.6623 488.745 64.0679 486.044 61.5802C485.404 60.976 485.102 60.2297 485.137 59.3412C485.208 58.4172 485.581 57.6531 486.257 57.049C486.897 56.4448 487.643 56.1783 488.496 56.2493C489.349 56.3204 490.096 56.658 490.736 57.2622C492.726 59.1458 494.112 61.207 494.894 63.446C495.676 65.6494 495.872 67.8706 495.481 70.1096C494.948 73.3436 493.455 75.938 491.002 77.8926C488.55 79.8473 485.475 80.8246 481.778 80.8246Z" fill="#070E50"/>
<path d="M411.616 82.3883C410.798 82.3883 410.123 82.1396 409.59 81.642C409.057 81.1445 408.79 80.4515 408.79 79.563V62.8774C408.221 64.0857 407.671 65.223 407.137 66.2891C406.604 67.3198 406.089 68.226 405.591 69.0079C405.236 69.6476 404.667 70.074 403.885 70.2873C403.103 70.5005 402.392 70.4294 401.752 70.074C401.077 69.6831 400.668 69.1145 400.526 68.3682C400.384 67.6218 400.544 66.9288 401.006 66.2891C401.61 65.4362 402.285 64.37 403.032 63.0906C403.778 61.8112 404.525 60.4607 405.271 59.0392C406.018 57.5821 406.693 56.1605 407.297 54.7745C407.937 53.3884 408.435 52.1624 408.79 51.0962H403.139C402.321 51.0962 401.663 50.8652 401.166 50.4032C400.704 49.9056 400.473 49.2837 400.473 48.5374C400.473 47.8266 400.704 47.2224 401.166 46.7249C401.663 46.2273 402.321 45.9785 403.139 45.9785H408.79V41.5006C408.115 41.6428 407.422 41.7849 406.711 41.9271C406.035 42.0693 405.378 42.1936 404.738 42.3003C403.885 42.4424 403.156 42.3358 402.552 41.9804C401.983 41.625 401.61 41.0564 401.432 40.2745C401.29 39.5637 401.397 38.9418 401.752 38.4087C402.143 37.8401 402.748 37.5025 403.565 37.3959C404.845 37.2182 406.249 36.9516 407.777 36.5962C409.306 36.2408 410.798 35.8499 412.256 35.4234C413.749 34.9614 415.046 34.4994 416.148 34.0374C416.93 33.7176 417.659 33.7176 418.334 34.0374C419.009 34.3217 419.471 34.7837 419.72 35.4234C419.969 36.0987 419.969 36.7562 419.72 37.3959C419.507 38 419.027 38.4443 418.281 38.7286C417.712 38.9774 417.09 39.2084 416.415 39.4216C415.775 39.6348 415.099 39.8481 414.389 40.0613V45.9785H417.641C418.458 45.9785 419.098 46.2273 419.56 46.7249C420.022 47.2224 420.253 47.8266 420.253 48.5374V48.8039C420.609 48.1287 421.195 47.791 422.013 47.791H431.983V45.9785H424.732C424.163 45.9785 423.719 45.7831 423.399 45.3922C423.115 45.0012 422.973 44.557 422.973 44.0594C422.973 43.5619 423.115 43.1354 423.399 42.78C423.719 42.3891 424.163 42.1936 424.732 42.1936H431.983V40.4345H422.599C421.995 40.4345 421.515 40.239 421.16 39.8481C420.84 39.4216 420.68 38.9596 420.68 38.462C420.68 37.9289 420.84 37.4669 421.16 37.076C421.515 36.6851 421.995 36.4896 422.599 36.4896H431.983V35.2635C431.983 34.3395 432.268 33.6287 432.836 33.1312C433.405 32.5981 434.098 32.3315 434.916 32.3315C435.769 32.3315 436.462 32.5981 436.995 33.1312C437.564 33.6287 437.848 34.3395 437.848 35.2635V36.4896H447.659C448.263 36.4896 448.725 36.6851 449.045 37.076C449.4 37.4669 449.578 37.9289 449.578 38.462C449.578 38.9596 449.4 39.4216 449.045 39.8481C448.725 40.239 448.263 40.4345 447.659 40.4345H437.848V42.1936H445.526C446.095 42.1936 446.521 42.3891 446.806 42.78C447.125 43.1354 447.285 43.5619 447.285 44.0594C447.285 44.557 447.125 45.0012 446.806 45.3922C446.521 45.7831 446.095 45.9785 445.526 45.9785H437.848V47.791H448.512C449.152 47.791 449.649 48.0043 450.005 48.4307C450.36 48.8217 450.538 49.2837 450.538 49.8168C450.538 50.3854 450.36 50.8829 450.005 51.3094C449.649 51.7003 449.152 51.8958 448.512 51.8958H422.013C421.373 51.8958 420.875 51.7003 420.52 51.3094C420.165 50.8829 419.987 50.3854 419.987 49.8168V49.7102C419.596 50.6342 418.814 51.0962 417.641 51.0962H414.389V54.0815C414.922 54.6856 415.597 55.4319 416.415 56.3204C417.232 57.1734 418.05 58.0085 418.867 58.8259C419.685 59.6078 420.342 60.212 420.84 60.6384C421.409 61.1004 421.711 61.7046 421.746 62.4509C421.782 63.1617 421.551 63.7836 421.053 64.3167C420.591 64.8853 420.005 65.1697 419.294 65.1697C418.583 65.1697 417.979 64.9209 417.481 64.4233C417.09 64.0324 416.61 63.5526 416.041 62.984C415.508 62.3798 414.957 61.7579 414.389 61.1182V79.563C414.389 80.4515 414.122 81.1445 413.589 81.642C413.091 82.1396 412.434 82.3883 411.616 82.3883ZM423.719 81.9086C422.937 82.2284 422.173 82.2817 421.426 82.0685C420.68 81.8908 420.129 81.4466 419.774 80.7358C419.418 79.9539 419.383 79.2076 419.667 78.4968C419.951 77.8216 420.449 77.3418 421.16 77.0575C421.835 76.8087 422.635 76.4711 423.559 76.0446C424.483 75.6181 425.425 75.1739 426.385 74.7119C427.38 74.2499 428.233 73.8234 428.944 73.4325C426.669 73.2548 425.105 72.6684 424.252 71.6733C423.399 70.6427 422.973 69.079 422.973 66.9821V59.8921C422.973 57.511 423.506 55.8406 424.572 54.8811C425.674 53.886 427.7 53.3884 430.65 53.3884H439.394C442.345 53.3884 444.353 53.886 445.419 54.8811C446.521 55.8406 447.072 57.511 447.072 59.8921V66.9821C447.072 69.1145 446.646 70.6782 445.793 71.6733C444.939 72.6684 443.375 73.2548 441.101 73.4325C441.847 73.8234 442.7 74.2499 443.66 74.7119C444.62 75.1739 445.561 75.6181 446.486 76.0446C447.445 76.4711 448.245 76.8087 448.885 77.0575C449.596 77.3418 450.093 77.8216 450.378 78.4968C450.662 79.2076 450.609 79.9539 450.218 80.7358C449.862 81.4466 449.312 81.8908 448.565 82.0685C447.854 82.2817 447.108 82.2284 446.326 81.9086C445.544 81.5887 444.637 81.18 443.607 80.6825C442.576 80.2205 441.545 79.7051 440.514 79.1365C439.483 78.6034 438.595 78.1059 437.848 77.6439C437.244 77.2529 436.853 76.7199 436.675 76.0446C436.533 75.3694 436.64 74.7119 436.995 74.0722C437.102 73.859 437.226 73.6813 437.368 73.5391H432.623C432.694 73.6102 432.765 73.699 432.836 73.8056C432.943 73.8767 433.014 73.9656 433.05 74.0722C433.405 74.7119 433.494 75.3694 433.316 76.0446C433.174 76.7199 432.801 77.2529 432.197 77.6439C431.45 78.1059 430.561 78.6034 429.531 79.1365C428.5 79.7051 427.469 80.2205 426.438 80.6825C425.407 81.18 424.501 81.5887 423.719 81.9086ZM431.93 69.7009H438.115C439.359 69.7009 440.176 69.5943 440.567 69.381C440.994 69.1323 441.225 68.5636 441.261 67.6752H428.784C428.855 68.5636 429.086 69.1323 429.477 69.381C429.904 69.5943 430.721 69.7009 431.93 69.7009ZM428.731 64.3167H441.261V62.5042H428.731V64.3167ZM428.784 59.0925H441.261C441.225 58.2751 440.994 57.7598 440.567 57.5465C440.176 57.2977 439.359 57.1734 438.115 57.1734H431.93C430.721 57.1734 429.904 57.2977 429.477 57.5465C429.086 57.7598 428.855 58.2751 428.784 59.0925Z" fill="#070E50"/>
<path d="M351.713 81.8526C350.682 82.0658 349.811 82.0125 349.1 81.6926C348.389 81.3728 347.892 80.7508 347.607 79.8268C347.358 78.9739 347.447 78.2098 347.874 77.5346C348.3 76.8238 348.958 76.3973 349.847 76.2552C353.472 75.5088 356.565 74.1939 359.124 72.3103C361.719 70.3912 363.354 67.939 364.029 64.9537C362.038 64.6694 360.475 64.1719 359.337 63.4611C358.2 62.7148 357.382 61.6486 356.884 60.2626C356.422 58.841 356.191 57.0463 356.191 54.8784V44.6964C356.191 42.031 356.547 39.952 357.258 38.4593C358.004 36.9312 359.302 35.865 361.15 35.2608C362.998 34.6211 365.557 34.3013 368.828 34.3013H375.706C379.011 34.3013 381.57 34.6211 383.383 35.2608C385.232 35.865 386.511 36.9312 387.222 38.4593C387.969 39.952 388.342 42.031 388.342 44.6964V54.8784C388.342 58.0414 387.809 60.4047 386.742 61.9684C385.676 63.4966 383.685 64.4739 380.771 64.9004V71.9905C380.771 73.1988 381.108 74.034 381.784 74.496C382.459 74.958 383.845 75.189 385.942 75.189C387.791 75.189 389.106 74.9224 389.888 74.3893C390.67 73.8207 391.274 72.7368 391.701 71.1375C391.914 70.3201 392.412 69.6982 393.194 69.2717C393.976 68.8097 394.864 68.7209 395.86 69.0052C396.713 69.254 397.317 69.7337 397.672 70.4445C398.063 71.1198 398.17 71.9194 397.992 72.8434C397.388 76.0775 396.091 78.2809 394.1 79.4537C392.145 80.662 389.39 81.2662 385.836 81.2662C383.063 81.2662 380.824 80.9996 379.118 80.4665C377.447 79.969 376.221 79.0983 375.439 77.8544C374.657 76.6461 374.266 74.958 374.266 72.7901V65.2203H370.267C369.663 69.5205 367.708 73.1099 364.402 75.9886C361.097 78.8673 356.867 80.8219 351.713 81.8526ZM362.909 51.4133H381.624V48.1082H362.909V51.4133ZM368.828 59.7295H375.706C377.234 59.7295 378.407 59.6406 379.224 59.4629C380.078 59.2497 380.664 58.8943 380.984 58.3968C381.339 57.8637 381.535 57.1174 381.57 56.1578H362.909C362.98 57.1174 363.176 57.8637 363.496 58.3968C363.851 58.8943 364.438 59.2497 365.255 59.4629C366.108 59.6406 367.299 59.7295 368.828 59.7295ZM362.909 43.3637H381.57C381.535 42.3686 381.339 41.6223 380.984 41.1248C380.664 40.6272 380.078 40.2896 379.224 40.1119C378.407 39.9342 377.234 39.8454 375.706 39.8454H368.828C367.335 39.8454 366.162 39.9342 365.309 40.1119C364.491 40.2896 363.905 40.6272 363.549 41.1248C363.194 41.6223 362.98 42.3686 362.909 43.3637Z" fill="#070E50"/>
<path d="M313.91 81.5269C313.057 81.7757 312.222 81.7579 311.404 81.4736C310.622 81.2248 310.036 80.7095 309.645 79.9276C309.289 79.1102 309.254 78.2751 309.538 77.4221C309.822 76.5692 310.391 75.9828 311.244 75.6629C313.874 74.6323 315.936 73.4951 317.429 72.2512C318.957 71.0073 320.024 69.568 320.628 67.9332C319.419 68.5018 318.229 68.7861 317.056 68.7861C314.248 68.7861 311.955 68.0753 310.178 66.6538C308.401 65.1967 307.512 63.0643 307.512 60.2567C307.512 58.3732 307.938 56.7739 308.792 55.459C309.645 54.1085 310.8 53.0778 312.257 52.3671C313.75 51.6563 315.421 51.3009 317.269 51.3009C317.518 51.3009 317.749 51.3009 317.962 51.3009C318.211 51.3009 318.442 51.3187 318.655 51.3542C318.584 50.8211 318.513 50.2703 318.442 49.7016C318.406 49.133 318.353 48.5644 318.282 47.9958C314.728 48.1379 311.209 48.3334 307.725 48.5822C304.277 48.8309 301.078 49.0975 298.128 49.3818C297.239 49.4884 296.457 49.2752 295.782 48.7421C295.107 48.209 294.733 47.516 294.662 46.663C294.556 45.8101 294.769 45.046 295.302 44.3708C295.871 43.6955 296.582 43.3224 297.435 43.2513C300.456 43.0025 303.762 42.7893 307.352 42.6116C310.942 42.3984 314.568 42.2207 318.229 42.0785V36.8543C318.229 35.9658 318.531 35.2195 319.135 34.6153C319.775 34.0111 320.539 33.709 321.428 33.709C322.316 33.709 323.063 34.0111 323.667 34.6153C324.271 35.2195 324.574 35.9658 324.574 36.8543V41.8653C326.529 41.7942 328.43 41.7409 330.278 41.7053C332.127 41.6698 333.904 41.652 335.61 41.652C335.575 41.581 335.521 41.4921 335.45 41.3855C335.415 41.2789 335.361 41.1723 335.29 41.0656C335.042 40.4615 334.722 39.7329 334.331 38.88C333.975 38.027 333.62 37.263 333.264 36.5877C333.051 36.1612 333.015 35.6815 333.158 35.1484C333.335 34.6153 333.709 34.2244 334.277 33.9756C334.775 33.6913 335.273 33.638 335.77 33.8157C336.268 33.9578 336.677 34.2777 336.996 34.7752C337.387 35.3083 337.832 36.0191 338.329 36.9076C338.827 37.7605 339.2 38.5424 339.449 39.2531C339.84 40.1061 339.733 40.8879 339.129 41.5987H340.409C341.262 41.5987 341.991 41.9186 342.595 42.5583C343.199 43.1624 343.483 43.9088 343.448 44.7972C343.412 45.6502 343.075 46.3787 342.435 46.9829C341.831 47.5515 341.084 47.8181 340.196 47.7825C337.992 47.6759 335.557 47.6404 332.891 47.6759C330.225 47.6759 327.47 47.7114 324.627 47.7825C324.662 48.9198 324.716 50.0748 324.787 51.2476C324.858 52.4204 324.947 53.5221 325.053 54.5527C326.724 56.614 327.559 59.3683 327.559 62.8156C327.559 67.2579 326.386 71.1317 324.04 74.4368C321.73 77.7064 318.353 80.0698 313.91 81.5269ZM344.194 39.2531C343.697 39.573 343.146 39.6441 342.542 39.4664C341.937 39.2887 341.493 38.9155 341.209 38.3469C340.924 37.7427 340.551 37.032 340.089 36.2146C339.662 35.3972 339.254 34.6508 338.863 33.9756C338.614 33.5847 338.543 33.1227 338.649 32.5896C338.792 32.0209 339.111 31.5945 339.609 31.3102C340.107 31.0258 340.604 30.937 341.102 31.0436C341.635 31.1502 342.079 31.4345 342.435 31.8966C342.861 32.3941 343.341 33.0693 343.874 33.9223C344.408 34.7397 344.852 35.5038 345.207 36.2146C345.492 36.7832 345.527 37.3518 345.314 37.9204C345.136 38.4891 344.763 38.9333 344.194 39.2531ZM317.056 63.2953C318.087 63.2598 318.886 62.9933 319.455 62.4957C320.059 61.9626 320.361 61.1985 320.361 60.2034C320.361 59.9191 320.344 59.5993 320.308 59.2439C320.273 58.8885 320.219 58.5331 320.148 58.1777C319.402 57.3248 318.406 56.8983 317.162 56.8983C316.167 56.8983 315.314 57.1826 314.603 57.7512C313.928 58.3199 313.59 59.1195 313.59 60.1501C313.59 61.1808 313.91 61.9804 314.55 62.549C315.225 63.0821 316.06 63.3309 317.056 63.2953Z" fill="#070E50"/>
<path d="M276.763 80.8343C272.817 80.8343 270.009 80.0169 268.339 78.3821C266.704 76.7473 266.17 73.9219 266.739 69.906C266.881 68.8754 266.739 68.1291 266.313 67.667C265.886 67.1695 265.317 66.974 264.606 67.0807C263.931 67.1517 263.256 67.5249 262.58 68.2001C261.407 69.3374 260.092 70.599 258.635 71.985C257.178 73.3711 255.773 74.686 254.423 75.9299C253.072 77.1737 251.97 78.1866 251.117 78.9685C250.442 79.5371 249.66 79.8214 248.771 79.8214C247.918 79.8214 247.189 79.5016 246.585 78.8619C245.981 78.2222 245.679 77.4581 245.679 76.5696C245.679 75.6456 246.016 74.8993 246.692 74.3306C247.651 73.5132 248.824 72.5004 250.211 71.292C251.597 70.0482 253.054 68.7154 254.583 67.2939C256.147 65.8368 257.657 64.3974 259.115 62.9759C260.608 61.5543 261.958 60.2571 263.167 59.0844C264.411 57.876 265.371 56.8987 266.046 56.1524C267.29 54.8019 267.681 53.7713 267.219 53.0605C266.792 52.3497 265.744 52.1365 264.073 52.4208C263.896 52.4563 263.451 52.5274 262.74 52.634C262.029 52.7406 261.194 52.865 260.234 53.0072C259.275 53.1493 258.315 53.3093 257.355 53.487C256.431 53.6291 255.631 53.7535 254.956 53.8601C254.281 53.9667 253.854 54.0378 253.676 54.0733C252.788 54.2155 251.988 54.0378 251.277 53.5403C250.602 53.0427 250.175 52.3675 249.997 51.5145C249.855 50.6261 250.033 49.8442 250.531 49.169C251.064 48.4582 251.757 48.0317 252.61 47.8895C252.788 47.854 253.232 47.7829 253.943 47.6763C254.689 47.5697 255.542 47.4453 256.502 47.3032C257.497 47.161 258.493 47.0366 259.488 46.93C260.519 46.7878 261.425 46.6635 262.207 46.5568C262.989 46.4502 263.54 46.3791 263.86 46.3436C266.277 46.0593 268.268 46.237 269.832 46.8767C271.431 47.5164 272.568 48.4937 273.244 49.8087C273.955 51.0881 274.132 52.5807 273.777 54.2866C273.422 55.9569 272.497 57.6983 271.005 59.5108C270.72 59.8662 270.347 60.2927 269.885 60.7902C269.458 61.2522 268.996 61.732 268.499 62.2296C269.92 62.4073 271.076 63.0825 271.964 64.2553C272.853 65.3925 273.155 67.2228 272.871 69.7461C272.693 71.7007 272.853 72.9979 273.35 73.6376C273.884 74.2773 274.95 74.5972 276.55 74.5972C277.403 74.5972 278.469 74.5083 279.749 74.3306C281.028 74.1529 282.361 73.9219 283.747 73.6376C284.6 73.4599 285.4 73.6021 286.147 74.0641C286.929 74.5261 287.391 75.2191 287.533 76.1431C287.711 77.0671 287.515 77.8845 286.946 78.5953C286.413 79.3061 285.72 79.7503 284.867 79.928C281.739 80.5322 279.038 80.8343 276.763 80.8343ZM270.098 43.7315C268.605 43.5893 266.988 43.3405 265.246 42.9852C263.505 42.6298 261.834 42.2211 260.234 41.7591C258.635 41.297 257.302 40.835 256.236 40.373C255.418 40.0176 254.814 39.449 254.423 38.6672C254.067 37.8853 254.05 37.0857 254.369 36.2683C254.689 35.4509 255.258 34.8645 256.076 34.5091C256.893 34.1537 257.711 34.1359 258.528 34.4558C260.27 35.0955 262.207 35.6819 264.34 36.215C266.508 36.748 268.623 37.139 270.685 37.3878C271.609 37.4944 272.337 37.8853 272.871 38.5605C273.404 39.2002 273.635 39.9643 273.564 40.8528C273.493 41.7413 273.119 42.4698 272.444 43.0385C271.769 43.5716 270.987 43.8026 270.098 43.7315Z" fill="#070E50"/>
<path d="M220.952 81.0365C220.099 81.2853 219.282 81.2142 218.5 80.8233C217.718 80.4323 217.185 79.8104 216.9 78.9575C216.652 78.1401 216.74 77.3582 217.167 76.6119C217.594 75.83 218.233 75.3147 219.086 75.0659C222.037 74.1064 224.187 72.7737 225.538 71.0678C226.924 69.3619 227.617 67.3717 227.617 65.0972C227.617 63.1426 227.013 61.4367 225.804 59.9796C224.631 58.487 222.89 57.4208 220.579 56.7811C220.011 59.4821 219.157 62.0586 218.02 64.5108C216.918 66.9275 215.621 69.1131 214.128 71.0678C214.341 71.5298 214.572 71.9207 214.821 72.2406C215.319 72.9869 215.479 73.7865 215.301 74.6395C215.123 75.4924 214.661 76.1677 213.915 76.6652C213.204 77.1272 212.422 77.2694 211.569 77.0917C210.716 76.914 210.04 76.452 209.543 75.7056C207.979 76.985 206.326 77.9624 204.584 78.6376C202.878 79.3484 201.136 79.7038 199.359 79.7038C196.871 79.7038 194.827 79.0285 193.227 77.6781C191.628 76.292 190.828 74.0175 190.828 70.8546C190.828 68.1536 191.379 65.6836 192.481 63.4447C193.618 61.1702 195.165 59.1622 197.12 57.4208C199.075 55.6438 201.261 54.1867 203.678 53.0495C203.642 52.0544 203.642 51.0593 203.678 50.0642C203.749 49.0691 203.82 48.0562 203.891 47.0256C200.656 47.2033 197.742 47.2566 195.147 47.1855C194.258 47.15 193.53 46.8124 192.961 46.1727C192.392 45.533 192.126 44.7867 192.161 43.9337C192.232 43.0808 192.57 42.37 193.174 41.8014C193.814 41.1972 194.56 40.9129 195.413 40.9484C196.764 40.984 198.221 41.0017 199.785 41.0017C201.385 40.9662 203.002 40.9129 204.637 40.8418C204.78 40.06 204.922 39.2959 205.064 38.5495C205.206 37.7677 205.366 36.9858 205.544 36.204C205.721 35.3155 206.166 34.6402 206.877 34.1782C207.623 33.7162 208.423 33.5741 209.276 33.7518C210.129 33.9295 210.787 34.3915 211.249 35.1378C211.711 35.8486 211.853 36.6482 211.675 37.5367C211.569 37.9987 211.462 38.4785 211.355 38.976C211.284 39.438 211.213 39.9 211.142 40.362C212.671 40.2199 214.128 40.06 215.514 39.8823C216.936 39.7046 218.251 39.5269 219.46 39.3492C220.313 39.1715 221.095 39.3314 221.806 39.829C222.516 40.3265 222.943 41.0017 223.085 41.8547C223.227 42.6721 223.05 43.4539 222.552 44.2003C222.054 44.911 221.397 45.3375 220.579 45.4797C219.051 45.6929 217.398 45.9061 215.621 46.1194C213.879 46.2971 212.066 46.457 210.182 46.5991C210.04 48.0918 209.934 49.5667 209.862 51.0238C211.746 50.5973 213.666 50.3841 215.621 50.3841C219.531 50.3841 222.836 51.0238 225.538 52.3032C228.239 53.547 230.283 55.2707 231.669 57.4741C233.091 59.6775 233.802 62.2008 233.802 65.0439C233.802 67.425 233.358 69.6818 232.469 71.8141C231.58 73.9465 230.176 75.8123 228.257 77.4115C226.373 78.9752 223.938 80.1836 220.952 81.0365ZM199.732 73.6799C200.87 73.6799 202.043 73.3778 203.251 72.7737C204.46 72.1695 205.633 71.3521 206.77 70.3215C205.419 67.0874 204.495 63.4091 203.998 59.2866C201.829 60.6371 200.105 62.3252 198.826 64.3509C197.582 66.3411 196.96 68.4912 196.96 70.8012C196.96 71.8319 197.173 72.5782 197.599 73.0402C198.062 73.4667 198.772 73.6799 199.732 73.6799ZM211.302 64.6708C212.048 63.3914 212.706 62.0409 213.275 60.6193C213.879 59.1977 214.359 57.7229 214.714 56.1947C213.897 56.2302 213.079 56.3013 212.262 56.4079C211.444 56.5145 210.662 56.6745 209.916 56.8877C210.022 58.2737 210.182 59.6064 210.396 60.8859C210.644 62.1653 210.947 63.4269 211.302 64.6708Z" fill="#070E50"/>
<path d="M157.212 80.2898C156.572 79.6856 156.217 78.9393 156.146 78.0508C156.11 77.1623 156.412 76.3982 157.052 75.7585C159.754 73.022 161.869 69.5747 163.397 65.4167C164.961 61.2586 165.743 56.7274 165.743 51.823C165.743 49.0509 165.299 47.043 164.41 45.7991C163.521 44.5552 162.206 43.9333 160.464 43.9333C159.043 43.9333 157.728 44.5197 156.519 45.6925C155.31 46.8297 154.404 48.5356 153.8 50.8101C153.196 53.0846 153.036 55.9455 153.32 59.3928C153.391 60.2102 153.16 60.9565 152.627 61.6318C152.129 62.2715 151.472 62.6268 150.654 62.6979C149.801 62.769 149.055 62.5558 148.415 62.0582C147.81 61.5607 147.437 60.9032 147.295 60.0858C147.046 58.2378 146.886 56.212 146.815 54.0086C146.744 51.7697 146.726 49.5485 146.762 47.345C146.833 45.1061 146.94 43.0448 147.082 41.1612C147.224 39.2421 147.366 37.6606 147.508 36.4168C147.615 35.5638 148.006 34.8708 148.681 34.3377C149.357 33.8047 150.121 33.5914 150.974 33.698C151.863 33.8047 152.556 34.1778 153.053 34.8175C153.587 35.4572 153.782 36.2391 153.64 37.1631C153.569 37.8028 153.462 38.6202 153.32 39.6153C153.213 40.6104 153.124 41.5522 153.053 42.4407C153.871 41.0546 154.973 39.8996 156.359 38.9756C157.745 38.016 159.185 37.5363 160.678 37.5363C164.481 37.5363 167.325 38.7801 169.209 41.2679C171.092 43.7201 172.034 47.2384 172.034 51.823C172.034 55.4835 171.643 59.0552 170.861 62.538C170.115 65.9853 168.978 69.2193 167.449 72.2402C165.956 75.2254 164.072 77.8731 161.797 80.1831C161.193 80.8228 160.429 81.1427 159.505 81.1427C158.616 81.1782 157.852 80.8939 157.212 80.2898Z" fill="#070E50"/>
<path d="M119.152 79.3383C113.429 80.1202 108.453 80.1912 104.223 79.5515C99.9929 78.9474 96.7227 77.5969 94.4123 75.5001C92.1374 73.4033 91 70.5601 91 66.9707C91 63.8433 91.782 61.1778 93.346 58.9744C94.9455 56.7354 97.1493 54.7986 99.9573 53.1638C99.7085 51.7777 99.3531 50.1963 98.891 48.4193C98.4289 46.6423 97.949 44.8832 97.4514 43.1417C96.9538 41.3648 96.5095 39.8722 96.1185 38.6638C95.8697 37.8464 95.9585 37.0468 96.3851 36.2649C96.8471 35.4831 97.487 34.9678 98.3045 34.719C99.1931 34.4702 100.011 34.5768 100.757 35.0388C101.539 35.4653 102.054 36.105 102.303 36.9579C102.908 39.0192 103.494 41.2582 104.063 43.6748C104.667 46.056 105.165 48.3482 105.556 50.5516C107.262 49.8764 109.075 49.2722 110.994 48.7392C112.913 48.1705 114.904 47.6552 116.966 47.1932C117.819 46.98 118.618 47.1044 119.365 47.5664C120.111 48.0284 120.573 48.6858 120.751 49.5388C120.929 50.4273 120.787 51.2447 120.325 51.991C119.863 52.7018 119.205 53.146 118.352 53.3237C113.909 54.2477 110.301 55.2428 107.528 56.309C104.756 57.3396 102.623 58.4413 101.13 59.6141C99.673 60.7514 98.6599 61.9419 98.0912 63.1858C97.558 64.3941 97.2915 65.6558 97.2915 66.9707C97.2915 69.7783 98.9976 71.7685 102.41 72.9413C105.822 74.0785 111.136 74.1141 118.352 73.0479C119.24 72.9057 120.022 73.119 120.698 73.6876C121.409 74.2207 121.817 74.9137 121.924 75.7666C122.031 76.6551 121.817 77.437 121.284 78.1122C120.751 78.823 120.04 79.2317 119.152 79.3383Z" fill="#070E50"/>
<defs>
<filter id="filter0_d_2169_594" x="0" y="0" width="1010" height="130" filterUnits="userSpaceOnUse" color-interpolation-filters="sRGB">
<feFlood flood-opacity="0" result="BackgroundImageFix"/>
<feColorMatrix in="SourceAlpha" type="matrix" values="0 0 0 0 0 0 0 0 0 0 0 0 0 0 0 0 0 0 127 0" result="hardAlpha"/>
<feOffset/>
<feGaussianBlur stdDeviation="2"/>
<feComposite in2="hardAlpha" operator="out"/>
<feColorMatrix type="matrix" values="0 0 0 0 0 0 0 0 0 0 0 0 0 0 0 0 0 0 0.69 0"/>
<feBlend mode="normal" in2="BackgroundImageFix" result="effect1_dropShadow_2169_594"/>
<feBlend mode="normal" in="SourceGraphic" in2="effect1_dropShadow_2169_594" result="shape"/>
</filter>
<linearGradient id="paint0_linear_2169_594" x1="505" y1="4" x2="505" y2="126" gradientUnits="userSpaceOnUse">
<stop stop-color="white"/>
<stop offset="1" stop-color="#DCDCDC"/>
</linearGradient>
</defs>
</svg>
