<svg width="36" height="36" viewBox="0 0 36 36" fill="none" xmlns="http://www.w3.org/2000/svg">
<circle cx="18" cy="18" r="18" fill="white"/>
<path d="M17.7521 24.1596C16.8774 24.1596 16.0721 24.0156 15.3361 23.7276C14.6001 23.4396 13.9601 23.0396 13.4161 22.5276C12.8721 22.005 12.4508 21.397 12.1521 20.7036C11.8534 19.9996 11.7041 19.2316 11.7041 18.3996C11.7041 17.5676 11.8534 16.805 12.1521 16.1116C12.4508 15.4076 12.8721 14.7996 13.4161 14.2876C13.9601 13.765 14.6001 13.3596 15.3361 13.0716C16.0721 12.7836 16.8721 12.6396 17.7361 12.6396C18.6108 12.6396 19.4108 12.7836 20.1361 13.0716C20.8721 13.3596 21.5121 13.7596 22.0561 14.2716C22.6001 14.7836 23.0214 15.3916 23.3201 16.0956C23.6188 16.7996 23.7681 17.5676 23.7681 18.3996C23.7681 19.2316 23.6188 19.9996 23.3201 20.7036C23.0214 21.4076 22.6001 22.0156 22.0561 22.5276C21.5121 23.0396 20.8721 23.4396 20.1361 23.7276C19.4108 24.0156 18.6161 24.1596 17.7521 24.1596ZM21.4001 26.4476C21.0054 26.4476 20.6214 26.3996 20.2481 26.3036C19.8854 26.2183 19.5228 26.069 19.1601 25.8556C18.8081 25.653 18.4401 25.381 18.0561 25.0396C17.6721 24.709 17.2508 24.2983 16.7921 23.8076L19.0001 23.2316C19.2988 23.6263 19.5814 23.941 19.8481 24.1756C20.1254 24.421 20.3921 24.597 20.6481 24.7036C20.9041 24.8103 21.1708 24.8636 21.4481 24.8636C22.1841 24.8636 22.8241 24.565 23.3681 23.9676L24.3281 25.1196C23.5814 26.005 22.6054 26.4476 21.4001 26.4476ZM17.7361 22.3356C18.3014 22.3356 18.8241 22.2396 19.3041 22.0476C19.7841 21.8556 20.2001 21.5836 20.5521 21.2316C20.9041 20.869 21.1761 20.4476 21.3681 19.9676C21.5708 19.4876 21.6721 18.965 21.6721 18.3996C21.6721 17.8236 21.5708 17.301 21.3681 16.8316C21.1761 16.3516 20.9041 15.9356 20.5521 15.5836C20.2001 15.221 19.7841 14.9436 19.3041 14.7516C18.8241 14.5596 18.3014 14.4636 17.7361 14.4636C17.1708 14.4636 16.6481 14.5596 16.1681 14.7516C15.6881 14.9436 15.2721 15.221 14.9201 15.5836C14.5681 15.9356 14.2908 16.3516 14.0881 16.8316C13.8961 17.301 13.8001 17.8236 13.8001 18.3996C13.8001 18.965 13.8961 19.4876 14.0881 19.9676C14.2908 20.4476 14.5681 20.869 14.9201 21.2316C15.2721 21.5836 15.6881 21.8556 16.1681 22.0476C16.6481 22.2396 17.1708 22.3356 17.7361 22.3356Z" fill="#034495"/>
</svg>
