<svg width="147" height="123" viewBox="0 0 147 123" fill="none" xmlns="http://www.w3.org/2000/svg">
<mask id="path-1-inside-1_2002_656" fill="white">
<path d="M105.486 33C82.5742 33.0002 64.0002 51.5742 64 74.4863C64 97.3987 82.574 115.973 105.486 115.974C111.834 115.974 117.848 114.546 123.228 111.997L140.051 123L134.48 104.155C142.187 96.6227 146.974 86.1142 146.974 74.4863C146.973 51.574 128.399 33 105.486 33Z"/>
</mask>
<path d="M105.486 33C82.5742 33.0002 64.0002 51.5742 64 74.4863C64 97.3987 82.574 115.973 105.486 115.974C111.834 115.974 117.848 114.546 123.228 111.997L140.051 123L134.48 104.155C142.187 96.6227 146.974 86.1142 146.974 74.4863C146.973 51.574 128.399 33 105.486 33Z" fill="#FBFFB4"/>
<path d="M105.486 33L105.486 29H105.486V33ZM64 74.4863H60V74.4863L64 74.4863ZM105.486 115.974V119.974H105.486L105.486 115.974ZM123.228 111.997L121.515 108.382L123.541 107.422L125.417 108.649L123.228 111.997ZM140.051 123L143.887 121.866L146.973 132.307L137.861 126.348L140.051 123ZM134.48 104.155L130.645 105.289L129.962 102.979L131.685 101.295L134.48 104.155ZM146.974 74.4863L150.974 74.4863V74.4863H146.974ZM105.486 33L105.486 37C84.7833 37.0002 68.0002 53.7833 68 74.4864L64 74.4863L60 74.4863C60.0002 49.365 80.365 29.0002 105.486 29L105.486 33ZM64 74.4863H68C68 95.1896 84.7833 111.973 105.486 111.974L105.486 115.974L105.486 119.974C80.3648 119.973 60 99.6077 60 74.4863H64ZM105.486 115.974V111.974C111.228 111.974 116.659 110.683 121.515 108.382L123.228 111.997L124.94 115.612C119.038 118.408 112.44 119.974 105.486 119.974V115.974ZM123.228 111.997L125.417 108.649L142.24 119.652L140.051 123L137.861 126.348L121.038 115.345L123.228 111.997ZM140.051 123L136.215 124.134L130.645 105.289L134.48 104.155L138.316 103.021L143.887 121.866L140.051 123ZM134.48 104.155L131.685 101.295C138.654 94.4831 142.974 84.993 142.974 74.4863H146.974H150.974C150.974 87.2354 145.721 98.7623 137.276 107.016L134.48 104.155ZM146.974 74.4863L142.974 74.4864C142.973 53.7833 126.19 37 105.486 37V33V29C130.608 29 150.973 49.3648 150.974 74.4863L146.974 74.4863Z" fill="#008BE8" mask="url(#path-1-inside-1_2002_656)"/>
<mask id="path-3-inside-2_2002_656" fill="white">
<path d="M46 0C71.4051 0 92 20.5949 92 46C92 71.4051 71.4051 92 46 92C38.9615 92 32.2935 90.4167 26.3291 87.5908L7.67578 99.791L13.8516 78.8965C5.30641 70.5444 0 58.8928 0 46C0 20.5949 20.5949 0 46 0Z"/>
</mask>
<path d="M46 0C71.4051 0 92 20.5949 92 46C92 71.4051 71.4051 92 46 92C38.9615 92 32.2935 90.4167 26.3291 87.5908L7.67578 99.791L13.8516 78.8965C5.30641 70.5444 0 58.8928 0 46C0 20.5949 20.5949 0 46 0Z" fill="white"/>
<path d="M26.3291 87.5908L28.0418 83.976L26.0158 83.0161L24.1396 84.2433L26.3291 87.5908ZM7.67578 99.791L3.83983 98.6572L0.7539 109.098L9.86526 103.139L7.67578 99.791ZM13.8516 78.8965L17.6875 80.0303L18.3704 77.7199L16.6475 76.0359L13.8516 78.8965ZM46 0V4C69.196 4 88 22.804 88 46H92H96C96 18.3858 73.6142 -4 46 -4V0ZM92 46H88C88 69.196 69.196 88 46 88V92V96C73.6142 96 96 73.6142 96 46H92ZM46 92V88C39.5673 88 33.4831 86.5541 28.0418 83.976L26.3291 87.5908L24.6164 91.2056C31.1038 94.2793 38.3557 96 46 96V92ZM26.3291 87.5908L24.1396 84.2433L5.48631 96.4435L7.67578 99.791L9.86526 103.139L28.5186 90.9384L26.3291 87.5908ZM7.67578 99.791L11.5117 100.925L17.6875 80.0303L13.8516 78.8965L10.0156 77.7627L3.83983 98.6572L7.67578 99.791ZM13.8516 78.8965L16.6475 76.0359C8.84006 68.4049 4 57.7718 4 46H0H-4C-4 60.0138 1.77276 72.684 11.0556 81.757L13.8516 78.8965ZM0 46H4C4 22.804 22.804 4 46 4V0V-4C18.3858 -4 -4 18.3858 -4 46H0Z" fill="#008BE8" mask="url(#path-3-inside-2_2002_656)"/>
<path d="M50.8072 59.3413L61.9794 68.209L57.2247 72.3803L46.2567 63.6001L50.8072 59.3413ZM62.0669 42.5977V44.9313C62.0669 48.14 61.6488 51.0181 60.8126 53.5656C59.9764 56.1132 58.7804 58.2815 57.2247 60.0706C55.6689 61.8597 53.8118 63.2307 51.6532 64.1835C49.4946 65.117 47.1026 65.5837 44.4773 65.5837C41.8715 65.5837 39.4893 65.117 37.3307 64.1835C35.1915 63.2307 33.3344 61.8597 31.7592 60.0706C30.184 58.2815 28.9589 56.1132 28.0838 53.5656C27.2281 51.0181 26.8003 48.14 26.8003 44.9313V42.5977C26.8003 39.389 27.2281 36.5206 28.0838 33.9925C28.9394 31.445 30.1451 29.2767 31.7009 27.4876C33.276 25.6791 35.1332 24.3081 37.2723 23.3746C39.4309 22.4218 41.8131 21.9453 44.419 21.9453C47.0443 21.9453 49.4362 22.4218 51.5948 23.3746C53.7729 24.3081 55.6397 25.6791 57.1955 27.4876C58.7512 29.2767 59.9472 31.445 60.7834 33.9925C61.6391 36.5206 62.0669 39.389 62.0669 42.5977ZM54.716 44.9313V42.5394C54.716 40.1669 54.4827 38.0764 54.0159 36.2678C53.5687 34.4398 52.8978 32.9133 52.0032 31.6881C51.1281 30.4435 50.0488 29.5101 48.7653 28.8878C47.5013 28.246 46.0525 27.9252 44.419 27.9252C42.8244 27.9252 41.395 28.246 40.131 28.8878C38.867 29.5101 37.7877 30.4435 36.8931 31.6881C35.9986 32.9133 35.3179 34.4398 34.8512 36.2678C34.3845 38.0764 34.1511 40.1669 34.1511 42.5394V44.9313C34.1511 47.3038 34.3845 49.4041 34.8512 51.232C35.3179 53.06 35.9986 54.606 36.8931 55.8701C37.8071 57.1147 38.8961 58.0578 40.1602 58.6996C41.4437 59.3219 42.8827 59.633 44.4773 59.633C46.1109 59.633 47.5596 59.3219 48.8237 58.6996C50.0877 58.0578 51.1573 57.1147 52.0324 55.8701C52.9075 54.606 53.5687 53.06 54.0159 51.232C54.4827 49.4041 54.716 47.3038 54.716 44.9313Z" fill="#008BE8"/>
<path d="M106.877 61.6445L96.0006 93.1982H89.4248L103.126 56.7939H107.327L106.877 61.6445ZM115.978 93.1982L105.077 61.6445L104.602 56.7939H108.827L122.579 93.1982H115.978ZM115.453 79.6966V84.6722H95.6505V79.6966H115.453Z" fill="#008BE8"/>
</svg>
