<svg width="294" height="94" viewBox="0 0 294 94" fill="none" xmlns="http://www.w3.org/2000/svg">
<path d="M284 0C289.523 3.73669e-06 294 4.47716 294 10V65C294 70.5229 289.523 75 284 75H158.97L148 94L137.03 75H10C4.47716 75 2.81872e-07 70.5228 0 65V10C0 4.47715 4.47715 1.85224e-07 10 0H284Z" fill="#008BE8"/>
<path d="M199.35 23.0498C199.83 23.0698 200.3 23.0898 200.76 23.1098C201.22 23.1298 201.7 23.1398 202.2 23.1398C202.48 23.1398 202.89 23.1298 203.43 23.1098C203.97 23.0898 204.59 23.0698 205.29 23.0498C206.01 23.0098 206.73 22.9698 207.45 22.9298C208.19 22.8898 208.86 22.8498 209.46 22.8098C210.08 22.7698 210.58 22.7298 210.96 22.6898C211.46 22.6298 211.88 22.5698 212.22 22.5098C212.56 22.4498 212.83 22.3798 213.03 22.2998L215.4 25.0598C215.08 25.2598 214.68 25.5298 214.2 25.8698C213.74 26.1898 213.35 26.4698 213.03 26.7098C212.61 27.0498 212.16 27.4198 211.68 27.8198C211.2 28.2198 210.7 28.6298 210.18 29.0498C209.68 29.4498 209.18 29.8598 208.68 30.2798C208.18 30.6798 207.69 31.0798 207.21 31.4798C206.75 31.8598 206.31 32.1998 205.89 32.4998C207.23 32.3598 208.64 32.2398 210.12 32.1398C211.62 32.0198 213.09 31.9298 214.53 31.8698C215.99 31.8098 217.33 31.7798 218.55 31.7798V35.3198C217.13 35.2398 215.72 35.1998 214.32 35.1998C212.92 35.1998 211.76 35.2698 210.84 35.4098C210.14 35.4898 209.49 35.6698 208.89 35.9498C208.29 36.2298 207.75 36.5898 207.27 37.0298C206.81 37.4498 206.45 37.9298 206.19 38.4698C205.93 38.9898 205.8 39.5598 205.8 40.1798C205.8 40.9598 205.99 41.5998 206.37 42.0998C206.75 42.5998 207.28 42.9798 207.96 43.2398C208.66 43.4998 209.45 43.6798 210.33 43.7798C211.19 43.8798 212.03 43.9298 212.85 43.9298C213.67 43.9298 214.36 43.9098 214.92 43.8698L214.11 47.7998C210.27 47.9598 207.28 47.4598 205.14 46.2998C203.02 45.1398 201.96 43.3098 201.96 40.8098C201.96 40.1898 202.06 39.5898 202.26 39.0098C202.48 38.4098 202.75 37.8598 203.07 37.3598C203.41 36.8598 203.77 36.4298 204.15 36.0698C202.77 36.1698 201.28 36.3298 199.68 36.5498C198.1 36.7698 196.55 37.0098 195.03 37.2698L194.67 33.6398C195.47 33.5598 196.35 33.4598 197.31 33.3398C198.27 33.2198 199.15 33.1198 199.95 33.0398C200.61 32.5998 201.33 32.0798 202.11 31.4798C202.89 30.8798 203.67 30.2598 204.45 29.6198C205.23 28.9598 205.96 28.3398 206.64 27.7598C207.34 27.1598 207.92 26.6498 208.38 26.2298C208.14 26.2498 207.81 26.2698 207.39 26.2898C206.99 26.3098 206.54 26.3398 206.04 26.3798C205.56 26.3998 205.07 26.4298 204.57 26.4698C204.07 26.4898 203.61 26.5198 203.19 26.5598C202.79 26.5798 202.47 26.5998 202.23 26.6198C201.85 26.6398 201.42 26.6798 200.94 26.7398C200.48 26.7798 200.01 26.8298 199.53 26.8898L199.35 23.0498Z" fill="white"/>
<path d="M168.54 24.1899C169.64 24.3099 170.88 24.3999 172.26 24.4599C173.64 24.5199 175.12 24.5499 176.7 24.5499C177.68 24.5499 178.69 24.5299 179.73 24.4899C180.79 24.4499 181.81 24.3999 182.79 24.3399C183.77 24.2799 184.64 24.2099 185.4 24.1299V28.1199C184.7 28.1799 183.85 28.2399 182.85 28.2999C181.87 28.3599 180.84 28.4099 179.76 28.4499C178.7 28.4699 177.69 28.4799 176.73 28.4799C175.17 28.4799 173.72 28.4499 172.38 28.3899C171.04 28.3299 169.76 28.2499 168.54 28.1499V24.1899ZM171.06 36.9099C170.92 37.4299 170.8 37.9399 170.7 38.4399C170.6 38.9399 170.55 39.4399 170.55 39.9399C170.55 40.8999 171.03 41.6899 171.99 42.3099C172.97 42.9299 174.54 43.2399 176.7 43.2399C178.06 43.2399 179.37 43.1899 180.63 43.0899C181.89 42.9899 183.08 42.8499 184.2 42.6699C185.34 42.4899 186.35 42.2799 187.23 42.0399L187.26 46.2699C186.38 46.4699 185.4 46.6399 184.32 46.7799C183.24 46.9399 182.07 47.0599 180.81 47.1399C179.57 47.2399 178.25 47.2899 176.85 47.2899C174.57 47.2899 172.66 47.0399 171.12 46.5399C169.58 46.0399 168.43 45.3199 167.67 44.3799C166.91 43.4199 166.53 42.2499 166.53 40.8699C166.53 39.9899 166.6 39.1899 166.74 38.4699C166.88 37.7499 167.01 37.1099 167.13 36.5499L171.06 36.9099Z" fill="white"/>
<path d="M142.02 21.8501C142.74 22.0701 143.64 22.3001 144.72 22.5401C145.8 22.7801 146.93 23.0201 148.11 23.2601C149.29 23.4801 150.4 23.6701 151.44 23.8301C152.5 23.9901 153.36 24.1101 154.02 24.1901L153.12 27.8501C152.52 27.7701 151.79 27.6601 150.93 27.5201C150.09 27.3601 149.19 27.1901 148.23 27.0101C147.29 26.8301 146.36 26.6501 145.44 26.4701C144.52 26.2701 143.68 26.0801 142.92 25.9001C142.16 25.7201 141.54 25.5701 141.06 25.4501L142.02 21.8501ZM142.2 27.8801C142.1 28.2801 141.99 28.8001 141.87 29.4401C141.77 30.0601 141.67 30.7101 141.57 31.3901C141.47 32.0701 141.37 32.7201 141.27 33.3401C141.19 33.9601 141.12 34.4801 141.06 34.9001C142.42 33.9201 143.84 33.2001 145.32 32.7401C146.82 32.2801 148.35 32.0501 149.91 32.0501C151.67 32.0501 153.17 32.3701 154.41 33.0101C155.65 33.6501 156.59 34.4901 157.23 35.5301C157.89 36.5701 158.22 37.7001 158.22 38.9201C158.22 40.2801 157.93 41.5401 157.35 42.7001C156.77 43.8601 155.82 44.8501 154.5 45.6701C153.18 46.4901 151.45 47.0701 149.31 47.4101C147.17 47.7501 144.54 47.7901 141.42 47.5301L140.28 43.6001C143.28 44.0001 145.8 44.0601 147.84 43.7801C149.88 43.4801 151.42 42.9001 152.46 42.0401C153.52 41.1601 154.05 40.0901 154.05 38.8301C154.05 38.1701 153.86 37.5901 153.48 37.0901C153.1 36.5701 152.57 36.1701 151.89 35.8901C151.21 35.5901 150.44 35.4401 149.58 35.4401C147.9 35.4401 146.32 35.7501 144.84 36.3701C143.38 36.9701 142.18 37.8401 141.24 38.9801C140.98 39.3001 140.76 39.6001 140.58 39.8801C140.42 40.1401 140.27 40.4201 140.13 40.7201L136.68 39.8501C136.8 39.2701 136.92 38.5901 137.04 37.8101C137.16 37.0101 137.28 36.1601 137.4 35.2601C137.52 34.3401 137.63 33.4201 137.73 32.5001C137.83 31.5801 137.92 30.6701 138 29.7701C138.08 28.8701 138.14 28.0501 138.18 27.3101L142.2 27.8801Z" fill="white"/>
<path d="M115.86 22.3001C115.76 22.6801 115.66 23.1001 115.56 23.5601C115.48 24.0001 115.4 24.4101 115.32 24.7901C115.24 25.2301 115.14 25.7301 115.02 26.2901C114.9 26.8301 114.78 27.3801 114.66 27.9401C114.56 28.4801 114.45 29.0101 114.33 29.5301C114.13 30.3901 113.88 31.3901 113.58 32.5301C113.28 33.6701 112.93 34.9001 112.53 36.2201C112.13 37.5201 111.68 38.8301 111.18 40.1501C110.68 41.4701 110.15 42.7601 109.59 44.0201C109.03 45.2601 108.43 46.3801 107.79 47.3801L103.89 45.8201C104.59 44.8801 105.24 43.8301 105.84 42.6701C106.46 41.4901 107.02 40.2801 107.52 39.0401C108.02 37.8001 108.46 36.5801 108.84 35.3801C109.24 34.1801 109.58 33.0601 109.86 32.0201C110.14 30.9801 110.36 30.0901 110.52 29.3501C110.8 27.9901 111.02 26.6801 111.18 25.4201C111.34 24.1601 111.41 22.9701 111.39 21.8501L115.86 22.3001ZM126.18 25.1201C126.66 25.7601 127.15 26.5701 127.65 27.5501C128.17 28.5101 128.67 29.5301 129.15 30.6101C129.65 31.6901 130.1 32.7301 130.5 33.7301C130.92 34.7301 131.24 35.5801 131.46 36.2801L127.65 38.0501C127.45 37.2101 127.17 36.2801 126.81 35.2601C126.47 34.2201 126.07 33.1701 125.61 32.1101C125.17 31.0301 124.69 30.0101 124.17 29.0501C123.67 28.0901 123.15 27.2901 122.61 26.6501L126.18 25.1201ZM103.68 28.4501C104.22 28.4901 104.75 28.5101 105.27 28.5101C105.79 28.4901 106.33 28.4701 106.89 28.4501C107.37 28.4301 107.96 28.4001 108.66 28.3601C109.38 28.3001 110.13 28.2401 110.91 28.1801C111.71 28.1201 112.51 28.0601 113.31 28.0001C114.11 27.9201 114.85 27.8601 115.53 27.8201C116.21 27.7801 116.77 27.7601 117.21 27.7601C118.27 27.7601 119.2 27.9401 120 28.3001C120.82 28.6401 121.46 29.2301 121.92 30.0701C122.4 30.9101 122.64 32.0501 122.64 33.4901C122.64 34.6701 122.58 35.9501 122.46 37.3301C122.36 38.7101 122.19 40.0301 121.95 41.2901C121.71 42.5501 121.37 43.6201 120.93 44.5001C120.45 45.5401 119.79 46.2601 118.95 46.6601C118.13 47.0601 117.15 47.2601 116.01 47.2601C115.43 47.2601 114.81 47.2101 114.15 47.1101C113.51 47.0301 112.93 46.9401 112.41 46.8401L111.75 42.8801C112.15 42.9801 112.58 43.0801 113.04 43.1801C113.52 43.2801 113.97 43.3601 114.39 43.4201C114.83 43.4801 115.18 43.5101 115.44 43.5101C115.94 43.5101 116.38 43.4201 116.76 43.2401C117.14 43.0401 117.45 42.7001 117.69 42.2201C117.97 41.6401 118.19 40.8901 118.35 39.9701C118.53 39.0501 118.66 38.0601 118.74 37.0001C118.84 35.9201 118.89 34.8901 118.89 33.9101C118.89 33.1101 118.78 32.5201 118.56 32.1401C118.34 31.7601 118.01 31.5101 117.57 31.3901C117.15 31.2501 116.62 31.1801 115.98 31.1801C115.54 31.1801 114.92 31.2201 114.12 31.3001C113.34 31.3601 112.51 31.4401 111.63 31.5401C110.75 31.6201 109.92 31.7101 109.14 31.8101C108.38 31.9101 107.79 31.9801 107.37 32.0201C106.95 32.1001 106.4 32.1901 105.72 32.2901C105.06 32.3701 104.5 32.4501 104.04 32.5301L103.68 28.4501Z" fill="white"/>
<path d="M85.32 22.3902C85.2 22.8102 85.07 23.3102 84.93 23.8902C84.81 24.4502 84.72 24.9002 84.66 25.2402C84.52 25.9202 84.34 26.7502 84.12 27.7302C83.92 28.7102 83.7 29.7502 83.46 30.8502C83.22 31.9302 82.97 32.9802 82.71 34.0002C82.43 35.0402 82.1 36.1802 81.72 37.4202C81.36 38.6602 80.96 39.9102 80.52 41.1702C80.1 42.4302 79.67 43.6402 79.23 44.8002C78.79 45.9602 78.36 46.9902 77.94 47.8902L73.74 46.4802C74.2 45.7202 74.67 44.7902 75.15 43.6902C75.65 42.5902 76.14 41.4202 76.62 40.1802C77.1 38.9202 77.54 37.6702 77.94 36.4302C78.34 35.1702 78.68 34.0202 78.96 32.9802C79.14 32.2602 79.32 31.5302 79.5 30.7902C79.68 30.0502 79.84 29.3302 79.98 28.6302C80.14 27.9302 80.27 27.2802 80.37 26.6802C80.49 26.0602 80.58 25.5302 80.64 25.0902C80.7 24.5302 80.74 23.9702 80.76 23.4102C80.78 22.8502 80.77 22.3902 80.73 22.0302L85.32 22.3902ZM77.67 26.8902C78.89 26.8902 80.16 26.8302 81.48 26.7102C82.8 26.5902 84.13 26.4202 85.47 26.2002C86.81 25.9602 88.14 25.6902 89.46 25.3902V29.1402C88.22 29.4402 86.9 29.6902 85.5 29.8902C84.1 30.0902 82.72 30.2502 81.36 30.3702C80 30.4702 78.75 30.5202 77.61 30.5202C76.89 30.5202 76.24 30.5102 75.66 30.4902C75.08 30.4502 74.52 30.4202 73.98 30.4002L73.89 26.6502C74.67 26.7302 75.34 26.7902 75.9 26.8302C76.46 26.8702 77.05 26.8902 77.67 26.8902ZM87.09 31.4802C87.93 31.3802 88.86 31.3102 89.88 31.2702C90.9 31.2102 91.89 31.1802 92.85 31.1802C93.71 31.1802 94.58 31.2002 95.46 31.2402C96.36 31.2802 97.25 31.3502 98.13 31.4502L98.04 35.0502C97.3 34.9502 96.48 34.8602 95.58 34.7802C94.7 34.7002 93.8 34.6602 92.88 34.6602C91.84 34.6602 90.85 34.6902 89.91 34.7502C88.97 34.7902 88.03 34.8702 87.09 34.9902V31.4802ZM88.71 39.0102C88.59 39.4302 88.49 39.8702 88.41 40.3302C88.33 40.7902 88.29 41.1802 88.29 41.5002C88.29 41.8402 88.36 42.1502 88.5 42.4302C88.64 42.7102 88.86 42.9602 89.16 43.1802C89.46 43.3802 89.87 43.5402 90.39 43.6602C90.93 43.7602 91.6 43.8102 92.4 43.8102C93.4 43.8102 94.42 43.7602 95.46 43.6602C96.5 43.5602 97.56 43.4102 98.64 43.2102L98.49 47.0202C97.65 47.1402 96.72 47.2402 95.7 47.3202C94.68 47.4202 93.57 47.4702 92.37 47.4702C89.85 47.4702 87.92 47.0502 86.58 46.2102C85.26 45.3702 84.6 44.2002 84.6 42.7002C84.6 42.0002 84.65 41.3002 84.75 40.6002C84.87 39.9002 84.99 39.2602 85.11 38.6802L88.71 39.0102ZM94.92 23.2602C95.18 23.6202 95.45 24.0502 95.73 24.5502C96.03 25.0502 96.32 25.5502 96.6 26.0502C96.88 26.5502 97.11 26.9902 97.29 27.3702L94.89 28.4202C94.69 28.0002 94.46 27.5402 94.2 27.0402C93.94 26.5402 93.67 26.0402 93.39 25.5402C93.11 25.0402 92.83 24.6102 92.55 24.2502L94.92 23.2602ZM98.46 21.9102C98.74 22.2702 99.03 22.7102 99.33 23.2302C99.63 23.7302 99.92 24.2302 100.2 24.7302C100.5 25.2102 100.73 25.6302 100.89 25.9902L98.52 27.0102C98.2 26.3702 97.82 25.6602 97.38 24.8802C96.94 24.1002 96.51 23.4302 96.09 22.8702L98.46 21.9102Z" fill="white"/>
</svg>
