<svg width="981" height="265" viewBox="0 0 981 265" fill="none" xmlns="http://www.w3.org/2000/svg">
<mask id="path-1-inside-1_2002_55" fill="white">
<path d="M971 0C976.523 1.35938e-05 981 4.47716 981 10V225C981 230.523 976.523 235 971 235H521.705L491 265L460.295 235H10C4.47716 235 0 230.523 0 225V10C0 4.47715 4.47715 0 10 0H971Z"/>
</mask>
<path d="M971 0C976.523 1.35938e-05 981 4.47716 981 10V225C981 230.523 976.523 235 971 235H521.705L491 265L460.295 235H10C4.47716 235 0 230.523 0 225V10C0 4.47715 4.47715 0 10 0H971Z" fill="white"/>
<path d="M971 0V-4V-4V0ZM521.705 235V231H520.075L518.91 232.139L521.705 235ZM491 265L488.205 267.861L491 270.592L493.795 267.861L491 265ZM460.295 235L463.09 232.139L461.925 231H460.295V235ZM10 235L9.99999 239H10V235ZM971 0V4C974.314 4.00001 977 6.68631 977 10H981H985C985 2.26801 978.732 -3.99998 971 -4V0ZM981 10H977V225H981H985V10H981ZM981 225H977C977 228.314 974.314 231 971 231V235V239C978.732 239 985 232.732 985 225H981ZM971 235V231H521.705V235V239H971V235ZM521.705 235L518.91 232.139L488.205 262.139L491 265L493.795 267.861L524.5 237.861L521.705 235ZM491 265L493.795 262.139L463.09 232.139L460.295 235L457.5 237.861L488.205 267.861L491 265ZM460.295 235V231H10V235V239H460.295V235ZM10 235L10 231C6.6863 231 4 228.314 4 225H0H-4C-4 232.732 2.26803 239 9.99999 239L10 235ZM0 225H4V10H0H-4V225H0ZM0 10H4C4 6.68629 6.68629 4 10 4V0V-4C2.26801 -4 -4 2.26801 -4 10H0ZM10 0V4H971V0V-4H10V0Z" fill="#070E50" mask="url(#path-1-inside-1_2002_55)"/>
</svg>
