<svg width="573" height="101" viewBox="0 0 573 101" fill="none" xmlns="http://www.w3.org/2000/svg">
<g filter="url(#filter0_d_1_187)">
<rect x="11" y="7" width="551" height="79" rx="39.5" fill="#00B900" stroke="#00B900" stroke-width="2"/>
<rect x="13.4414" y="8.5249" width="546.117" height="75.95" rx="37.975" stroke="white"/>
<g filter="url(#filter1_f_1_187)">
<path d="M39.4148 29.7938C39.4148 21.6856 45.9878 15.1125 54.096 15.1125H520.374C528.483 15.1125 535.056 21.6856 535.056 29.7938C535.056 37.902 528.447 44.475 520.339 44.475C340.729 44.475 233.741 44.475 54.1314 44.475C46.0232 44.475 39.4148 37.902 39.4148 29.7938Z" fill="white" fill-opacity="0.2"/>
</g>
<path d="M374.587 50.7115C375.007 50.7715 375.457 50.8115 375.937 50.8315C376.417 50.8515 376.877 50.8615 377.317 50.8615C377.637 50.8615 378.117 50.8615 378.757 50.8615C379.397 50.8415 380.117 50.8215 380.917 50.8015C381.737 50.7815 382.547 50.7615 383.347 50.7415C384.147 50.7215 384.867 50.7015 385.507 50.6815C386.167 50.6415 386.677 50.6115 387.037 50.5915C387.657 50.5315 388.147 50.4815 388.507 50.4415C388.867 50.3815 389.137 50.3215 389.317 50.2615L391.267 52.9315C390.927 53.1515 390.577 53.3715 390.217 53.5915C389.857 53.8115 389.507 54.0515 389.167 54.3115C388.767 54.5915 388.287 54.9615 387.727 55.4215C387.167 55.8615 386.567 56.3315 385.927 56.8315C385.307 57.3315 384.697 57.8215 384.097 58.3015C383.517 58.7815 382.987 59.2115 382.507 59.5915C383.007 59.4715 383.487 59.3915 383.947 59.3515C384.407 59.2915 384.877 59.2615 385.357 59.2615C387.057 59.2615 388.577 59.5915 389.917 60.2515C391.277 60.9115 392.347 61.8115 393.127 62.9515C393.927 64.0715 394.327 65.3615 394.327 66.8215C394.327 68.4015 393.927 69.8315 393.127 71.1115C392.327 72.3915 391.117 73.4115 389.497 74.1715C387.897 74.9315 385.887 75.3115 383.467 75.3115C382.087 75.3115 380.837 75.1115 379.717 74.7115C378.617 74.3115 377.747 73.7415 377.107 73.0015C376.467 72.2615 376.147 71.3915 376.147 70.3915C376.147 69.5715 376.367 68.8115 376.807 68.1115C377.267 67.3915 377.897 66.8115 378.697 66.3715C379.517 65.9315 380.457 65.7115 381.517 65.7115C382.897 65.7115 384.057 65.9915 384.997 66.5515C385.957 67.0915 386.687 67.8215 387.187 68.7415C387.707 69.6615 387.977 70.6715 387.997 71.7715L384.487 72.2515C384.467 71.1515 384.187 70.2715 383.647 69.6115C383.127 68.9315 382.427 68.5915 381.547 68.5915C380.987 68.5915 380.537 68.7415 380.197 69.0415C379.857 69.3215 379.687 69.6515 379.687 70.0315C379.687 70.5915 379.967 71.0415 380.527 71.3815C381.087 71.7215 381.817 71.8915 382.717 71.8915C384.417 71.8915 385.837 71.6915 386.977 71.2915C388.117 70.8715 388.967 70.2815 389.527 69.5215C390.107 68.7415 390.397 67.8215 390.397 66.7615C390.397 65.8615 390.117 65.0715 389.557 64.3915C389.017 63.7115 388.277 63.1815 387.337 62.8015C386.397 62.4215 385.337 62.2315 384.157 62.2315C382.997 62.2315 381.937 62.3815 380.977 62.6815C380.017 62.9615 379.107 63.3715 378.247 63.9115C377.407 64.4315 376.577 65.0715 375.757 65.8315C374.957 66.5715 374.157 67.4015 373.357 68.3215L370.627 65.5015C371.167 65.0615 371.777 64.5715 372.457 64.0315C373.137 63.4715 373.827 62.8915 374.527 62.2915C375.247 61.6915 375.917 61.1315 376.537 60.6115C377.177 60.0715 377.717 59.6215 378.157 59.2615C378.577 58.9215 379.067 58.5215 379.627 58.0615C380.187 57.6015 380.767 57.1315 381.367 56.6515C381.967 56.1515 382.537 55.6815 383.077 55.2415C383.617 54.7815 384.067 54.3915 384.427 54.0715C384.127 54.0715 383.737 54.0815 383.257 54.1015C382.777 54.1215 382.247 54.1415 381.667 54.1615C381.107 54.1815 380.537 54.2015 379.957 54.2215C379.397 54.2415 378.867 54.2715 378.367 54.3115C377.887 54.3315 377.487 54.3515 377.167 54.3715C376.767 54.3915 376.347 54.4215 375.907 54.4615C375.467 54.5015 375.067 54.5515 374.707 54.6115L374.587 50.7115Z" fill="white"/>
<path d="M356.977 49.3914C356.957 49.5514 356.927 49.8114 356.887 50.1714C356.867 50.5114 356.847 50.8614 356.827 51.2214C356.807 51.5614 356.787 51.8114 356.767 51.9714C356.747 52.3714 356.737 52.9114 356.737 53.5914C356.737 54.2514 356.737 54.9914 356.737 55.8114C356.737 56.6314 356.737 57.4614 356.737 58.3014C356.757 59.1214 356.767 59.9014 356.767 60.6414C356.787 61.3614 356.797 61.9614 356.797 62.4414L353.047 61.1814C353.047 60.8014 353.047 60.3014 353.047 59.6814C353.047 59.0414 353.047 58.3514 353.047 57.6114C353.047 56.8514 353.037 56.1014 353.017 55.3614C353.017 54.6214 353.007 53.9514 352.987 53.3514C352.967 52.7514 352.947 52.3014 352.927 52.0014C352.887 51.3814 352.837 50.8414 352.777 50.3814C352.717 49.9014 352.667 49.5714 352.627 49.3914H356.977ZM340.027 53.1114C340.907 53.1114 341.907 53.1014 343.027 53.0814C344.147 53.0614 345.317 53.0414 346.537 53.0214C347.757 53.0014 348.957 52.9814 350.137 52.9614C351.317 52.9414 352.427 52.9314 353.467 52.9314C354.507 52.9114 355.407 52.9014 356.167 52.9014C356.927 52.9014 357.757 52.9014 358.657 52.9014C359.557 52.8814 360.447 52.8714 361.327 52.8714C362.207 52.8714 363.007 52.8714 363.727 52.8714C364.467 52.8714 365.037 52.8714 365.437 52.8714L365.407 56.4114C364.467 56.3714 363.227 56.3414 361.687 56.3214C360.147 56.2814 358.267 56.2614 356.047 56.2614C354.687 56.2614 353.307 56.2814 351.907 56.3214C350.507 56.3414 349.117 56.3714 347.737 56.4114C346.357 56.4514 345.027 56.5014 343.747 56.5614C342.467 56.6014 341.257 56.6614 340.117 56.7414L340.027 53.1114ZM356.257 61.9914C356.257 63.6314 356.057 64.9914 355.657 66.0714C355.277 67.1514 354.697 67.9714 353.917 68.5314C353.137 69.0714 352.167 69.3414 351.007 69.3414C350.447 69.3414 349.857 69.2214 349.237 68.9814C348.637 68.7414 348.077 68.3914 347.557 67.9314C347.037 67.4714 346.617 66.9014 346.297 66.2214C345.997 65.5414 345.847 64.7414 345.847 63.8214C345.847 62.6814 346.117 61.7014 346.657 60.8814C347.197 60.0414 347.917 59.3914 348.817 58.9314C349.737 58.4514 350.747 58.2114 351.847 58.2114C353.167 58.2114 354.267 58.5114 355.147 59.1114C356.047 59.6914 356.717 60.4814 357.157 61.4814C357.617 62.4814 357.847 63.6114 357.847 64.8714C357.847 65.8514 357.687 66.8714 357.367 67.9314C357.047 68.9914 356.517 70.0314 355.777 71.0514C355.057 72.0514 354.077 72.9614 352.837 73.7814C351.617 74.6014 350.087 75.2714 348.247 75.7914L345.037 72.6114C346.317 72.3514 347.507 72.0114 348.607 71.5914C349.707 71.1714 350.667 70.6414 351.487 70.0014C352.327 69.3614 352.977 68.5714 353.437 67.6314C353.917 66.6914 354.157 65.5614 354.157 64.2414C354.157 63.2814 353.917 62.5614 353.437 62.0814C352.977 61.6014 352.417 61.3614 351.757 61.3614C351.377 61.3614 351.007 61.4514 350.647 61.6314C350.287 61.8114 349.997 62.0814 349.777 62.4414C349.557 62.8014 349.447 63.2414 349.447 63.7614C349.447 64.4414 349.677 64.9914 350.137 65.4114C350.617 65.8114 351.157 66.0114 351.757 66.0114C352.237 66.0114 352.657 65.8614 353.017 65.5614C353.397 65.2614 353.647 64.7614 353.767 64.0614C353.887 63.3614 353.787 62.4214 353.467 61.2414L356.257 61.9914Z" fill="white"/>
<path d="M325.447 56.5015L327.667 54.1315C328.527 54.6115 329.467 55.1615 330.487 55.7815C331.527 56.4015 332.517 57.0315 333.457 57.6715C334.417 58.2915 335.197 58.8515 335.797 59.3515L333.397 62.0815C332.857 61.5415 332.127 60.9415 331.207 60.2815C330.287 59.6215 329.317 58.9615 328.297 58.3015C327.277 57.6415 326.327 57.0415 325.447 56.5015ZM327.517 60.8215H329.317V65.3815C329.317 65.7815 329.377 66.2415 329.497 66.7615C329.617 67.2815 329.817 67.8415 330.097 68.4415C330.397 69.0215 330.807 69.6015 331.327 70.1815C331.847 70.7415 332.497 71.2915 333.277 71.8315C334.057 72.3515 334.987 72.8215 336.067 73.2415C335.767 73.6615 335.407 74.1715 334.987 74.7715C334.567 75.3715 334.237 75.8815 333.997 76.3015C333.057 75.9415 332.207 75.4815 331.447 74.9215C330.707 74.3615 330.067 73.7715 329.527 73.1515C328.987 72.5115 328.547 71.8915 328.207 71.2915C327.867 70.6715 327.627 70.1315 327.487 69.6715C327.327 70.1315 327.057 70.6615 326.677 71.2615C326.317 71.8615 325.837 72.4815 325.237 73.1215C324.637 73.7415 323.927 74.3215 323.107 74.8615C322.307 75.4215 321.387 75.9015 320.347 76.3015C320.207 76.0215 320.017 75.6915 319.777 75.3115C319.557 74.9515 319.317 74.5915 319.057 74.2315C318.797 73.8915 318.557 73.6015 318.337 73.3615C319.497 72.9615 320.487 72.4915 321.307 71.9515C322.147 71.4115 322.847 70.8515 323.407 70.2715C323.967 69.6715 324.407 69.0815 324.727 68.5015C325.067 67.9015 325.297 67.3315 325.417 66.7915C325.557 66.2515 325.627 65.7815 325.627 65.3815V60.8215H327.517ZM325.897 48.0715H329.437C329.357 49.8715 329.197 51.5115 328.957 52.9915C328.737 54.4715 328.337 55.8015 327.757 56.9815C327.197 58.1415 326.367 59.1615 325.267 60.0415C324.187 60.9215 322.737 61.6815 320.917 62.3215C320.757 61.8815 320.477 61.3815 320.077 60.8215C319.677 60.2415 319.287 59.7915 318.907 59.4715C320.487 58.9915 321.727 58.4115 322.627 57.7315C323.527 57.0315 324.197 56.2215 324.637 55.3015C325.097 54.3615 325.407 53.3015 325.567 52.1215C325.727 50.9215 325.837 49.5715 325.897 48.0715ZM321.487 49.8715L324.427 50.4415C324.287 51.4615 324.017 52.4815 323.617 53.5015C323.217 54.5215 322.687 55.3715 322.027 56.0515L319.237 54.8215C319.777 54.2815 320.247 53.5515 320.647 52.6315C321.047 51.7115 321.327 50.7915 321.487 49.8715ZM321.127 62.8915L324.277 63.5215C324.077 64.6815 323.737 65.8215 323.257 66.9415C322.797 68.0415 322.197 68.9615 321.457 69.7015L318.517 68.2015C319.157 67.6415 319.697 66.8715 320.137 65.8915C320.597 64.9115 320.927 63.9115 321.127 62.8915ZM332.077 49.6615L335.527 50.7415C335.027 51.6415 334.517 52.5315 333.997 53.4115C333.497 54.2715 333.037 55.0115 332.617 55.6315L329.917 54.6115C330.177 54.1715 330.447 53.6615 330.727 53.0815C331.007 52.5015 331.267 51.9115 331.507 51.3115C331.747 50.7115 331.937 50.1615 332.077 49.6615ZM332.257 62.6815L335.797 63.7915C335.257 64.7115 334.707 65.6415 334.147 66.5815C333.607 67.5215 333.097 68.3115 332.617 68.9515L329.827 67.9315C330.127 67.4515 330.427 66.9115 330.727 66.3115C331.027 65.6915 331.307 65.0615 331.567 64.4215C331.847 63.7815 332.077 63.2015 332.257 62.6815ZM309.097 57.2815H318.157V60.0115H309.097V57.2815ZM309.217 49.0315H318.097V51.7315H309.217V49.0315ZM309.097 61.3915H318.157V64.0915H309.097V61.3915ZM307.687 53.0515H319.147V55.9015H307.687V53.0515ZM310.657 65.5315H318.217V74.6815H310.657V71.8315H315.127V68.3815H310.657V65.5315ZM309.037 65.5315H312.067V75.8515H309.037V65.5315Z" fill="white"/>
<path d="M291.847 56.8015H302.587V60.0715H291.847V56.8015ZM291.847 63.9115H302.587V67.1515H291.847V63.9115ZM291.847 70.9915H302.587V74.2615H291.847V70.9915ZM290.137 49.6915H304.267V75.8215H300.667V53.1115H293.587V76.0015H290.137V49.6915ZM277.537 54.2815H289.057V57.6715H277.537V54.2815ZM281.857 48.0715H285.307V76.2415H281.857V48.0715ZM281.677 56.5915L283.807 57.3415C283.567 58.5615 283.267 59.8215 282.907 61.1215C282.547 62.4015 282.137 63.6615 281.677 64.9015C281.217 66.1215 280.717 67.2715 280.177 68.3515C279.637 69.4115 279.067 70.3215 278.467 71.0815C278.307 70.5815 278.057 70.0115 277.717 69.3715C277.377 68.7115 277.057 68.1615 276.757 67.7215C277.297 67.0615 277.817 66.2915 278.317 65.4115C278.817 64.5315 279.277 63.6015 279.697 62.6215C280.137 61.6215 280.527 60.6115 280.867 59.5915C281.207 58.5515 281.477 57.5515 281.677 56.5915ZM285.067 59.2315C285.287 59.4315 285.607 59.7815 286.027 60.2815C286.447 60.7615 286.887 61.2915 287.347 61.8715C287.827 62.4515 288.267 62.9915 288.667 63.4915C289.087 63.9715 289.377 64.3115 289.537 64.5115L287.467 67.4215C287.247 66.9815 286.967 66.4615 286.627 65.8615C286.287 65.2615 285.917 64.6515 285.517 64.0315C285.117 63.4115 284.727 62.8215 284.347 62.2615C283.987 61.7015 283.677 61.2315 283.417 60.8515L285.067 59.2315Z" fill="white"/>
<path d="M247.657 52.9914C248.257 52.9714 248.827 52.9514 249.367 52.9314C249.907 52.8914 250.317 52.8614 250.597 52.8414C251.217 52.8014 251.977 52.7414 252.877 52.6614C253.797 52.5614 254.817 52.4614 255.937 52.3614C257.077 52.2614 258.287 52.1614 259.567 52.0614C260.847 51.9614 262.177 51.8514 263.557 51.7314C264.597 51.6314 265.627 51.5514 266.647 51.4914C267.687 51.4114 268.667 51.3514 269.587 51.3114C270.527 51.2514 271.347 51.2114 272.047 51.1914L272.077 55.0314C271.537 55.0314 270.917 55.0414 270.217 55.0614C269.517 55.0814 268.817 55.1214 268.117 55.1814C267.437 55.2214 266.827 55.3114 266.287 55.4514C265.387 55.6914 264.547 56.1014 263.767 56.6814C262.987 57.2414 262.307 57.9114 261.727 58.6914C261.167 59.4514 260.727 60.2814 260.407 61.1814C260.087 62.0614 259.927 62.9514 259.927 63.8514C259.927 64.8314 260.097 65.7014 260.437 66.4614C260.797 67.2014 261.277 67.8414 261.877 68.3814C262.497 68.9014 263.217 69.3414 264.037 69.7014C264.857 70.0414 265.737 70.3014 266.677 70.4814C267.637 70.6614 268.627 70.7814 269.647 70.8414L268.237 74.9514C266.977 74.8714 265.747 74.6714 264.547 74.3514C263.367 74.0314 262.257 73.5914 261.217 73.0314C260.177 72.4714 259.267 71.7914 258.487 70.9914C257.727 70.1714 257.117 69.2414 256.657 68.2014C256.217 67.1414 255.997 65.9614 255.997 64.6614C255.997 63.2214 256.227 61.9014 256.687 60.7014C257.147 59.4814 257.717 58.4214 258.397 57.5214C259.097 56.6014 259.787 55.8914 260.467 55.3914C259.907 55.4714 259.227 55.5514 258.427 55.6314C257.647 55.7114 256.797 55.8114 255.877 55.9314C254.977 56.0314 254.057 56.1414 253.117 56.2614C252.177 56.3814 251.267 56.5214 250.387 56.6814C249.527 56.8214 248.747 56.9614 248.047 57.1014L247.657 52.9914ZM267.787 57.9714C268.047 58.3314 268.317 58.7614 268.597 59.2614C268.897 59.7414 269.187 60.2314 269.467 60.7314C269.747 61.2114 269.987 61.6514 270.187 62.0514L267.907 63.0714C267.527 62.2314 267.157 61.4914 266.797 60.8514C266.457 60.2114 266.047 59.5614 265.567 58.9014L267.787 57.9714ZM271.147 56.5914C271.407 56.9514 271.687 57.3714 271.987 57.8514C272.307 58.3114 272.617 58.7914 272.917 59.2914C273.217 59.7714 273.467 60.2014 273.667 60.5814L271.417 61.6614C271.017 60.8614 270.627 60.1514 270.247 59.5314C269.887 58.9114 269.457 58.2714 268.957 57.6114L271.147 56.5914Z" fill="white"/>
<path d="M229.26 73.5713V51.3413H242.88V55.0613H233.7V60.1913H241.47V63.9113H233.7V69.8513H243.21V73.5713H229.26Z" fill="white"/>
<path d="M206.189 73.5713V51.3413H210.719L217.169 63.1913L219.419 67.9913H219.569C219.449 66.8313 219.319 65.5613 219.179 64.1813C219.039 62.8013 218.969 61.4813 218.969 60.2213V51.3413H223.169V73.5713H218.639L212.249 61.6913L209.999 56.9213H209.849C209.949 58.1213 210.069 59.3913 210.209 60.7313C210.349 62.0713 210.419 63.3813 210.419 64.6613V73.5713H206.189Z" fill="white"/>
<path d="M195.687 73.5713V51.3413H200.127V73.5713H195.687Z" fill="white"/>
<path d="M177.743 73.5713V51.3413H182.183V69.8513H191.213V73.5713H177.743Z" fill="white"/>
<path d="M407.547 31.4034L406.899 23.1954L406.779 19.6194H410.763L410.643 23.1954L409.995 31.4034H407.547ZM408.771 37.7874C408.163 37.7874 407.659 37.5874 407.259 37.1874C406.859 36.7874 406.659 36.2834 406.659 35.6754C406.659 35.0514 406.859 34.5394 407.259 34.1394C407.659 33.7394 408.163 33.5394 408.771 33.5394C409.379 33.5394 409.883 33.7394 410.283 34.1394C410.683 34.5394 410.883 35.0514 410.883 35.6754C410.883 36.2834 410.683 36.7874 410.283 37.1874C409.883 37.5874 409.379 37.7874 408.771 37.7874Z" fill="white"/>
<path d="M376.659 17.0754L379.659 17.6994C379.371 18.4354 379.059 19.1794 378.723 19.9314C378.403 20.6674 378.075 21.3714 377.739 22.0434C377.419 22.6994 377.107 23.2834 376.803 23.7954L374.283 23.1474C374.587 22.6034 374.883 21.9794 375.171 21.2754C375.475 20.5714 375.755 19.8514 376.011 19.1154C376.283 18.3794 376.499 17.6994 376.659 17.0754ZM373.011 21.9954C373.875 21.9634 374.867 21.9314 375.987 21.8994C377.107 21.8514 378.283 21.7954 379.515 21.7314C380.747 21.6674 381.987 21.6114 383.235 21.5634L383.211 24.0834C382.027 24.1634 380.843 24.2434 379.659 24.3234C378.475 24.4034 377.339 24.4754 376.251 24.5394C375.163 24.6034 374.163 24.6674 373.251 24.7314L373.011 21.9954ZM374.451 25.8594H382.059V28.2114H377.115V39.7074H374.451V25.8594ZM380.691 25.8594H383.547V36.8034C383.547 37.4274 383.475 37.9234 383.331 38.2914C383.187 38.6754 382.907 38.9714 382.491 39.1794C382.091 39.4034 381.611 39.5394 381.051 39.5874C380.491 39.6354 379.851 39.6594 379.131 39.6594C379.067 39.2754 378.939 38.8354 378.747 38.3394C378.571 37.8594 378.387 37.4514 378.195 37.1154C378.627 37.1314 379.051 37.1394 379.467 37.1394C379.883 37.1394 380.163 37.1314 380.307 37.1154C380.467 37.1154 380.571 37.0914 380.619 37.0434C380.667 36.9954 380.691 36.8994 380.691 36.7554V25.8594ZM375.651 29.4834H382.323V31.6194H375.651V29.4834ZM375.651 33.0114H382.323V35.1474H375.651V33.0114ZM385.443 17.2674H388.299V24.4914C388.299 24.9074 388.363 25.1714 388.491 25.2834C388.619 25.3954 388.907 25.4514 389.355 25.4514C389.451 25.4514 389.619 25.4514 389.859 25.4514C390.099 25.4514 390.355 25.4514 390.627 25.4514C390.915 25.4514 391.179 25.4514 391.419 25.4514C391.675 25.4514 391.867 25.4514 391.995 25.4514C392.267 25.4514 392.467 25.3954 392.595 25.2834C392.723 25.1554 392.819 24.9154 392.883 24.5634C392.947 24.1954 392.995 23.6594 393.027 22.9554C393.219 23.1154 393.467 23.2674 393.771 23.4114C394.075 23.5394 394.387 23.6594 394.707 23.7714C395.027 23.8834 395.315 23.9714 395.571 24.0354C395.475 25.0754 395.307 25.8834 395.067 26.4594C394.843 27.0354 394.507 27.4434 394.059 27.6834C393.611 27.9074 393.011 28.0194 392.259 28.0194C392.147 28.0194 391.979 28.0194 391.755 28.0194C391.531 28.0194 391.275 28.0194 390.987 28.0194C390.715 28.0194 390.443 28.0194 390.171 28.0194C389.915 28.0194 389.675 28.0194 389.451 28.0194C389.243 28.0194 389.083 28.0194 388.971 28.0194C388.027 28.0194 387.299 27.9154 386.787 27.7074C386.275 27.4834 385.923 27.1234 385.731 26.6274C385.539 26.1154 385.443 25.4114 385.443 24.5154V17.2674ZM392.643 18.6834L394.467 20.7954C393.747 21.1314 392.971 21.4594 392.139 21.7794C391.323 22.0834 390.491 22.3714 389.643 22.6434C388.795 22.9154 387.971 23.1554 387.171 23.3634C387.107 23.0914 386.987 22.7634 386.811 22.3794C386.651 21.9954 386.499 21.6674 386.355 21.3954C387.091 21.1554 387.843 20.8914 388.611 20.6034C389.379 20.2994 390.107 19.9794 390.795 19.6434C391.499 19.3074 392.115 18.9874 392.643 18.6834ZM385.443 28.4994H388.299V36.0594C388.299 36.4914 388.363 36.7634 388.491 36.8754C388.635 36.9874 388.939 37.0434 389.403 37.0434C389.499 37.0434 389.667 37.0434 389.907 37.0434C390.147 37.0434 390.411 37.0434 390.699 37.0434C391.003 37.0434 391.283 37.0434 391.539 37.0434C391.811 37.0434 392.003 37.0434 392.115 37.0434C392.403 37.0434 392.619 36.9714 392.763 36.8274C392.907 36.6834 393.011 36.4034 393.075 35.9874C393.155 35.5714 393.211 34.9554 393.243 34.1394C393.547 34.3634 393.947 34.5794 394.443 34.7874C394.939 34.9794 395.379 35.1234 395.763 35.2194C395.667 36.3394 395.499 37.2114 395.259 37.8354C395.035 38.4754 394.691 38.9234 394.227 39.1794C393.779 39.4354 393.171 39.5634 392.403 39.5634C392.275 39.5634 392.091 39.5634 391.851 39.5634C391.627 39.5634 391.371 39.5634 391.083 39.5634C390.811 39.5634 390.531 39.5634 390.243 39.5634C389.971 39.5634 389.723 39.5634 389.499 39.5634C389.275 39.5634 389.099 39.5634 388.971 39.5634C388.043 39.5634 387.323 39.4514 386.811 39.2274C386.299 39.0194 385.939 38.6594 385.731 38.1474C385.539 37.6514 385.443 36.9634 385.443 36.0834V28.4994ZM392.811 29.4834L394.707 31.5954C393.987 31.9954 393.195 32.3714 392.331 32.7234C391.467 33.0594 390.595 33.3794 389.715 33.6834C388.835 33.9874 387.971 34.2594 387.123 34.4994C387.059 34.2274 386.939 33.8914 386.763 33.4914C386.603 33.0914 386.443 32.7554 386.283 32.4834C387.067 32.2274 387.859 31.9314 388.659 31.5954C389.459 31.2594 390.219 30.9154 390.939 30.5634C391.659 30.1954 392.283 29.8354 392.811 29.4834ZM379.923 19.6914L382.347 18.7794C382.747 19.3554 383.131 19.9794 383.499 20.6514C383.883 21.3234 384.227 21.9874 384.531 22.6434C384.851 23.2834 385.091 23.8674 385.251 24.3954L382.611 25.4274C382.483 24.9154 382.275 24.3314 381.987 23.6754C381.715 23.0194 381.395 22.3474 381.027 21.6594C380.675 20.9554 380.307 20.2994 379.923 19.6914Z" fill="white"/>
<path d="M364.899 19.5955H367.923V36.0835C367.923 36.9475 367.811 37.6115 367.587 38.0755C367.363 38.5555 366.955 38.9155 366.363 39.1555C365.787 39.3955 365.051 39.5395 364.155 39.5875C363.259 39.6515 362.195 39.6835 360.963 39.6835C360.899 39.3955 360.803 39.0595 360.675 38.6755C360.547 38.3075 360.395 37.9395 360.219 37.5715C360.059 37.2035 359.899 36.8915 359.739 36.6355C360.331 36.6515 360.923 36.6675 361.515 36.6835C362.123 36.6995 362.667 36.7075 363.147 36.7075C363.627 36.7075 363.963 36.7075 364.155 36.7075C364.427 36.7075 364.619 36.6595 364.731 36.5635C364.843 36.4675 364.899 36.2915 364.899 36.0355V19.5955ZM351.195 24.3955H353.979V35.5795H351.195V24.3955ZM352.371 24.3955H361.419V33.7315H352.371V30.9715H358.587V27.1315H352.371V24.3955ZM348.963 18.7795H370.707V21.7075H348.963V18.7795Z" fill="white"/>
<path d="M331.755 22.3794H346.563V25.2834H331.755V22.3794ZM340.923 17.4594H343.899V36.2274C343.899 37.1554 343.779 37.8354 343.539 38.2674C343.315 38.7154 342.907 39.0514 342.315 39.2754C341.739 39.4834 340.979 39.6194 340.035 39.6834C339.107 39.7474 337.979 39.7714 336.651 39.7554C336.619 39.4674 336.539 39.1554 336.411 38.8194C336.299 38.4834 336.163 38.1394 336.003 37.7874C335.859 37.4354 335.707 37.1394 335.547 36.8994C336.171 36.9154 336.795 36.9314 337.419 36.9474C338.059 36.9634 338.619 36.9714 339.099 36.9714C339.579 36.9554 339.915 36.9474 340.107 36.9474C340.411 36.9474 340.619 36.8914 340.731 36.7794C340.859 36.6674 340.923 36.4834 340.923 36.2274V17.4594ZM332.835 28.1874L335.379 27.0114C335.747 27.5874 336.139 28.2194 336.555 28.9074C336.971 29.5794 337.371 30.2434 337.755 30.8994C338.139 31.5394 338.443 32.0994 338.667 32.5794L335.931 33.9954C335.739 33.4834 335.467 32.8994 335.115 32.2434C334.763 31.5874 334.387 30.8994 333.987 30.1794C333.587 29.4594 333.203 28.7954 332.835 28.1874ZM327.339 24.2274L330.219 21.3474L330.267 21.3714V39.6834H327.339V24.2274ZM329.715 17.3154L332.571 18.2034C332.027 19.5954 331.387 20.9874 330.651 22.3794C329.915 23.7714 329.123 25.0834 328.275 26.3154C327.427 27.5474 326.547 28.6194 325.635 29.5314C325.539 29.2914 325.387 28.9794 325.179 28.5954C324.987 28.2114 324.779 27.8354 324.555 27.4674C324.331 27.0834 324.131 26.7714 323.955 26.5314C324.723 25.7954 325.467 24.9394 326.187 23.9634C326.907 22.9714 327.571 21.9074 328.179 20.7714C328.787 19.6354 329.299 18.4834 329.715 17.3154Z" fill="white"/>
<path d="M300.339 24.0595H321.387V29.3155H318.579V26.5555H303.051V29.3155H300.339V24.0595ZM303.819 28.4035H316.467V31.0675H303.819V28.4035ZM318.579 17.0515L320.523 19.3795C319.163 19.6355 317.691 19.8675 316.107 20.0755C314.539 20.2675 312.907 20.4355 311.211 20.5795C309.531 20.7235 307.843 20.8435 306.147 20.9395C304.451 21.0355 302.803 21.0995 301.203 21.1315C301.187 20.7795 301.107 20.3635 300.963 19.8835C300.835 19.4035 300.707 19.0035 300.579 18.6835C302.163 18.6355 303.779 18.5635 305.427 18.4675C307.091 18.3715 308.715 18.2595 310.299 18.1315C311.899 17.9875 313.403 17.8275 314.811 17.6515C316.219 17.4595 317.475 17.2595 318.579 17.0515ZM302.691 21.5875L305.187 20.8915C305.475 21.3235 305.747 21.8035 306.003 22.3315C306.275 22.8595 306.467 23.3235 306.579 23.7235L303.915 24.4915C303.835 24.0915 303.675 23.6195 303.435 23.0755C303.195 22.5315 302.947 22.0355 302.691 21.5875ZM309.027 21.0835L311.571 20.5075C311.811 21.0035 312.035 21.5395 312.243 22.1155C312.467 22.6915 312.611 23.1955 312.675 23.6275L309.963 24.2995C309.915 23.8675 309.795 23.3475 309.603 22.7395C309.427 22.1315 309.235 21.5795 309.027 21.0835ZM316.635 20.4595L319.683 21.1795C319.411 21.6915 319.131 22.1955 318.843 22.6915C318.555 23.1875 318.267 23.6595 317.979 24.1075C317.691 24.5395 317.427 24.9235 317.187 25.2595L314.811 24.5875C315.035 24.1875 315.259 23.7555 315.483 23.2915C315.723 22.8115 315.939 22.3235 316.131 21.8275C316.339 21.3315 316.507 20.8755 316.635 20.4595ZM315.411 28.4035H316.011L316.515 28.3075L318.483 29.4835C317.763 31.0515 316.827 32.4115 315.675 33.5635C314.539 34.6995 313.227 35.6595 311.739 36.4435C310.251 37.2275 308.635 37.8675 306.891 38.3635C305.163 38.8595 303.355 39.2355 301.467 39.4915C301.371 39.2515 301.227 38.9635 301.035 38.6275C300.843 38.3075 300.635 37.9875 300.411 37.6675C300.187 37.3635 299.979 37.1155 299.787 36.9235C301.627 36.7315 303.379 36.4435 305.043 36.0595C306.707 35.6755 308.219 35.1715 309.579 34.5475C310.939 33.9075 312.115 33.1235 313.107 32.1955C314.099 31.2675 314.867 30.1635 315.411 28.8835V28.4035ZM306.675 30.3715C307.571 31.5715 308.755 32.6115 310.227 33.4915C311.715 34.3555 313.435 35.0595 315.387 35.6035C317.355 36.1475 319.507 36.5235 321.843 36.7315C321.635 36.9395 321.419 37.2115 321.195 37.5475C320.971 37.8835 320.755 38.2115 320.547 38.5315C320.355 38.8675 320.195 39.1715 320.067 39.4435C317.667 39.1395 315.475 38.6515 313.491 37.9795C311.507 37.3075 309.731 36.4275 308.163 35.3395C306.595 34.2355 305.259 32.9155 304.155 31.3795L306.675 30.3715Z" fill="white"/>
<path d="M278.067 18.6355H294.819V39.3955H291.723V21.5395H281.019V39.4435H278.067V18.6355ZM280.083 26.6995H292.995V29.5315H280.083V26.6995ZM280.083 34.9555H293.019V37.8595H280.083V34.9555Z" fill="white"/>
<path d="M266.382 37.9074C265.438 37.9074 264.598 37.7954 263.862 37.5714C263.126 37.3474 262.47 37.0514 261.894 36.6834C261.318 36.3154 260.806 35.9154 260.358 35.4834L261.99 33.2274C262.326 33.5634 262.686 33.8674 263.07 34.1394C263.47 34.4114 263.902 34.6274 264.366 34.7874C264.846 34.9474 265.358 35.0274 265.902 35.0274C266.51 35.0274 267.046 34.8994 267.51 34.6434C267.99 34.3874 268.366 34.0194 268.638 33.5394C268.91 33.0434 269.046 32.4514 269.046 31.7634C269.046 30.7394 268.766 29.9474 268.206 29.3874C267.662 28.8274 266.942 28.5474 266.046 28.5474C265.534 28.5474 265.094 28.6194 264.726 28.7634C264.358 28.8914 263.91 29.1234 263.382 29.4594L261.774 28.4274L262.254 19.7874H271.758V22.7634H265.302L264.966 26.5314C265.318 26.3714 265.662 26.2514 265.998 26.1714C266.334 26.0914 266.702 26.0514 267.102 26.0514C268.094 26.0514 269.006 26.2514 269.838 26.6514C270.67 27.0354 271.334 27.6434 271.83 28.4754C272.326 29.3074 272.574 30.3714 272.574 31.6674C272.574 32.9794 272.278 34.1074 271.686 35.0514C271.11 35.9794 270.35 36.6914 269.406 37.1874C268.478 37.6674 267.47 37.9074 266.382 37.9074Z" fill="white"/>
<path d="M252.682 37.9073C251.85 37.9073 251.042 37.7313 250.258 37.3793C249.49 37.0273 248.81 36.4913 248.218 35.7713C247.626 35.0353 247.154 34.1073 246.802 32.9873C246.466 31.8513 246.298 30.4993 246.298 28.9313C246.298 27.2833 246.482 25.8593 246.85 24.6593C247.234 23.4593 247.746 22.4833 248.386 21.7313C249.026 20.9633 249.754 20.3953 250.57 20.0273C251.402 19.6593 252.274 19.4753 253.186 19.4753C254.274 19.4753 255.21 19.6753 255.994 20.0753C256.794 20.4593 257.458 20.9313 257.986 21.4913L256.114 23.6033C255.81 23.2513 255.41 22.9473 254.914 22.6913C254.418 22.4353 253.914 22.3073 253.402 22.3073C252.682 22.3073 252.026 22.5153 251.434 22.9313C250.858 23.3473 250.394 24.0353 250.042 24.9953C249.69 25.9553 249.514 27.2673 249.514 28.9313C249.514 30.4673 249.65 31.6993 249.922 32.6273C250.21 33.5393 250.586 34.2033 251.05 34.6193C251.514 35.0353 252.034 35.2433 252.61 35.2433C253.058 35.2433 253.458 35.1233 253.81 34.8833C254.178 34.6273 254.474 34.2593 254.698 33.7793C254.922 33.2833 255.034 32.6753 255.034 31.9553C255.034 31.2513 254.922 30.6753 254.698 30.2273C254.49 29.7793 254.194 29.4433 253.81 29.2193C253.442 28.9953 253.002 28.8833 252.49 28.8833C252.01 28.8833 251.506 29.0353 250.978 29.3393C250.45 29.6273 249.962 30.1393 249.514 30.8753L249.346 28.4993C249.666 28.0513 250.042 27.6673 250.474 27.3473C250.922 27.0273 251.378 26.7873 251.842 26.6273C252.322 26.4673 252.754 26.3873 253.138 26.3873C254.13 26.3873 255.01 26.5873 255.778 26.9873C256.562 27.3873 257.17 27.9953 257.602 28.8113C258.034 29.6273 258.25 30.6753 258.25 31.9553C258.25 33.1713 257.994 34.2273 257.482 35.1233C256.986 36.0033 256.314 36.6913 255.466 37.1873C254.618 37.6673 253.69 37.9073 252.682 37.9073Z" fill="white"/>
<path d="M237.014 37.9073C236.086 37.9073 235.254 37.7953 234.518 37.5713C233.782 37.3633 233.126 37.0753 232.55 36.7073C231.99 36.3233 231.502 35.8993 231.086 35.4353L232.742 33.2033C233.286 33.6993 233.878 34.1313 234.518 34.4993C235.174 34.8513 235.902 35.0273 236.702 35.0273C237.31 35.0273 237.838 34.9313 238.286 34.7393C238.75 34.5473 239.102 34.2673 239.342 33.8993C239.598 33.5313 239.726 33.0833 239.726 32.5553C239.726 31.9633 239.582 31.4593 239.294 31.0433C239.022 30.6113 238.534 30.2833 237.83 30.0593C237.126 29.8353 236.134 29.7233 234.854 29.7233V27.1793C235.942 27.1793 236.798 27.0673 237.422 26.8433C238.046 26.6033 238.486 26.2833 238.742 25.8833C239.014 25.4673 239.15 24.9953 239.15 24.4673C239.15 23.7793 238.942 23.2433 238.526 22.8593C238.11 22.4593 237.526 22.2593 236.774 22.2593C236.15 22.2593 235.566 22.4033 235.022 22.6913C234.494 22.9633 233.966 23.3393 233.438 23.8193L231.614 21.6353C232.398 20.9793 233.222 20.4593 234.086 20.0753C234.95 19.6753 235.902 19.4753 236.942 19.4753C238.078 19.4753 239.078 19.6593 239.942 20.0273C240.822 20.3953 241.502 20.9313 241.982 21.6353C242.462 22.3393 242.702 23.1953 242.702 24.2033C242.702 25.1633 242.446 25.9873 241.934 26.6753C241.422 27.3633 240.694 27.8913 239.75 28.2593V28.3793C240.406 28.5553 240.998 28.8433 241.526 29.2433C242.07 29.6273 242.494 30.1153 242.798 30.7073C243.118 31.2993 243.278 31.9873 243.278 32.7713C243.278 33.8433 242.99 34.7633 242.414 35.5313C241.854 36.2993 241.094 36.8913 240.134 37.3073C239.19 37.7073 238.15 37.9073 237.014 37.9073Z" fill="white"/>
<path d="M214.694 31.8354H221.246V33.8754H214.694V31.8354ZM214.526 28.2594H222.614V37.4994H214.526V35.3634H219.902V30.3954H214.526V28.2594ZM213.326 28.2594H215.942V38.7234H213.326V28.2594ZM209.318 21.4434H215.318V23.3874H209.318V21.4434ZM220.454 21.4434H226.502V23.3874H220.454V21.4434ZM225.326 18.1074H228.23V36.3234C228.23 37.0914 228.142 37.6994 227.966 38.1474C227.79 38.5954 227.462 38.9394 226.982 39.1794C226.486 39.4194 225.878 39.5714 225.158 39.6354C224.454 39.6994 223.582 39.7314 222.542 39.7314C222.51 39.4434 222.446 39.1234 222.35 38.7714C222.254 38.4194 222.142 38.0594 222.014 37.6914C221.886 37.3394 221.75 37.0354 221.606 36.7794C222.038 36.8114 222.462 36.8354 222.878 36.8514C223.31 36.8514 223.694 36.8514 224.03 36.8514C224.382 36.8354 224.622 36.8274 224.75 36.8274C224.974 36.8274 225.126 36.7874 225.206 36.7074C225.286 36.6274 225.326 36.4834 225.326 36.2754V18.1074ZM209.534 18.1074H217.142V26.8194H209.534V24.7554H214.43V20.1954H209.534V18.1074ZM226.862 18.1074V20.1954H221.486V24.8034H226.862V26.8674H218.75V18.1074H226.862ZM207.878 18.1074H210.734V39.7314H207.878V18.1074Z" fill="white"/>
<path d="M191.774 19.7395H204.062V22.2355H191.774V19.7395ZM190.982 24.3475H204.758V26.8675H190.982V24.3475ZM191.03 28.9075H204.59V31.4275H191.03V28.9075ZM196.406 17.1475H199.262V25.9795H196.406V17.1475ZM199.454 26.7475H202.286V36.6835C202.286 37.3715 202.198 37.9075 202.022 38.2915C201.846 38.6915 201.526 39.0035 201.062 39.2275C200.598 39.4355 200.03 39.5635 199.358 39.6115C198.702 39.6755 197.926 39.7075 197.03 39.7075C196.966 39.3075 196.846 38.8435 196.67 38.3155C196.494 37.8035 196.31 37.3635 196.118 36.9955C196.71 37.0115 197.286 37.0275 197.846 37.0435C198.406 37.0435 198.782 37.0435 198.974 37.0435C199.15 37.0435 199.27 37.0195 199.334 36.9715C199.414 36.9075 199.454 36.7875 199.454 36.6115V26.7475ZM191.99 33.0595L194.27 31.7395C194.654 32.1075 195.038 32.5235 195.422 32.9875C195.806 33.4515 196.158 33.9155 196.478 34.3795C196.798 34.8435 197.046 35.2675 197.222 35.6515L194.726 37.1155C194.598 36.7315 194.382 36.3075 194.078 35.8435C193.774 35.3635 193.438 34.8835 193.07 34.4035C192.718 33.9075 192.358 33.4595 191.99 33.0595ZM184.382 18.6595H190.55V35.0755H184.382V32.5075H187.886V21.2275H184.382V18.6595ZM184.526 25.4755H189.182V27.9955H184.526V25.4755ZM183.014 18.6595H185.678V37.2115H183.014V18.6595Z" fill="white"/>
<path d="M174.954 37.5714V26.6514C174.954 26.1394 174.97 25.5314 175.002 24.8274C175.034 24.1074 175.066 23.4834 175.098 22.9554H174.978C174.77 23.4354 174.546 23.9154 174.306 24.3954C174.066 24.8754 173.818 25.3634 173.562 25.8594L170.802 30.2754H180.354V32.9634H167.37V30.5634L173.994 19.7874H178.242V37.5714H174.954Z" fill="white"/>
<path d="M153.261 37.5713V35.5313C154.877 34.0913 156.253 32.7553 157.389 31.5233C158.541 30.2913 159.421 29.1473 160.029 28.0913C160.637 27.0193 160.941 26.0273 160.941 25.1153C160.941 24.5393 160.837 24.0353 160.629 23.6033C160.421 23.1713 160.117 22.8433 159.717 22.6193C159.333 22.3793 158.853 22.2593 158.277 22.2593C157.637 22.2593 157.045 22.4433 156.501 22.8113C155.973 23.1633 155.485 23.5873 155.037 24.0833L153.069 22.1873C153.901 21.2913 154.749 20.6193 155.613 20.1713C156.493 19.7073 157.533 19.4753 158.733 19.4753C159.853 19.4753 160.829 19.7073 161.661 20.1713C162.509 20.6193 163.165 21.2513 163.629 22.0673C164.093 22.8833 164.325 23.8433 164.325 24.9473C164.325 26.0193 164.053 27.1153 163.509 28.2353C162.981 29.3393 162.269 30.4433 161.373 31.5473C160.477 32.6513 159.485 33.7393 158.397 34.8113C158.861 34.7473 159.357 34.6993 159.885 34.6673C160.429 34.6193 160.909 34.5953 161.325 34.5953H165.165V37.5713H153.261Z" fill="white"/>
</g>
<defs>
<filter id="filter0_d_1_187" x="0" y="0" width="573" height="101" filterUnits="userSpaceOnUse" color-interpolation-filters="sRGB">
<feFlood flood-opacity="0" result="BackgroundImageFix"/>
<feColorMatrix in="SourceAlpha" type="matrix" values="0 0 0 0 0 0 0 0 0 0 0 0 0 0 0 0 0 0 127 0" result="hardAlpha"/>
<feOffset dy="4"/>
<feGaussianBlur stdDeviation="5"/>
<feComposite in2="hardAlpha" operator="out"/>
<feColorMatrix type="matrix" values="0 0 0 0 0.239173 0 0 0 0 0.356457 0 0 0 0 0.382259 0 0 0 0.2 0"/>
<feBlend mode="normal" in2="BackgroundImageFix" result="effect1_dropShadow_1_187"/>
<feBlend mode="normal" in="SourceGraphic" in2="effect1_dropShadow_1_187" result="shape"/>
</filter>
<filter id="filter1_f_1_187" x="35.4148" y="11.1125" width="503.641" height="37.3625" filterUnits="userSpaceOnUse" color-interpolation-filters="sRGB">
<feFlood flood-opacity="0" result="BackgroundImageFix"/>
<feBlend mode="normal" in="SourceGraphic" in2="BackgroundImageFix" result="shape"/>
<feGaussianBlur stdDeviation="2" result="effect1_foregroundBlur_1_187"/>
</filter>
</defs>
</svg>
