<svg width="425" height="43" viewBox="0 0 425 43" fill="none" xmlns="http://www.w3.org/2000/svg">
<circle cx="20.5" cy="20.8403" r="20.5" fill="#F6E93C"/>
<path d="M413.156 14.2801C415.356 14.2801 417.316 14.8001 419.036 15.8401C420.796 16.8801 422.176 18.4001 423.176 20.4001C424.176 22.3601 424.676 24.7401 424.676 27.5401C424.676 30.3401 424.076 32.8601 422.876 35.1001C421.716 37.3401 420.056 39.1001 417.896 40.3801C415.736 41.6601 413.256 42.3001 410.456 42.3001C405.376 42.3001 401.616 40.5801 399.176 37.1401C396.736 33.6601 395.516 28.8601 395.516 22.7401C395.516 18.2201 396.196 14.2601 397.556 10.8601C398.956 7.42012 400.936 4.78012 403.496 2.94012C406.056 1.06012 409.076 0.120117 412.556 0.120117C416.036 0.120117 419.036 0.980117 421.556 2.70012L418.436 7.92012C416.596 6.84012 414.696 6.30012 412.736 6.30012C410.296 6.30012 408.336 7.36012 406.856 9.48012C405.376 11.6001 404.536 14.5801 404.336 18.4201C406.736 15.6601 409.676 14.2801 413.156 14.2801ZM410.516 36.0601C412.356 36.0601 413.736 35.3201 414.656 33.8401C415.616 32.3601 416.096 30.3001 416.096 27.6601C416.096 25.0201 415.656 23.1401 414.776 22.0201C413.936 20.8601 412.656 20.2801 410.936 20.2801C408.496 20.2801 406.296 21.5201 404.336 24.0001C404.416 28.3201 404.916 31.4201 405.836 33.3001C406.796 35.1401 408.356 36.0601 410.516 36.0601Z" fill="#F6E93C"/>
<path d="M386.315 7.08015H371.375V16.3801C373.335 15.4601 375.375 15.0001 377.495 15.0001C379.735 15.0001 381.715 15.5201 383.435 16.5601C385.195 17.6001 386.575 19.1201 387.575 21.1201C388.575 23.0801 389.075 25.4001 389.075 28.0801C389.075 30.8801 388.435 33.3601 387.155 35.5201C385.875 37.6401 384.055 39.3001 381.695 40.5001C379.375 41.7001 376.675 42.3001 373.595 42.3001C368.395 42.3001 364.035 40.3401 360.515 36.4201L365.315 31.9201C367.555 34.4801 370.235 35.7601 373.355 35.7601C375.555 35.7601 377.255 35.1001 378.455 33.7801C379.695 32.4601 380.315 30.5601 380.315 28.0801C380.315 23.3201 378.275 20.9401 374.195 20.9401C373.315 20.9401 372.475 21.0601 371.675 21.3001C370.915 21.5001 370.075 21.8601 369.155 22.3801H363.215V0.900146H387.335L386.315 7.08015Z" fill="#F6E93C"/>
<path d="M356.983 25.86V32.34H352.243V41.34H343.963L343.903 32.34H326.803V26.58L338.443 0L345.643 2.7L335.623 25.86H344.023L344.923 15.96H352.243V25.86H356.983Z" fill="#F6E93C"/>
<path d="M306.54 0.120117C309.3 0.120117 311.66 0.580117 313.62 1.50012C315.62 2.38012 317.12 3.60012 318.12 5.16012C319.16 6.72012 319.68 8.46012 319.68 10.3801C319.68 12.8201 318.98 14.8601 317.58 16.5001C316.18 18.1001 314.24 19.2401 311.76 19.9201C314.48 20.2001 316.7 21.1801 318.42 22.8601C320.14 24.5401 321 26.8801 321 29.8801C321 32.2001 320.4 34.3001 319.2 36.1801C318.04 38.0601 316.32 39.5601 314.04 40.6801C311.76 41.7601 309.06 42.3001 305.94 42.3001C300.22 42.3001 295.74 40.3001 292.5 36.3001L297.12 31.8601C298.48 33.2201 299.82 34.2001 301.14 34.8001C302.46 35.4001 303.9 35.7001 305.46 35.7001C307.54 35.7001 309.18 35.1401 310.38 34.0201C311.62 32.9001 312.24 31.3401 312.24 29.3401C312.24 27.1801 311.66 25.6201 310.5 24.6601C309.34 23.7001 307.6 23.2201 305.28 23.2201H301.98L303 17.2201H305.22C307.1 17.2201 308.6 16.7201 309.72 15.7201C310.84 14.7201 311.4 13.3201 311.4 11.5201C311.4 9.96012 310.88 8.74012 309.84 7.86012C308.84 6.98012 307.46 6.54012 305.7 6.54012C304.18 6.54012 302.78 6.82012 301.5 7.38012C300.22 7.94012 298.96 8.82012 297.72 10.0201L293.46 5.40012C297.18 1.88012 301.54 0.120117 306.54 0.120117Z" fill="#F6E93C"/>
<path d="M272.719 25.9202V19.2002H291.319V25.9202H272.719Z" fill="#F6E93C"/>
<path d="M251.496 0.120117C254.296 0.120117 256.716 0.640119 258.756 1.68012C260.796 2.68012 262.336 4.06012 263.376 5.82012C264.456 7.54012 264.996 9.46012 264.996 11.5801C264.996 13.7801 264.516 15.9001 263.556 17.9401C262.636 19.9801 261.036 22.2801 258.756 24.8401C256.516 27.4001 253.236 30.7001 248.916 34.7401H265.896L264.936 41.3401H239.196V35.1601C244.236 30.1201 247.876 26.3601 250.116 23.8801C252.356 21.4001 253.936 19.3001 254.856 17.5801C255.776 15.8601 256.236 14.1001 256.236 12.3001C256.236 10.5801 255.736 9.22012 254.736 8.22012C253.736 7.22012 252.396 6.72012 250.716 6.72012C249.236 6.72012 247.916 7.06012 246.756 7.74012C245.596 8.38012 244.376 9.46012 243.096 10.9801L237.996 6.90012C241.436 2.38012 245.936 0.120117 251.496 0.120117Z" fill="#F6E93C"/>
<path d="M230.193 0.900146V41.3401H221.853V9.30015L212.973 14.7601L209.253 9.00015L222.693 0.900146H230.193Z" fill="#F6E93C"/>
<path d="M189.096 25.9202V19.2002H207.696V25.9202H189.096Z" fill="#F6E93C"/>
<path d="M167.01 0.120117C171.89 0.120117 175.59 1.94012 178.11 5.58012C180.63 9.18012 181.89 14.3801 181.89 21.1801C181.89 27.9801 180.61 33.2001 178.05 36.8401C175.53 40.4801 171.85 42.3001 167.01 42.3001C162.17 42.3001 158.49 40.4801 155.97 36.8401C153.45 33.2001 152.19 27.9801 152.19 21.1801C152.19 14.3801 153.45 9.18012 155.97 5.58012C158.49 1.94012 162.17 0.120117 167.01 0.120117ZM167.01 6.48012C165.57 6.48012 164.41 6.96012 163.53 7.92012C162.65 8.84012 161.99 10.3801 161.55 12.5401C161.15 14.6601 160.95 17.5401 160.95 21.1801C160.95 24.8201 161.15 27.7201 161.55 29.8801C161.99 32.0001 162.65 33.5401 163.53 34.5001C164.41 35.4201 165.57 35.8801 167.01 35.8801C168.45 35.8801 169.61 35.4201 170.49 34.5001C171.37 33.5801 172.03 32.0601 172.47 29.9401C172.91 27.7801 173.13 24.8601 173.13 21.1801C173.13 17.4601 172.91 14.5401 172.47 12.4201C172.03 10.2601 171.37 8.74012 170.49 7.86012C169.61 6.94012 168.45 6.48012 167.01 6.48012Z" fill="#F6E93C"/>
<path d="M131.327 0.120117C134.127 0.120117 136.547 0.640119 138.587 1.68012C140.627 2.68012 142.167 4.06012 143.207 5.82012C144.287 7.54012 144.827 9.46012 144.827 11.5801C144.827 13.7801 144.347 15.9001 143.387 17.9401C142.467 19.9801 140.867 22.2801 138.587 24.8401C136.347 27.4001 133.067 30.7001 128.747 34.7401H145.727L144.767 41.3401H119.027V35.1601C124.067 30.1201 127.707 26.3601 129.947 23.8801C132.187 21.4001 133.767 19.3001 134.687 17.5801C135.607 15.8601 136.067 14.1001 136.067 12.3001C136.067 10.5801 135.567 9.22012 134.567 8.22012C133.567 7.22012 132.227 6.72012 130.547 6.72012C129.067 6.72012 127.747 7.06012 126.587 7.74012C125.427 8.38012 124.207 9.46012 122.927 10.9801L117.827 6.90012C121.267 2.38012 125.767 0.120117 131.327 0.120117Z" fill="#F6E93C"/>
<path d="M110.024 0.900146V41.3401H101.684V9.30015L92.804 14.7601L89.084 9.00015L102.524 0.900146H110.024Z" fill="#F6E93C"/>
<path d="M70.204 0.120117C75.084 0.120117 78.784 1.94012 81.304 5.58012C83.824 9.18012 85.084 14.3801 85.084 21.1801C85.084 27.9801 83.804 33.2001 81.244 36.8401C78.724 40.4801 75.044 42.3001 70.204 42.3001C65.364 42.3001 61.684 40.4801 59.164 36.8401C56.644 33.2001 55.384 27.9801 55.384 21.1801C55.384 14.3801 56.644 9.18012 59.164 5.58012C61.684 1.94012 65.364 0.120117 70.204 0.120117ZM70.204 6.48012C68.764 6.48012 67.604 6.96012 66.724 7.92012C65.844 8.84012 65.184 10.3801 64.744 12.5401C64.344 14.6601 64.144 17.5401 64.144 21.1801C64.144 24.8201 64.344 27.7201 64.744 29.8801C65.184 32.0001 65.844 33.5401 66.724 34.5001C67.604 35.4201 68.764 35.8801 70.204 35.8801C71.644 35.8801 72.804 35.4201 73.684 34.5001C74.564 33.5801 75.224 32.0601 75.664 29.9401C76.104 27.7801 76.324 24.8601 76.324 21.1801C76.324 17.4601 76.104 14.5401 75.664 12.4201C75.224 10.2601 74.564 8.74012 73.684 7.86012C72.804 6.94012 71.644 6.48012 70.204 6.48012Z" fill="#F6E93C"/>
<path fill-rule="evenodd" clip-rule="evenodd" d="M14.6357 6.86223C14.984 6.66547 15.3702 6.54499 15.7686 6.50877C16.1671 6.47254 16.5686 6.52141 16.9467 6.65213C17.3248 6.78284 17.6709 6.99242 17.9618 7.26698C18.2528 7.54153 18.4821 7.87479 18.6346 8.24468L20.4364 12.6161C20.7665 13.4178 20.7091 14.327 20.2817 15.0816L18.4821 18.2597C18.3892 18.4244 18.3404 18.6103 18.3404 18.7993C18.3403 18.9884 18.3889 19.1743 18.4816 19.3391L21.2503 24.2321C21.3439 24.3968 21.4784 24.5344 21.6409 24.6318C21.8033 24.7292 21.9881 24.783 22.1774 24.7881L25.8269 24.8815C26.2546 24.893 26.6741 25.0013 27.054 25.1982C27.4339 25.3951 27.7642 25.6756 28.0201 26.0185L30.8399 29.8125C31.8536 31.1765 31.4425 33.1193 29.9653 33.9539L27.9062 35.1191C26.4325 35.9529 24.5676 35.9815 23.117 34.9699C19.4028 32.3829 16.32 28.9914 14.0982 25.048C11.862 21.1132 10.5421 16.7247 10.2367 12.2092C10.1176 10.4467 11.1029 8.86126 12.5765 8.02739L14.6357 6.86223Z" fill="#32549F"/>
</svg>
