<svg width="261" height="57" viewBox="0 0 261 57" fill="none" xmlns="http://www.w3.org/2000/svg">
<path d="M188.387 9.30055C190.227 9.54055 192.287 9.72055 194.567 9.84055C196.887 9.92055 199.227 9.96055 201.587 9.96055C203.987 9.92055 206.287 9.84055 208.487 9.72055C210.687 9.56055 212.587 9.40055 214.187 9.24055V16.9805C212.347 17.1405 210.327 17.2805 208.127 17.4005C205.927 17.4805 203.667 17.5205 201.347 17.5205C199.027 17.5205 196.747 17.4805 194.507 17.4005C192.307 17.2805 190.267 17.1405 188.387 16.9805V9.30055ZM193.187 34.9206C192.947 35.9206 192.767 36.8206 192.647 37.6206C192.527 38.3806 192.467 39.1606 192.467 39.9606C192.467 40.6006 192.627 41.2006 192.947 41.7606C193.267 42.2806 193.747 42.7406 194.387 43.1406C195.067 43.5006 195.927 43.7805 196.967 43.9805C198.047 44.1405 199.347 44.2206 200.867 44.2206C203.547 44.2206 206.067 44.1005 208.427 43.8605C210.787 43.5805 213.287 43.1805 215.927 42.6605L216.047 50.7606C214.127 51.1206 211.907 51.4006 209.387 51.6006C206.907 51.8006 203.967 51.9006 200.567 51.9006C195.407 51.9006 191.567 51.0405 189.047 49.3205C186.527 47.5605 185.267 45.1406 185.267 42.0606C185.267 40.9006 185.347 39.7005 185.507 38.4605C185.707 37.1805 185.967 35.7806 186.287 34.2606L193.187 34.9206ZM179.147 5.28055C178.987 5.68055 178.807 6.24055 178.607 6.96055C178.407 7.68055 178.207 8.38055 178.007 9.06055C177.847 9.74055 177.727 10.2605 177.647 10.6205C177.527 11.4605 177.327 12.5605 177.047 13.9205C176.807 15.2405 176.547 16.7405 176.267 18.4205C176.027 20.0605 175.787 21.7405 175.547 23.4605C175.307 25.1805 175.107 26.8405 174.947 28.4405C174.827 30.0405 174.767 31.4406 174.767 32.6406C174.767 33.2006 174.767 33.8406 174.767 34.5606C174.807 35.2806 174.887 35.9405 175.007 36.5406C175.287 35.8605 175.587 35.1805 175.907 34.5005C176.227 33.8205 176.547 33.1405 176.867 32.4605C177.187 31.7405 177.467 31.0606 177.707 30.4206L181.427 33.3605C180.867 35.0006 180.287 36.7605 179.687 38.6405C179.127 40.5205 178.607 42.3005 178.127 43.9805C177.687 45.6205 177.347 46.9806 177.107 48.0606C177.027 48.5006 176.947 49.0006 176.867 49.5606C176.827 50.1206 176.807 50.5606 176.807 50.8806C176.807 51.2006 176.807 51.5805 176.807 52.0205C176.847 52.5005 176.887 52.9405 176.927 53.3405L169.967 53.8206C169.367 51.7406 168.827 48.9806 168.347 45.5406C167.867 42.0605 167.627 38.2806 167.627 34.2006C167.627 31.9606 167.727 29.6806 167.927 27.3605C168.127 25.0405 168.367 22.8205 168.647 20.7006C168.927 18.5405 169.187 16.5805 169.427 14.8205C169.707 13.0605 169.947 11.6005 170.147 10.4405C170.227 9.60055 170.327 8.66055 170.447 7.62055C170.607 6.54055 170.707 5.52055 170.747 4.56055L179.147 5.28055Z" fill="url(#paint0_linear_2049_481)"/>
<path d="M134.387 25.2L140.807 27.24C139.527 29.56 137.967 31.82 136.127 34.02C134.287 36.18 132.287 38.16 130.127 39.96C128.007 41.76 125.847 43.32 123.647 44.64C123.367 44.2 122.947 43.64 122.387 42.96C121.827 42.28 121.227 41.6 120.587 40.92C119.987 40.24 119.467 39.7 119.027 39.3C122.147 37.74 125.087 35.74 127.847 33.3C130.607 30.82 132.787 28.12 134.387 25.2ZM135.167 0L141.407 3.24C139.807 5.12 138.147 7.02 136.427 8.94C134.707 10.82 133.127 12.4 131.687 13.68L126.767 10.86C127.687 9.9 128.667 8.8 129.707 7.56C130.747 6.32 131.747 5.04 132.707 3.72C133.667 2.4 134.487 1.16 135.167 0ZM146.327 4.5L152.747 7.98C150.627 10.22 148.327 12.54 145.847 14.94C143.367 17.3 140.867 19.56 138.347 21.72C135.827 23.84 133.447 25.7 131.207 27.3L126.407 24.18C128.087 22.9 129.827 21.48 131.627 19.92C133.427 18.32 135.207 16.64 136.967 14.88C138.767 13.08 140.467 11.3 142.067 9.54C143.667 7.78 145.087 6.1 146.327 4.5ZM121.067 11.22L125.327 6.6C126.807 7.52 128.347 8.56 129.947 9.72C131.587 10.84 133.127 12 134.567 13.2C136.007 14.36 137.147 15.46 137.987 16.5L133.367 21.72C132.567 20.68 131.467 19.54 130.067 18.3C128.707 17.06 127.227 15.82 125.627 14.58C124.067 13.34 122.547 12.22 121.067 11.22ZM145.727 17.94L151.247 14.88C152.447 16.2 153.647 17.64 154.847 19.2C156.047 20.76 157.147 22.32 158.147 23.88C159.147 25.4 159.927 26.8 160.487 28.08L154.427 31.5C153.947 30.26 153.247 28.86 152.327 27.3C151.407 25.7 150.367 24.08 149.207 22.44C148.047 20.8 146.887 19.3 145.727 17.94ZM119.807 22.2C122.727 22.16 126.087 22.12 129.887 22.08C133.687 22.04 137.707 21.98 141.947 21.9C146.227 21.82 150.487 21.74 154.727 21.66L154.487 27.42C150.447 27.58 146.367 27.74 142.247 27.9C138.167 28.02 134.247 28.14 130.487 28.26C126.727 28.34 123.367 28.42 120.407 28.5L119.807 22.2ZM132.287 35.1C133.967 37.78 136.167 40.18 138.887 42.3C141.607 44.38 144.787 46.12 148.427 47.52C152.107 48.92 156.127 49.96 160.487 50.64C159.967 51.16 159.427 51.78 158.867 52.5C158.347 53.22 157.847 53.96 157.367 54.72C156.887 55.48 156.487 56.18 156.167 56.82C151.607 55.9 147.447 54.54 143.687 52.74C139.967 50.98 136.667 48.78 133.787 46.14C130.947 43.5 128.527 40.42 126.527 36.9L132.287 35.1ZM133.787 31.5H149.927V36.84H129.047L133.787 31.5ZM147.647 31.5H148.967L150.167 31.2L154.667 33.24C153.307 36.6 151.547 39.58 149.387 42.18C147.267 44.74 144.807 46.98 142.007 48.9C139.207 50.82 136.147 52.42 132.827 53.7C129.547 55.02 126.087 56.08 122.447 56.88C122.127 56 121.627 54.94 120.947 53.7C120.307 52.5 119.667 51.54 119.027 50.82C122.307 50.22 125.447 49.42 128.447 48.42C131.447 47.38 134.207 46.1 136.727 44.58C139.287 43.02 141.487 41.24 143.327 39.24C145.207 37.2 146.647 34.94 147.647 32.46V31.5ZM115.907 13.2L122.207 15.54C120.927 17.94 119.407 20.36 117.647 22.8C115.927 25.24 114.087 27.54 112.127 29.7C110.167 31.86 108.207 33.74 106.247 35.34C106.047 34.82 105.707 34.14 105.227 33.3C104.787 32.46 104.307 31.62 103.787 30.78C103.307 29.9 102.867 29.2 102.467 28.68C104.147 27.4 105.807 25.94 107.447 24.3C109.127 22.66 110.687 20.9 112.127 19.02C113.607 17.1 114.867 15.16 115.907 13.2ZM114.827 0.24L121.187 2.82C119.947 4.54 118.507 6.3 116.867 8.1C115.267 9.9 113.607 11.62 111.887 13.26C110.167 14.9 108.467 16.32 106.787 17.52C106.467 17.04 106.067 16.48 105.587 15.84C105.147 15.2 104.687 14.56 104.207 13.92C103.767 13.24 103.367 12.7 103.007 12.3C104.447 11.26 105.907 10.06 107.387 8.7C108.907 7.34 110.307 5.92 111.587 4.44C112.907 2.96 113.987 1.56 114.827 0.24ZM110.927 26.16L117.047 20.04L117.647 20.28V56.7H110.927V26.16Z" fill="url(#paint1_linear_2049_481)"/>
<path d="M58.6069 13.6202V16.0802H84.1669V13.6202H58.6069ZM58.6069 6.84016V9.24015H84.1669V6.84016H58.6069ZM51.7069 2.16016H91.3669V20.7602H51.7069V2.16016ZM44.6269 22.9202H98.2669V28.6202H44.6269V22.9202ZM72.1669 30.8402H91.7869V36.3602H72.1669V30.8402ZM53.8669 31.0202H67.4869V36.0002H53.8669V31.0202ZM53.8669 38.5802H67.4869V43.5602H53.8669V38.5802ZM79.4869 35.8202C81.1669 39.5002 83.7269 42.6602 87.1669 45.3002C90.6469 47.9402 94.7869 49.8202 99.5869 50.9402C99.1469 51.3802 98.6469 51.9202 98.0869 52.5602C97.5269 53.2402 97.0069 53.9402 96.5269 54.6602C96.0469 55.3802 95.6469 56.0202 95.3269 56.5802C90.1669 55.0202 85.7869 52.6202 82.1869 49.3802C78.6269 46.1402 75.8069 42.1602 73.7269 37.4402L79.4869 35.8202ZM89.6269 30.8402H90.9469L92.1469 30.6602L96.5869 32.3402C95.3869 36.5002 93.6869 40.1602 91.4869 43.3202C89.2869 46.4402 86.6869 49.0802 83.6869 51.2402C80.7269 53.4402 77.4469 55.2202 73.8469 56.5802C73.4469 55.7002 72.8669 54.7002 72.1069 53.5802C71.3469 52.5002 70.6269 51.6202 69.9469 50.9402C72.2669 50.2202 74.4669 49.2602 76.5469 48.0602C78.6669 46.8602 80.5869 45.4402 82.3069 43.8002C84.0269 42.1602 85.5069 40.3402 86.7469 38.3402C88.0269 36.3402 88.9869 34.2002 89.6269 31.9202V30.8402ZM44.0869 47.2802C46.1269 47.1602 48.4069 47.0202 50.9269 46.8602C53.4469 46.6602 56.1069 46.4602 58.9069 46.2602C61.7069 46.0202 64.5269 45.7802 67.3669 45.5402V51.4202C63.3269 51.7802 59.3069 52.1402 55.3069 52.5002C51.3469 52.9002 47.7869 53.2402 44.6269 53.5202L44.0869 47.2802ZM63.8269 24.7802H70.6669V56.6402H63.8269V24.7802ZM49.3669 24.9002H55.9069V49.4402H49.3669V24.9002Z" fill="url(#paint2_linear_2049_481)"/>
<path opacity="0.6" d="M5.88 24.52C4 24.52 2.54 23.82 1.5 22.42C0.5 20.98 0 18.96 0 16.36C0 13.28 0.759999 10.6 2.28 8.32C3.8 6 6.06 4.06 9.06 2.5L11.1 6.4C9.14001 7.44 7.66 8.64 6.66 10C5.7 11.36 5.22 13.04 5.22 15.04L5.64 20.56L2.46 16.3C2.98 15.86 3.52 15.52 4.08 15.28C4.64 15 5.24 14.86 5.88 14.86C7.2 14.86 8.32001 15.28 9.24001 16.12C10.16 16.92 10.62 18.04 10.62 19.48C10.62 21 10.18 22.22 9.3 23.14C8.42 24.06 7.28 24.52 5.88 24.52ZM20.88 24.52C19 24.52 17.54 23.82 16.5 22.42C15.5 20.98 15 18.96 15 16.36C15 13.28 15.76 10.6 17.28 8.32C18.8 6 21.06 4.06 24.06 2.5L26.1 6.4C24.14 7.44 22.68 8.64 21.72 10C20.76 11.36 20.28 13.04 20.28 15.04L20.64 20.56L17.46 16.3C17.98 15.86 18.52 15.52 19.08 15.28C19.64 15 20.24 14.86 20.88 14.86C22.2 14.86 23.32 15.28 24.24 16.12C25.16 16.92 25.62 18.04 25.62 19.48C25.62 21 25.18 22.22 24.3 23.14C23.42 24.06 22.28 24.52 20.88 24.52Z" fill="url(#paint3_linear_2049_481)"/>
<path opacity="0.6" d="M237 23.7998L234.96 19.9598C236.92 18.8798 238.38 17.6598 239.34 16.2998C240.34 14.9398 240.84 13.2598 240.84 11.2598L240.36 5.79984L243.6 10.0598C243.12 10.4598 242.58 10.7998 241.98 11.0798C241.42 11.3198 240.82 11.4398 240.18 11.4398C238.9 11.4398 237.78 11.0198 236.82 10.1798C235.86 9.33984 235.38 8.21984 235.38 6.81984C235.38 5.25984 235.82 4.03984 236.7 3.15985C237.62 2.27984 238.78 1.83984 240.18 1.83984C242.1 1.83984 243.54 2.53984 244.5 3.93984C245.5 5.33984 246 7.31984 246 9.87984C246 12.9598 245.24 15.6798 243.72 18.0398C242.24 20.3598 240 22.2798 237 23.7998ZM252 23.7998L249.9 19.9598C251.9 18.8798 253.38 17.6598 254.34 16.2998C255.34 14.9398 255.84 13.2598 255.84 11.2598L255.36 5.79984L258.6 10.0598C258.12 10.4598 257.58 10.7998 256.98 11.0798C256.42 11.3198 255.82 11.4398 255.18 11.4398C253.9 11.4398 252.78 11.0198 251.82 10.1798C250.86 9.33984 250.38 8.21984 250.38 6.81984C250.38 5.25984 250.82 4.03984 251.7 3.15985C252.62 2.27984 253.78 1.83984 255.18 1.83984C257.1 1.83984 258.54 2.53984 259.5 3.93984C260.5 5.33984 261 7.31984 261 9.87984C261 12.9598 260.24 15.6798 258.72 18.0398C257.24 20.3598 255 22.2798 252 23.7998Z" fill="url(#paint4_linear_2049_481)"/>
<defs>
<linearGradient id="paint0_linear_2049_481" x1="167.627" y1="29.1905" x2="216.047" y2="29.1905" gradientUnits="userSpaceOnUse">
<stop stop-color="#FFBB55"/>
<stop offset="0.341346" stop-color="#E25E00"/>
</linearGradient>
<linearGradient id="paint1_linear_2049_481" x1="102.467" y1="28.44" x2="160.487" y2="28.44" gradientUnits="userSpaceOnUse">
<stop stop-color="#FFBB55"/>
<stop offset="0.341346" stop-color="#E25E00"/>
</linearGradient>
<linearGradient id="paint2_linear_2049_481" x1="44.0869" y1="29.4002" x2="99.5869" y2="29.4002" gradientUnits="userSpaceOnUse">
<stop stop-color="#FFBB55"/>
<stop offset="0.341346" stop-color="#E25E00"/>
</linearGradient>
<linearGradient id="paint3_linear_2049_481" x1="0" y1="13.51" x2="26.1" y2="13.51" gradientUnits="userSpaceOnUse">
<stop stop-color="#FFBB55"/>
<stop offset="0.341346" stop-color="#E25E00"/>
</linearGradient>
<linearGradient id="paint4_linear_2049_481" x1="234.96" y1="12.8198" x2="261" y2="12.8198" gradientUnits="userSpaceOnUse">
<stop stop-color="#FFBB55"/>
<stop offset="0.341346" stop-color="#E25E00"/>
</linearGradient>
</defs>
</svg>
